<?xml version="1.0" encoding="UTF-8"?>
<!DOCTYPE svg PUBLIC "-//W3C//DTD SVG 1.1//EN" "http://www.w3.org/Graphics/SVG/1.1/DTD/svg11.dtd">
<svg xmlns="http://www.w3.org/2000/svg" version="1.1" width="487px" height="569px" style="shape-rendering:geometricPrecision; text-rendering:geometricPrecision; image-rendering:optimizeQuality; fill-rule:evenodd; clip-rule:evenodd" xmlns:xlink="http://www.w3.org/1999/xlink">
<g><path style="opacity:0.99" fill="#124f41" d="M 282.5,-0.5 C 283.833,-0.5 285.167,-0.5 286.5,-0.5C 285.748,2.74729 285.248,6.08062 285,9.5C 284.5,25.1631 284.333,40.8298 284.5,56.5C 287.833,56.5 291.167,56.5 294.5,56.5C 293.364,37.495 293.364,18.495 294.5,-0.5C 295.833,-0.5 297.167,-0.5 298.5,-0.5C 297.565,18.1466 297.565,36.8133 298.5,55.5C 292.226,59.4413 286.56,64.1079 281.5,69.5C 278.833,69.5 276.167,69.5 273.5,69.5C 276.925,66.2709 278.258,62.2709 277.5,57.5C 278.496,57.5858 279.329,57.2524 280,56.5C 280.457,37.8297 280.957,19.1631 281.5,0.5C 282.167,0.5 282.5,0.166667 282.5,-0.5 Z"/></g>
<g><path style="opacity:0.989" fill="#2b7c3d" d="M 286.5,-0.5 C 289.167,-0.5 291.833,-0.5 294.5,-0.5C 293.364,18.495 293.364,37.495 294.5,56.5C 291.167,56.5 287.833,56.5 284.5,56.5C 284.333,40.8298 284.5,25.1631 285,9.5C 285.248,6.08062 285.748,2.74729 286.5,-0.5 Z"/></g>
<g><path style="opacity:0.988" fill="#2a7a3d" d="M 298.5,-0.5 C 301.5,-0.5 304.5,-0.5 307.5,-0.5C 306.927,17.6075 307.927,35.6075 310.5,53.5C 310.5,54.1667 310.167,54.5 309.5,54.5C 308.833,54.5 308.167,54.5 307.5,54.5C 304.455,54.5079 301.455,54.8413 298.5,55.5C 297.565,36.8133 297.565,18.1466 298.5,-0.5 Z"/></g>
<g><path style="opacity:0.988" fill="#0b4f40" d="M 307.5,-0.5 C 308.833,-0.5 310.167,-0.5 311.5,-0.5C 311.615,17.551 312.615,35.551 314.5,53.5C 313.167,53.5 311.833,53.5 310.5,53.5C 307.927,35.6075 306.927,17.6075 307.5,-0.5 Z"/></g>
<g><path style="opacity:0.986" fill="#2c7c3d" d="M 311.5,-0.5 C 313.833,-0.5 316.167,-0.5 318.5,-0.5C 319.997,17.4361 321.33,35.4361 322.5,53.5C 319.833,53.5 317.167,53.5 314.5,53.5C 312.615,35.551 311.615,17.551 311.5,-0.5 Z"/></g>
<g><path style="opacity:0.995" fill="#0d4e41" d="M 318.5,-0.5 C 319.167,-0.5 319.833,-0.5 320.5,-0.5C 322.353,2.20835 323.353,5.20835 323.5,8.5C 324.653,22.8218 325.653,37.1552 326.5,51.5C 329.903,51.1489 333.237,50.4822 336.5,49.5C 353.809,60.4922 371.475,70.9922 389.5,81C 397.373,87.3725 404.373,94.5392 410.5,102.5C 409.599,103.29 408.932,104.29 408.5,105.5C 397.499,112.503 389.833,122.17 385.5,134.5C 386.822,134.67 387.989,134.337 389,133.5C 393.172,123.83 399.672,116.164 408.5,110.5C 408.769,114.931 408.436,119.265 407.5,123.5C 396.358,131.629 390.025,142.462 388.5,156C 389.332,156.688 389.998,156.521 390.5,155.5C 393.74,144.286 399.74,134.953 408.5,127.5C 409.833,132.5 409.833,137.5 408.5,142.5C 401.415,152.01 397.081,162.677 395.5,174.5C 396.5,174.5 397.5,174.5 398.5,174.5C 400.236,164.697 403.903,155.697 409.5,147.5C 411.554,150.008 412.554,153.008 412.5,156.5C 406.414,166.176 403.747,176.843 404.5,188.5C 405.5,188.5 406.5,188.5 407.5,188.5C 407.452,179.027 409.452,170.027 413.5,161.5C 415.329,164.287 416.329,167.454 416.5,171C 415.023,179.212 415.189,187.379 417,195.5C 417.414,195.957 417.914,196.291 418.5,196.5C 419.33,190.528 419.83,184.528 420,178.5C 421.806,182.918 423.806,187.251 426,191.5C 427.11,193.037 428.61,193.703 430.5,193.5C 428.536,188.896 426.536,184.229 424.5,179.5C 424.667,179.167 424.833,178.833 425,178.5C 427.46,179.958 429.627,181.791 431.5,184C 432.448,184.483 433.448,184.649 434.5,184.5C 434.649,183.448 434.483,182.448 434,181.5C 429.967,177.132 425.634,173.132 421,169.5C 419.659,166.978 418.826,164.311 418.5,161.5C 424.96,166.125 430.626,171.625 435.5,178C 436.965,178.601 437.965,178.101 438.5,176.5C 432.769,168.435 425.769,161.768 417.5,156.5C 416.525,153.933 415.858,151.267 415.5,148.5C 423.87,153.694 431.537,159.861 438.5,167C 439.448,167.483 440.448,167.649 441.5,167.5C 435.375,157.082 426.708,149.415 415.5,144.5C 413.874,141.754 413.207,138.754 413.5,135.5C 422.825,141.311 431.159,148.478 438.5,157C 439.448,157.483 440.448,157.649 441.5,157.5C 452.025,185.087 460.359,213.42 466.5,242.5C 465.493,245.322 464.66,248.322 464,251.5C 462.485,253.677 460.985,255.844 459.5,258C 462.234,263.691 461.901,269.191 458.5,274.5C 460.094,277.937 461.927,281.27 464,284.5C 464.617,287.035 464.117,289.368 462.5,291.5C 467.556,295.945 468.556,301.112 465.5,307C 465.639,308.301 466.305,309.134 467.5,309.5C 466.833,310.5 466.167,311.5 465.5,312.5C 462.496,308.394 460.662,303.727 460,298.5C 455.681,298.499 452.681,296.499 451,292.5C 449.416,288.575 448.083,284.575 447,280.5C 446.439,279.978 445.772,279.645 445,279.5C 438.859,284.139 433.859,283.139 430,276.5C 428.853,273.382 427.52,270.382 426,267.5C 423.167,269.667 420.333,271.833 417.5,274C 412.833,274.667 408.167,274.667 403.5,274C 400.242,272.533 396.908,271.367 393.5,270.5C 393.491,272.308 393.991,273.975 395,275.5C 401.172,281.804 403.172,289.138 401,297.5C 399.167,299.333 397.333,301.167 395.5,303C 398.304,305.73 401.638,307.73 405.5,309C 411.178,313.024 411.844,317.691 407.5,323C 407.905,323.945 408.572,324.612 409.5,325C 413.305,325.534 416.971,326.534 420.5,328C 421.701,328.903 422.535,330.069 423,331.5C 422.869,334.095 423.036,336.595 423.5,339C 428.464,339.912 433.464,340.412 438.5,340.5C 442.528,350.679 449.862,354.179 460.5,351C 463.333,349.5 465.5,347.333 467,344.5C 467.607,340.463 467.44,336.463 466.5,332.5C 468.067,333.681 468.901,335.347 469,337.5C 470.883,336.347 471.716,334.681 471.5,332.5C 475.134,333.758 478.8,333.758 482.5,332.5C 482.5,333.167 482.5,333.833 482.5,334.5C 469.982,335.532 466.149,341.865 471,353.5C 474.477,357.822 478.977,359.822 484.5,359.5C 485.13,365.934 485.797,372.267 486.5,378.5C 486.5,392.833 486.5,407.167 486.5,421.5C 484.68,441.052 482.513,460.719 480,480.5C 478.717,490.407 476.884,500.074 474.5,509.5C 472.977,507.133 471.644,504.633 470.5,502C 473.213,497.079 475.213,491.913 476.5,486.5C 475.178,486.33 474.011,486.663 473,487.5C 471.059,491.048 469.393,494.714 468,498.5C 465.246,493.992 462.746,489.326 460.5,484.5C 468.193,475.448 473.527,465.115 476.5,453.5C 476.378,451.006 475.378,450.339 473.5,451.5C 471.009,461.829 466.342,470.996 459.5,479C 458.668,479.688 458.002,479.521 457.5,478.5C 455.636,474.239 453.969,469.906 452.5,465.5C 455.985,459.872 459.485,454.205 463,448.5C 465.34,442.981 467.173,437.314 468.5,431.5C 467.178,431.33 466.011,431.663 465,432.5C 461.915,442.67 457.248,452.003 451,460.5C 449.275,456.774 447.775,452.941 446.5,449C 457.009,438.489 463.009,425.989 464.5,411.5C 463.522,411.977 462.689,412.643 462,413.5C 459.024,425.12 453.691,435.453 446,444.5C 443.971,440.347 442.971,436.014 443,431.5C 451.671,421.001 457.171,409.001 459.5,395.5C 458.178,395.33 457.011,395.663 456,396.5C 453.333,403.833 450.667,411.167 448,418.5C 446.311,421.891 444.144,424.891 441.5,427.5C 439.65,424.385 439.15,421.052 440,417.5C 445.495,409.356 448.328,400.522 448.5,391C 447.668,390.312 447.002,390.479 446.5,391.5C 444.694,396.055 443.194,400.721 442,405.5C 438.171,414.853 436.504,414.186 437,403.5C 435.989,402.663 434.822,402.33 433.5,402.5C 433.817,405.572 433.484,408.572 432.5,411.5C 427.093,405.753 422.427,399.42 418.5,392.5C 417.28,392.887 416.613,393.72 416.5,395C 421.115,404.289 427.282,412.456 435,419.5C 436.632,422.795 437.132,426.128 436.5,429.5C 428.646,423.813 421.979,416.979 416.5,409C 415.552,408.517 414.552,408.351 413.5,408.5C 413.491,410.308 413.991,411.975 415,413.5C 421.726,422.061 429.559,429.394 438.5,435.5C 440.329,439.11 440.996,442.777 440.5,446.5C 429.823,440.661 420.823,432.828 413.5,423C 412.552,422.517 411.552,422.351 410.5,422.5C 410.608,424.783 411.441,426.783 413,428.5C 417.833,433.333 422.667,438.167 427.5,443C 433,446.5 438.5,450 444,453.5C 445.318,456.43 445.985,459.43 446,462.5C 433.875,456.515 423.042,448.681 413.5,439C 411.333,438.5 410.5,439.333 411,441.5C 421.366,452.598 433.532,461.098 447.5,467C 450.399,471.351 452.732,476.018 454.5,481C 454.167,481.5 453.833,482 453.5,482.5C 439.887,476.724 428.054,468.391 418,457.5C 416.635,458.593 416.301,459.926 417,461.5C 427.981,473.406 441.148,481.906 456.5,487C 459.563,491.069 462.23,495.402 464.5,500C 458.419,499.473 452.753,497.473 447.5,494C 440.776,490.3 434.776,485.633 429.5,480C 428.552,479.517 427.552,479.351 426.5,479.5C 426.351,480.552 426.517,481.552 427,482.5C 438.277,494.099 451.777,501.932 467.5,506C 469.228,508.582 471.561,510.082 474.5,510.5C 473.372,516.141 472.372,521.808 471.5,527.5C 469.833,527.5 468.167,527.5 466.5,527.5C 466.521,534.374 467.187,541.041 468.5,547.5C 467.871,550.397 466.871,553.064 465.5,555.5C 464.044,546.595 463.044,537.595 462.5,528.5C 459.5,528.5 456.5,528.5 453.5,528.5C 453.798,540.835 454.132,553.168 454.5,565.5C 453.292,566.234 451.959,566.567 450.5,566.5C 450.5,553.833 450.5,541.167 450.5,528.5C 447.167,528.5 443.833,528.5 440.5,528.5C 440.645,541.53 441.312,554.53 442.5,567.5C 441.167,567.5 439.833,567.5 438.5,567.5C 437.63,554.845 436.797,542.178 436,529.5C 432.27,528.54 428.437,528.207 424.5,528.5C 425.446,541.481 426.113,554.481 426.5,567.5C 425.167,567.5 423.833,567.5 422.5,567.5C 421.646,554.52 421.313,541.52 421.5,528.5C 418.214,527.793 414.881,527.46 411.5,527.5C 411.5,540.167 411.5,552.833 411.5,565.5C 410.041,565.567 408.708,565.234 407.5,564.5C 407.5,552.167 407.5,539.833 407.5,527.5C 405.5,527.5 403.5,527.5 401.5,527.5C 400.336,514.206 399.502,500.872 399,487.5C 397.884,440.825 396.55,394.158 395,347.5C 392.084,396.661 385.584,445.328 375.5,493.5C 374.883,493.611 374.383,493.944 374,494.5C 373.184,499.684 373.35,504.684 374.5,509.5C 373.538,513.395 372.204,517.061 370.5,520.5C 370.5,511.833 370.5,503.167 370.5,494.5C 367.426,494.873 364.426,495.539 361.5,496.5C 361.5,509.167 361.5,521.833 361.5,534.5C 360.486,535.674 359.153,536.34 357.5,536.5C 357.5,523.5 357.5,510.5 357.5,497.5C 353.864,497.594 350.364,498.261 347,499.5C 346.5,512.496 346.333,525.496 346.5,538.5C 345.791,539.404 344.791,539.737 343.5,539.5C 343.5,526.167 343.5,512.833 343.5,499.5C 339.881,500.244 336.215,500.577 332.5,500.5C 332.361,513.85 332.694,527.183 333.5,540.5C 332.292,541.234 330.959,541.567 329.5,541.5C 328.555,528.203 328.222,514.87 328.5,501.5C 324.147,501.765 319.813,502.265 315.5,503C 314.978,503.561 314.645,504.228 314.5,505C 315.544,517.465 316.211,529.965 316.5,542.5C 315.167,542.5 313.833,542.5 312.5,542.5C 311.557,529.537 311.223,516.537 311.5,503.5C 306.833,503.5 302.167,503.5 297.5,503.5C 297.453,516.845 297.786,530.179 298.5,543.5C 297.167,543.5 295.833,543.5 294.5,543.5C 294.416,530.492 294.083,517.492 293.5,504.5C 289.833,504.5 286.167,504.5 282.5,504.5C 282.203,517.883 282.536,531.216 283.5,544.5C 282.167,544.5 280.833,544.5 279.5,544.5C 278.577,531.53 278.244,518.53 278.5,505.5C 274.5,505.5 270.5,505.5 266.5,505.5C 266.5,518.5 266.5,531.5 266.5,544.5C 265.167,544.5 263.833,544.5 262.5,544.5C 262.5,531.5 262.5,518.5 262.5,505.5C 258.5,505.5 254.5,505.5 250.5,505.5C 250.339,518.518 250.673,531.518 251.5,544.5C 250.167,544.5 248.833,544.5 247.5,544.5C 246.577,531.53 246.244,518.53 246.5,505.5C 243.167,505.5 239.833,505.5 236.5,505.5C 237.138,518.672 238.138,531.672 239.5,544.5C 238.081,545.451 236.415,545.784 234.5,545.5C 233.993,532.172 233.66,518.839 233.5,505.5C 230.5,505.5 227.5,505.5 224.5,505.5C 224.389,518.848 224.723,532.181 225.5,545.5C 224.167,545.5 222.833,545.5 221.5,545.5C 220.92,532.174 220.42,518.84 220,505.5C 216.27,504.54 212.437,504.207 208.5,504.5C 208.977,517.843 209.644,531.177 210.5,544.5C 209.167,544.5 207.833,544.5 206.5,544.5C 205.577,531.177 204.744,517.844 204,504.5C 200.943,503.549 197.777,503.216 194.5,503.5C 195.388,516.812 196.055,530.145 196.5,543.5C 195.167,543.5 193.833,543.5 192.5,543.5C 191.694,530.183 191.361,516.85 191.5,503.5C 186.518,502.947 181.518,502.613 176.5,502.5C 176.438,515.875 177.105,529.208 178.5,542.5C 177.292,541.766 175.959,541.433 174.5,541.5C 173.746,528.504 172.913,515.504 172,502.5C 167.934,501.419 163.767,500.752 159.5,500.5C 160.669,513.849 162.002,527.183 163.5,540.5C 162.167,540.5 160.833,540.5 159.5,540.5C 158.004,528.54 156.837,516.54 156,504.5C 155.801,502.598 154.967,501.098 153.5,500C 150.905,499.774 148.405,499.274 146,498.5C 146.175,511.904 147.342,525.237 149.5,538.5C 147.883,537.962 146.216,537.629 144.5,537.5C 143.609,524.481 142.443,511.481 141,498.5C 137.35,496.954 133.516,496.287 129.5,496.5C 131.26,509.489 132.927,522.489 134.5,535.5C 133.167,535.167 131.833,534.833 130.5,534.5C 128.395,521.22 126.728,507.887 125.5,494.5C 121.207,493.344 116.874,492.344 112.5,491.5C 107.372,469.65 102.872,447.65 99,425.5C 95.4033,398.2 92.07,370.867 89,343.5C 88.7665,405.839 84.2665,467.839 75.5,529.5C 72.1667,529.5 68.8333,529.5 65.5,529.5C 65.5474,541.876 66.2141,554.21 67.5,566.5C 66.0413,566.433 64.7079,566.766 63.5,567.5C 62.8538,556.847 62.3538,546.18 62,535.5C 61.8078,533.423 61.3078,531.423 60.5,529.5C 57.1884,528.382 53.8551,528.382 50.5,529.5C 52.1985,542.121 53.5319,554.787 54.5,567.5C 53.1667,567.5 51.8333,567.5 50.5,567.5C 49.232,555.153 47.8987,542.819 46.5,530.5C 44.5,530.5 42.5,530.5 40.5,530.5C 42.3793,542.775 43.7126,555.109 44.5,567.5C 43.1667,567.5 41.8333,567.5 40.5,567.5C 39.1669,554.835 37.8335,542.168 36.5,529.5C 34.1667,529.5 31.8333,529.5 29.5,529.5C 31.097,542.136 32.4303,554.803 33.5,567.5C 32.2921,566.766 30.9587,566.433 29.5,566.5C 28.5173,554.489 27.3507,542.489 26,530.5C 24.5993,528.808 22.7659,528.141 20.5,528.5C 21.636,540.86 22.9693,553.194 24.5,565.5C 22.597,565.204 20.9303,564.537 19.5,563.5C 18.8961,551.462 17.8961,539.462 16.5,527.5C 14.8333,527.5 13.1667,527.5 11.5,527.5C 9.09594,513.267 7.42927,498.933 6.5,484.5C 9.17102,482.163 12.171,480.329 15.5,479C 20.913,478.694 26.2464,479.027 31.5,480C 32.2927,475.769 33.4594,471.602 35,467.5C 35.9025,466.299 37.0692,465.465 38.5,465C 41.7577,464.788 44.9243,464.288 48,463.5C 47.0975,455.877 49.2642,449.377 54.5,444C 57.334,443.955 59.834,443.121 62,441.5C 61.95,437.988 61.45,434.488 60.5,431C 61.28,425.054 64.6133,421.554 70.5,420.5C 69.1799,414.224 68.6799,407.891 69,401.5C 71.2701,396.902 73.9368,392.569 77,388.5C 78.0086,386.975 78.5086,385.308 78.5,383.5C 76.8008,383.34 75.1341,383.506 73.5,384C 66.6598,391.118 58.6598,392.951 49.5,389.5C 46.6826,391.817 44.0159,394.317 41.5,397C 39.1667,397.667 36.8333,397.667 34.5,397C 31.4658,395.626 28.4658,394.626 25.5,394C 22.5727,400.258 18.2394,405.258 12.5,409C 8.7745,409.76 5.10784,409.593 1.5,408.5C 0.501964,399.859 0.168631,391.192 0.5,382.5C 0.5,380.167 0.5,377.833 0.5,375.5C 1.57292,373.347 1.57292,371.347 0.5,369.5C 1.57884,300.611 12.2455,233.278 32.5,167.5C 34.6801,169.863 36.3468,172.53 37.5,175.5C 31.8208,180.854 30.3208,187.187 33,194.5C 39,199.833 45,199.833 51,194.5C 54.6597,188.284 54.1597,182.451 49.5,177C 46.7935,175.092 43.7935,174.259 40.5,174.5C 39.4005,169.856 37.7339,165.522 35.5,161.5C 36.929,155.871 38.929,150.537 41.5,145.5C 45.4356,153.053 50.1023,160.053 55.5,166.5C 52.5678,172.206 52.9012,177.706 56.5,183C 68.9234,186.428 75.2568,181.595 75.5,168.5C 80.2797,169.359 83.7797,167.692 86,163.5C 86.7466,160.076 86.58,156.743 85.5,153.5C 87.1667,152.833 88.8333,152.167 90.5,151.5C 94.0791,151.089 96.2458,149.089 97,145.5C 99.9628,134.465 95.7962,129.632 84.5,131C 82.34,132.332 80.34,133.832 78.5,135.5C 68.7581,132.365 58.7581,130.698 48.5,130.5C 57.4381,109.958 71.1047,93.2912 89.5,80.5C 90.9116,83.8712 91.9116,87.3712 92.5,91C 98.1395,90.6156 103.806,90.6156 109.5,91C 115.37,92.7037 119.037,96.537 120.5,102.5C 121.333,102.833 122.167,103.167 123,103.5C 130.477,99.8775 137.977,99.7108 145.5,103C 146.823,103.816 147.489,104.983 147.5,106.5C 139.522,112.612 130.688,117.278 121,120.5C 121.706,125.572 122.706,130.572 124,135.5C 123.535,136.931 122.701,138.097 121.5,139C 113.177,141.472 112.343,145.638 119,151.5C 120.527,159.28 117.694,164.78 110.5,168C 109.707,169.085 109.04,170.252 108.5,171.5C 111.195,175.03 113.695,178.696 116,182.5C 117.111,187.611 116.111,192.278 113,196.5C 112.333,198.167 112.333,199.833 113,201.5C 124.175,206.824 129.508,215.824 129,228.5C 129.725,229.059 130.558,229.392 131.5,229.5C 135.986,224.859 140.986,220.693 146.5,217C 152.144,215.93 157.477,216.764 162.5,219.5C 163.672,219.081 164.672,218.415 165.5,217.5C 165.573,212.254 165.74,206.92 166,201.5C 170.065,197.007 175.231,195.173 181.5,196C 182,195.5 182.5,195 183,194.5C 183.143,190.349 182.977,186.182 182.5,182C 182.259,172.656 186.593,166.489 195.5,163.5C 196.641,161.579 196.808,159.579 196,157.5C 188.903,151.732 184.236,144.398 182,135.5C 180.412,127.217 179.245,118.884 178.5,110.5C 178.833,109.5 179.5,108.833 180.5,108.5C 184.799,111.651 186.633,115.984 186,121.5C 197.058,122.238 202.058,128.238 201,139.5C 201.388,140.428 202.055,141.095 203,141.5C 214.718,133.625 223.385,136.292 229,149.5C 229.689,150.357 230.522,151.023 231.5,151.5C 233.927,147.248 237.594,144.748 242.5,144C 249.077,143.355 255.577,143.855 262,145.5C 265.939,145.896 267.272,144.229 266,140.5C 263.412,136.326 261.079,131.993 259,127.5C 257.588,122.468 258.588,118.135 262,114.5C 262.667,113.167 262.667,111.833 262,110.5C 257.333,108.5 252.667,106.5 248,104.5C 247.042,102.801 246.542,100.967 246.5,99C 247.209,96.1285 247.709,93.2952 248,90.5C 242.192,88.917 236.359,87.0837 230.5,85C 229.167,80.6667 227.833,76.3333 226.5,72C 219.352,71.1096 212.352,71.6096 205.5,73.5C 204.57,65.236 199.903,60.5694 191.5,59.5C 187.91,60.2985 184.577,61.6318 181.5,63.5C 180.699,61.9582 180.366,60.2915 180.5,58.5C 176.96,58.7526 173.627,59.4192 170.5,60.5C 167.481,57.4987 163.815,55.832 159.5,55.5C 159.5,55.1667 159.5,54.8333 159.5,54.5C 162.34,37.4732 165.34,20.4732 168.5,3.5C 170.292,3.63404 171.958,3.30071 173.5,2.5C 170.374,18.7999 167.374,35.1333 164.5,51.5C 164.833,52.8333 165.167,54.1667 165.5,55.5C 168.421,56.4066 171.421,56.7399 174.5,56.5C 175.529,38.3286 177.862,20.3286 181.5,2.5C 182.833,2.5 184.167,2.5 185.5,2.5C 183.168,18.4933 180.835,34.4933 178.5,50.5C 177.839,56.5145 180.506,58.8478 186.5,57.5C 187.992,39.0572 190.325,20.7239 193.5,2.5C 194.833,2.5 196.167,2.5 197.5,2.5C 194.756,20.7866 192.423,39.1199 190.5,57.5C 193.833,57.5 197.167,57.5 200.5,57.5C 200.845,48.8283 201.345,40.1616 202,31.5C 203.827,21.8791 205.327,12.2124 206.5,2.5C 208.042,1.69929 209.708,1.36596 211.5,1.5C 207.715,20.33 205.048,39.33 203.5,58.5C 206.448,58.7771 209.281,58.4438 212,57.5C 212.853,38.6739 215.02,20.0072 218.5,1.5C 219.833,1.5 221.167,1.5 222.5,1.5C 219.515,20.4224 217.182,39.4224 215.5,58.5C 218.5,58.5 221.5,58.5 224.5,58.5C 224.601,39.4476 225.601,20.4476 227.5,1.5C 228.833,1.5 230.167,1.5 231.5,1.5C 230.407,20.5175 229.074,39.5175 227.5,58.5C 231.167,58.5 234.833,58.5 238.5,58.5C 238.5,39.5 238.5,20.5 238.5,1.5C 239.833,1.5 241.167,1.5 242.5,1.5C 242.444,20.506 242.111,39.506 241.5,58.5C 244.833,58.5 248.167,58.5 251.5,58.5C 251.545,39.1605 251.879,19.8272 252.5,0.5C 253.833,0.5 255.167,0.5 256.5,0.5C 255.623,19.8183 255.289,39.1517 255.5,58.5C 256.5,58.5 257.5,58.5 258.5,58.5C 257.839,68.1788 262.172,72.1788 271.5,70.5C 269.5,72.671 267.666,75.0043 266,77.5C 264.884,87.0507 269.051,91.2174 278.5,90C 281.266,88.629 283.599,86.7957 285.5,84.5C 281.688,95.0531 285.354,100.22 296.5,100C 303.251,98.004 306.084,93.504 305,86.5C 303.668,84.34 302.168,82.34 300.5,80.5C 303.707,71.7497 308.207,63.7497 314,56.5C 315.117,57.9494 315.784,59.6161 316,61.5C 316.801,69.9119 316.634,78.2452 315.5,86.5C 305.81,90.1927 304.143,96.0261 310.5,104C 321.344,106.82 326.511,102.653 326,91.5C 324.035,89.4497 321.868,87.783 319.5,86.5C 320.58,76.5149 320.747,66.5149 320,56.5C 326.988,65.81 331.821,76.1434 334.5,87.5C 325.58,93.8859 325.58,100.386 334.5,107C 342.479,108.352 347.479,105.185 349.5,97.5C 348.973,90.7336 345.306,87.4002 338.5,87.5C 335.844,74.8579 330.511,63.5245 322.5,53.5C 321.33,35.4361 319.997,17.4361 318.5,-0.5 Z"/></g>
<g><path style="opacity:0.988" fill="#2b7b3d" d="M 252.5,0.5 C 251.879,19.8272 251.545,39.1605 251.5,58.5C 248.167,58.5 244.833,58.5 241.5,58.5C 242.111,39.506 242.444,20.506 242.5,1.5C 245.764,0.675766 249.098,0.342432 252.5,0.5 Z"/></g>
<g><path style="opacity:0.988" fill="#2b7c3d" d="M 256.5,0.5 C 260.167,0.5 263.833,0.5 267.5,0.5C 265.762,19.4295 265.095,38.4295 265.5,57.5C 263.097,57.448 260.764,57.7814 258.5,58.5C 257.5,58.5 256.5,58.5 255.5,58.5C 255.289,39.1517 255.623,19.8183 256.5,0.5 Z"/></g>
<g><path style="opacity:0.99" fill="#0b4f40" d="M 267.5,0.5 C 268.833,0.5 270.167,0.5 271.5,0.5C 270.625,19.4849 270.292,38.4849 270.5,57.5C 268.833,57.5 267.167,57.5 265.5,57.5C 265.095,38.4295 265.762,19.4295 267.5,0.5 Z"/></g>
<g><path style="opacity:0.997" fill="#2b7c3d" d="M 271.5,0.5 C 274.833,0.5 278.167,0.5 281.5,0.5C 280.957,19.1631 280.457,37.8297 280,56.5C 279.329,57.2524 278.496,57.5858 277.5,57.5C 275.167,57.5 272.833,57.5 270.5,57.5C 270.292,38.4849 270.625,19.4849 271.5,0.5 Z"/></g>
<g><path style="opacity:0.993" fill="#2b7b3d" d="M 211.5,1.5 C 213.833,1.5 216.167,1.5 218.5,1.5C 215.02,20.0072 212.853,38.6739 212,57.5C 209.281,58.4438 206.448,58.7771 203.5,58.5C 205.048,39.33 207.715,20.33 211.5,1.5 Z"/></g>
<g><path style="opacity:0.997" fill="#2b7c3d" d="M 222.5,1.5 C 224.167,1.5 225.833,1.5 227.5,1.5C 225.601,20.4476 224.601,39.4476 224.5,58.5C 221.5,58.5 218.5,58.5 215.5,58.5C 217.182,39.4224 219.515,20.4224 222.5,1.5 Z"/></g>
<g><path style="opacity:0.999" fill="#2b7b3d" d="M 231.5,1.5 C 233.833,1.5 236.167,1.5 238.5,1.5C 238.5,20.5 238.5,39.5 238.5,58.5C 234.833,58.5 231.167,58.5 227.5,58.5C 229.074,39.5175 230.407,20.5175 231.5,1.5 Z"/></g>
<g><path style="opacity:0.99" fill="#2b7b3d" d="M 173.5,2.5 C 176.167,2.5 178.833,2.5 181.5,2.5C 177.862,20.3286 175.529,38.3286 174.5,56.5C 171.421,56.7399 168.421,56.4066 165.5,55.5C 165.167,54.1667 164.833,52.8333 164.5,51.5C 167.374,35.1333 170.374,18.7999 173.5,2.5 Z"/></g>
<g><path style="opacity:0.995" fill="#2b7b3d" d="M 185.5,2.5 C 188.167,2.5 190.833,2.5 193.5,2.5C 190.325,20.7239 187.992,39.0572 186.5,57.5C 180.506,58.8478 177.839,56.5145 178.5,50.5C 180.835,34.4933 183.168,18.4933 185.5,2.5 Z"/></g>
<g><path style="opacity:1" fill="#2b7c3d" d="M 197.5,2.5 C 200.5,2.5 203.5,2.5 206.5,2.5C 205.327,12.2124 203.827,21.8791 202,31.5C 201.345,40.1616 200.845,48.8283 200.5,57.5C 197.167,57.5 193.833,57.5 190.5,57.5C 192.423,39.1199 194.756,20.7866 197.5,2.5 Z"/></g>
<g><path style="opacity:0.992" fill="#2a7b3d" d="M 168.5,3.5 C 165.34,20.4732 162.34,37.4732 159.5,54.5C 156.721,54.7214 154.054,54.388 151.5,53.5C 154.358,37.0674 157.692,20.7341 161.5,4.5C 163.764,3.78138 166.097,3.44805 168.5,3.5 Z"/></g>
<g><path style="opacity:0.949" fill="#0c4f41" d="M 161.5,4.5 C 157.692,20.7341 154.358,37.0674 151.5,53.5C 150.167,53.5 148.833,53.5 147.5,53.5C 148.735,43.4259 150.401,33.4259 152.5,23.5C 154.026,18.0897 155.859,12.7564 158,7.5C 159.039,6.2899 160.206,5.2899 161.5,4.5 Z"/></g>
<g><path style="opacity:0.911" fill="#2b7c3d" d="M 323.5,8.5 C 328.406,21.8877 332.739,35.5543 336.5,49.5C 333.237,50.4822 329.903,51.1489 326.5,51.5C 325.653,37.1552 324.653,22.8218 323.5,8.5 Z"/></g>
<g><path style="opacity:0.884" fill="#2a7b3d" d="M 152.5,23.5 C 150.401,33.4259 148.735,43.4259 147.5,53.5C 144.933,53.2785 142.599,52.6118 140.5,51.5C 143.982,41.8771 147.982,32.5438 152.5,23.5 Z"/></g>
<g><path style="opacity:1" fill="#f2decd" d="M 310.5,53.5 C 311.833,53.5 313.167,53.5 314.5,53.5C 317.167,53.5 319.833,53.5 322.5,53.5C 330.511,63.5245 335.844,74.8579 338.5,87.5C 337.167,87.5 335.833,87.5 334.5,87.5C 331.821,76.1434 326.988,65.81 320,56.5C 320.747,66.5149 320.58,76.5149 319.5,86.5C 318.167,86.5 316.833,86.5 315.5,86.5C 316.634,78.2452 316.801,69.9119 316,61.5C 315.784,59.6161 315.117,57.9494 314,56.5C 308.207,63.7497 303.707,71.7497 300.5,80.5C 299.041,80.5674 297.708,80.2341 296.5,79.5C 300.053,70.7262 304.386,62.3929 309.5,54.5C 310.167,54.5 310.5,54.1667 310.5,53.5 Z"/></g>
<g><path style="opacity:1" fill="#ecd9c8" d="M 307.5,54.5 C 299.337,59.4229 291.671,65.0896 284.5,71.5C 283.29,71.0679 282.29,70.4013 281.5,69.5C 286.56,64.1079 292.226,59.4413 298.5,55.5C 301.455,54.8413 304.455,54.5079 307.5,54.5 Z"/></g>
<g><path style="opacity:1" fill="#d22528" d="M 159.5,55.5 C 163.815,55.832 167.481,57.4987 170.5,60.5C 175.891,71.4885 172.891,79.3218 161.5,84C 157.31,84.8097 153.31,84.3097 149.5,82.5C 148.585,80.2459 147.252,78.2459 145.5,76.5C 143.03,64.6504 147.697,57.6504 159.5,55.5 Z"/></g>
<g><path style="opacity:1" fill="#185043" d="M 307.5,54.5 C 308.167,54.5 308.833,54.5 309.5,54.5C 304.386,62.3929 300.053,70.7262 296.5,79.5C 292.199,79.818 288.532,81.4847 285.5,84.5C 287.137,79.9041 286.803,75.5708 284.5,71.5C 291.671,65.0896 299.337,59.4229 307.5,54.5 Z"/></g>
<g><path style="opacity:1" fill="#b22626" d="M 265.5,57.5 C 267.167,57.5 268.833,57.5 270.5,57.5C 272.833,57.5 275.167,57.5 277.5,57.5C 278.258,62.2709 276.925,66.2709 273.5,69.5C 273.158,70.3382 272.492,70.6716 271.5,70.5C 262.172,72.1788 257.839,68.1788 258.5,58.5C 260.764,57.7814 263.097,57.448 265.5,57.5 Z"/></g>
<g><path style="opacity:0.998" fill="#763645" d="M 261.5,58.5 C 266.805,59.2414 268.139,61.7414 265.5,66C 263.633,66.7112 262.133,66.2112 261,64.5C 260.51,62.4546 260.677,60.4546 261.5,58.5 Z"/></g>
<g><path style="opacity:1" fill="#d32327" d="M 205.5,73.5 C 206.102,80.9715 203.102,86.3048 196.5,89.5C 194.302,89.8751 192.302,90.5418 190.5,91.5C 179.527,90.3663 174.693,84.3663 176,73.5C 177.227,69.7885 179.06,66.4552 181.5,63.5C 184.577,61.6318 187.91,60.2985 191.5,59.5C 199.903,60.5694 204.57,65.236 205.5,73.5 Z"/></g>
<g><path style="opacity:0.997" fill="#773646" d="M 194.5,68.5 C 198.392,69.7423 199.392,72.2423 197.5,76C 192.917,76.9337 191.417,75.1004 193,70.5C 193.717,69.9558 194.217,69.2891 194.5,68.5 Z"/></g>
<g><path style="opacity:1" fill="#d32227" d="M 273.5,69.5 C 276.167,69.5 278.833,69.5 281.5,69.5C 282.29,70.4013 283.29,71.0679 284.5,71.5C 286.803,75.5708 287.137,79.9041 285.5,84.5C 283.599,86.7957 281.266,88.629 278.5,90C 269.051,91.2174 264.884,87.0507 266,77.5C 267.666,75.0043 269.5,72.671 271.5,70.5C 272.492,70.6716 273.158,70.3382 273.5,69.5 Z"/></g>
<g><path style="opacity:0.999" fill="#080e0d" d="M 361.5,69.5 C 367.253,69.9282 367.92,72.0948 363.5,76C 360.886,78.3379 358.886,78.0046 357.5,75C 358.65,73.019 359.984,71.1857 361.5,69.5 Z"/></g>
<g><path style="opacity:0.999" fill="#10685b" d="M 140.5,51.5 C 142.599,52.6118 144.933,53.2785 147.5,53.5C 148.833,53.5 150.167,53.5 151.5,53.5C 154.054,54.388 156.721,54.7214 159.5,54.5C 159.5,54.8333 159.5,55.1667 159.5,55.5C 147.697,57.6504 143.03,64.6504 145.5,76.5C 142.15,76.665 138.817,76.4983 135.5,76C 131.951,72.9426 128.284,70.1093 124.5,67.5C 123.833,67.8333 123.167,68.1667 122.5,68.5C 123.982,70.4829 125.649,72.3163 127.5,74C 123.151,74.0227 118.817,73.5227 114.5,72.5C 112.296,72.5269 111.462,73.5269 112,75.5C 121.405,77.6158 130.905,79.4491 140.5,81C 138.241,82.7146 136.074,84.5479 134,86.5C 133.437,87.7248 133.77,88.7248 135,89.5C 138.757,87.4173 142.257,84.9173 145.5,82C 146.928,81.4209 148.262,81.5876 149.5,82.5C 153.31,84.3097 157.31,84.8097 161.5,84C 172.891,79.3218 175.891,71.4885 170.5,60.5C 173.627,59.4192 176.96,58.7526 180.5,58.5C 180.366,60.2915 180.699,61.9582 181.5,63.5C 179.06,66.4552 177.227,69.7885 176,73.5C 174.693,84.3663 179.527,90.3663 190.5,91.5C 200.906,98.7931 211.072,106.46 221,114.5C 221.499,118.486 221.666,122.486 221.5,126.5C 222.822,126.67 223.989,126.337 225,125.5C 225.333,122.833 225.667,120.167 226,117.5C 230.541,121.76 235.707,124.594 241.5,126C 241.957,125.586 242.291,125.086 242.5,124.5C 232.871,117.345 223.205,110.178 213.5,103C 217.819,102.24 222.152,101.573 226.5,101C 227.615,98.1057 226.448,96.939 223,97.5C 218.178,98.5006 213.345,99.0006 208.5,99C 204.025,96.3501 200.025,93.1834 196.5,89.5C 203.102,86.3048 206.102,80.9715 205.5,73.5C 212.352,71.6096 219.352,71.1096 226.5,72C 227.833,76.3333 229.167,80.6667 230.5,85C 236.359,87.0837 242.192,88.917 248,90.5C 247.709,93.2952 247.209,96.1285 246.5,99C 246.542,100.967 247.042,102.801 248,104.5C 252.667,106.5 257.333,108.5 262,110.5C 262.667,111.833 262.667,113.167 262,114.5C 258.588,118.135 257.588,122.468 259,127.5C 261.079,131.993 263.412,136.326 266,140.5C 267.272,144.229 265.939,145.896 262,145.5C 255.577,143.855 249.077,143.355 242.5,144C 237.594,144.748 233.927,147.248 231.5,151.5C 230.522,151.023 229.689,150.357 229,149.5C 223.385,136.292 214.718,133.625 203,141.5C 202.055,141.095 201.388,140.428 201,139.5C 202.058,128.238 197.058,122.238 186,121.5C 186.633,115.984 184.799,111.651 180.5,108.5C 186.176,95.5203 182.009,87.5203 168,84.5C 155.172,86.5018 150.005,93.8351 152.5,106.5C 150.833,106.5 149.167,106.5 147.5,106.5C 147.489,104.983 146.823,103.816 145.5,103C 137.977,99.7108 130.477,99.8775 123,103.5C 122.167,103.167 121.333,102.833 120.5,102.5C 119.037,96.537 115.37,92.7037 109.5,91C 103.806,90.6156 98.1395,90.6156 92.5,91C 91.9116,87.3712 90.9116,83.8712 89.5,80.5C 105.061,68.5457 122.061,58.8791 140.5,51.5 Z"/></g>
<g><path style="opacity:0.995" fill="#0c4f42" d="M 145.5,76.5 C 147.252,78.2459 148.585,80.2459 149.5,82.5C 148.262,81.5876 146.928,81.4209 145.5,82C 142.257,84.9173 138.757,87.4173 135,89.5C 133.77,88.7248 133.437,87.7248 134,86.5C 136.074,84.5479 138.241,82.7146 140.5,81C 130.905,79.4491 121.405,77.6158 112,75.5C 111.462,73.5269 112.296,72.5269 114.5,72.5C 118.817,73.5227 123.151,74.0227 127.5,74C 125.649,72.3163 123.982,70.4829 122.5,68.5C 123.167,68.1667 123.833,67.8333 124.5,67.5C 128.284,70.1093 131.951,72.9426 135.5,76C 138.817,76.4983 142.15,76.665 145.5,76.5 Z"/></g>
<g><path style="opacity:0.998" fill="#763646" d="M 153.5,64.5 C 159.335,65.333 160.668,68.1663 157.5,73C 151.92,74.261 150.087,72.0943 152,66.5C 152.717,65.9558 153.217,65.2891 153.5,64.5 Z"/></g>
<g><path style="opacity:0.999" fill="#793645" d="M 270.5,79.5 C 272.199,79.3398 273.866,79.5065 275.5,80C 278.167,81.6667 278.167,83.3333 275.5,85C 270.759,85.7642 269.092,83.9309 270.5,79.5 Z"/></g>
<g><path style="opacity:1" fill="#b42325" d="M 296.5,79.5 C 297.708,80.2341 299.041,80.5674 300.5,80.5C 302.168,82.34 303.668,84.34 305,86.5C 306.084,93.504 303.251,98.004 296.5,100C 285.354,100.22 281.688,95.0531 285.5,84.5C 288.532,81.4847 292.199,79.818 296.5,79.5 Z"/></g>
<g><path style="opacity:1" fill="#b52325" d="M 180.5,108.5 C 179.5,108.833 178.833,109.5 178.5,110.5C 175.133,112.623 171.466,113.956 167.5,114.5C 165.833,114.5 164.167,114.5 162.5,114.5C 158.251,112.912 154.918,110.245 152.5,106.5C 150.005,93.8351 155.172,86.5018 168,84.5C 182.009,87.5203 186.176,95.5203 180.5,108.5 Z"/></g>
<g><path style="opacity:1" fill="#b32526" d="M 315.5,86.5 C 316.833,86.5 318.167,86.5 319.5,86.5C 321.868,87.783 324.035,89.4497 326,91.5C 326.511,102.653 321.344,106.82 310.5,104C 304.143,96.0261 305.81,90.1927 315.5,86.5 Z"/></g>
<g><path style="opacity:1" fill="#b22526" d="M 334.5,87.5 C 335.833,87.5 337.167,87.5 338.5,87.5C 345.306,87.4002 348.973,90.7336 349.5,97.5C 347.479,105.185 342.479,108.352 334.5,107C 325.58,100.386 325.58,93.8859 334.5,87.5 Z"/></g>
<g><path style="opacity:0.994" fill="#0d4f42" d="M 196.5,89.5 C 200.025,93.1834 204.025,96.3501 208.5,99C 213.345,99.0006 218.178,98.5006 223,97.5C 226.448,96.939 227.615,98.1057 226.5,101C 222.152,101.573 217.819,102.24 213.5,103C 223.205,110.178 232.871,117.345 242.5,124.5C 242.291,125.086 241.957,125.586 241.5,126C 235.707,124.594 230.541,121.76 226,117.5C 225.667,120.167 225.333,122.833 225,125.5C 223.989,126.337 222.822,126.67 221.5,126.5C 221.666,122.486 221.499,118.486 221,114.5C 211.072,106.46 200.906,98.7931 190.5,91.5C 192.302,90.5418 194.302,89.8751 196.5,89.5 Z"/></g>
<g><path style="opacity:0.998" fill="#7b3543" d="M 291.5,91.5 C 295.161,91.3501 296.161,92.8501 294.5,96C 290.707,96.4866 289.707,94.9866 291.5,91.5 Z"/></g>
<g><path style="opacity:1" fill="#d02528" d="M 370.5,94.5 C 379.228,94.0558 382.728,98.0558 381,106.5C 378.459,111.069 374.625,112.569 369.5,111C 364.931,108.459 363.431,104.625 365,99.5C 366.73,97.5981 368.563,95.9314 370.5,94.5 Z"/></g>
<g><path style="opacity:0.996" fill="#753646" d="M 313.5,96.5 C 318.041,96.8152 319.041,98.6485 316.5,102C 312.537,102.118 311.537,100.284 313.5,96.5 Z"/></g>
<g><path style="opacity:0.998" fill="#773645" d="M 338.5,97.5 C 342.35,97.7007 343.35,99.5341 341.5,103C 336.289,103.546 335.289,101.713 338.5,97.5 Z"/></g>
<g><path style="opacity:0.995" fill="#763646" d="M 160.5,99.5 C 165.355,98.964 167.521,100.964 167,105.5C 163.374,107.178 160.54,106.345 158.5,103C 158.978,101.697 159.645,100.531 160.5,99.5 Z"/></g>
<g><path style="opacity:0.998" fill="#773746" d="M 368.5,98.5 C 373.068,98.0826 374.568,100.083 373,104.5C 367.934,107.894 365.934,106.56 367,100.5C 367.717,99.9558 368.217,99.2891 368.5,98.5 Z"/></g>
<g><path style="opacity:0.996" fill="#2f8340" d="M 410.5,102.5 C 412.262,103.262 413.262,104.596 413.5,106.5C 412.523,109.287 412.19,112.287 412.5,115.5C 412.5,116.5 412.5,117.5 412.5,118.5C 412.5,122.833 412.5,127.167 412.5,131.5C 412.433,132.959 412.766,134.292 413.5,135.5C 413.207,138.754 413.874,141.754 415.5,144.5C 414.314,145.705 414.314,147.039 415.5,148.5C 415.858,151.267 416.525,153.933 417.5,156.5C 417.062,156.435 416.728,156.601 416.5,157C 417.267,158.47 417.933,159.97 418.5,161.5C 418.826,164.311 419.659,166.978 421,169.5C 425.634,173.132 429.967,177.132 434,181.5C 434.483,182.448 434.649,183.448 434.5,184.5C 433.448,184.649 432.448,184.483 431.5,184C 429.627,181.791 427.46,179.958 425,178.5C 424.833,178.833 424.667,179.167 424.5,179.5C 426.536,184.229 428.536,188.896 430.5,193.5C 428.61,193.703 427.11,193.037 426,191.5C 423.806,187.251 421.806,182.918 420,178.5C 419.83,184.528 419.33,190.528 418.5,196.5C 417.914,196.291 417.414,195.957 417,195.5C 415.189,187.379 415.023,179.212 416.5,171C 416.329,167.454 415.329,164.287 413.5,161.5C 414.261,159.741 413.928,158.074 412.5,156.5C 412.554,153.008 411.554,150.008 409.5,147.5C 411.18,145.274 410.847,143.607 408.5,142.5C 409.833,137.5 409.833,132.5 408.5,127.5C 410.175,125.544 409.842,124.211 407.5,123.5C 408.436,119.265 408.769,114.931 408.5,110.5C 409.72,108.716 409.72,107.05 408.5,105.5C 408.932,104.29 409.599,103.29 410.5,102.5 Z"/></g>
<g><path style="opacity:0.996" fill="#050809" d="M 79.5,103.5 C 84.7121,104.719 87.3788,108.053 87.5,113.5C 81.37,112.722 78.7033,109.388 79.5,103.5 Z"/></g>
<g><path style="opacity:0.996" fill="#3e9c47" d="M 408.5,105.5 C 409.72,107.05 409.72,108.716 408.5,110.5C 399.672,116.164 393.172,123.83 389,133.5C 387.989,134.337 386.822,134.67 385.5,134.5C 389.833,122.17 397.499,112.503 408.5,105.5 Z"/></g>
<g><path style="opacity:1" fill="#419f47" d="M 147.5,106.5 C 149.167,106.5 150.833,106.5 152.5,106.5C 154.918,110.245 158.251,112.912 162.5,114.5C 159.828,122.345 156.661,130.011 153,137.5C 149.016,139.718 144.85,141.551 140.5,143C 138.963,144.11 138.297,145.61 138.5,147.5C 142.578,146.863 146.411,145.53 150,143.5C 148.159,153.201 145.825,162.868 143,172.5C 139.266,175.952 135.1,178.785 130.5,181C 129.663,182.011 129.33,183.178 129.5,184.5C 133.825,184.019 137.658,182.352 141,179.5C 140.118,184.422 139.285,189.422 138.5,194.5C 139.833,194.5 141.167,194.5 142.5,194.5C 143.737,185.554 145.903,176.887 149,168.5C 150.833,171 152.667,173.5 154.5,176C 155.448,176.483 156.448,176.649 157.5,176.5C 156.672,171.848 154.505,167.848 151,164.5C 152.283,152.642 155.617,141.308 161,130.5C 163.139,133.939 165.639,137.106 168.5,140C 169.965,140.601 170.965,140.101 171.5,138.5C 168.747,133.992 165.747,129.659 162.5,125.5C 164.453,121.931 166.119,118.264 167.5,114.5C 171.466,113.956 175.133,112.623 178.5,110.5C 179.245,118.884 180.412,127.217 182,135.5C 184.236,144.398 188.903,151.732 196,157.5C 196.808,159.579 196.641,161.579 195.5,163.5C 186.593,166.489 182.259,172.656 182.5,182C 182.977,186.182 183.143,190.349 183,194.5C 182.5,195 182,195.5 181.5,196C 175.231,195.173 170.065,197.007 166,201.5C 165.74,206.92 165.573,212.254 165.5,217.5C 164.672,218.415 163.672,219.081 162.5,219.5C 157.477,216.764 152.144,215.93 146.5,217C 140.986,220.693 135.986,224.859 131.5,229.5C 130.558,229.392 129.725,229.059 129,228.5C 129.508,215.824 124.175,206.824 113,201.5C 112.333,199.833 112.333,198.167 113,196.5C 116.111,192.278 117.111,187.611 116,182.5C 113.695,178.696 111.195,175.03 108.5,171.5C 109.04,170.252 109.707,169.085 110.5,168C 117.694,164.78 120.527,159.28 119,151.5C 112.343,145.638 113.177,141.472 121.5,139C 122.701,138.097 123.535,136.931 124,135.5C 122.706,130.572 121.706,125.572 121,120.5C 130.688,117.278 139.522,112.612 147.5,106.5 Z"/></g>
<g><path style="opacity:0.828" fill="#0c5041" d="M 413.5,106.5 C 418.311,112.109 422.644,118.109 426.5,124.5C 421.833,121.5 417.167,118.5 412.5,115.5C 412.19,112.287 412.523,109.287 413.5,106.5 Z"/></g>
<g><path style="opacity:0.998" fill="#0c5141" d="M 162.5,114.5 C 164.167,114.5 165.833,114.5 167.5,114.5C 166.119,118.264 164.453,121.931 162.5,125.5C 165.747,129.659 168.747,133.992 171.5,138.5C 170.965,140.101 169.965,140.601 168.5,140C 165.639,137.106 163.139,133.939 161,130.5C 155.617,141.308 152.283,152.642 151,164.5C 154.505,167.848 156.672,171.848 157.5,176.5C 156.448,176.649 155.448,176.483 154.5,176C 152.667,173.5 150.833,171 149,168.5C 145.903,176.887 143.737,185.554 142.5,194.5C 141.167,194.5 139.833,194.5 138.5,194.5C 139.285,189.422 140.118,184.422 141,179.5C 137.658,182.352 133.825,184.019 129.5,184.5C 129.33,183.178 129.663,182.011 130.5,181C 135.1,178.785 139.266,175.952 143,172.5C 145.825,162.868 148.159,153.201 150,143.5C 146.411,145.53 142.578,146.863 138.5,147.5C 138.297,145.61 138.963,144.11 140.5,143C 144.85,141.551 149.016,139.718 153,137.5C 156.661,130.011 159.828,122.345 162.5,114.5 Z"/></g>
<g><path style="opacity:0.921" fill="#3e9c47" d="M 412.5,115.5 C 417.167,118.5 421.833,121.5 426.5,124.5C 429.046,128.259 431.046,132.259 432.5,136.5C 432.103,137.525 431.437,137.692 430.5,137C 425.667,129.667 419.667,123.501 412.5,118.5C 412.5,117.5 412.5,116.5 412.5,115.5 Z"/></g>
<g><path style="opacity:0.96" fill="#0c4f41" d="M 412.5,118.5 C 419.667,123.501 425.667,129.667 430.5,137C 431.437,137.692 432.103,137.525 432.5,136.5C 435.018,140.877 437.018,145.544 438.5,150.5C 432.962,144.795 426.962,139.628 420.5,135C 417.929,133.546 415.262,132.38 412.5,131.5C 412.5,127.167 412.5,122.833 412.5,118.5 Z"/></g>
<g><path style="opacity:1" fill="#419f47" d="M 290.5,120.5 C 295.706,122.598 301.039,124.431 306.5,126C 310.841,126.093 315.174,126.093 319.5,126C 321.081,127.828 322.415,129.828 323.5,132C 325.275,133.439 327.275,134.439 329.5,135C 334.179,135.164 338.845,135.164 343.5,135C 344.544,139.756 346.878,143.756 350.5,147C 355.155,146.836 359.821,146.836 364.5,147C 365.383,150.45 366.216,153.95 367,157.5C 368.167,158.667 369.333,159.833 370.5,161C 374.298,161.928 377.798,163.428 381,165.5C 384.204,180.555 386.704,195.722 388.5,211C 388.167,212.5 387.833,214 387.5,215.5C 377.151,205.317 366.651,195.317 356,185.5C 354.58,178.95 354.08,172.284 354.5,165.5C 353.5,165.5 352.5,165.5 351.5,165.5C 350.869,169.804 350.369,174.137 350,178.5C 344,172.5 338,166.5 332,160.5C 331.667,156.167 331.333,151.833 331,147.5C 329.853,146.542 328.853,146.875 328,148.5C 327.667,150.833 327.333,153.167 327,155.5C 323.657,151.327 320.157,147.327 316.5,143.5C 314.185,144.421 314.018,145.754 316,147.5C 321.833,154 327.667,160.5 333.5,167C 329.5,167.333 325.5,167.667 321.5,168C 321.043,168.414 320.709,168.914 320.5,169.5C 326.579,170.085 332.579,170.918 338.5,172C 346.709,180.041 354.709,188.208 362.5,196.5C 359.215,197.324 355.882,197.824 352.5,198C 350.714,198.196 349.381,199.029 348.5,200.5C 354.459,200.875 360.459,201.042 366.5,201C 372.469,205.967 378.135,211.301 383.5,217C 365.987,219.441 348.653,218.441 331.5,214C 330.707,210.589 330.207,207.089 330,203.5C 329.167,202.667 328.333,201.833 327.5,201C 322.693,199.341 317.86,197.841 313,196.5C 316.723,186.668 314.223,178.835 305.5,173C 303.26,172.023 300.927,171.523 298.5,171.5C 298.144,168.436 298.977,165.769 301,163.5C 303.374,156.423 301.04,151.756 294,149.5C 293.073,146.404 294.073,144.07 297,142.5C 297.581,135.982 295.581,130.315 291,125.5C 290.506,123.866 290.34,122.199 290.5,120.5 Z"/></g>
<g><path style="opacity:0.998" fill="#3c9a47" d="M 407.5,123.5 C 409.842,124.211 410.175,125.544 408.5,127.5C 399.74,134.953 393.74,144.286 390.5,155.5C 389.998,156.521 389.332,156.688 388.5,156C 390.025,142.462 396.358,131.629 407.5,123.5 Z"/></g>
<g><path style="opacity:0.979" fill="#f6e0d0" d="M 48.5,130.5 C 58.7581,130.698 68.7581,132.365 78.5,135.5C 78.4431,136.609 78.1098,137.609 77.5,138.5C 67.1874,136.704 56.854,135.037 46.5,133.5C 46.9321,132.29 47.5987,131.29 48.5,130.5 Z"/></g>
<g><path style="opacity:1" fill="#d22427" d="M 90.5,151.5 C 88.1432,151.337 85.8098,151.503 83.5,152C 84.0442,152.717 84.7109,153.217 85.5,153.5C 86.58,156.743 86.7466,160.076 86,163.5C 83.7797,167.692 80.2797,169.359 75.5,168.5C 75.2568,181.595 68.9234,186.428 56.5,183C 52.9012,177.706 52.5678,172.206 55.5,166.5C 56.8333,165.833 57.8333,164.833 58.5,163.5C 62.1693,162.249 65.836,162.249 69.5,163.5C 70.4656,161.604 70.7989,159.604 70.5,157.5C 70.5,156.167 70.5,154.833 70.5,153.5C 73.3207,151.588 76.3207,149.921 79.5,148.5C 77.8163,145.388 77.1497,142.054 77.5,138.5C 78.1098,137.609 78.4431,136.609 78.5,135.5C 80.34,133.832 82.34,132.332 84.5,131C 95.7962,129.632 99.9628,134.465 97,145.5C 96.2458,149.089 94.0791,151.089 90.5,151.5 Z"/></g>
<g><path style="opacity:0.971" fill="#3d9b47" d="M 412.5,131.5 C 415.262,132.38 417.929,133.546 420.5,135C 426.962,139.628 432.962,144.795 438.5,150.5C 440.293,152.426 441.293,154.759 441.5,157.5C 440.448,157.649 439.448,157.483 438.5,157C 431.159,148.478 422.825,141.311 413.5,135.5C 412.766,134.292 412.433,132.959 412.5,131.5 Z"/></g>
<g><path style="opacity:1" fill="#185144" d="M 46.5,133.5 C 56.854,135.037 67.1874,136.704 77.5,138.5C 77.1497,142.054 77.8163,145.388 79.5,148.5C 76.3207,149.921 73.3207,151.588 70.5,153.5C 61.8749,148.199 53.5416,142.532 45.5,136.5C 46.1098,135.609 46.4431,134.609 46.5,133.5 Z"/></g>
<g><path style="opacity:0.991" fill="#f2decd" d="M 45.5,136.5 C 53.5416,142.532 61.8749,148.199 70.5,153.5C 70.5,154.833 70.5,156.167 70.5,157.5C 60.9834,152.637 52.3168,146.637 44.5,139.5C 44.2627,138.209 44.596,137.209 45.5,136.5 Z"/></g>
<g><path style="opacity:0.994" fill="#1c5144" d="M 44.5,139.5 C 52.3168,146.637 60.9834,152.637 70.5,157.5C 70.7989,159.604 70.4656,161.604 69.5,163.5C 65.836,162.249 62.1693,162.249 58.5,163.5C 53.0184,156.551 48.0184,149.217 43.5,141.5C 43.3284,140.508 43.6618,139.842 44.5,139.5 Z"/></g>
<g><path style="opacity:0.998" fill="#773646" d="M 88.5,139.5 C 93.0001,139.164 94.8334,141.164 94,145.5C 92.5867,147.414 90.7534,148.747 88.5,149.5C 84.6038,146.258 84.6038,142.925 88.5,139.5 Z"/></g>
<g><path style="opacity:0.968" fill="#f1dccc" d="M 43.5,141.5 C 48.0184,149.217 53.0184,156.551 58.5,163.5C 57.8333,164.833 56.8333,165.833 55.5,166.5C 50.1023,160.053 45.4356,153.053 41.5,145.5C 41.6596,143.847 42.3263,142.514 43.5,141.5 Z"/></g>
<g><path style="opacity:0.998" fill="#3e9c47" d="M 408.5,142.5 C 410.847,143.607 411.18,145.274 409.5,147.5C 403.903,155.697 400.236,164.697 398.5,174.5C 397.5,174.5 396.5,174.5 395.5,174.5C 397.081,162.677 401.415,152.01 408.5,142.5 Z"/></g>
<g><path style="opacity:0.996" fill="#3f9d47" d="M 415.5,144.5 C 426.708,149.415 435.375,157.082 441.5,167.5C 440.448,167.649 439.448,167.483 438.5,167C 431.537,159.861 423.87,153.694 415.5,148.5C 414.314,147.039 414.314,145.705 415.5,144.5 Z"/></g>
<g><path style="opacity:0.878" fill="#824b35" d="M 90.5,151.5 C 88.8333,152.167 87.1667,152.833 85.5,153.5C 84.7109,153.217 84.0442,152.717 83.5,152C 85.8098,151.503 88.1432,151.337 90.5,151.5 Z"/></g>
<g><path style="opacity:0.995" fill="#3e9d47" d="M 417.5,156.5 C 425.769,161.768 432.769,168.435 438.5,176.5C 437.965,178.101 436.965,178.601 435.5,178C 430.626,171.625 424.96,166.125 418.5,161.5C 417.933,159.97 417.267,158.47 416.5,157C 416.728,156.601 417.062,156.435 417.5,156.5 Z"/></g>
<g><path style="opacity:0.996" fill="#773646" d="M 79.5,156.5 C 82.9549,157.128 84.1215,159.128 83,162.5C 80.1528,166.38 77.6528,166.38 75.5,162.5C 76.4316,160.235 77.7649,158.235 79.5,156.5 Z"/></g>
<g><path style="opacity:0.998" fill="#3e9d47" d="M 412.5,156.5 C 413.928,158.074 414.261,159.741 413.5,161.5C 409.452,170.027 407.452,179.027 407.5,188.5C 406.5,188.5 405.5,188.5 404.5,188.5C 403.747,176.843 406.414,166.176 412.5,156.5 Z"/></g>
<g><path style="opacity:0.919" fill="#f3dece" d="M 35.5,161.5 C 37.7339,165.522 39.4005,169.856 40.5,174.5C 39.609,175.11 38.609,175.443 37.5,175.5C 36.3468,172.53 34.6801,169.863 32.5,167.5C 33.5139,165.426 34.5139,163.426 35.5,161.5 Z"/></g>
<g><path style="opacity:1" fill="#b32425" d="M 277.5,171.5 C 288.95,172.392 292.116,178.059 287,188.5C 280.96,194.103 275.293,193.769 270,187.5C 267.965,179.907 270.465,174.573 277.5,171.5 Z"/></g>
<g><path style="opacity:0.999" fill="#783646" d="M 63.5,172.5 C 67.4866,172.652 68.9866,174.652 68,178.5C 64.7846,182.644 61.9513,182.477 59.5,178C 60.0074,175.455 61.3407,173.621 63.5,172.5 Z"/></g>
<g><path style="opacity:1" fill="#d32327" d="M 40.5,174.5 C 43.7935,174.259 46.7935,175.092 49.5,177C 54.1597,182.451 54.6597,188.284 51,194.5C 45,199.833 39,199.833 33,194.5C 30.3208,187.187 31.8208,180.854 37.5,175.5C 38.609,175.443 39.609,175.11 40.5,174.5 Z"/></g>
<g><path style="opacity:0.999" fill="#763645" d="M 277.5,175.5 C 283.929,175.959 284.929,178.459 280.5,183C 273.746,183.218 272.746,180.718 277.5,175.5 Z"/></g>
<g><path style="opacity:0.996" fill="#3e9d47" d="M 233.5,213.5 C 232.485,216.846 230.485,219.513 227.5,221.5C 229.776,209.174 233.942,197.507 240,186.5C 241.471,184.128 242.637,184.128 243.5,186.5C 239.315,195.2 235.982,204.2 233.5,213.5 Z"/></g>
<g><path style="opacity:0.998" fill="#7a3645" d="M 42.5,186.5 C 48.0159,186.473 49.3492,188.64 46.5,193C 43.2622,195.478 41.2622,194.811 40.5,191C 40.5186,189.167 41.1852,187.667 42.5,186.5 Z"/></g>
<g><path style="opacity:0.999" fill="#3f9d47" d="M 218.5,225.5 C 217.834,228.028 217.168,230.694 216.5,233.5C 215.914,233.709 215.414,234.043 215,234.5C 214.51,233.207 214.343,231.873 214.5,230.5C 214.531,217.043 217.698,204.376 224,192.5C 225.297,191.216 226.464,191.383 227.5,193C 222.163,203.179 219.163,214.013 218.5,225.5 Z"/></g>
<g><path style="opacity:1" fill="#2a7c3e" d="M 238.5,216.5 C 237.064,217.429 235.731,218.595 234.5,220C 235.094,220.464 235.761,220.631 236.5,220.5C 231.642,222.35 227.976,225.683 225.5,230.5C 223.251,231.08 221.585,232.413 220.5,234.5C 217.5,237.833 214.5,241.167 211.5,244.5C 208.91,245.749 206.576,247.416 204.5,249.5C 201.806,252.86 198.806,255.86 195.5,258.5C 193.338,259.128 191.672,260.461 190.5,262.5C 186.065,265.757 181.732,269.257 177.5,273C 178.094,273.464 178.761,273.631 179.5,273.5C 178.048,274.302 176.382,274.802 174.5,275C 173.619,275.708 172.953,276.542 172.5,277.5C 168.854,279.817 165.52,282.484 162.5,285.5C 160.5,285.5 159.5,286.5 159.5,288.5C 155.087,289.367 151.753,291.7 149.5,295.5C 148.127,295.343 146.793,295.51 145.5,296C 144.402,296.77 144.402,297.603 145.5,298.5C 140.299,300.098 135.299,302.265 130.5,305C 129.056,305.781 127.723,305.614 126.5,304.5C 131.196,301.157 135.863,297.824 140.5,294.5C 141.5,294.5 142.5,294.5 143.5,294.5C 143.263,293.209 143.596,292.209 144.5,291.5C 144.435,291.938 144.601,292.272 145,292.5C 148.508,290.413 151.842,288.08 155,285.5C 155.173,279.652 155.673,273.985 156.5,268.5C 156.334,273.844 156.501,279.177 157,284.5C 158.045,283.627 158.878,282.627 159.5,281.5C 162.567,279.879 165.401,277.879 168,275.5C 168.174,270.649 168.674,265.982 169.5,261.5C 169.334,265.846 169.501,270.179 170,274.5C 171.045,273.627 171.878,272.627 172.5,271.5C 177.014,268.409 181.347,265.075 185.5,261.5C 186.458,261.047 187.292,260.381 188,259.5C 188.175,254.981 188.675,250.647 189.5,246.5C 189.335,250.182 189.501,253.848 190,257.5C 194.171,255.173 197.005,251.839 198.5,247.5C 200.829,249.002 202.163,248.336 202.5,245.5C 208.873,242.155 212.873,237.155 214.5,230.5C 214.343,231.873 214.51,233.207 215,234.5C 215.414,234.043 215.914,233.709 216.5,233.5C 217.168,230.694 217.834,228.028 218.5,225.5C 218.34,227.199 218.506,228.866 219,230.5C 222.066,227.604 224.899,224.604 227.5,221.5C 230.485,219.513 232.485,216.846 233.5,213.5C 238.989,209.857 243.989,205.024 248.5,199C 249.448,198.517 250.448,198.351 251.5,198.5C 251.657,199.873 251.49,201.207 251,202.5C 246.255,206.74 242.088,211.407 238.5,216.5 Z"/></g>
<g><path style="opacity:0.998" fill="#3e9c47" d="M 202.5,245.5 C 202.163,248.336 200.829,249.002 198.5,247.5C 197.693,230.566 201.36,214.733 209.5,200C 210.635,199.251 211.635,199.417 212.5,200.5C 205.338,214.643 202.005,229.643 202.5,245.5 Z"/></g>
<g><path style="opacity:0.998" fill="#3e9d47" d="M 236.5,220.5 C 235.761,220.631 235.094,220.464 234.5,220C 235.731,218.595 237.064,217.429 238.5,216.5C 247.803,214.345 256.803,211.345 265.5,207.5C 265.67,208.822 265.337,209.989 264.5,211C 255.783,216.012 246.449,219.179 236.5,220.5 Z"/></g>
<g><path style="opacity:0.998" fill="#3e9c47" d="M 189.5,246.5 C 188.675,250.647 188.175,254.981 188,259.5C 187.292,260.381 186.458,261.047 185.5,261.5C 184.185,243.391 187.185,226.058 194.5,209.5C 195.325,208.614 196.325,208.281 197.5,208.5C 195.781,214.827 193.948,221.161 192,227.5C 190.358,233.733 189.525,240.066 189.5,246.5 Z"/></g>
<g><path style="opacity:0.997" fill="#3d9b47" d="M 220.5,234.5 C 221.585,232.413 223.251,231.08 225.5,230.5C 235.594,228.913 245.261,225.913 254.5,221.5C 256.488,222.289 256.821,223.455 255.5,225C 244.457,230.511 232.79,233.677 220.5,234.5 Z"/></g>
<g><path style="opacity:0.999" fill="#3f9d47" d="M 172.5,271.5 C 171.878,272.627 171.045,273.627 170,274.5C 169.501,270.179 169.334,265.846 169.5,261.5C 169.993,248.021 173.659,235.521 180.5,224C 181.6,223.568 182.267,224.068 182.5,225.5C 175.718,240.079 172.384,255.412 172.5,271.5 Z"/></g>
<g><path style="opacity:0.999" fill="#070c0b" d="M 296.5,223.5 C 298.926,224.353 299.76,226.019 299,228.5C 296.833,230.667 294.667,232.833 292.5,235C 288.912,235.611 287.746,234.111 289,230.5C 291.396,227.933 293.896,225.6 296.5,223.5 Z"/></g>
<g><path style="opacity:0.996" fill="#060b0b" d="M 89.5,225.5 C 91.9484,225.01 93.615,225.843 94.5,228C 92.596,232.982 89.596,237.149 85.5,240.5C 83.5539,238.956 83.0539,236.956 84,234.5C 85.8445,231.472 87.6778,228.472 89.5,225.5 Z"/></g>
<g><path style="opacity:1" fill="#b32325" d="M 424.5,225.5 C 430.001,224.64 434.834,225.973 439,229.5C 441.946,240.895 437.446,245.729 425.5,244C 419.975,241.081 418.142,236.581 420,230.5C 421.025,228.313 422.525,226.646 424.5,225.5 Z"/></g>
<g><path style="opacity:0.997" fill="#743646" d="M 425.5,228.5 C 429.976,228.8 431.31,230.967 429.5,235C 425.969,237.541 423.636,236.875 422.5,233C 422.557,230.791 423.557,229.291 425.5,228.5 Z"/></g>
<g><path style="opacity:1" fill="#f2dece" d="M 48.5,349.5 C 48.5386,348.244 48.0386,347.244 47,346.5C 46.1849,351.352 46.3516,356.019 47.5,360.5C 47.6567,361.873 47.49,363.207 47,364.5C 46,365.833 45,365.833 44,364.5C 43.6667,358.167 43.3333,351.833 43,345.5C 40.9491,350.319 39.2824,355.319 38,360.5C 36.9887,361.337 35.8221,361.67 34.5,361.5C 37.2863,351.137 40.2863,340.804 43.5,330.5C 41.4988,319.488 39.4988,308.488 37.5,297.5C 31.6928,301.474 26.0261,305.64 20.5,310C 18.9751,311.009 17.3084,311.509 15.5,311.5C 15.33,310.178 15.6634,309.011 16.5,308C 20.8333,305 25.1667,302 29.5,299C 23.8651,300.158 18.1984,301.158 12.5,302C 11.1667,301 11.1667,300 12.5,299C 16.5,298 20.5,297 24.5,296C 20.251,294.874 15.9177,294.208 11.5,294C 11.0426,293.586 10.7093,293.086 10.5,292.5C 15.1315,291.672 19.7982,291.172 24.5,291C 21.2444,289.526 17.911,288.36 14.5,287.5C 14.5,286.5 14.5,285.5 14.5,284.5C 19.3333,285.397 23.9999,286.563 28.5,288C 24.0876,284.71 19.5876,281.544 15,278.5C 14.3987,277.035 14.8987,276.035 16.5,275.5C 23.086,279.709 29.586,284.043 36,288.5C 35.2308,273.689 34.3974,258.856 33.5,244C 33.6667,240.833 33.8333,237.667 34,234.5C 34.7096,233.027 35.8762,232.36 37.5,232.5C 37.5015,241.858 38.0015,251.191 39,260.5C 45.8717,256.148 53.0383,252.481 60.5,249.5C 60.67,250.822 60.3366,251.989 59.5,253C 55.9934,255.254 52.3267,257.254 48.5,259C 53.4839,258.559 58.4839,258.226 63.5,258C 64.8333,258.667 64.8333,259.333 63.5,260C 59.5,261 55.5,262 51.5,263C 54.8333,263.333 58.1667,263.667 61.5,264C 61.9574,264.414 62.2907,264.914 62.5,265.5C 51.2785,266.061 50.9452,267.395 61.5,269.5C 61.5,270.5 61.5,271.5 61.5,272.5C 56.7247,271.926 52.058,271.093 47.5,270C 52.6003,272.613 57.267,275.78 61.5,279.5C 60.6667,279.833 59.8333,280.167 59,280.5C 52.3115,276.901 45.8115,272.901 39.5,268.5C 39.1667,269.333 38.8333,270.167 38.5,271C 40.3095,283.119 41.6429,295.286 42.5,307.5C 50.245,303.449 57.5783,298.616 64.5,293C 65.1667,292.833 65.8333,292.667 66.5,292.5C 67.9317,292.733 68.4317,293.4 68,294.5C 63.6089,298.612 58.7755,302.112 53.5,305C 58.4231,303.556 63.4231,302.056 68.5,300.5C 68.67,301.822 68.3366,302.989 67.5,304C 63.7143,305.393 60.0477,307.059 56.5,309C 61.8642,309.171 67.1975,309.671 72.5,310.5C 72.2907,311.086 71.9574,311.586 71.5,312C 57.2473,312.751 57.5807,313.751 72.5,315C 72.9574,315.414 73.2907,315.914 73.5,316.5C 67.5092,317.333 61.5092,317.5 55.5,317C 60.0077,319.754 64.6743,322.254 69.5,324.5C 70.3857,325.325 70.719,326.325 70.5,327.5C 69.1266,327.657 67.7932,327.49 66.5,327C 59.4128,323.039 52.2461,319.206 45,315.5C 45.0503,321.748 46.3837,327.748 49,333.5C 54.9214,337.544 60.7547,341.711 66.5,346C 67.3366,347.011 67.67,348.178 67.5,349.5C 62.9926,347.446 58.6593,345.279 54.5,343C 58.099,347.368 60.7656,352.202 62.5,357.5C 61.1779,357.67 60.0113,357.337 59,356.5C 56.3333,352.5 53.6667,348.5 51,344.5C 52.5665,350.389 54.0665,356.389 55.5,362.5C 54.325,362.719 53.325,362.386 52.5,361.5C 50.9613,357.55 49.6279,353.55 48.5,349.5 Z"/></g>
<g><path style="opacity:1" fill="#d22427" d="M 353.5,251.5 C 352.167,251.5 350.833,251.5 349.5,251.5C 344.615,252.144 341.448,250.144 340,245.5C 340.131,249.897 338.631,253.564 335.5,256.5C 334.041,256.433 332.708,256.766 331.5,257.5C 322.785,256.403 319.952,251.737 323,243.5C 326.771,239.212 331.271,238.379 336.5,241C 337.211,242.255 338.044,243.421 339,244.5C 340.679,235.817 345.846,232.317 354.5,234C 361.391,240.18 361.057,246.013 353.5,251.5 Z"/></g>
<g><path style="opacity:0.998" fill="#3e9d47" d="M 204.5,249.5 C 206.576,247.416 208.91,245.749 211.5,244.5C 222.285,241.905 232.952,238.905 243.5,235.5C 243.67,236.822 243.337,237.989 242.5,239C 230.307,244.231 217.64,247.731 204.5,249.5 Z"/></g>
<g><path style="opacity:0.997" fill="#773646" d="M 345.5,236.5 C 347.167,236.5 348.833,236.5 350.5,236.5C 350.985,241.159 349.152,242.492 345,240.5C 344.421,239.072 344.588,237.738 345.5,236.5 Z"/></g>
<g><path style="opacity:0.999" fill="#3f9d47" d="M 159.5,281.5 C 158.878,282.627 158.045,283.627 157,284.5C 156.501,279.177 156.334,273.844 156.5,268.5C 157.529,258.217 160.196,248.383 164.5,239C 165.448,238.517 166.448,238.351 167.5,238.5C 165.441,245.845 163.275,253.178 161,260.5C 159.77,267.445 159.27,274.445 159.5,281.5 Z"/></g>
<g><path style="opacity:0.995" fill="#070d0c" d="M 393.5,239.5 C 397.604,239.884 401.271,241.384 404.5,244C 407.177,246.514 406.677,248.347 403,249.5C 400.177,248.017 397.343,246.517 394.5,245C 392.365,243.444 392.032,241.611 393.5,239.5 Z"/></g>
<g><path style="opacity:1" fill="#d02528" d="M 371.5,256.5 C 369.833,256.5 368.167,256.5 366.5,256.5C 359.433,252.195 358.766,247.028 364.5,241C 368.212,239.102 371.878,239.269 375.5,241.5C 379.919,247.922 378.586,252.922 371.5,256.5 Z"/></g>
<g><path style="opacity:0.997" fill="#7a3645" d="M 326.5,242.5 C 331.587,242.284 332.587,244.118 329.5,248C 324.722,248.073 323.722,246.24 326.5,242.5 Z"/></g>
<g><path style="opacity:0.994" fill="#7a3645" d="M 369.5,241.5 C 375.192,242.701 375.692,244.701 371,247.5C 367.168,246.198 366.668,244.198 369.5,241.5 Z"/></g>
<g><path style="opacity:0.965" fill="#419f47" d="M 466.5,242.5 C 467.833,247.833 469.167,253.167 470.5,258.5C 469.18,257.058 467.514,256.392 465.5,256.5C 465.562,260.568 467.562,263.235 471.5,264.5C 472.294,267.802 472.96,271.135 473.5,274.5C 471.564,273.741 469.731,272.741 468,271.5C 466.941,271.63 466.108,272.13 465.5,273C 468.101,276.112 471.101,278.612 474.5,280.5C 475.681,284.743 476.348,289.076 476.5,293.5C 470.473,290.69 469.473,291.857 473.5,297C 474.745,297.791 476.078,298.291 477.5,298.5C 478.167,301.5 478.833,304.5 479.5,307.5C 475.154,305.969 471.154,306.635 467.5,309.5C 466.305,309.134 465.639,308.301 465.5,307C 468.556,301.112 467.556,295.945 462.5,291.5C 464.117,289.368 464.617,287.035 464,284.5C 461.927,281.27 460.094,277.937 458.5,274.5C 461.901,269.191 462.234,263.691 459.5,258C 460.985,255.844 462.485,253.677 464,251.5C 464.66,248.322 465.493,245.322 466.5,242.5 Z"/></g>
<g><path style="opacity:1" fill="#154f42" d="M 349.5,251.5 C 350.339,263.483 348.173,274.816 343,285.5C 340.652,275.772 338.152,266.105 335.5,256.5C 338.631,253.564 340.131,249.897 340,245.5C 341.448,250.144 344.615,252.144 349.5,251.5 Z"/></g>
<g><path style="opacity:1" fill="#d22527" d="M 319.5,266.5 C 318.167,266.833 316.833,267.167 315.5,267.5C 306.522,267.69 302.689,263.357 304,254.5C 309.443,248.356 315.11,248.023 321,253.5C 323.121,258.115 322.621,262.448 319.5,266.5 Z"/></g>
<g><path style="opacity:0.999" fill="#3e9c47" d="M 190.5,262.5 C 191.672,260.461 193.338,259.128 195.5,258.5C 206.839,257.444 217.672,254.444 228,249.5C 230.341,250.007 230.841,251.174 229.5,253C 217.099,258.747 204.099,261.914 190.5,262.5 Z"/></g>
<g><path style="opacity:0.999" fill="#3e9c47" d="M 144.5,291.5 C 143.596,292.209 143.263,293.209 143.5,294.5C 142.5,294.5 141.5,294.5 140.5,294.5C 139.88,279.646 143.047,265.646 150,252.5C 151.011,251.663 152.178,251.33 153.5,251.5C 151.641,257.91 149.474,264.243 147,270.5C 145.012,277.361 144.178,284.361 144.5,291.5 Z"/></g>
<g><path style="opacity:1" fill="#f2decd" d="M 349.5,251.5 C 350.833,251.5 352.167,251.5 353.5,251.5C 353.902,263.632 352.069,275.299 348,286.5C 357.3,278.381 363.466,268.381 366.5,256.5C 368.167,256.5 369.833,256.5 371.5,256.5C 369.345,264.476 365.845,271.809 361,278.5C 355.577,284.118 350.077,289.618 344.5,295C 348.667,306.167 352.833,317.333 357,328.5C 357.798,330.259 357.631,331.926 356.5,333.5C 355.522,333.023 354.689,332.357 354,331.5C 349.195,319.581 344.695,307.581 340.5,295.5C 325.472,297.487 312.472,293.487 301.5,283.5C 302.167,282.167 303.167,281.167 304.5,280.5C 313.501,288.945 324.168,292.612 336.5,291.5C 327.305,285.313 320.305,277.313 315.5,267.5C 316.833,267.167 318.167,266.833 319.5,266.5C 324.005,274.846 330.171,281.846 338,287.5C 336.794,277.338 334.628,267.338 331.5,257.5C 332.708,256.766 334.041,256.433 335.5,256.5C 338.152,266.105 340.652,275.772 343,285.5C 348.173,274.816 350.339,263.483 349.5,251.5 Z"/></g>
<g><path style="opacity:0.995" fill="#783746" d="M 308.5,253.5 C 309.833,253.5 311.167,253.5 312.5,253.5C 312.756,255.912 311.756,257.579 309.5,258.5C 307.296,257.218 306.962,255.551 308.5,253.5 Z"/></g>
<g><path style="opacity:0.88" fill="#176473" d="M 470.5,258.5 C 470.833,260.5 471.167,262.5 471.5,264.5C 467.562,263.235 465.562,260.568 465.5,256.5C 467.514,256.392 469.18,257.058 470.5,258.5 Z"/></g>
<g><path style="opacity:0.998" fill="#3e9c47" d="M 172.5,277.5 C 172.953,276.542 173.619,275.708 174.5,275C 176.382,274.802 178.048,274.302 179.5,273.5C 190.522,272.271 201.188,269.604 211.5,265.5C 212.5,265.833 213.5,266.167 214.5,266.5C 209.829,270.233 204.496,272.733 198.5,274C 189.933,275.933 181.266,277.1 172.5,277.5 Z"/></g>
<g><path style="opacity:1" fill="#d32327" d="M 304.5,280.5 C 303.167,281.167 302.167,282.167 301.5,283.5C 294.759,286.165 289.593,284.499 286,278.5C 285.726,266.121 291.226,262.621 302.5,268C 305.496,271.808 306.163,275.975 304.5,280.5 Z"/></g>
<g><path style="opacity:1" fill="#d02628" d="M 101.5,265.5 C 111.849,265.684 115.349,270.684 112,280.5C 106.925,286.524 101.592,286.857 96,281.5C 94,277.833 94,274.167 96,270.5C 97.8119,268.7 99.6452,267.033 101.5,265.5 Z"/></g>
<g><path style="opacity:1" fill="#419f47" d="M 465.5,312.5 C 461.611,318.167 461.611,323.834 465.5,329.5C 462.797,326.481 459.464,324.481 455.5,323.5C 449.237,318.742 443.404,313.409 438,307.5C 437.8,303.247 437.3,299.08 436.5,295C 435.551,294.383 434.718,294.549 434,295.5C 433.814,297.9 433.314,300.234 432.5,302.5C 425.472,295.637 418.305,288.97 411,282.5C 409.054,282.763 408.388,283.763 409,285.5C 412.349,288.682 415.516,292.015 418.5,295.5C 415.572,296.484 412.572,296.817 409.5,296.5C 409.5,297.5 409.5,298.5 409.5,299.5C 414.931,299.875 420.264,300.708 425.5,302C 430.532,307.367 435.865,312.367 441.5,317C 436.511,317.499 431.511,317.666 426.5,317.5C 426.33,318.822 426.663,319.989 427.5,321C 433.833,321.333 440.167,321.667 446.5,322C 447.252,322.671 447.586,323.504 447.5,324.5C 444.805,324.933 442.638,326.266 441,328.5C 439.011,332.253 438.178,336.253 438.5,340.5C 433.464,340.412 428.464,339.912 423.5,339C 423.036,336.595 422.869,334.095 423,331.5C 422.535,330.069 421.701,328.903 420.5,328C 416.971,326.534 413.305,325.534 409.5,325C 408.572,324.612 407.905,323.945 407.5,323C 411.844,317.691 411.178,313.024 405.5,309C 401.638,307.73 398.304,305.73 395.5,303C 397.333,301.167 399.167,299.333 401,297.5C 403.172,289.138 401.172,281.804 395,275.5C 393.991,273.975 393.491,272.308 393.5,270.5C 396.908,271.367 400.242,272.533 403.5,274C 408.167,274.667 412.833,274.667 417.5,274C 420.333,271.833 423.167,269.667 426,267.5C 427.52,270.382 428.853,273.382 430,276.5C 433.859,283.139 438.859,284.139 445,279.5C 445.772,279.645 446.439,279.978 447,280.5C 448.083,284.575 449.416,288.575 451,292.5C 452.681,296.499 455.681,298.499 460,298.5C 460.662,303.727 462.496,308.394 465.5,312.5 Z"/></g>
<g><path style="opacity:0.999" fill="#753747" d="M 101.5,269.5 C 106.914,269.921 107.914,272.421 104.5,277C 97.7463,277.218 96.7463,274.718 101.5,269.5 Z"/></g>
<g><path style="opacity:0.993" fill="#793645" d="M 289.5,270.5 C 290.873,270.343 292.207,270.51 293.5,271C 294.451,271.718 294.617,272.551 294,273.5C 289.652,276.558 288.152,275.558 289.5,270.5 Z"/></g>
<g><path style="opacity:0.919" fill="#166374" d="M 473.5,274.5 C 474.15,276.435 474.483,278.435 474.5,280.5C 471.101,278.612 468.101,276.112 465.5,273C 466.108,272.13 466.941,271.63 468,271.5C 469.731,272.741 471.564,273.741 473.5,274.5 Z"/></g>
<g><path style="opacity:0.999" fill="#3e9d47" d="M 159.5,288.5 C 159.5,286.5 160.5,285.5 162.5,285.5C 166.153,285.888 169.82,286.221 173.5,286.5C 181.84,285.277 190.173,283.943 198.5,282.5C 199.5,282.833 200.5,283.167 201.5,283.5C 199.997,285.422 197.997,286.588 195.5,287C 183.559,289.399 171.559,289.899 159.5,288.5 Z"/></g>
<g><path style="opacity:1" fill="#41a047" d="M 218.5,399.5 C 214.251,400.626 210.251,402.293 206.5,404.5C 206.492,401.455 206.159,398.455 205.5,395.5C 210.434,386.473 215.767,377.64 221.5,369C 227.239,367.695 232.739,365.862 238,363.5C 238.601,362.035 238.101,361.035 236.5,360.5C 232.514,362.176 228.514,362.842 224.5,362.5C 229.167,353.5 233.833,344.5 238.5,335.5C 243.366,333.628 248.033,331.461 252.5,329C 252.37,327.941 251.87,327.108 251,326.5C 248.165,327.42 245.332,328.42 242.5,329.5C 242.167,329.167 241.833,328.833 241.5,328.5C 243.167,325.167 244.833,321.833 246.5,318.5C 245.855,317.354 245.022,316.354 244,315.5C 239.078,324.343 234.412,333.343 230,342.5C 228.651,338.1 227.151,333.767 225.5,329.5C 224.675,328.614 223.675,328.281 222.5,328.5C 223.139,335.087 224.806,341.421 227.5,347.5C 221.667,357.833 215.833,368.167 210,378.5C 208.333,374.833 206.667,371.167 205,367.5C 204,366.167 203,366.167 202,367.5C 203.063,372.699 204.563,377.866 206.5,383C 205.701,386.104 204.034,388.604 201.5,390.5C 197.594,387.418 193.261,386.751 188.5,388.5C 190.093,372.196 186.093,357.529 176.5,344.5C 176.608,343.558 176.941,342.725 177.5,342C 187.777,340.391 194.277,334.557 197,324.5C 197.499,320.179 197.666,315.846 197.5,311.5C 212.481,314.023 220.648,307.69 222,292.5C 222.368,291.09 223.201,290.09 224.5,289.5C 229.481,293.668 235.148,295.501 241.5,295C 247.827,291.577 253.327,287.077 258,281.5C 258.333,281.833 258.667,282.167 259,282.5C 259.151,289.896 259.818,297.229 261,304.5C 263.689,309.006 266.856,313.006 270.5,316.5C 268.47,320.041 266.637,323.708 265,327.5C 264.333,332.5 264.333,337.5 265,342.5C 265.792,344.587 266.959,346.421 268.5,348C 263.923,350.983 259.423,354.15 255,357.5C 253.964,359.87 253.464,362.37 253.5,365C 253.804,368.511 254.137,372.011 254.5,375.5C 249.228,374.549 245.728,376.549 244,381.5C 243.997,385.567 243.83,389.567 243.5,393.5C 235.135,395.505 226.801,397.505 218.5,399.5 Z"/></g>
<g><path style="opacity:0.999" fill="#115141" d="M 455.5,323.5 C 453.052,324.473 450.385,324.806 447.5,324.5C 447.586,323.504 447.252,322.671 446.5,322C 440.167,321.667 433.833,321.333 427.5,321C 426.663,319.989 426.33,318.822 426.5,317.5C 431.511,317.666 436.511,317.499 441.5,317C 435.865,312.367 430.532,307.367 425.5,302C 420.264,300.708 414.931,299.875 409.5,299.5C 409.5,298.5 409.5,297.5 409.5,296.5C 412.572,296.817 415.572,296.484 418.5,295.5C 415.516,292.015 412.349,288.682 409,285.5C 408.388,283.763 409.054,282.763 411,282.5C 418.305,288.97 425.472,295.637 432.5,302.5C 433.314,300.234 433.814,297.9 434,295.5C 434.718,294.549 435.551,294.383 436.5,295C 437.3,299.08 437.8,303.247 438,307.5C 443.404,313.409 449.237,318.742 455.5,323.5 Z"/></g>
<g><path style="opacity:0.913" fill="#186573" d="M 476.5,293.5 C 477.451,294.919 477.784,296.585 477.5,298.5C 476.078,298.291 474.745,297.791 473.5,297C 469.473,291.857 470.473,290.69 476.5,293.5 Z"/></g>
<g><path style="opacity:0.999" fill="#3e9c47" d="M 149.5,295.5 C 162.059,297.347 174.726,298.014 187.5,297.5C 187.5,298.5 187.5,299.5 187.5,300.5C 173.371,302.252 159.371,301.585 145.5,298.5C 144.402,297.603 144.402,296.77 145.5,296C 146.793,295.51 148.127,295.343 149.5,295.5 Z"/></g>
<g><path style="opacity:0.995" fill="#070c0c" d="M 89.5,306.5 C 91.3904,306.297 92.8904,306.963 94,308.5C 94.7485,310.332 95.7485,311.999 97,313.5C 97.7924,318.604 96.1258,319.604 92,316.5C 89.5686,313.383 88.7353,310.05 89.5,306.5 Z"/></g>
<g><path style="opacity:0.968" fill="#b52525" d="M 479.5,307.5 C 480.91,315.78 481.91,324.114 482.5,332.5C 478.8,333.758 475.134,333.758 471.5,332.5C 469.517,331.529 467.517,330.529 465.5,329.5C 461.611,323.834 461.611,318.167 465.5,312.5C 466.167,311.5 466.833,310.5 467.5,309.5C 471.154,306.635 475.154,305.969 479.5,307.5 Z"/></g>
<g><path style="opacity:0.997" fill="#753646" d="M 469.5,312.5 C 474.914,312.921 475.914,315.421 472.5,320C 467.917,320.934 466.417,319.1 468,314.5C 468.717,313.956 469.217,313.289 469.5,312.5 Z"/></g>
<g><path style="opacity:0.998" fill="#0d5141" d="M 205.5,395.5 C 203.457,394.421 202.124,392.754 201.5,390.5C 204.034,388.604 205.701,386.104 206.5,383C 204.563,377.866 203.063,372.699 202,367.5C 203,366.167 204,366.167 205,367.5C 206.667,371.167 208.333,374.833 210,378.5C 215.833,368.167 221.667,357.833 227.5,347.5C 224.806,341.421 223.139,335.087 222.5,328.5C 223.675,328.281 224.675,328.614 225.5,329.5C 227.151,333.767 228.651,338.1 230,342.5C 234.412,333.343 239.078,324.343 244,315.5C 245.022,316.354 245.855,317.354 246.5,318.5C 244.833,321.833 243.167,325.167 241.5,328.5C 241.833,328.833 242.167,329.167 242.5,329.5C 245.332,328.42 248.165,327.42 251,326.5C 251.87,327.108 252.37,327.941 252.5,329C 248.033,331.461 243.366,333.628 238.5,335.5C 233.833,344.5 229.167,353.5 224.5,362.5C 228.514,362.842 232.514,362.176 236.5,360.5C 238.101,361.035 238.601,362.035 238,363.5C 232.739,365.862 227.239,367.695 221.5,369C 215.767,377.64 210.434,386.473 205.5,395.5 Z"/></g>
<g><path style="opacity:0.996" fill="#070c0c" d="M 309.5,318.5 C 310.822,318.33 311.989,318.663 313,319.5C 313.735,321.871 314.568,324.205 315.5,326.5C 312.324,330.523 310.158,329.857 309,324.5C 308.322,322.402 308.489,320.402 309.5,318.5 Z"/></g>
<g><path style="opacity:1" fill="#d32427" d="M 455.5,323.5 C 459.464,324.481 462.797,326.481 465.5,329.5C 465.557,330.609 465.89,331.609 466.5,332.5C 467.44,336.463 467.607,340.463 467,344.5C 465.5,347.333 463.333,349.5 460.5,351C 449.862,354.179 442.528,350.679 438.5,340.5C 438.178,336.253 439.011,332.253 441,328.5C 442.638,326.266 444.805,324.933 447.5,324.5C 450.385,324.806 453.052,324.473 455.5,323.5 Z"/></g>
<g><path style="opacity:1" fill="#489a49" d="M 465.5,329.5 C 467.517,330.529 469.517,331.529 471.5,332.5C 471.716,334.681 470.883,336.347 469,337.5C 468.901,335.347 468.067,333.681 466.5,332.5C 465.89,331.609 465.557,330.609 465.5,329.5 Z"/></g>
<g><path style="opacity:0.997" fill="#773646" d="M 444.5,333.5 C 450.566,334.659 451.9,337.826 448.5,343C 441.075,342.484 439.742,339.318 444.5,333.5 Z"/></g>
<g><path style="opacity:0.963" fill="#b42225" d="M 482.5,334.5 C 483.877,342.726 484.543,351.06 484.5,359.5C 478.977,359.822 474.477,357.822 471,353.5C 466.149,341.865 469.982,335.532 482.5,334.5 Z"/></g>
<g><path style="opacity:0.999" fill="#0f685b" d="M 181.5,391.5 C 180.588,393.595 179.421,395.595 178,397.5C 177.501,401.486 177.334,405.486 177.5,409.5C 175.046,407.94 172.38,406.94 169.5,406.5C 162.833,398.329 156.333,389.995 150,381.5C 149.781,376.485 149.781,371.485 150,366.5C 148.853,365.542 147.853,365.875 147,367.5C 146.882,370.371 146.216,373.038 145,375.5C 141.182,370.715 137.015,366.215 132.5,362C 131.552,361.517 130.552,361.351 129.5,361.5C 129.491,363.308 129.991,364.975 131,366.5C 139.544,376.042 147.71,385.875 155.5,396C 151.459,396.173 147.459,396.673 143.5,397.5C 143.667,397.833 143.833,398.167 144,398.5C 148.414,399.303 152.914,399.803 157.5,400C 160.577,401.662 162.577,404.162 163.5,407.5C 157.73,410.034 154.063,414.367 152.5,420.5C 151.596,421.209 151.263,422.209 151.5,423.5C 145.455,423.697 139.455,423.363 133.5,422.5C 135.096,411.149 130.429,404.316 119.5,402C 118.643,401.311 117.977,400.478 117.5,399.5C 123.185,387.872 119.851,380.205 107.5,376.5C 107.34,374.801 107.506,373.134 108,371.5C 112.958,368.417 115.124,363.917 114.5,358C 114.333,355.833 114.167,353.667 114,351.5C 111.306,347.121 109.473,342.454 108.5,337.5C 115.369,340.511 122.536,342.845 130,344.5C 132.732,344.385 135.232,343.552 137.5,342C 138.785,339.577 140.618,337.744 143,336.5C 143.772,336.645 144.439,336.978 145,337.5C 147.111,351.135 154.944,356.801 168.5,354.5C 166.942,365.39 171.109,373.057 181,377.5C 180.266,382.172 180.433,386.839 181.5,391.5 Z"/></g>
<g><path style="opacity:0.999" fill="#743646" d="M 472.5,344.5 C 474.144,344.286 475.644,344.62 477,345.5C 477.758,347.769 477.591,349.936 476.5,352C 471.632,351.711 470.299,349.211 472.5,344.5 Z"/></g>
<g><path style="opacity:0.878" fill="#879185" d="M 48.5,349.5 C 47.5184,352.962 47.185,356.629 47.5,360.5C 46.3516,356.019 46.1849,351.352 47,346.5C 48.0386,347.244 48.5386,348.244 48.5,349.5 Z"/></g>
<g><path style="opacity:1" fill="#f1ddcd" d="M 339.5,346.5 C 340.995,346.415 341.995,347.081 342.5,348.5C 341.093,354.09 340.593,359.757 341,365.5C 343.06,360.38 345.393,355.38 348,350.5C 349.011,349.663 350.178,349.33 351.5,349.5C 349.011,355.473 346.845,361.473 345,367.5C 348.621,363.09 352.121,358.59 355.5,354C 356.944,353.219 358.277,353.386 359.5,354.5C 353.192,363.308 346.692,371.975 340,380.5C 339.093,393.691 337.927,406.858 336.5,420C 336.833,421.167 337.167,422.333 337.5,423.5C 345.517,418.657 353.85,414.657 362.5,411.5C 362.67,412.822 362.337,413.989 361.5,415C 357.5,417 353.5,419 349.5,421C 353.212,420.715 356.879,419.882 360.5,418.5C 363.185,418.708 363.851,419.875 362.5,422C 356.64,423.213 350.973,424.879 345.5,427C 351.464,428.216 357.464,429.216 363.5,430C 364.337,431.011 364.67,432.178 364.5,433.5C 359.15,432.758 353.817,432.258 348.5,432C 351.557,434.723 354.89,437.056 358.5,439C 360.037,440.11 360.703,441.61 360.5,443.5C 355.671,441.529 351.171,438.862 347,435.5C 346.333,436.167 346.333,436.833 347,437.5C 351.205,440.85 354.371,444.85 356.5,449.5C 355.448,449.649 354.448,449.483 353.5,449C 347.301,443.136 341.468,436.969 336,430.5C 333.489,449.229 330.656,467.895 327.5,486.5C 326.5,486.5 325.5,486.5 324.5,486.5C 325.502,477.827 326.502,469.161 327.5,460.5C 318.675,463.061 309.675,464.228 300.5,464C 299.167,463.333 299.167,462.667 300.5,462C 305.524,461.081 310.524,460.081 315.5,459C 310.177,458.501 304.844,458.334 299.5,458.5C 299.33,457.178 299.663,456.011 300.5,455C 304.167,454.667 307.833,454.333 311.5,454C 308.048,452.774 304.715,451.274 301.5,449.5C 300.614,448.675 300.281,447.675 300.5,446.5C 306.201,448.127 311.868,449.627 317.5,451C 313.833,448.667 310.167,446.333 306.5,444C 305.663,442.989 305.33,441.822 305.5,440.5C 308.769,440.884 311.603,442.218 314,444.5C 312.252,440.717 309.586,437.384 306,434.5C 305.517,433.552 305.351,432.552 305.5,431.5C 306.552,431.351 307.552,431.517 308.5,432C 315.375,438.708 322.042,445.541 328.5,452.5C 331.489,438.945 332.822,425.279 332.5,411.5C 323.794,416.404 314.794,420.738 305.5,424.5C 303.646,423.824 303.313,422.824 304.5,421.5C 311.045,418.06 317.712,414.894 324.5,412C 317.462,412.673 310.462,413.839 303.5,415.5C 303.33,414.178 303.663,413.011 304.5,412C 310.737,410.191 317.07,408.857 323.5,408C 316.829,407.474 310.163,406.974 303.5,406.5C 303.5,405.5 303.5,404.5 303.5,403.5C 309.176,403.666 314.843,403.499 320.5,403C 315.659,400.079 310.659,397.412 305.5,395C 304.663,393.989 304.33,392.822 304.5,391.5C 310.245,393.716 315.912,395.882 321.5,398C 317.905,394.95 314.405,391.784 311,388.5C 310.517,387.552 310.351,386.552 310.5,385.5C 311.552,385.351 312.552,385.517 313.5,386C 320.019,392.02 326.685,397.853 333.5,403.5C 335.475,395.96 335.975,388.293 335,380.5C 329.607,371.048 324.774,361.381 320.5,351.5C 321.822,351.33 322.989,351.663 324,352.5C 326.745,358.325 329.745,363.992 333,369.5C 333.116,362.804 332.616,356.138 331.5,349.5C 332.833,349.5 334.167,349.5 335.5,349.5C 335.485,353.56 335.985,357.56 337,361.5C 337.756,356.439 338.589,351.439 339.5,346.5 Z"/></g>
<g><path style="opacity:1" fill="#cf2628" d="M 288.5,348.5 C 298.36,348.543 301.527,353.21 298,362.5C 292.884,368.536 287.55,368.869 282,363.5C 279.915,356.48 282.081,351.48 288.5,348.5 Z"/></g>
<g><path style="opacity:0.999" fill="#793645" d="M 289.5,351.5 C 293.843,351.347 296.01,353.347 296,357.5C 293.936,358.591 291.769,358.758 289.5,358C 286.939,355.844 286.939,353.677 289.5,351.5 Z"/></g>
<g><path style="opacity:0.994" fill="#070c0c" d="M 427.5,357.5 C 429.384,357.712 430.717,358.712 431.5,360.5C 430.231,364.054 428.231,367.054 425.5,369.5C 423.833,369.167 422.833,368.167 422.5,366.5C 423.909,363.349 425.575,360.349 427.5,357.5 Z"/></g>
<g><path style="opacity:0.993" fill="#0b4f41" d="M 169.5,406.5 C 167.435,406.517 165.435,406.85 163.5,407.5C 162.577,404.162 160.577,401.662 157.5,400C 152.914,399.803 148.414,399.303 144,398.5C 143.833,398.167 143.667,397.833 143.5,397.5C 147.459,396.673 151.459,396.173 155.5,396C 147.71,385.875 139.544,376.042 131,366.5C 129.991,364.975 129.491,363.308 129.5,361.5C 130.552,361.351 131.552,361.517 132.5,362C 137.015,366.215 141.182,370.715 145,375.5C 146.216,373.038 146.882,370.371 147,367.5C 147.853,365.875 148.853,365.542 150,366.5C 149.781,371.485 149.781,376.485 150,381.5C 156.333,389.995 162.833,398.329 169.5,406.5 Z"/></g>
<g><path style="opacity:0.996" fill="#060b0b" d="M 11.5,367.5 C 14.8333,368.167 18.1667,368.833 21.5,369.5C 21.5,371.167 21.5,372.833 21.5,374.5C 17.8691,374.84 14.5358,374.006 11.5,372C 10.5868,370.586 10.5868,369.086 11.5,367.5 Z"/></g>
<g><path style="opacity:0.878" fill="#9ea293" d="M -0.5,369.5 C -0.166667,369.5 0.166667,369.5 0.5,369.5C 1.57292,371.347 1.57292,373.347 0.5,375.5C 0.166667,375.5 -0.166667,375.5 -0.5,375.5C -0.5,373.5 -0.5,371.5 -0.5,369.5 Z"/></g>
<g><path style="opacity:0.999" fill="#070c0c" d="M 372.5,381.5 C 374.199,381.34 375.866,381.506 377.5,382C 378.451,382.718 378.617,383.551 378,384.5C 374.531,387.985 370.364,389.985 365.5,390.5C 365.34,388.801 365.506,387.134 366,385.5C 368.314,384.267 370.481,382.933 372.5,381.5 Z"/></g>
<g><path style="opacity:0.994" fill="#43a048" d="M -0.5,382.5 C -0.166667,382.5 0.166667,382.5 0.5,382.5C 0.168631,391.192 0.501964,399.859 1.5,408.5C 5.10784,409.593 8.7745,409.76 12.5,409C 18.2394,405.258 22.5727,400.258 25.5,394C 28.4658,394.626 31.4658,395.626 34.5,397C 36.8333,397.667 39.1667,397.667 41.5,397C 44.0159,394.317 46.6826,391.817 49.5,389.5C 58.6598,392.951 66.6598,391.118 73.5,384C 75.1341,383.506 76.8008,383.34 78.5,383.5C 78.5086,385.308 78.0086,386.975 77,388.5C 73.9368,392.569 71.2701,396.902 69,401.5C 68.6799,407.891 69.1799,414.224 70.5,420.5C 64.6133,421.554 61.28,425.054 60.5,431C 61.45,434.488 61.95,437.988 62,441.5C 59.834,443.121 57.334,443.955 54.5,444C 49.2642,449.377 47.0975,455.877 48,463.5C 44.9243,464.288 41.7577,464.788 38.5,465C 37.0692,465.465 35.9025,466.299 35,467.5C 33.4594,471.602 32.2927,475.769 31.5,480C 26.2464,479.027 20.913,478.694 15.5,479C 12.171,480.329 9.17102,482.163 6.5,484.5C 4.71178,476.663 3.37845,468.663 2.5,460.5C 6.56981,457.94 10.2365,454.773 13.5,451C 17.8261,451.093 22.1595,451.093 26.5,451C 27.3366,449.989 27.67,448.822 27.5,447.5C 24.7531,447.813 22.0865,447.48 19.5,446.5C 28.7207,437.623 37.8873,428.623 47,419.5C 47.4828,418.552 47.6495,417.552 47.5,416.5C 45.6916,416.491 44.0249,416.991 42.5,418C 39.3333,421.167 36.1667,424.333 33,427.5C 32.4596,423.649 32.6262,419.815 33.5,416C 33.4624,412.112 32.2958,411.612 30,414.5C 28.8709,420.479 27.8709,426.479 27,432.5C 19.2655,440.738 11.0988,448.405 2.5,455.5C 1.67036,444.01 0.670363,432.676 -0.5,421.5C -0.5,408.5 -0.5,395.5 -0.5,382.5 Z"/></g>
<g><path style="opacity:1" fill="#b42526" d="M 201.5,390.5 C 202.124,392.754 203.457,394.421 205.5,395.5C 206.159,398.455 206.492,401.455 206.5,404.5C 205,409.661 202,413.661 197.5,416.5C 194.921,416.394 192.588,417.061 190.5,418.5C 186.826,418.037 183.659,416.37 181,413.5C 180.601,413.728 180.435,414.062 180.5,414.5C 179.11,413.101 178.11,411.434 177.5,409.5C 177.334,405.486 177.501,401.486 178,397.5C 179.421,395.595 180.588,393.595 181.5,391.5C 183.954,390.773 186.287,389.773 188.5,388.5C 193.261,386.751 197.594,387.418 201.5,390.5 Z"/></g>
<g><path style="opacity:0.997" fill="#753646" d="M 196.5,396.5 C 202.191,396.554 203.858,399.221 201.5,404.5C 197.147,407.494 194.48,406.327 193.5,401C 193.557,398.791 194.557,397.291 196.5,396.5 Z"/></g>
<g><path style="opacity:0.999" fill="#0f685b" d="M 218.5,399.5 C 218.389,400.117 218.056,400.617 217.5,401C 219.557,404.723 222.557,407.39 226.5,409C 232.167,409.333 237.833,409.667 243.5,410C 247.076,423.807 256.076,429.641 270.5,427.5C 267.726,437.277 270.559,444.944 279,450.5C 279.667,451.5 279.667,452.5 279,453.5C 274.454,455.522 269.954,457.689 265.5,460C 261.147,463.666 257.647,467.832 255,472.5C 249.914,469.208 244.414,466.874 238.5,465.5C 236.423,465.692 234.423,466.192 232.5,467C 230.946,468.892 229.112,470.392 227,471.5C 223.604,468.905 220.771,465.739 218.5,462C 217.127,461.125 215.627,460.625 214,460.5C 209.191,462.11 204.357,463.277 199.5,464C 199,463.5 198.5,463 198,462.5C 197.548,457.316 196.381,452.316 194.5,447.5C 202.284,446.382 207.284,442.049 209.5,434.5C 217.345,436.226 225.012,438.559 232.5,441.5C 234.039,445.705 235.872,449.705 238,453.5C 239.787,450.19 239.621,446.857 237.5,443.5C 238,443.167 238.5,442.833 239,442.5C 243,443.833 247,445.167 251,446.5C 252.5,446.333 253.333,445.5 253.5,444C 252.318,442.265 250.651,441.265 248.5,441C 238.789,438.489 229.123,435.822 219.5,433C 222.673,430.913 226.006,429.079 229.5,427.5C 230.386,426.675 230.719,425.675 230.5,424.5C 228.801,424.34 227.134,424.506 225.5,425C 220.469,428.298 215.136,429.798 209.5,429.5C 208.92,421.923 204.92,417.59 197.5,416.5C 202,413.661 205,409.661 206.5,404.5C 210.251,402.293 214.251,400.626 218.5,399.5 Z"/></g>
<g><path style="opacity:1" fill="#2e8741" d="M 474.5,509.5 C 474.5,509.833 474.5,510.167 474.5,510.5C 471.561,510.082 469.228,508.582 467.5,506C 451.777,501.932 438.277,494.099 427,482.5C 426.517,481.552 426.351,480.552 426.5,479.5C 427.552,479.351 428.552,479.517 429.5,480C 434.776,485.633 440.776,490.3 447.5,494C 452.753,497.473 458.419,499.473 464.5,500C 462.23,495.402 459.563,491.069 456.5,487C 441.148,481.906 427.981,473.406 417,461.5C 416.301,459.926 416.635,458.593 418,457.5C 428.054,468.391 439.887,476.724 453.5,482.5C 453.833,482 454.167,481.5 454.5,481C 452.732,476.018 450.399,471.351 447.5,467C 433.532,461.098 421.366,452.598 411,441.5C 410.5,439.333 411.333,438.5 413.5,439C 423.042,448.681 433.875,456.515 446,462.5C 445.985,459.43 445.318,456.43 444,453.5C 438.5,450 433,446.5 427.5,443C 422.667,438.167 417.833,433.333 413,428.5C 411.441,426.783 410.608,424.783 410.5,422.5C 411.552,422.351 412.552,422.517 413.5,423C 420.823,432.828 429.823,440.661 440.5,446.5C 440.996,442.777 440.329,439.11 438.5,435.5C 429.559,429.394 421.726,422.061 415,413.5C 413.991,411.975 413.491,410.308 413.5,408.5C 414.552,408.351 415.552,408.517 416.5,409C 421.979,416.979 428.646,423.813 436.5,429.5C 437.132,426.128 436.632,422.795 435,419.5C 427.282,412.456 421.115,404.289 416.5,395C 416.613,393.72 417.28,392.887 418.5,392.5C 422.427,399.42 427.093,405.753 432.5,411.5C 433.484,408.572 433.817,405.572 433.5,402.5C 434.822,402.33 435.989,402.663 437,403.5C 436.504,414.186 438.171,414.853 442,405.5C 443.194,400.721 444.694,396.055 446.5,391.5C 447.002,390.479 447.668,390.312 448.5,391C 448.328,400.522 445.495,409.356 440,417.5C 439.15,421.052 439.65,424.385 441.5,427.5C 444.144,424.891 446.311,421.891 448,418.5C 450.667,411.167 453.333,403.833 456,396.5C 457.011,395.663 458.178,395.33 459.5,395.5C 457.171,409.001 451.671,421.001 443,431.5C 442.971,436.014 443.971,440.347 446,444.5C 453.691,435.453 459.024,425.12 462,413.5C 462.689,412.643 463.522,411.977 464.5,411.5C 463.009,425.989 457.009,438.489 446.5,449C 447.775,452.941 449.275,456.774 451,460.5C 457.248,452.003 461.915,442.67 465,432.5C 466.011,431.663 467.178,431.33 468.5,431.5C 467.173,437.314 465.34,442.981 463,448.5C 459.485,454.205 455.985,459.872 452.5,465.5C 453.969,469.906 455.636,474.239 457.5,478.5C 458.002,479.521 458.668,479.688 459.5,479C 466.342,470.996 471.009,461.829 473.5,451.5C 475.378,450.339 476.378,451.006 476.5,453.5C 473.527,465.115 468.193,475.448 460.5,484.5C 462.746,489.326 465.246,493.992 468,498.5C 469.393,494.714 471.059,491.048 473,487.5C 474.011,486.663 475.178,486.33 476.5,486.5C 475.213,491.913 473.213,497.079 470.5,502C 471.644,504.633 472.977,507.133 474.5,509.5 Z"/></g>
<g><path style="opacity:1" fill="#d42227" d="M 169.5,406.5 C 172.38,406.94 175.046,407.94 177.5,409.5C 178.11,411.434 179.11,413.101 180.5,414.5C 181.824,419.915 181.491,425.248 179.5,430.5C 170.924,439.736 162.424,439.736 154,430.5C 152.801,427.274 152.301,423.941 152.5,420.5C 154.063,414.367 157.73,410.034 163.5,407.5C 165.435,406.85 167.435,406.517 169.5,406.5 Z"/></g>
<g><path style="opacity:0.991" fill="#0d5241" d="M 2.5,460.5 C 2.5,458.833 2.5,457.167 2.5,455.5C 11.0988,448.405 19.2655,440.738 27,432.5C 27.8709,426.479 28.8709,420.479 30,414.5C 32.2958,411.612 33.4624,412.112 33.5,416C 32.6262,419.815 32.4596,423.649 33,427.5C 36.1667,424.333 39.3333,421.167 42.5,418C 44.0249,416.991 45.6916,416.491 47.5,416.5C 47.6495,417.552 47.4828,418.552 47,419.5C 37.8873,428.623 28.7207,437.623 19.5,446.5C 22.0865,447.48 24.7531,447.813 27.5,447.5C 27.67,448.822 27.3366,449.989 26.5,451C 22.1595,451.093 17.8261,451.093 13.5,451C 10.2365,454.773 6.56981,457.94 2.5,460.5 Z"/></g>
<g><path style="opacity:1" fill="#2c748b" d="M 190.5,418.5 C 185.58,421.433 182.58,425.766 181.5,431.5C 180.833,431.167 180.167,430.833 179.5,430.5C 181.491,425.248 181.824,419.915 180.5,414.5C 180.435,414.062 180.601,413.728 181,413.5C 183.659,416.37 186.826,418.037 190.5,418.5 Z"/></g>
<g><path style="opacity:1" fill="#d32428" d="M 197.5,416.5 C 204.92,417.59 208.92,421.923 209.5,429.5C 209.5,431.167 209.5,432.833 209.5,434.5C 207.284,442.049 202.284,446.382 194.5,447.5C 185.783,445.779 181.45,440.446 181.5,431.5C 182.58,425.766 185.58,421.433 190.5,418.5C 192.588,417.061 194.921,416.394 197.5,416.5 Z"/></g>
<g><path style="opacity:0.997" fill="#773646" d="M 158.5,417.5 C 163.213,417.468 164.713,419.801 163,424.5C 159.474,428.766 156.974,428.266 155.5,423C 155.863,420.808 156.863,418.974 158.5,417.5 Z"/></g>
<g><path style="opacity:0.993" fill="#0b4f42" d="M 209.5,434.5 C 209.5,432.833 209.5,431.167 209.5,429.5C 215.136,429.798 220.469,428.298 225.5,425C 227.134,424.506 228.801,424.34 230.5,424.5C 230.719,425.675 230.386,426.675 229.5,427.5C 226.006,429.079 222.673,430.913 219.5,433C 229.123,435.822 238.789,438.489 248.5,441C 250.651,441.265 252.318,442.265 253.5,444C 253.333,445.5 252.5,446.333 251,446.5C 247,445.167 243,443.833 239,442.5C 238.5,442.833 238,443.167 237.5,443.5C 239.621,446.857 239.787,450.19 238,453.5C 235.872,449.705 234.039,445.705 232.5,441.5C 225.012,438.559 217.345,436.226 209.5,434.5 Z"/></g>
<g><path style="opacity:0.997" fill="#793645" d="M 199.5,431.5 C 204.699,432.259 205.699,434.759 202.5,439C 197.917,439.934 196.417,438.1 198,433.5C 198.717,432.956 199.217,432.289 199.5,431.5 Z"/></g>
<g><path style="opacity:1" fill="#b52225" d="M 135.5,459.5 C 147.088,459.292 151.588,464.959 149,476.5C 146.367,481.732 142.201,483.565 136.5,482C 130.627,478.061 128.46,472.561 130,465.5C 131.36,462.977 133.193,460.977 135.5,459.5 Z"/></g>
<g><path style="opacity:0.999" fill="#763645" d="M 136.5,463.5 C 139.571,462.925 141.571,464.091 142.5,467C 139.859,472.632 137.192,472.799 134.5,467.5C 134.752,465.927 135.418,464.594 136.5,463.5 Z"/></g>
<g><path style="opacity:0.996" fill="#060b0b" d="M 178.5,476.5 C 183.451,477.274 186.784,480.107 188.5,485C 186.703,488.146 184.536,488.313 182,485.5C 179.713,482.928 178.547,479.928 178.5,476.5 Z"/></g>
<g><path style="opacity:1" fill="#d12527" d="M 51.5,488.5 C 64.2517,487.987 68.0851,493.654 63,505.5C 57.2602,510.756 51.5935,510.756 46,505.5C 43.2691,498.307 45.1025,492.64 51.5,488.5 Z"/></g>
<g><path style="opacity:0.946" fill="#2b7c3d" d="M 112.5,491.5 C 116.874,492.344 121.207,493.344 125.5,494.5C 126.728,507.887 128.395,521.22 130.5,534.5C 123.825,534.327 119.658,530.993 118,524.5C 113.624,513.806 111.791,502.806 112.5,491.5 Z"/></g>
<g><path style="opacity:0.999" fill="#773646" d="M 56.5,491.5 C 59.3523,491.352 61.019,492.686 61.5,495.5C 60.8861,497.948 59.3861,499.615 57,500.5C 52.5696,497.831 52.4029,494.831 56.5,491.5 Z"/></g>
<g><path style="opacity:0.699" fill="#2a7a3d" d="M 375.5,493.5 C 376.79,498.906 376.456,504.239 374.5,509.5C 373.35,504.684 373.184,499.684 374,494.5C 374.383,493.944 374.883,493.611 375.5,493.5 Z"/></g>
<g><path style="opacity:0.976" fill="#2a7b3d" d="M 370.5,520.5 C 368.952,524.598 367.119,528.598 365,532.5C 363.887,533.305 362.721,533.972 361.5,534.5C 361.5,521.833 361.5,509.167 361.5,496.5C 364.426,495.539 367.426,494.873 370.5,494.5C 370.5,503.167 370.5,511.833 370.5,520.5 Z"/></g>
<g><path style="opacity:0.991" fill="#2b7c3d" d="M 144.5,537.5 C 141.198,536.706 137.865,536.04 134.5,535.5C 132.927,522.489 131.26,509.489 129.5,496.5C 133.516,496.287 137.35,496.954 141,498.5C 142.443,511.481 143.609,524.481 144.5,537.5 Z"/></g>
<g><path style="opacity:0.991" fill="#2a7b3d" d="M 357.5,536.5 C 354.039,538.091 350.372,538.758 346.5,538.5C 346.333,525.496 346.5,512.496 347,499.5C 350.364,498.261 353.864,497.594 357.5,497.5C 357.5,510.5 357.5,523.5 357.5,536.5 Z"/></g>
<g><path style="opacity:0.99" fill="#2b7c3d" d="M 159.5,540.5 C 156.239,539.622 152.906,538.956 149.5,538.5C 147.342,525.237 146.175,511.904 146,498.5C 148.405,499.274 150.905,499.774 153.5,500C 154.967,501.098 155.801,502.598 156,504.5C 156.837,516.54 158.004,528.54 159.5,540.5 Z"/></g>
<g><path style="opacity:0.991" fill="#2a7a3d" d="M 343.5,539.5 C 340.214,540.207 336.881,540.54 333.5,540.5C 332.694,527.183 332.361,513.85 332.5,500.5C 336.215,500.577 339.881,500.244 343.5,499.5C 343.5,512.833 343.5,526.167 343.5,539.5 Z"/></g>
<g><path style="opacity:0.992" fill="#2b7c3d" d="M 174.5,541.5 C 170.821,541.276 167.154,540.942 163.5,540.5C 162.002,527.183 160.669,513.849 159.5,500.5C 163.767,500.752 167.934,501.419 172,502.5C 172.913,515.504 173.746,528.504 174.5,541.5 Z"/></g>
<g><path style="opacity:0.992" fill="#2b7c3d" d="M 329.5,541.5 C 325.143,541.586 320.81,541.92 316.5,542.5C 316.211,529.965 315.544,517.465 314.5,505C 314.645,504.228 314.978,503.561 315.5,503C 319.813,502.265 324.147,501.765 328.5,501.5C 328.222,514.87 328.555,528.203 329.5,541.5 Z"/></g>
<g><path style="opacity:0.99" fill="#2b7b3d" d="M 192.5,543.5 C 187.848,543.002 183.181,542.669 178.5,542.5C 177.105,529.208 176.438,515.875 176.5,502.5C 181.518,502.613 186.518,502.947 191.5,503.5C 191.361,516.85 191.694,530.183 192.5,543.5 Z"/></g>
<g><path style="opacity:0.986" fill="#2b7c3d" d="M 206.5,544.5 C 203.098,544.658 199.764,544.324 196.5,543.5C 196.055,530.145 195.388,516.812 194.5,503.5C 197.777,503.216 200.943,503.549 204,504.5C 204.744,517.844 205.577,531.177 206.5,544.5 Z"/></g>
<g><path style="opacity:0.989" fill="#2b7c3d" d="M 312.5,542.5 C 307.859,543.127 303.193,543.46 298.5,543.5C 297.786,530.179 297.453,516.845 297.5,503.5C 302.167,503.5 306.833,503.5 311.5,503.5C 311.223,516.537 311.557,529.537 312.5,542.5 Z"/></g>
<g><path style="opacity:0.992" fill="#2b7c3d" d="M 221.5,545.5 C 217.865,544.886 214.198,544.552 210.5,544.5C 209.644,531.177 208.977,517.843 208.5,504.5C 212.437,504.207 216.27,504.54 220,505.5C 220.42,518.84 220.92,532.174 221.5,545.5 Z"/></g>
<g><path style="opacity:0.989" fill="#2b7b3d" d="M 294.5,543.5 C 290.846,543.942 287.179,544.276 283.5,544.5C 282.536,531.216 282.203,517.883 282.5,504.5C 286.167,504.5 289.833,504.5 293.5,504.5C 294.083,517.492 294.416,530.492 294.5,543.5 Z"/></g>
<g><path style="opacity:0.982" fill="#2b7b3d" d="M 234.5,545.5 C 231.5,545.5 228.5,545.5 225.5,545.5C 224.723,532.181 224.389,518.848 224.5,505.5C 227.5,505.5 230.5,505.5 233.5,505.5C 233.66,518.839 233.993,532.172 234.5,545.5 Z"/></g>
<g><path style="opacity:1" fill="#2b7c3d" d="M 247.5,544.5 C 244.833,544.5 242.167,544.5 239.5,544.5C 238.138,531.672 237.138,518.672 236.5,505.5C 239.833,505.5 243.167,505.5 246.5,505.5C 246.244,518.53 246.577,531.53 247.5,544.5 Z"/></g>
<g><path style="opacity:0.997" fill="#2b7c3d" d="M 262.5,544.5 C 258.833,544.5 255.167,544.5 251.5,544.5C 250.673,531.518 250.339,518.518 250.5,505.5C 254.5,505.5 258.5,505.5 262.5,505.5C 262.5,518.5 262.5,531.5 262.5,544.5 Z"/></g>
<g><path style="opacity:0.987" fill="#2b7c3d" d="M 279.5,544.5 C 275.167,544.5 270.833,544.5 266.5,544.5C 266.5,531.5 266.5,518.5 266.5,505.5C 270.5,505.5 274.5,505.5 278.5,505.5C 278.244,518.53 278.577,531.53 279.5,544.5 Z"/></g>
<g><path style="opacity:0.996" fill="#070d0c" d="M 23.5,511.5 C 27.3189,511.605 30.9855,512.438 34.5,514C 36.1657,517.131 35.1657,518.631 31.5,518.5C 29.1332,518.158 26.7999,517.658 24.5,517C 22.3652,515.444 22.0319,513.611 23.5,511.5 Z"/></g>
<g><path style="opacity:0.896" fill="#2b7c3d" d="M 11.5,527.5 C 13.1667,527.5 14.8333,527.5 16.5,527.5C 17.8961,539.462 18.8961,551.462 19.5,563.5C 18.5041,563.586 17.6708,563.252 17,562.5C 12.9826,551.068 11.1492,539.402 11.5,527.5 Z"/></g>
<g><path style="opacity:0.922" fill="#2b7c3d" d="M 401.5,527.5 C 403.5,527.5 405.5,527.5 407.5,527.5C 407.5,539.833 407.5,552.167 407.5,564.5C 404.852,564.262 403.018,562.928 402,560.5C 399.958,549.904 398.958,539.238 399,528.5C 399.671,527.748 400.504,527.414 401.5,527.5 Z"/></g>
<g><path style="opacity:0.99" fill="#2a7b3d" d="M 29.5,566.5 C 27.7839,566.371 26.1172,566.038 24.5,565.5C 22.9693,553.194 21.636,540.86 20.5,528.5C 22.7659,528.141 24.5993,528.808 26,530.5C 27.3507,542.489 28.5173,554.489 29.5,566.5 Z"/></g>
<g><path style="opacity:0.992" fill="#2b7b3d" d="M 422.5,567.5 C 418.899,566.651 415.232,565.984 411.5,565.5C 411.5,552.833 411.5,540.167 411.5,527.5C 414.881,527.46 418.214,527.793 421.5,528.5C 421.313,541.52 421.646,554.52 422.5,567.5 Z"/></g>
<g><path style="opacity:0.867" fill="#2b7c3d" d="M 471.5,527.5 C 472.076,534.311 471.076,540.978 468.5,547.5C 467.187,541.041 466.521,534.374 466.5,527.5C 468.167,527.5 469.833,527.5 471.5,527.5 Z"/></g>
<g><path style="opacity:0.991" fill="#2b7b3d" d="M 40.5,567.5 C 38.1667,567.5 35.8333,567.5 33.5,567.5C 32.4303,554.803 31.097,542.136 29.5,529.5C 31.8333,529.5 34.1667,529.5 36.5,529.5C 37.8335,542.168 39.1669,554.835 40.5,567.5 Z"/></g>
<g><path style="opacity:0.998" fill="#2b7b3d" d="M 63.5,567.5 C 60.6146,567.194 57.9479,567.527 55.5,568.5C 52.5,568.5 49.5,568.5 46.5,568.5C 46.1583,567.662 45.4916,567.328 44.5,567.5C 43.7126,555.109 42.3793,542.775 40.5,530.5C 42.5,530.5 44.5,530.5 46.5,530.5C 47.8987,542.819 49.232,555.153 50.5,567.5C 51.8333,567.5 53.1667,567.5 54.5,567.5C 53.5319,554.787 52.1985,542.121 50.5,529.5C 53.8551,528.382 57.1884,528.382 60.5,529.5C 61.3078,531.423 61.8078,533.423 62,535.5C 62.3538,546.18 62.8538,556.847 63.5,567.5 Z"/></g>
<g><path style="opacity:0.95" fill="#2b7c3d" d="M 75.5,529.5 C 77.2106,540.631 76.044,551.631 72,562.5C 71.2525,564.751 69.7525,566.084 67.5,566.5C 66.2141,554.21 65.5474,541.876 65.5,529.5C 68.8333,529.5 72.1667,529.5 75.5,529.5 Z"/></g>
<g><path style="opacity:0.997" fill="#2b7c3d" d="M 438.5,567.5 C 434.5,567.5 430.5,567.5 426.5,567.5C 426.113,554.481 425.446,541.481 424.5,528.5C 428.437,528.207 432.27,528.54 436,529.5C 436.797,542.178 437.63,554.845 438.5,567.5 Z"/></g>
<g><path style="opacity:0.992" fill="#2a7b3d" d="M 450.5,566.5 C 447.794,566.575 445.127,566.908 442.5,567.5C 441.312,554.53 440.645,541.53 440.5,528.5C 443.833,528.5 447.167,528.5 450.5,528.5C 450.5,541.167 450.5,553.833 450.5,566.5 Z"/></g>
<g><path style="opacity:0.98" fill="#2b7b3d" d="M 465.5,555.5 C 464.336,561.667 460.669,565 454.5,565.5C 454.132,553.168 453.798,540.835 453.5,528.5C 456.5,528.5 459.5,528.5 462.5,528.5C 463.044,537.595 464.044,546.595 465.5,555.5 Z"/></g>
</svg>
