<?xml version="1.0" encoding="UTF-8"?>
<!DOCTYPE svg PUBLIC "-//W3C//DTD SVG 1.1//EN" "http://www.w3.org/Graphics/SVG/1.1/DTD/svg11.dtd">
<svg xmlns="http://www.w3.org/2000/svg" version="1.1" width="578px" height="518px" style="shape-rendering:geometricPrecision; text-rendering:geometricPrecision; image-rendering:optimizeQuality; fill-rule:evenodd; clip-rule:evenodd" xmlns:xlink="http://www.w3.org/1999/xlink">
<g><path style="opacity:0.984" fill="#136d8a" d="M 386.5,-0.5 C 388.833,-0.5 391.167,-0.5 393.5,-0.5C 396.557,1.0444 399.224,3.21106 401.5,6C 404.377,7.12685 407.377,7.79351 410.5,8C 411.252,8.67076 411.586,9.5041 411.5,10.5C 407.105,21.0725 399.939,29.4059 390,35.5C 389.508,36.549 389.674,37.549 390.5,38.5C 389.132,39.5937 387.965,39.2603 387,37.5C 384.586,39.2907 382.086,40.9574 379.5,42.5C 430.325,95.1292 452.492,158.129 446,231.5C 444.163,206.481 440.163,181.814 434,157.5C 433.626,155.509 432.793,153.842 431.5,152.5C 431.5,151.833 431.5,151.167 431.5,150.5C 420.713,110.74 401.047,76.2399 372.5,47C 360.708,51.0959 348.708,54.9292 336.5,58.5C 337.223,61.9991 337.223,65.6658 336.5,69.5C 334.02,66.6391 333.02,63.3058 333.5,59.5C 319.03,62.8087 304.363,64.4753 289.5,64.5C 289.666,56.4931 289.5,48.4931 289,40.5C 288,37.8333 287,37.8333 286,40.5C 285.692,39.6919 285.192,39.0253 284.5,38.5C 283.502,47.1411 283.169,55.8078 283.5,64.5C 259.818,63.7155 236.818,59.3821 214.5,51.5C 211.849,53.6499 209.349,55.9832 207,58.5C 205.244,56.9409 205.244,55.2742 207,53.5C 208.41,52.2125 209.91,51.0458 211.5,50C 209.541,49.0691 207.541,48.2357 205.5,47.5C 191.929,59.9841 180.762,74.3174 172,90.5C 148.844,133.938 136.177,180.272 134,229.5C 126.822,157.529 147.988,95.5287 197.5,43.5C 184.546,35.9422 173.046,26.6088 163,15.5C 161.991,13.9751 161.491,12.3084 161.5,10.5C 162.058,9.21009 163.058,8.37675 164.5,8C 167.167,7.33333 169.833,6.66667 172.5,6C 175.788,3.69916 179.288,1.86583 183,0.5C 184.226,0.644766 185.393,0.978099 186.5,1.5C 197.726,14.6192 211.726,23.4525 228.5,28C 258.067,35.3515 288.067,38.0182 318.5,36C 335.892,35.4107 351.558,30.0773 365.5,20C 371.733,12.2658 378.733,5.43251 386.5,-0.5 Z"/></g>
<g><path style="opacity:0.997" fill="#1c8197" d="M 161.5,10.5 C 161.491,12.3084 161.991,13.9751 163,15.5C 173.046,26.6088 184.546,35.9422 197.5,43.5C 147.988,95.5287 126.822,157.529 134,229.5C 136.177,180.272 148.844,133.938 172,90.5C 180.762,74.3174 191.929,59.9841 205.5,47.5C 207.541,48.2357 209.541,49.0691 211.5,50C 209.91,51.0458 208.41,52.2125 207,53.5C 205.244,55.2742 205.244,56.9409 207,58.5C 209.349,55.9832 211.849,53.6499 214.5,51.5C 236.818,59.3821 259.818,63.7155 283.5,64.5C 285.5,64.5 287.5,64.5 289.5,64.5C 304.363,64.4753 319.03,62.8087 333.5,59.5C 333.02,63.3058 334.02,66.6391 336.5,69.5C 337.223,65.6658 337.223,61.9991 336.5,58.5C 348.708,54.9292 360.708,51.0959 372.5,47C 401.047,76.2399 420.713,110.74 431.5,150.5C 429.19,149.543 426.856,148.543 424.5,147.5C 421.922,147.615 420.422,148.949 420,151.5C 419.667,150.833 419.333,150.167 419,149.5C 418.5,151 418,152.5 417.5,154C 417.974,155.704 418.141,157.538 418,159.5C 422.663,163.753 426.997,163.42 431,158.5C 430.577,156.613 430.744,154.613 431.5,152.5C 432.793,153.842 433.626,155.509 434,157.5C 440.163,181.814 444.163,206.481 446,231.5C 452.492,158.129 430.325,95.1292 379.5,42.5C 382.086,40.9574 384.586,39.2907 387,37.5C 387.965,39.2603 389.132,39.5937 390.5,38.5C 389.674,37.549 389.508,36.549 390,35.5C 399.939,29.4059 407.105,21.0725 411.5,10.5C 437.996,18.16 460.829,31.8267 480,51.5C 493.028,71.2217 503.695,92.2217 512,114.5C 531.317,165.435 545.484,217.769 554.5,271.5C 549.968,270.237 545.635,268.403 541.5,266C 533.914,258.41 525.248,252.41 515.5,248C 511.736,247.015 507.903,246.515 504,246.5C 496.814,247.42 489.647,248.587 482.5,250C 475.097,251.378 468.097,250.378 461.5,247C 457.833,243.333 454.167,239.667 450.5,236C 442.238,230.979 433.238,228.812 423.5,229.5C 408.622,233.02 394.955,230.52 382.5,222C 366.361,214.214 349.361,210.714 331.5,211.5C 318.883,194.362 301.883,186.696 280.5,188.5C 279.456,182.953 276.123,179.453 270.5,178C 267.076,177.253 263.743,177.42 260.5,178.5C 251.71,175.903 242.71,174.903 233.5,175.5C 232.347,174.687 232.347,173.687 233.5,172.5C 229.098,169.997 225.098,167.664 221.5,165.5C 219.939,166.347 218.439,166.014 217,164.5C 215.473,166.221 214.473,168.221 214,170.5C 213.311,169.643 212.478,168.977 211.5,168.5C 207.421,171.502 206.088,175.002 207.5,179C 205.003,181.26 205.67,182.593 209.5,183C 209.167,183.333 208.833,183.667 208.5,184C 209.667,184.5 210.5,185.333 211,186.5C 212.666,185.66 212.833,186.16 211.5,188C 212.549,188.492 213.549,188.326 214.5,187.5C 215.298,187.957 215.631,188.624 215.5,189.5C 212.61,198.605 212.943,207.605 216.5,216.5C 214.124,217.512 213.124,219.345 213.5,222C 213.294,228.609 216.294,232.775 222.5,234.5C 221.249,242.488 221.249,250.488 222.5,258.5C 209.87,260.815 198.87,266.315 189.5,275C 177.283,290.736 161.283,297.736 141.5,296C 139.807,295.153 138.14,294.32 136.5,293.5C 136.158,292.662 135.492,292.328 134.5,292.5C 134.809,274.474 134.309,256.474 133,238.5C 130.254,252.487 126.754,266.154 122.5,279.5C 119.006,276.856 115.34,274.356 111.5,272C 102.221,268.793 92.8877,268.793 83.5,272C 69.901,277.532 56.2344,282.866 42.5,288C 34.5871,290.073 27.9205,288.239 22.5,282.5C 32.2979,220.306 48.7979,159.973 72,101.5C 80.2895,81.5774 90.6229,62.9107 103,45.5C 120.07,29.963 139.57,18.2964 161.5,10.5 Z"/></g>
<g><path style="opacity:1" fill="#e6e2da" d="M 407.5,37.5 C 407.833,37.5 408.167,37.5 408.5,37.5C 408.5,38.8333 408.5,40.1667 408.5,41.5C 408.5,42.5 408.5,43.5 408.5,44.5C 409.806,45.4674 410.473,46.8007 410.5,48.5C 408.787,49.6354 408.12,51.302 408.5,53.5C 409.822,53.33 410.989,53.6634 412,54.5C 412.494,52.8659 412.66,51.1992 412.5,49.5C 413.609,49.5569 414.609,49.8902 415.5,50.5C 419.061,50.9149 418.894,51.9149 415,53.5C 414.667,52.8333 414.333,52.1667 414,51.5C 413.667,53.1667 413.333,54.8333 413,56.5C 411.663,55.2351 410.163,54.7351 408.5,55C 410.972,57.3436 410.639,57.8436 407.5,56.5C 407.443,55.391 407.11,54.391 406.5,53.5C 407.833,52.1667 407.833,50.8333 406.5,49.5C 405.067,47.4816 405.401,45.8149 407.5,44.5C 407.473,42.8007 406.806,41.4674 405.5,40.5C 407.048,40.1788 407.715,39.1788 407.5,37.5 Z"/></g>
<g><path style="opacity:1" fill="#115b78" d="M 289.5,64.5 C 287.5,64.5 285.5,64.5 283.5,64.5C 283.169,55.8078 283.502,47.1411 284.5,38.5C 285.192,39.0253 285.692,39.6919 286,40.5C 287,37.8333 288,37.8333 289,40.5C 289.5,48.4931 289.666,56.4931 289.5,64.5 Z"/></g>
<g><path style="opacity:1" fill="#1d8298" d="M 408.5,44.5 C 408.5,43.5 408.5,42.5 408.5,41.5C 409.496,41.5858 410.329,41.2524 411,40.5C 411.49,41.7932 411.657,43.1266 411.5,44.5C 410.5,44.5 409.5,44.5 408.5,44.5 Z"/></g>
<g><path style="opacity:1" fill="#328399" d="M 405.5,40.5 C 406.806,41.4674 407.473,42.8007 407.5,44.5C 405.365,44.853 404.032,44.0197 403.5,42C 403.836,40.9701 404.503,40.4701 405.5,40.5 Z"/></g>
<g><path style="opacity:1" fill="#c1caca" d="M 407.5,37.5 C 407.715,39.1788 407.048,40.1788 405.5,40.5C 404.503,40.4701 403.836,40.9701 403.5,42C 404.032,44.0197 405.365,44.853 407.5,44.5C 405.401,45.8149 405.067,47.4816 406.5,49.5C 404.278,49.5587 403.278,50.7253 403.5,53C 403.667,53.8333 403.833,54.6667 404,55.5C 404.708,54.6195 405.542,53.9528 406.5,53.5C 407.11,54.391 407.443,55.391 407.5,56.5C 406.778,56.9175 406.278,57.5842 406,58.5C 405.29,57.0267 404.124,56.3601 402.5,56.5C 402.66,54.8008 402.494,53.1341 402,51.5C 401.641,54.5443 400.974,54.8776 400,52.5C 399.667,52.8333 399.333,53.1667 399,53.5C 398.28,51.8876 398.446,50.3876 399.5,49C 397.232,46.968 397.898,45.6346 401.5,45C 399.314,44.3964 399.148,43.2297 401,41.5C 401.333,41.8333 401.667,42.1667 402,42.5C 402.219,41.062 402.719,39.7287 403.5,38.5C 404.167,38.8333 404.833,39.1667 405.5,39.5C 405.911,38.7376 406.077,37.7376 406,36.5C 406.383,37.056 406.883,37.3893 407.5,37.5 Z"/></g>
<g><path style="opacity:1" fill="#33869b" d="M 402.5,45.5 C 405.041,46.6228 405.041,47.9561 402.5,49.5C 399.875,48.1353 399.875,46.802 402.5,45.5 Z"/></g>
<g><path style="opacity:1" fill="#33869b" d="M 406.5,49.5 C 407.833,50.8333 407.833,52.1667 406.5,53.5C 405.542,53.9528 404.708,54.6195 404,55.5C 403.833,54.6667 403.667,53.8333 403.5,53C 403.278,50.7253 404.278,49.5587 406.5,49.5 Z"/></g>
<g><path style="opacity:1" fill="#33869b" d="M 410.5,48.5 C 410.842,49.3382 411.508,49.6716 412.5,49.5C 412.66,51.1992 412.494,52.8659 412,54.5C 410.989,53.6634 409.822,53.33 408.5,53.5C 408.12,51.302 408.787,49.6354 410.5,48.5 Z"/></g>
<g><path style="opacity:1" fill="#9fb6bd" d="M 408.5,37.5 C 409.239,37.369 409.906,37.5357 410.5,38C 409.304,38.6543 409.304,39.1543 410.5,39.5C 411.167,39.1667 411.833,38.8333 412.5,38.5C 413.281,39.7287 413.781,41.062 414,42.5C 415.088,39.0074 416.255,38.8408 417.5,42C 416.366,43.016 416.699,43.6827 418.5,44C 417.5,44.3333 416.5,44.6667 415.5,45C 416.91,45.3678 417.91,46.2011 418.5,47.5C 417.23,48.2876 416.23,49.2876 415.5,50.5C 414.609,49.8902 413.609,49.5569 412.5,49.5C 411.508,49.6716 410.842,49.3382 410.5,48.5C 410.473,46.8007 409.806,45.4674 408.5,44.5C 409.5,44.5 410.5,44.5 411.5,44.5C 411.657,43.1266 411.49,41.7932 411,40.5C 410.329,41.2524 409.496,41.5858 408.5,41.5C 408.5,40.1667 408.5,38.8333 408.5,37.5 Z"/></g>
<g><path style="opacity:1" fill="#e1ded8" d="M 124.5,55.5 C 123.527,55.0133 122.527,54.5133 121.5,54C 121.306,52.5701 121.306,51.0701 121.5,49.5C 123.577,50.9876 124.577,52.9876 124.5,55.5 Z"/></g>
<g><path style="opacity:1" fill="#d7d8d4" d="M 124.5,55.5 C 125.117,55.6107 125.617,55.944 126,56.5C 127.023,52.6831 126.523,49.1831 124.5,46C 126.259,45.2025 127.926,45.3691 129.5,46.5C 128.252,49.4937 128.252,52.4937 129.5,55.5C 130.281,54.2713 130.781,52.938 131,51.5C 131.333,51.8333 131.667,52.1667 132,52.5C 132.833,51.5 133.667,50.5 134.5,49.5C 135.594,50.868 135.26,52.0347 133.5,53C 134,53.5 134.5,54 135,54.5C 136.353,53.3147 137.52,51.9814 138.5,50.5C 140.111,51.3202 140.778,52.6536 140.5,54.5C 136.813,55.176 133.48,56.676 130.5,59C 132.567,59.5356 134.401,59.0356 136,57.5C 137.098,58.9675 138.598,59.8008 140.5,60C 137.112,61.0771 133.779,61.4104 130.5,61C 133.789,63.4776 137.456,65.1442 141.5,66C 140.167,66.6667 140.167,67.3333 141.5,68C 140.584,68.3742 139.75,68.8742 139,69.5C 136.875,66.3409 134.042,64.5075 130.5,64C 131.328,64.9147 132.328,65.5814 133.5,66C 133.306,67.9033 133.306,69.7367 133.5,71.5C 131.794,69.2951 130.294,66.9617 129,64.5C 128.248,67.8936 128.415,71.227 129.5,74.5C 129,74.8333 128.5,75.1667 128,75.5C 126.658,74.6871 125.492,74.3538 124.5,74.5C 126.508,70.7709 127.008,66.7709 126,62.5C 125.027,64.3921 124.36,66.3921 124,68.5C 122.434,67.9394 121.101,68.6061 120,70.5C 120.37,67.4681 121.87,64.9681 124.5,63C 120.96,63.1806 118.46,65.0139 117,68.5C 116.25,67.8742 115.416,67.3742 114.5,67C 115.833,66.3333 115.833,65.6667 114.5,65C 115.793,64.51 117.127,64.3433 118.5,64.5C 118.33,63.1779 118.663,62.0113 119.5,61C 118.167,60.6667 116.833,60.3333 115.5,60C 117.061,59.6824 118.228,58.8491 119,57.5C 120.133,59.2112 121.633,59.7112 123.5,59C 120.624,56.563 117.29,55.2297 113.5,55C 113.998,53.8419 114.831,53.0085 116,52.5C 118.818,53.91 121.485,55.5766 124,57.5C 124.464,56.9056 124.631,56.2389 124.5,55.5 Z"/></g>
<g><path style="opacity:1" fill="#e0ded8" d="M 366.5,58.5 C 368.876,60.1592 371.543,61.4926 374.5,62.5C 373.787,65.0963 373.787,67.7629 374.5,70.5C 371.976,70.4287 369.976,71.4287 368.5,73.5C 367.646,72.4783 366.646,71.6449 365.5,71C 367.007,70.1627 367.507,68.9961 367,67.5C 365.428,69.5628 363.595,70.2294 361.5,69.5C 362.484,67.4021 362.151,65.4021 360.5,63.5C 362.736,62.188 364.736,62.5213 366.5,64.5C 366.028,62.599 366.028,60.599 366.5,58.5 Z"/></g>
<g><path style="opacity:1" fill="#99b0ba" d="M 205.5,67.5 C 209.082,66.2976 211.082,67.6309 211.5,71.5C 209.94,71.4809 208.44,71.1476 207,70.5C 205.699,70.6387 204.866,71.3054 204.5,72.5C 203.89,73.391 203.557,74.391 203.5,75.5C 199.555,74.5752 199.555,73.4085 203.5,72C 202.626,70.2733 202.793,68.4399 204,66.5C 204.333,67.1667 204.667,67.8333 205,68.5C 205.399,68.2716 205.565,67.9382 205.5,67.5 Z"/></g>
<g><path style="opacity:1" fill="#357d96" d="M 203.5,75.5 C 203.557,74.391 203.89,73.391 204.5,72.5C 206.606,70.7562 207.939,71.2562 208.5,74C 207.284,76.4342 205.617,76.9342 203.5,75.5 Z"/></g>
<g><path style="opacity:1" fill="#d0d3d1" d="M 290.5,71.5 C 292.328,72.7945 294.328,73.7945 296.5,74.5C 296.799,76.604 296.466,78.604 295.5,80.5C 293.884,81.1152 292.551,82.1152 291.5,83.5C 290.579,81.244 288.912,80.244 286.5,80.5C 286.643,78.7376 286.309,77.0709 285.5,75.5C 287.847,74.8492 289.514,73.5159 290.5,71.5 Z"/></g>
<g><path style="opacity:1" fill="#c1c9ca" d="M 203.5,75.5 C 205.617,76.9342 207.284,76.4342 208.5,74C 207.939,71.2562 206.606,70.7562 204.5,72.5C 204.866,71.3054 205.699,70.6387 207,70.5C 208.44,71.1476 209.94,71.4809 211.5,71.5C 211.082,67.6309 209.082,66.2976 205.5,67.5C 205.281,66.325 205.614,65.325 206.5,64.5C 208.078,65.6405 209.744,66.1405 211.5,66C 208.79,64.3324 208.957,63.499 212,63.5C 212.833,63.6667 213.667,63.8333 214.5,64C 213.304,64.6543 213.304,65.1543 214.5,65.5C 215.167,65.1667 215.833,64.8333 216.5,64.5C 217.298,66.0777 217.798,67.7444 218,69.5C 219.953,65.5782 221.119,65.9115 221.5,70.5C 220.448,70.3505 219.448,70.5172 218.5,71C 223.187,72.4831 223.52,74.4831 219.5,77C 220.5,77.3333 221.5,77.6667 222.5,78C 220.852,80.164 219.185,82.3306 217.5,84.5C 214.554,81.5713 213.387,81.9047 214,85.5C 212.542,84.2532 211.042,84.2532 209.5,85.5C 209.167,84.8333 208.833,84.1667 208.5,83.5C 207.833,83.8333 207.167,84.1667 206.5,84.5C 205.692,82.5767 205.192,80.5767 205,78.5C 204.421,82.3863 203.588,82.3863 202.5,78.5C 204.435,77.787 204.768,76.787 203.5,75.5 Z"/></g>
<g><path style="opacity:1" fill="#298097" d="M 213.5,75.5 C 216.267,76.754 216.933,78.754 215.5,81.5C 212.531,80.2351 211.865,78.2351 213.5,75.5 Z"/></g>
<g><path style="opacity:1" fill="#36879c" d="M 207.5,76.5 C 208.833,76.5 210.167,76.5 211.5,76.5C 211.627,79.245 210.46,81.245 208,82.5C 207.505,80.5273 207.338,78.5273 207.5,76.5 Z"/></g>
<g><path style="opacity:1" fill="#338198" d="M 215.5,71.5 C 223.364,73.5608 223.364,74.7274 215.5,75C 214.316,73.8545 214.316,72.6879 215.5,71.5 Z"/></g>
<g><path style="opacity:1" fill="#408a9e" d="M 215.5,71.5 C 214.5,71.5 213.5,71.5 212.5,71.5C 212.227,69.0418 213.227,67.3751 215.5,66.5C 216.666,68.1673 216.666,69.834 215.5,71.5 Z"/></g>
<g><path style="opacity:1" fill="#bbc6c8" d="M 483.5,86.5 C 485.048,86.8212 485.715,87.8212 485.5,89.5C 486.822,89.67 487.989,89.3366 489,88.5C 488.387,92.0953 489.554,92.4287 492.5,89.5C 493.386,90.325 493.719,91.325 493.5,92.5C 492.5,92.5 491.5,92.5 490.5,92.5C 490.36,94.1238 491.027,95.2904 492.5,96C 488.446,97.9412 488.78,98.7746 493.5,98.5C 493.234,102.079 491.901,102.413 489.5,99.5C 488.749,100.376 488.249,101.376 488,102.5C 487.586,102.043 487.086,101.709 486.5,101.5C 485.269,102.651 485.269,103.817 486.5,105C 485.167,105.667 483.833,105.667 482.5,105C 483.591,102.936 483.758,100.769 483,98.5C 482.692,99.3081 482.192,99.9747 481.5,100.5C 479.765,99.943 478.098,99.6097 476.5,99.5C 477.723,97.5401 479.056,95.7068 480.5,94C 478.668,93.2515 477.001,92.2515 475.5,91C 476.672,90.6466 477.838,90.8132 479,91.5C 480.764,88.8624 482.098,89.1958 483,92.5C 483.495,90.5273 483.662,88.5273 483.5,86.5 Z"/></g>
<g><path style="opacity:1" fill="#dcdbd6" d="M 131.5,100.5 C 133.697,101.845 136.03,103.011 138.5,104C 137.624,105.585 136.291,106.585 134.5,107C 136.286,107.196 137.619,108.029 138.5,109.5C 136.51,110.498 134.51,111.498 132.5,112.5C 131.15,111.05 129.484,110.383 127.5,110.5C 127.756,108.208 127.423,106.041 126.5,104C 128.936,103.794 130.602,102.627 131.5,100.5 Z"/></g>
<g><path style="opacity:1" fill="#bbc6c8" d="M 395.5,119.5 C 394.188,119.824 393.355,120.491 393,121.5C 391.941,121.37 391.108,120.87 390.5,120C 392.037,118.89 392.703,117.39 392.5,115.5C 391.5,115.5 390.5,115.5 389.5,115.5C 389.481,122.531 388.981,122.864 388,116.5C 387.573,119.493 386.406,119.993 384.5,118C 384.015,114.46 384.682,110.627 386.5,106.5C 388.167,105.167 389.833,105.167 391.5,106.5C 392.696,106.154 392.696,105.654 391.5,105C 395.237,103.322 397.404,104.822 398,109.5C 398.915,108.672 399.581,107.672 400,106.5C 402.152,108.277 401.985,109.777 399.5,111C 402.763,111.869 403.096,113.203 400.5,115C 401.167,115.333 401.833,115.667 402.5,116C 401.318,118.261 399.651,120.095 397.5,121.5C 396.478,121.145 395.811,120.478 395.5,119.5 Z"/></g>
<g><path style="opacity:1" fill="#3f899e" d="M 395.5,119.5 C 394.609,118.739 393.942,117.739 393.5,116.5C 394.547,114.944 395.214,113.277 395.5,111.5C 401.376,112.036 401.709,113.202 396.5,115C 398.043,117.045 397.71,118.545 395.5,119.5 Z"/></g>
<g><path style="opacity:1" fill="#35879c" d="M 395.5,106.5 C 396.434,107.568 396.768,108.901 396.5,110.5C 395.5,110.5 394.5,110.5 393.5,110.5C 393.527,108.801 394.194,107.467 395.5,106.5 Z"/></g>
<g><path style="opacity:1" fill="#d8d9d4" d="M 244.5,119.5 C 246.805,120.787 249.138,122.12 251.5,123.5C 250.619,124.971 249.286,125.804 247.5,126C 248.793,126.49 250.127,126.657 251.5,126.5C 251.719,127.675 251.386,128.675 250.5,129.5C 248.742,130.128 247.242,131.128 246,132.5C 244.58,130.578 242.747,129.245 240.5,128.5C 240.92,126.674 240.92,124.674 240.5,122.5C 242.973,122.912 244.306,121.912 244.5,119.5 Z"/></g>
<g><path style="opacity:1" fill="#d4d6d3" d="M 453.5,129.5 C 456.102,131.068 458.769,132.735 461.5,134.5C 460.947,136.727 460.947,139.061 461.5,141.5C 459.027,141.799 456.86,142.799 455,144.5C 453.247,142.704 451.08,141.538 448.5,141C 449.548,139.244 449.548,137.41 448.5,135.5C 450.485,133.697 452.152,131.697 453.5,129.5 Z"/></g>
<g><path style="opacity:1" fill="#d7d8d4" d="M 302.5,146.5 C 302.631,145.761 302.464,145.094 302,144.5C 298.965,146.201 296.632,148.535 295,151.5C 294.535,150.069 293.701,148.903 292.5,148C 295.611,147.556 298.277,146.223 300.5,144C 298.21,144.353 295.877,143.853 293.5,142.5C 294.628,141.738 295.795,141.071 297,140.5C 298.049,141.517 299.216,141.684 300.5,141C 297.861,139.054 294.861,138.054 291.5,138C 292.833,137 292.833,136 291.5,135C 292.416,134.626 293.25,134.126 294,133.5C 296.125,136.659 298.958,138.492 302.5,139C 301.167,138 299.833,137 298.5,136C 299.112,134.697 299.446,133.53 299.5,132.5C 301.382,134.242 302.882,136.242 304,138.5C 305.004,135.007 304.504,131.841 302.5,129C 304.52,126.948 306.187,127.115 307.5,129.5C 306.425,132.438 306.259,135.438 307,138.5C 308.117,137.051 308.784,135.384 309,133.5C 310.177,134.318 311.51,135.318 313,136.5C 314.567,135.144 316.4,134.477 318.5,134.5C 318.5,135.5 318.5,136.5 318.5,137.5C 315.072,137.547 312.072,138.713 309.5,141C 310.899,141.595 312.232,141.428 313.5,140.5C 314.696,140.846 314.696,141.346 313.5,142C 315.167,142.333 316.833,142.667 318.5,143C 315.367,143.911 312.367,144.244 309.5,144C 312.88,146.349 316.214,148.682 319.5,151C 318.584,151.374 317.75,151.874 317,152.5C 314.977,149.48 312.31,147.146 309,145.5C 310.995,147.743 312.161,150.41 312.5,153.5C 311.645,154.293 310.811,153.96 310,152.5C 308.684,151.026 307.684,149.359 307,147.5C 306.216,150.76 306.383,153.927 307.5,157C 305.973,158.368 304.473,158.868 303,158.5C 303.956,156.091 304.456,153.424 304.5,150.5C 304.333,148.833 304.167,147.167 304,145.5C 303.617,146.056 303.117,146.389 302.5,146.5 Z"/></g>
<g><path style="opacity:1" fill="#cdd1d0" d="M 170.5,134.5 C 171.978,134.238 173.311,134.571 174.5,135.5C 172.261,144.169 173.594,145.169 178.5,138.5C 179.506,138.938 179.506,139.604 178.5,140.5C 179.325,141.386 180.325,141.719 181.5,141.5C 181.281,140.325 181.614,139.325 182.5,138.5C 184.111,139.32 184.778,140.654 184.5,142.5C 181.255,142.88 178.255,144.047 175.5,146C 178.507,145.297 181.507,145.631 184.5,147C 182.671,147.273 181.171,148.107 180,149.5C 178.867,147.789 177.367,147.289 175.5,148C 178.376,150.437 181.71,151.77 185.5,152C 184.359,152.741 184.359,153.575 185.5,154.5C 185,154.833 184.5,155.167 184,155.5C 182.374,154.711 180.874,153.711 179.5,152.5C 176.773,156.254 174.94,155.587 174,150.5C 173.216,153.76 173.383,156.927 174.5,160C 173.056,160.781 171.723,160.614 170.5,159.5C 171.575,156.562 171.741,153.562 171,150.5C 170.667,151.833 170.333,153.167 170,154.5C 168.434,153.939 167.101,154.606 166,156.5C 166.329,154.195 167.495,152.195 169.5,150.5C 169.333,150.167 169.167,149.833 169,149.5C 166.333,150.833 164.333,152.833 163,155.5C 160.108,153.557 160.608,152.223 164.5,151.5C 164.33,150.178 164.663,149.011 165.5,148C 164.167,147.667 162.833,147.333 161.5,147C 163.824,145.626 166.157,145.293 168.5,146C 166.192,144.133 163.525,143.133 160.5,143C 161.833,142.333 161.833,141.667 160.5,141C 161.416,140.626 162.25,140.126 163,139.5C 164.241,141.421 165.741,141.754 167.5,140.5C 166.513,136.633 167.013,136.633 169,140.5C 169.333,140.167 169.667,139.833 170,139.5C 170.333,140.833 170.667,142.167 171,143.5C 171.634,140.445 171.468,137.445 170.5,134.5 Z"/></g>
<g><path style="opacity:1" fill="#d0d4d1" d="M 372.5,143.5 C 374.805,144.787 377.138,146.12 379.5,147.5C 378.167,149.167 378.167,150.833 379.5,152.5C 373.502,156.675 369.835,155.008 368.5,147.5C 370.769,146.995 372.103,145.662 372.5,143.5 Z"/></g>
<g><path style="opacity:1" fill="#dedcd7" d="M 302.5,146.5 C 302.657,147.873 302.49,149.207 302,150.5C 301.667,150.167 301.333,149.833 301,149.5C 300.576,151.615 299.409,152.448 297.5,152C 298.631,149.626 300.298,147.792 302.5,146.5 Z"/></g>
<g><path style="opacity:1" fill="#c2cbcb" d="M 104.5,150.5 C 108.614,148.511 111.114,149.844 112,154.5C 113.978,153.184 115.478,153.684 116.5,156C 115.5,156.333 114.5,156.667 113.5,157C 117.5,158.333 117.5,159.667 113.5,161C 117.247,162.438 117.08,163.938 113,165.5C 112.667,165.167 112.333,164.833 112,164.5C 111.667,165.5 111.333,166.5 111,167.5C 108.109,168.736 104.942,168.736 101.5,167.5C 101.66,165.801 101.494,164.134 101,162.5C 100.667,163.5 100.333,164.5 100,165.5C 99.5348,164.069 98.7014,162.903 97.5,162C 99.9913,161.374 99.9913,160.541 97.5,159.5C 99.9734,157.758 99.9734,155.925 97.5,154C 99,151.833 100.167,152 101,154.5C 100.859,150.169 102.192,149.502 105,152.5C 105.692,151.563 105.525,150.897 104.5,150.5 Z"/></g>
<g><path style="opacity:1" fill="#248399" d="M 102.5,152.5 C 104.935,153.13 105.602,154.463 104.5,156.5C 102.889,155.68 102.222,154.346 102.5,152.5 Z"/></g>
<g><path style="opacity:1" fill="#38879c" d="M 108.5,152.5 C 111.041,153.623 111.041,154.956 108.5,156.5C 107.374,155.192 107.374,153.858 108.5,152.5 Z"/></g>
<g><path style="opacity:1" fill="#bfc8c9" d="M 498.5,162.5 C 497.188,162.824 496.355,163.491 496,164.5C 494.5,164 493,163.5 491.5,163C 496.095,161.705 496.761,159.205 493.5,155.5C 495.095,153.889 496.261,151.889 497,149.5C 498.612,149.952 499.612,151.285 500,153.5C 500.893,152.289 501.726,152.289 502.5,153.5C 503.64,155.741 503.64,157.908 502.5,160C 501.833,161 501.167,162 500.5,163C 499.563,163.692 498.897,163.525 498.5,162.5 Z"/></g>
<g><path style="opacity:1" fill="#9ab3bb" d="M 431.5,150.5 C 431.5,151.167 431.5,151.833 431.5,152.5C 430.744,154.613 430.577,156.613 431,158.5C 426.997,163.42 422.663,163.753 418,159.5C 418.141,157.538 417.974,155.704 417.5,154C 418,152.5 418.5,151 419,149.5C 419.333,150.167 419.667,150.833 420,151.5C 420.422,148.949 421.922,147.615 424.5,147.5C 426.856,148.543 429.19,149.543 431.5,150.5 Z"/></g>
<g><path style="opacity:1" fill="#c3cacb" d="M 493.5,155.5 C 489.971,156.03 489.638,157.363 492.5,159.5C 492.192,160.308 491.692,160.975 491,161.5C 487.89,158.021 488.39,154.354 492.5,150.5C 495.167,151.5 495.167,152.5 492.5,153.5C 492.863,154.183 493.196,154.85 493.5,155.5 Z"/></g>
<g><path style="opacity:1" fill="#33879b" d="M 103.5,160.5 C 98.1667,159.5 98.1667,158.5 103.5,157.5C 103.5,158.5 103.5,159.5 103.5,160.5 Z"/></g>
<g><path style="opacity:1" fill="#35879b" d="M 108.5,157.5 C 110.655,157.372 112.655,157.872 114.5,159C 111.766,161.124 109.766,160.624 108.5,157.5 Z"/></g>
<g><path style="opacity:1" fill="#5891a4" d="M 498.5,162.5 C 497.722,161.844 497.056,161.011 496.5,160C 497.62,158.444 498.62,156.944 499.5,155.5C 500.308,155.808 500.975,156.308 501.5,157C 500.131,158.719 499.131,160.552 498.5,162.5 Z"/></g>
<g><path style="opacity:1" fill="#33869b" d="M 103.5,160.5 C 106.057,162.404 105.89,164.404 103,166.5C 102.322,164.402 102.489,162.402 103.5,160.5 Z"/></g>
<g><path style="opacity:1" fill="#2a849a" d="M 107.5,160.5 C 110.244,161.072 111.077,162.738 110,165.5C 108.108,164.383 107.275,162.716 107.5,160.5 Z"/></g>
<g><path style="opacity:1" fill="#f1e7dc" d="M 233.5,175.5 C 232.086,177.138 232.42,178.472 234.5,179.5C 232.167,182.5 229.833,185.5 227.5,188.5C 225.259,189.64 223.092,189.64 221,188.5C 219.582,191.001 218.582,190.668 218,187.5C 217.292,188.381 216.458,189.047 215.5,189.5C 215.631,188.624 215.298,187.957 214.5,187.5C 213.549,188.326 212.549,188.492 211.5,188C 212.833,186.16 212.666,185.66 211,186.5C 210.5,185.333 209.667,184.5 208.5,184C 208.833,183.667 209.167,183.333 209.5,183C 205.67,182.593 205.003,181.26 207.5,179C 206.088,175.002 207.421,171.502 211.5,168.5C 212.478,168.977 213.311,169.643 214,170.5C 214.473,168.221 215.473,166.221 217,164.5C 218.439,166.014 219.939,166.347 221.5,165.5C 225.098,167.664 229.098,169.997 233.5,172.5C 232.347,173.687 232.347,174.687 233.5,175.5 Z"/></g>
<g><path style="opacity:1" fill="#ea644f" d="M 233.5,175.5 C 242.71,174.903 251.71,175.903 260.5,178.5C 262.437,179.931 264.27,181.598 266,183.5C 266.667,185.833 266.667,188.167 266,190.5C 255.094,205.626 240.428,214.96 222,218.5C 220.5,218.333 219,218.167 217.5,218C 216.944,217.617 216.611,217.117 216.5,216.5C 212.943,207.605 212.61,198.605 215.5,189.5C 216.458,189.047 217.292,188.381 218,187.5C 218.582,190.668 219.582,191.001 221,188.5C 223.092,189.64 225.259,189.64 227.5,188.5C 229.833,185.5 232.167,182.5 234.5,179.5C 232.42,178.472 232.086,177.138 233.5,175.5 Z"/></g>
<g><path style="opacity:1" fill="#f3e9de" d="M 280.5,188.5 C 280.757,193.997 279.257,198.997 276,203.5C 264.899,217.138 251.065,226.971 234.5,233C 230.582,234.156 226.582,234.656 222.5,234.5C 216.294,232.775 213.294,228.609 213.5,222C 213.124,219.345 214.124,217.512 216.5,216.5C 216.611,217.117 216.944,217.617 217.5,218C 219,218.167 220.5,218.333 222,218.5C 240.428,214.96 255.094,205.626 266,190.5C 266.667,188.167 266.667,185.833 266,183.5C 264.27,181.598 262.437,179.931 260.5,178.5C 263.743,177.42 267.076,177.253 270.5,178C 276.123,179.453 279.456,182.953 280.5,188.5 Z"/></g>
<g><path style="opacity:1" fill="#85a8b3" d="M 356.5,175.5 C 356.502,177.571 356.169,179.738 355.5,182C 351.564,183.461 349.064,182.295 348,178.5C 347.667,179.167 347.333,179.833 347,180.5C 346.107,179.289 345.274,179.289 344.5,180.5C 345.914,181.624 347.414,182.624 349,183.5C 349.301,186.091 348.134,186.925 345.5,186C 344.934,185.005 344.267,184.172 343.5,183.5C 343.34,181.801 343.506,180.134 344,178.5C 344.667,177.167 345.333,177.167 346,178.5C 346.684,174.907 348.184,174.573 350.5,177.5C 351.506,177.062 351.506,176.396 350.5,175.5C 352.516,174.306 354.516,174.306 356.5,175.5 Z"/></g>
<g><path style="opacity:1" fill="#c6cecd" d="M 356.5,175.5 C 357.302,176.952 357.802,178.618 358,180.5C 359.818,176.714 361.318,177.048 362.5,181.5C 361.855,182.732 361.689,184.065 362,185.5C 358.989,187 359.489,187.834 363.5,188C 362,188.833 360.833,190 360,191.5C 359.667,191.167 359.333,190.833 359,190.5C 358.517,191.448 358.351,192.448 358.5,193.5C 356.516,193.617 354.85,192.95 353.5,191.5C 352.707,192.355 353.04,193.189 354.5,194C 351.581,194.433 348.914,193.933 346.5,192.5C 348.747,192.085 350.914,191.418 353,190.5C 356.526,192.454 357.859,191.454 357,187.5C 352.675,185.928 348.675,186.595 345,189.5C 344.617,188.944 344.117,188.611 343.5,188.5C 344.173,187.18 344.173,185.514 343.5,183.5C 344.267,184.172 344.934,185.005 345.5,186C 348.134,186.925 349.301,186.091 349,183.5C 347.414,182.624 345.914,181.624 344.5,180.5C 345.274,179.289 346.107,179.289 347,180.5C 347.333,179.833 347.667,179.167 348,178.5C 349.064,182.295 351.564,183.461 355.5,182C 356.169,179.738 356.502,177.571 356.5,175.5 Z"/></g>
<g><path style="opacity:1" fill="#729eac" d="M 346.5,192.5 C 345.4,191.442 344.066,190.608 342.5,190C 343.056,189.617 343.389,189.117 343.5,188.5C 344.117,188.611 344.617,188.944 345,189.5C 348.675,186.595 352.675,185.928 357,187.5C 357.859,191.454 356.526,192.454 353,190.5C 350.914,191.418 348.747,192.085 346.5,192.5 Z"/></g>
<g><path style="opacity:1" fill="#d4d6d3" d="M 55.5,197.5 C 63.7566,200.576 64.0899,204.91 56.5,210.5C 54.9602,208.563 52.9602,207.396 50.5,207C 51.3331,204.919 51.3331,202.752 50.5,200.5C 52.9328,200.727 54.5994,199.727 55.5,197.5 Z"/></g>
<g><path style="opacity:1" fill="#d6d7d3" d="M 508.5,191.5 C 510.035,190.212 511.701,190.212 513.5,191.5C 512.252,194.494 512.252,197.494 513.5,200.5C 514.281,199.271 514.781,197.938 515,196.5C 515.333,196.833 515.667,197.167 516,197.5C 516.833,196.5 517.667,195.5 518.5,194.5C 519.594,195.868 519.26,197.035 517.5,198C 518,198.5 518.5,199 519,199.5C 520.353,198.315 521.52,196.981 522.5,195.5C 524.111,196.32 524.778,197.654 524.5,199.5C 520.813,200.176 517.48,201.676 514.5,204C 516.567,204.536 518.401,204.036 520,202.5C 521.098,203.967 522.598,204.801 524.5,205C 521.112,206.077 517.779,206.41 514.5,206C 517.789,208.478 521.456,210.144 525.5,211C 524.167,211.667 524.167,212.333 525.5,213C 524.584,213.374 523.75,213.874 523,214.5C 520.875,211.341 518.042,209.508 514.5,209C 515.328,209.915 516.328,210.581 517.5,211C 517.306,212.903 517.306,214.737 517.5,216.5C 515.794,214.295 514.294,211.962 513,209.5C 512.248,212.894 512.415,216.227 513.5,219.5C 513,219.833 512.5,220.167 512,220.5C 510.658,219.687 509.492,219.354 508.5,219.5C 510.508,215.771 511.008,211.771 510,207.5C 509.027,209.392 508.36,211.392 508,213.5C 507.667,212.833 507.333,212.167 507,211.5C 503.464,216.906 502.964,216.74 505.5,211C 509.758,207.638 509.425,206.971 504.5,209C 502.951,210.214 501.785,211.714 501,213.5C 500.25,212.874 499.416,212.374 498.5,212C 499.833,211.333 499.833,210.667 498.5,210C 499.793,209.51 501.127,209.343 502.5,209.5C 502.33,208.178 502.663,207.011 503.5,206C 502.167,205.667 500.833,205.333 499.5,205C 501.061,204.682 502.228,203.849 503,202.5C 504.133,204.211 505.633,204.711 507.5,204C 504.624,201.563 501.29,200.23 497.5,200C 497.998,198.842 498.831,198.009 500,197.5C 501.393,198.615 502.893,199.115 504.5,199C 504.944,197.467 505.277,195.967 505.5,194.5C 507.513,196.532 509.013,198.866 510,201.5C 510.667,198.5 510.667,195.5 510,192.5C 509.617,191.944 509.117,191.611 508.5,191.5 Z"/></g>
<g><path style="opacity:1" fill="#f3eade" d="M 342.5,258.5 C 342.5,259.167 342.5,259.833 342.5,260.5C 341.5,260.833 340.833,261.5 340.5,262.5C 337.527,264.147 334.86,266.147 332.5,268.5C 331.391,268.557 330.391,268.89 329.5,269.5C 325.429,271.185 321.429,272.852 317.5,274.5C 317.167,274.5 316.833,274.5 316.5,274.5C 312.037,275.695 307.704,277.028 303.5,278.5C 303.167,278.5 302.833,278.5 302.5,278.5C 299.209,279.257 295.876,279.924 292.5,280.5C 291.833,280.5 291.167,280.5 290.5,280.5C 285.869,281.329 281.202,281.996 276.5,282.5C 275.167,282.5 273.833,282.5 272.5,282.5C 271.167,282.5 269.833,282.5 268.5,282.5C 261.226,266.962 257.726,250.629 258,233.5C 262.538,214.806 274.371,206.973 293.5,210C 299.183,202.898 306.517,200.564 315.5,203C 318.446,203.806 321.112,205.139 323.5,207C 334.658,222.299 340.991,239.465 342.5,258.5 Z"/></g>
<g><path style="opacity:1" fill="#bfc8ca" d="M 420.5,195.5 C 421.289,195.783 421.956,196.283 422.5,197C 421.424,198.726 421.257,200.559 422,202.5C 422.333,201.5 422.667,200.5 423,199.5C 424.784,202.003 426.451,202.003 428,199.5C 429.993,201.406 429.493,202.573 426.5,203C 430.34,204.64 430.34,206.14 426.5,207.5C 427.689,208.429 429.022,208.762 430.5,208.5C 430.5,209.5 430.5,210.5 430.5,211.5C 428.857,211.52 427.524,210.853 426.5,209.5C 425.692,209.808 425.025,210.308 424.5,211C 425.451,211.718 425.617,212.551 425,213.5C 423.748,211.999 422.748,210.332 422,208.5C 421.242,210.769 421.409,212.936 422.5,215C 421.167,215.667 419.833,215.667 418.5,215C 420.444,212.847 420.944,210.347 420,207.5C 419.667,208.833 419.333,210.167 419,211.5C 417.853,210.542 416.853,210.875 416,212.5C 416.933,207.999 416.266,207.666 414,211.5C 411.977,209.987 412.144,208.654 414.5,207.5C 414.023,206.522 413.357,205.689 412.5,205C 417.518,204.456 417.518,203.289 412.5,201.5C 413.5,198.833 414.5,198.833 415.5,201.5C 417.09,197.982 418.59,198.315 420,202.5C 420.144,199.975 420.31,197.642 420.5,195.5 Z"/></g>
<g><path style="opacity:1" fill="#a1b8be" d="M 190.5,201.5 C 192.262,201.357 193.929,201.691 195.5,202.5C 196.615,204.37 197.949,205.87 199.5,207C 198.491,208.895 198.325,210.728 199,212.5C 193.886,218.101 189.386,217.601 185.5,211C 185.6,207.307 187.267,204.14 190.5,201.5 Z"/></g>
<g><path style="opacity:1" fill="#f4e9dd" d="M 331.5,211.5 C 349.361,210.714 366.361,214.214 382.5,222C 394.955,230.52 408.622,233.02 423.5,229.5C 433.238,228.812 442.238,230.979 450.5,236C 454.167,239.667 457.833,243.333 461.5,247C 468.097,250.378 475.097,251.378 482.5,250C 489.647,248.587 496.814,247.42 504,246.5C 507.903,246.515 511.736,247.015 515.5,248C 525.248,252.41 533.914,258.41 541.5,266C 545.635,268.403 549.968,270.237 554.5,271.5C 562.398,314.891 570.064,358.224 577.5,401.5C 577.5,407.5 577.5,413.5 577.5,419.5C 576.512,422.081 575.512,424.748 574.5,427.5C 560.474,444.093 542.807,450.093 521.5,445.5C 514.777,443.291 509.277,439.291 505,433.5C 498.923,423.346 493.923,412.68 490,401.5C 477.867,359.967 466.2,318.3 455,276.5C 451.685,263.906 448.685,251.239 446,238.5C 444.983,264.322 444.483,290.155 444.5,316C 445.076,358.838 445.576,401.671 446,444.5C 445.653,458.557 440.82,470.724 431.5,481C 429.283,482.723 426.95,484.223 424.5,485.5C 407.058,492.194 389.058,496.694 370.5,499C 337.488,499.471 304.488,498.971 271.5,497.5C 242.668,499.899 214.001,498.732 185.5,494C 175.44,491.924 165.773,488.758 156.5,484.5C 144.523,477.661 137.357,467.327 135,453.5C 133.374,443.903 132.54,434.237 132.5,424.5C 133.1,406.826 133.767,389.16 134.5,371.5C 135.167,345.5 135.833,319.5 136.5,293.5C 138.14,294.32 139.807,295.153 141.5,296C 161.283,297.736 177.283,290.736 189.5,275C 198.87,266.315 209.87,260.815 222.5,258.5C 224.751,265.575 227.417,272.575 230.5,279.5C 226.394,281.204 224.727,284.371 225.5,289C 225.88,294.306 227.546,299.14 230.5,303.5C 227.183,319.973 218.517,332.806 204.5,342C 197.998,345.75 191.665,349.75 185.5,354C 181.271,357.843 181.605,361.177 186.5,364C 201.205,365.352 215.538,364.019 229.5,360C 224.473,369.363 217.64,377.197 209,383.5C 207.517,386.702 207.183,390.036 208,393.5C 216.464,403.495 226.964,410.661 239.5,415C 241.74,415.977 244.073,416.477 246.5,416.5C 246.371,418.216 246.038,419.883 245.5,421.5C 243.533,421.261 241.699,421.594 240,422.5C 236.554,429.162 234.554,436.162 234,443.5C 235.129,445.141 236.629,446.141 238.5,446.5C 238.038,447.88 237.038,448.547 235.5,448.5C 231.686,447.562 228.019,446.229 224.5,444.5C 223.5,444.833 222.833,445.5 222.5,446.5C 226.591,449.707 231.258,451.874 236.5,453C 251.154,458.336 266.154,460.003 281.5,458C 287.795,455.575 289.962,451.075 288,444.5C 285.932,441.355 283.432,440.855 280.5,443C 287.458,448.148 286.791,452.148 278.5,455C 273.845,455.499 269.179,455.666 264.5,455.5C 264.5,454.5 264.5,453.5 264.5,452.5C 268.833,452.5 273.167,452.5 277.5,452.5C 277.607,450.097 276.607,448.264 274.5,447C 269.919,445.129 265.752,442.629 262,439.5C 259.24,435.596 258.406,431.43 259.5,427C 257.431,425.477 255.097,424.643 252.5,424.5C 252.291,422.286 253.124,420.619 255,419.5C 278.176,423.532 301.342,423.365 324.5,419C 329.097,417.358 333.597,415.524 338,413.5C 339.095,414.693 339.928,416.027 340.5,417.5C 338.787,418.223 337.787,419.557 337.5,421.5C 339.163,427.829 341.663,433.829 345,439.5C 347.242,441.715 349.742,442.048 352.5,440.5C 353.562,441.575 353.562,442.575 352.5,443.5C 347.685,445.072 343.352,447.405 339.5,450.5C 341.074,451.631 342.741,451.798 344.5,451C 362.386,444.814 377.886,434.98 391,421.5C 395.566,413.801 393.732,408.468 385.5,405.5C 382.488,405.179 381.155,406.512 381.5,409.5C 388,408.499 390.5,411.165 389,417.5C 385.869,421.633 382.369,425.466 378.5,429C 377.184,429.528 376.517,429.028 376.5,427.5C 379.021,425.299 381.521,422.966 384,420.5C 384.684,419.216 384.517,418.049 383.5,417C 381.167,416.333 378.833,416.333 376.5,417C 367.281,421.565 359.614,419.732 353.5,411.5C 351.473,412.513 349.473,413.513 347.5,414.5C 346.297,413.057 345.797,411.391 346,409.5C 359.051,400.074 367.051,387.408 370,371.5C 372.663,353.905 371.496,336.572 366.5,319.5C 386.58,315.596 400.08,303.929 407,284.5C 409.285,279.028 409.952,273.362 409,267.5C 408.586,267.043 408.086,266.709 407.5,266.5C 398.37,272.897 388.37,277.397 377.5,280C 369.465,280.736 361.465,280.569 353.5,279.5C 355.72,270.819 354.22,262.819 349,255.5C 347.89,253.963 346.39,253.297 344.5,253.5C 342.695,246.245 341.195,238.912 340,231.5C 337.43,224.696 334.597,218.03 331.5,211.5 Z"/></g>
<g><path style="opacity:1" fill="#524f3d" d="M 280.5,188.5 C 301.883,186.696 318.883,194.362 331.5,211.5C 334.597,218.03 337.43,224.696 340,231.5C 341.195,238.912 342.695,246.245 344.5,253.5C 344.88,255.698 344.213,257.365 342.5,258.5C 340.991,239.465 334.658,222.299 323.5,207C 321.112,205.139 318.446,203.806 315.5,203C 306.517,200.564 299.183,202.898 293.5,210C 274.371,206.973 262.538,214.806 258,233.5C 257.726,250.629 261.226,266.962 268.5,282.5C 266.5,282.5 264.5,282.5 262.5,282.5C 261.5,282.5 260.5,282.5 259.5,282.5C 256.167,282.5 252.833,282.5 249.5,282.5C 248.432,281.566 247.099,281.232 245.5,281.5C 243.5,281.5 241.5,281.5 239.5,281.5C 237.485,280.076 235.152,279.41 232.5,279.5C 231.833,279.5 231.167,279.5 230.5,279.5C 227.417,272.575 224.751,265.575 222.5,258.5C 221.249,250.488 221.249,242.488 222.5,234.5C 226.582,234.656 230.582,234.156 234.5,233C 251.065,226.971 264.899,217.138 276,203.5C 279.257,198.997 280.757,193.997 280.5,188.5 Z"/></g>
<g><path style="opacity:1" fill="#635e4d" d="M 305.5,206.5 C 306.873,206.343 308.207,206.51 309.5,207C 310.451,207.718 310.617,208.551 310,209.5C 307.482,211.028 305.315,210.694 303.5,208.5C 304.243,207.818 304.909,207.151 305.5,206.5 Z"/></g>
<g><path style="opacity:1" fill="#625d4c" d="M 276.5,218.5 C 281.39,218.639 281.723,220.139 277.5,223C 276.207,223.49 274.873,223.657 273.5,223.5C 273.721,221.336 274.721,219.67 276.5,218.5 Z"/></g>
<g><path style="opacity:1" fill="#5f5b49" d="M 314.5,217.5 C 317.585,217.542 319.919,218.875 321.5,221.5C 321,221.833 320.5,222.167 320,222.5C 315.057,219.1 312.89,220.434 313.5,226.5C 312.5,226.5 311.5,226.5 310.5,226.5C 309.658,222.379 310.991,219.379 314.5,217.5 Z"/></g>
<g><path style="opacity:1" fill="#f59b82" d="M 325.5,225.5 C 327.5,225.5 329.5,225.5 331.5,225.5C 331.543,231.501 328.543,233.668 322.5,232C 321.978,231.439 321.645,230.772 321.5,230C 322.344,227.993 323.677,226.493 325.5,225.5 Z"/></g>
<g><path style="opacity:1" fill="#635e4d" d="M 282.5,231.5 C 287.494,230.813 290.494,232.813 291.5,237.5C 289.251,236.769 287.084,235.769 285,234.5C 283.739,234.759 282.739,235.426 282,236.5C 279.84,241.703 278.84,241.369 279,235.5C 280.376,234.295 281.542,232.962 282.5,231.5 Z"/></g>
<g><path style="opacity:1" fill="#dda76c" d="M 319.5,234.5 C 312.948,235.8 306.948,238.467 301.5,242.5C 301.738,238.862 303.404,236.029 306.5,234C 311.02,233.186 315.354,233.353 319.5,234.5 Z"/></g>
<g><path style="opacity:1" fill="#d7d8d4" d="M 156.5,234.5 C 158.216,236.208 160.216,237.542 162.5,238.5C 161.619,239.971 160.286,240.804 158.5,241C 159.872,241.631 161.205,242.298 162.5,243C 160.866,244.492 159.2,245.992 157.5,247.5C 155.866,247.032 154.7,246.032 154,244.5C 151.609,245.602 151.109,244.936 152.5,242.5C 151.833,241.167 151.167,239.833 150.5,238.5C 153.155,238.025 155.155,236.691 156.5,234.5 Z"/></g>
<g><path style="opacity:1" fill="#ba8764" d="M 319.5,234.5 C 320.239,234.369 320.906,234.536 321.5,235C 320.529,236.481 319.196,237.315 317.5,237.5C 312.012,238.328 307.012,240.328 302.5,243.5C 301.833,243.5 301.5,243.167 301.5,242.5C 306.948,238.467 312.948,235.8 319.5,234.5 Z"/></g>
<g><path style="opacity:1" fill="#dca66b" d="M 317.5,237.5 C 314.311,244.177 309.311,246.177 302.5,243.5C 307.012,240.328 312.012,238.328 317.5,237.5 Z"/></g>
<g><path style="opacity:1" fill="#f5987f" d="M 283.5,242.5 C 286.167,242.5 288.833,242.5 291.5,242.5C 290.881,248.619 287.547,251.119 281.5,250C 278.759,246.711 279.425,244.211 283.5,242.5 Z"/></g>
<g><path style="opacity:1" fill="#f8dbc0" d="M 429.5,242.5 C 430.5,242.5 431.5,242.5 432.5,242.5C 432.5,249.5 432.5,256.5 432.5,263.5C 431.5,263.5 430.5,263.5 429.5,263.5C 429.5,256.5 429.5,249.5 429.5,242.5 Z"/></g>
<g><path style="opacity:1" fill="#bbc5c8" d="M 104.5,237.5 C 104.56,236.957 104.893,236.624 105.5,236.5C 106.308,238.423 106.808,240.423 107,242.5C 108.418,238.384 109.752,238.051 111,241.5C 111.965,239.74 113.132,239.406 114.5,240.5C 113.335,241.584 112.002,242.417 110.5,243C 111.623,244.044 112.956,244.71 114.5,245C 113.552,245.483 112.552,245.649 111.5,245.5C 111.5,246.5 111.5,247.5 111.5,248.5C 112.833,248.5 114.167,248.5 115.5,248.5C 115.5,249.5 115.5,250.5 115.5,251.5C 113.8,251.374 112.3,250.707 111,249.5C 109.968,251.145 108.801,251.478 107.5,250.5C 106.355,251.776 106.355,253.109 107.5,254.5C 106.277,255.614 104.944,255.781 103.5,255C 105.444,252.847 105.944,250.347 105,247.5C 104.599,249.521 103.432,250.855 101.5,251.5C 101.705,247.735 100.872,247.735 99,251.5C 98.2496,250.874 97.4162,250.374 96.5,250C 98.0614,249.059 99.3947,247.892 100.5,246.5C 99.2889,245.28 99.2889,244.113 100.5,243C 99.376,242.751 98.376,242.251 97.5,241.5C 98.1054,239.519 99.1054,239.185 100.5,240.5C 102.632,238.289 104.132,238.955 105,242.5C 105.78,240.613 105.613,238.946 104.5,237.5 Z"/></g>
<g><path style="opacity:1" fill="#ea6650" d="M 344.5,253.5 C 346.39,253.297 347.89,253.963 349,255.5C 354.22,262.819 355.72,270.819 353.5,279.5C 352.396,281.389 351.063,283.055 349.5,284.5C 350.256,275.511 347.923,267.511 342.5,260.5C 342.5,259.833 342.5,259.167 342.5,258.5C 344.213,257.365 344.88,255.698 344.5,253.5 Z"/></g>
<g><path style="opacity:1" fill="#f8dbc0" d="M 506.5,259.5 C 508.017,259.511 509.184,260.177 510,261.5C 510.845,267.259 512.012,272.926 513.5,278.5C 513.167,279.5 512.833,280.5 512.5,281.5C 509.279,274.629 507.279,267.295 506.5,259.5 Z"/></g>
<g><path style="opacity:1" fill="#c43e2b" d="M 342.5,260.5 C 347.923,267.511 350.256,275.511 349.5,284.5C 349.5,284.833 349.5,285.167 349.5,285.5C 348.833,285.833 348.167,286.167 347.5,286.5C 346.792,280.531 345.626,274.531 344,268.5C 343.074,266.308 341.907,264.308 340.5,262.5C 340.833,261.5 341.5,260.833 342.5,260.5 Z"/></g>
<g><path style="opacity:1" fill="#e9634e" d="M 340.5,262.5 C 341.907,264.308 343.074,266.308 344,268.5C 345.626,274.531 346.792,280.531 347.5,286.5C 345.2,288.984 342.533,290.984 339.5,292.5C 340.787,283.37 338.454,275.37 332.5,268.5C 334.86,266.147 337.527,264.147 340.5,262.5 Z"/></g>
<g><path style="opacity:1" fill="#524f3d" d="M 347.5,414.5 C 346.238,417.964 343.904,418.964 340.5,417.5C 339.928,416.027 339.095,414.693 338,413.5C 333.597,415.524 329.097,417.358 324.5,419C 301.342,423.365 278.176,423.532 255,419.5C 253.124,420.619 252.291,422.286 252.5,424.5C 250.244,425.438 247.91,425.438 245.5,424.5C 245.5,423.5 245.5,422.5 245.5,421.5C 246.038,419.883 246.371,418.216 246.5,416.5C 244.073,416.477 241.74,415.977 239.5,415C 226.964,410.661 216.464,403.495 208,393.5C 207.183,390.036 207.517,386.702 209,383.5C 217.64,377.197 224.473,369.363 229.5,360C 215.538,364.019 201.205,365.352 186.5,364C 181.605,361.177 181.271,357.843 185.5,354C 191.665,349.75 197.998,345.75 204.5,342C 218.517,332.806 227.183,319.973 230.5,303.5C 231.167,303.5 231.833,303.5 232.5,303.5C 234.579,305.873 237.246,307.206 240.5,307.5C 242.565,307.517 244.565,307.85 246.5,308.5C 249.312,308.767 251.645,309.767 253.5,311.5C 253.5,313.167 253.5,314.833 253.5,316.5C 252.566,317.568 252.232,318.901 252.5,320.5C 252.5,322.833 252.5,325.167 252.5,327.5C 251.539,329.265 251.205,331.265 251.5,333.5C 250.949,336.807 250.616,340.14 250.5,343.5C 249.527,345.948 249.194,348.615 249.5,351.5C 249.5,353.833 249.5,356.167 249.5,358.5C 249.557,359.609 249.89,360.609 250.5,361.5C 250.629,363.216 250.962,364.883 251.5,366.5C 248.683,368.082 245.683,370.249 242.5,373C 244.891,374.309 244.891,375.309 242.5,376C 245.131,377.691 244.797,378.858 241.5,379.5C 242.833,380.167 244.167,380.833 245.5,381.5C 244.289,382.72 244.289,383.887 245.5,385C 246.646,385.645 247.646,386.478 248.5,387.5C 249.903,387.64 251.403,387.64 253,387.5C 253.249,388.624 253.749,389.624 254.5,390.5C 256.735,389.295 258.901,388.295 261,387.5C 261.414,387.957 261.914,388.291 262.5,388.5C 263.698,385.802 265.698,383.969 268.5,383C 266.088,380.965 266.755,379.965 270.5,380C 269.377,378.956 268.044,378.29 266.5,378C 269.668,377.418 270.001,376.418 267.5,375C 268.672,374.581 269.672,373.915 270.5,373C 268.681,372.26 267.348,371.093 266.5,369.5C 269.941,367.388 272.275,364.388 273.5,360.5C 273.833,360.5 274.167,360.5 274.5,360.5C 274.403,394.565 291.403,410.065 325.5,407C 341.357,404.656 352.524,396.156 359,381.5C 365.101,363.119 366.101,344.452 362,325.5C 358.13,312.057 353.963,298.724 349.5,285.5C 349.5,285.167 349.5,284.833 349.5,284.5C 351.063,283.055 352.396,281.389 353.5,279.5C 361.465,280.569 369.465,280.736 377.5,280C 388.37,277.397 398.37,272.897 407.5,266.5C 408.086,266.709 408.586,267.043 409,267.5C 409.952,273.362 409.285,279.028 407,284.5C 400.08,303.929 386.58,315.596 366.5,319.5C 371.496,336.572 372.663,353.905 370,371.5C 367.051,387.408 359.051,400.074 346,409.5C 345.797,411.391 346.297,413.057 347.5,414.5 Z"/></g>
<g><path style="opacity:1" fill="#c33d2a" d="M 332.5,268.5 C 338.454,275.37 340.787,283.37 339.5,292.5C 339.027,293.906 338.027,294.573 336.5,294.5C 336.622,289.768 336.122,285.102 335,280.5C 333.156,276.811 331.322,273.145 329.5,269.5C 330.391,268.89 331.391,268.557 332.5,268.5 Z"/></g>
<g><path style="opacity:1" fill="#f3e9de" d="M 122.5,279.5 C 112.394,320.986 100.561,361.986 87,402.5C 82.7429,414.347 77.4096,425.68 71,436.5C 67.0284,440.902 62.1951,443.902 56.5,445.5C 37.3296,445.404 20.3296,439.404 5.5,427.5C 2.12402,423.357 0.124016,418.69 -0.5,413.5C -0.5,411.833 -0.5,410.167 -0.5,408.5C 7.15131,366.602 14.818,324.602 22.5,282.5C 27.9205,288.239 34.5871,290.073 42.5,288C 56.2344,282.866 69.901,277.532 83.5,272C 92.8877,268.793 102.221,268.793 111.5,272C 115.34,274.356 119.006,276.856 122.5,279.5 Z"/></g>
<g><path style="opacity:1" fill="#e9634e" d="M 329.5,269.5 C 331.322,273.145 333.156,276.811 335,280.5C 336.122,285.102 336.622,289.768 336.5,294.5C 333.696,296.405 330.696,298.071 327.5,299.5C 328.437,291.478 326.604,284.144 322,277.5C 320.871,275.859 319.371,274.859 317.5,274.5C 321.429,272.852 325.429,271.185 329.5,269.5 Z"/></g>
<g><path style="opacity:1" fill="#c33d2b" d="M 316.5,274.5 C 316.833,274.5 317.167,274.5 317.5,274.5C 319.371,274.859 320.871,275.859 322,277.5C 326.604,284.144 328.437,291.478 327.5,299.5C 326.292,300.234 324.959,300.567 323.5,300.5C 323.665,296.818 323.499,293.152 323,289.5C 321.354,284.215 319.187,279.215 316.5,274.5 Z"/></g>
<g><path style="opacity:1" fill="#ea634e" d="M 316.5,274.5 C 319.187,279.215 321.354,284.215 323,289.5C 323.499,293.152 323.665,296.818 323.5,300.5C 320.098,302.278 316.431,303.611 312.5,304.5C 311.916,295.831 309.916,287.498 306.5,279.5C 305.675,278.614 304.675,278.281 303.5,278.5C 307.704,277.028 312.037,275.695 316.5,274.5 Z"/></g>
<g><path style="opacity:1" fill="#f8dbc0" d="M 470.5,276.5 C 471.117,276.611 471.617,276.944 472,277.5C 472.746,281.896 473.746,286.23 475,290.5C 475.808,292.579 475.641,294.579 474.5,296.5C 470.315,290.424 468.982,283.758 470.5,276.5 Z"/></g>
<g><path style="opacity:1" fill="#f8dbc1" d="M 109.5,277.5 C 110.869,283.161 110.369,288.828 108,294.5C 107.632,295.91 106.799,296.91 105.5,297.5C 104.359,295.579 104.192,293.579 105,291.5C 106.442,286.763 107.942,282.097 109.5,277.5 Z"/></g>
<g><path style="opacity:1" fill="#c43f2c" d="M 302.5,278.5 C 302.833,278.5 303.167,278.5 303.5,278.5C 304.675,278.281 305.675,278.614 306.5,279.5C 309.916,287.498 311.916,295.831 312.5,304.5C 311.432,305.434 310.099,305.768 308.5,305.5C 307.516,296.244 305.516,287.244 302.5,278.5 Z"/></g>
<g><path style="opacity:1" fill="#ea6852" d="M 230.5,279.5 C 231.167,279.5 231.833,279.5 232.5,279.5C 232.804,280.15 233.137,280.817 233.5,281.5C 231.9,284.301 230.9,287.301 230.5,290.5C 231.912,294.717 232.579,299.05 232.5,303.5C 231.833,303.5 231.167,303.5 230.5,303.5C 227.546,299.14 225.88,294.306 225.5,289C 224.727,284.371 226.394,281.204 230.5,279.5 Z"/></g>
<g><path style="opacity:1" fill="#ea634e" d="M 302.5,278.5 C 305.516,287.244 307.516,296.244 308.5,305.5C 304.985,306.919 301.319,307.586 297.5,307.5C 296.628,298.345 294.961,289.345 292.5,280.5C 295.876,279.924 299.209,279.257 302.5,278.5 Z"/></g>
<g><path style="opacity:1" fill="#c2402d" d="M 232.5,279.5 C 235.152,279.41 237.485,280.076 239.5,281.5C 238.504,281.414 237.671,281.748 237,282.5C 235.664,285.009 234.83,287.676 234.5,290.5C 235.642,294.429 236.476,298.429 237,302.5C 237.697,304.584 238.864,306.251 240.5,307.5C 237.246,307.206 234.579,305.873 232.5,303.5C 232.579,299.05 231.912,294.717 230.5,290.5C 230.9,287.301 231.9,284.301 233.5,281.5C 233.137,280.817 232.804,280.15 232.5,279.5 Z"/></g>
<g><path style="opacity:1" fill="#e9614c" d="M 239.5,281.5 C 241.5,281.5 243.5,281.5 245.5,281.5C 244.207,290.506 244.541,299.506 246.5,308.5C 244.565,307.85 242.565,307.517 240.5,307.5C 238.864,306.251 237.697,304.584 237,302.5C 236.476,298.429 235.642,294.429 234.5,290.5C 234.83,287.676 235.664,285.009 237,282.5C 237.671,281.748 238.504,281.414 239.5,281.5 Z"/></g>
<g><path style="opacity:1" fill="#ea624d" d="M 290.5,280.5 C 289.982,281.577 289.648,282.744 289.5,284C 291.396,292.082 292.73,300.249 293.5,308.5C 290.833,308.833 288.167,309.167 285.5,309.5C 285.5,310.833 285.5,312.167 285.5,313.5C 282.588,314.815 279.588,315.982 276.5,317C 268.655,317.822 260.989,317.656 253.5,316.5C 253.5,314.833 253.5,313.167 253.5,311.5C 254.404,310.791 254.737,309.791 254.5,308.5C 251.654,308.191 250.154,306.525 250,303.5C 248.482,296.366 248.316,289.366 249.5,282.5C 252.833,282.5 256.167,282.5 259.5,282.5C 257.758,292.088 258.758,301.421 262.5,310.5C 263.833,310.5 265.167,310.5 266.5,310.5C 263.567,301.423 262.234,292.09 262.5,282.5C 264.5,282.5 266.5,282.5 268.5,282.5C 269.833,282.5 271.167,282.5 272.5,282.5C 272.798,291.655 274.131,300.655 276.5,309.5C 277.833,309.5 279.167,309.5 280.5,309.5C 278.27,300.669 276.937,291.669 276.5,282.5C 281.202,281.996 285.869,281.329 290.5,280.5 Z"/></g>
<g><path style="opacity:1" fill="#c43e2b" d="M 290.5,280.5 C 291.167,280.5 291.833,280.5 292.5,280.5C 294.961,289.345 296.628,298.345 297.5,307.5C 296.432,308.434 295.099,308.768 293.5,308.5C 292.73,300.249 291.396,292.082 289.5,284C 289.648,282.744 289.982,281.577 290.5,280.5 Z"/></g>
<g><path style="opacity:1" fill="#c2402d" d="M 245.5,281.5 C 247.099,281.232 248.432,281.566 249.5,282.5C 248.316,289.366 248.482,296.366 250,303.5C 250.154,306.525 251.654,308.191 254.5,308.5C 254.737,309.791 254.404,310.791 253.5,311.5C 251.645,309.767 249.312,308.767 246.5,308.5C 244.541,299.506 244.207,290.506 245.5,281.5 Z"/></g>
<g><path style="opacity:1" fill="#c43e2c" d="M 259.5,282.5 C 260.5,282.5 261.5,282.5 262.5,282.5C 262.234,292.09 263.567,301.423 266.5,310.5C 265.167,310.5 263.833,310.5 262.5,310.5C 258.758,301.421 257.758,292.088 259.5,282.5 Z"/></g>
<g><path style="opacity:1" fill="#c43e2b" d="M 272.5,282.5 C 273.833,282.5 275.167,282.5 276.5,282.5C 276.937,291.669 278.27,300.669 280.5,309.5C 279.167,309.5 277.833,309.5 276.5,309.5C 274.131,300.655 272.798,291.655 272.5,282.5 Z"/></g>
<g><path style="opacity:1" fill="#f4ebe0" d="M 349.5,285.5 C 353.963,298.724 358.13,312.057 362,325.5C 366.101,344.452 365.101,363.119 359,381.5C 352.524,396.156 341.357,404.656 325.5,407C 291.403,410.065 274.403,394.565 274.5,360.5C 275.441,358.95 276.107,357.284 276.5,355.5C 278.355,352.446 279.688,349.112 280.5,345.5C 281.234,344.292 281.567,342.959 281.5,341.5C 282.434,338.344 283.101,335.011 283.5,331.5C 284.301,329.958 284.634,328.292 284.5,326.5C 284.401,323.763 284.735,321.096 285.5,318.5C 285.5,316.833 285.5,315.167 285.5,313.5C 285.5,312.167 285.5,310.833 285.5,309.5C 288.167,309.167 290.833,308.833 293.5,308.5C 295.099,308.768 296.432,308.434 297.5,307.5C 301.319,307.586 304.985,306.919 308.5,305.5C 310.099,305.768 311.432,305.434 312.5,304.5C 316.431,303.611 320.098,302.278 323.5,300.5C 324.959,300.567 326.292,300.234 327.5,299.5C 330.696,298.071 333.696,296.405 336.5,294.5C 338.027,294.573 339.027,293.906 339.5,292.5C 342.533,290.984 345.2,288.984 347.5,286.5C 348.167,286.167 348.833,285.833 349.5,285.5 Z"/></g>
<g><path style="opacity:0.439" fill="#a7b9c0" d="M 134.5,292.5 C 135.492,292.328 136.158,292.662 136.5,293.5C 135.833,319.5 135.167,345.5 134.5,371.5C 134.5,345.167 134.5,318.833 134.5,292.5 Z"/></g>
<g><path style="opacity:1" fill="#f8dbc1" d="M 492.5,303.5 C 494.335,304.122 495.502,305.456 496,307.5C 497.65,313.419 498.317,319.419 498,325.5C 496.748,323.999 495.748,322.332 495,320.5C 493.731,314.889 492.898,309.222 492.5,303.5 Z"/></g>
<g><path style="opacity:1" fill="#f8dcc1" d="M 85.5,304.5 C 86.5862,304.62 87.2528,305.287 87.5,306.5C 86.3972,311.847 85.2305,317.181 84,322.5C 82.7596,325.917 81.5929,326.083 80.5,323C 81.604,316.63 83.2706,310.463 85.5,304.5 Z"/></g>
<g><path style="opacity:1" fill="#f8dbc1" d="M 22.5,307.5 C 23.4959,307.414 24.3292,307.748 25,308.5C 25.3778,313.286 24.7111,317.953 23,322.5C 21.9887,323.337 20.8221,323.67 19.5,323.5C 19.2586,317.903 20.2586,312.57 22.5,307.5 Z"/></g>
<g><path style="opacity:1" fill="#f8dbc0" d="M 151.5,308.5 C 152.5,308.5 153.5,308.5 154.5,308.5C 154.83,314.868 154.496,321.202 153.5,327.5C 150.433,321.43 149.766,315.097 151.5,308.5 Z"/></g>
<g><path style="opacity:1" fill="#f8dbc0" d="M 427.5,309.5 C 428.5,309.5 429.5,309.5 430.5,309.5C 430.5,315.5 430.5,321.5 430.5,327.5C 428.876,327.64 427.71,326.973 427,325.5C 426.324,320.129 426.491,314.796 427.5,309.5 Z"/></g>
<g><path style="opacity:1" fill="#f8dbc1" d="M 555.5,308.5 C 556.75,308.577 557.583,309.244 558,310.5C 558.912,313.982 559.745,317.482 560.5,321C 560.031,324.822 558.531,325.322 556,322.5C 554.383,317.824 554.217,313.157 555.5,308.5 Z"/></g>
<g><path style="opacity:1" fill="#c33d2b" d="M 285.5,313.5 C 285.5,315.167 285.5,316.833 285.5,318.5C 274.756,323.05 263.756,323.717 252.5,320.5C 252.232,318.901 252.566,317.568 253.5,316.5C 260.989,317.656 268.655,317.822 276.5,317C 279.588,315.982 282.588,314.815 285.5,313.5 Z"/></g>
<g><path style="opacity:1" fill="#e9624d" d="M 285.5,318.5 C 284.735,321.096 284.401,323.763 284.5,326.5C 280.327,327.044 276.327,328.21 272.5,330C 267.167,330.667 261.833,330.667 256.5,330C 254.563,329.878 253.23,329.045 252.5,327.5C 252.5,325.167 252.5,322.833 252.5,320.5C 263.756,323.717 274.756,323.05 285.5,318.5 Z"/></g>
<g><path style="opacity:1" fill="#c4412d" d="M 284.5,326.5 C 284.634,328.292 284.301,329.958 283.5,331.5C 279.681,331.605 276.014,332.438 272.5,334C 265.477,334.623 258.477,334.457 251.5,333.5C 251.205,331.265 251.539,329.265 252.5,327.5C 253.23,329.045 254.563,329.878 256.5,330C 261.833,330.667 267.167,330.667 272.5,330C 276.327,328.21 280.327,327.044 284.5,326.5 Z"/></g>
<g><path style="opacity:1" fill="#e9634d" d="M 283.5,331.5 C 283.101,335.011 282.434,338.344 281.5,341.5C 281.265,340.903 280.765,340.57 280,340.5C 270.352,343.686 260.519,344.686 250.5,343.5C 250.616,340.14 250.949,336.807 251.5,333.5C 258.477,334.457 265.477,334.623 272.5,334C 276.014,332.438 279.681,331.605 283.5,331.5 Z"/></g>
<g><path style="opacity:1" fill="#c3402d" d="M 281.5,341.5 C 281.567,342.959 281.234,344.292 280.5,345.5C 273.737,346.867 266.903,347.867 260,348.5C 256.832,348.457 253.832,347.791 251,346.5C 250.802,348.382 250.302,350.048 249.5,351.5C 249.194,348.615 249.527,345.948 250.5,343.5C 260.519,344.686 270.352,343.686 280,340.5C 280.765,340.57 281.265,340.903 281.5,341.5 Z"/></g>
<g><path style="opacity:1" fill="#e9624d" d="M 280.5,345.5 C 279.688,349.112 278.355,352.446 276.5,355.5C 276.44,354.957 276.107,354.624 275.5,354.5C 267.267,358.186 258.601,359.52 249.5,358.5C 249.5,356.167 249.5,353.833 249.5,351.5C 250.302,350.048 250.802,348.382 251,346.5C 253.832,347.791 256.832,348.457 260,348.5C 266.903,347.867 273.737,346.867 280.5,345.5 Z"/></g>
<g><path style="opacity:1" fill="#c43f2c" d="M 276.5,355.5 C 276.107,357.284 275.441,358.95 274.5,360.5C 274.167,360.5 273.833,360.5 273.5,360.5C 265.876,361.398 258.209,361.731 250.5,361.5C 249.89,360.609 249.557,359.609 249.5,358.5C 258.601,359.52 267.267,358.186 275.5,354.5C 276.107,354.624 276.44,354.957 276.5,355.5 Z"/></g>
<g><path style="opacity:1" fill="#e96751" d="M 273.5,360.5 C 272.275,364.388 269.941,367.388 266.5,369.5C 264.393,369.278 262.726,368.278 261.5,366.5C 260.197,367.718 259.197,367.385 258.5,365.5C 256.53,366.443 255.03,365.776 254,363.5C 253.148,364.571 252.315,365.571 251.5,366.5C 250.962,364.883 250.629,363.216 250.5,361.5C 258.209,361.731 265.876,361.398 273.5,360.5 Z"/></g>
<g><path style="opacity:1" fill="#f8dbc0" d="M 145.5,362.5 C 146.458,362.953 147.292,363.619 148,364.5C 148.667,369.5 148.667,374.5 148,379.5C 146.989,380.337 145.822,380.67 144.5,380.5C 144.211,374.409 144.545,368.409 145.5,362.5 Z"/></g>
<g><path style="opacity:1" fill="#f0e6db" d="M 266.5,369.5 C 267.348,371.093 268.681,372.26 270.5,373C 269.672,373.915 268.672,374.581 267.5,375C 270.001,376.418 269.668,377.418 266.5,378C 268.044,378.29 269.377,378.956 270.5,380C 266.755,379.965 266.088,380.965 268.5,383C 265.698,383.969 263.698,385.802 262.5,388.5C 261.914,388.291 261.414,387.957 261,387.5C 258.901,388.295 256.735,389.295 254.5,390.5C 253.749,389.624 253.249,388.624 253,387.5C 251.403,387.64 249.903,387.64 248.5,387.5C 247.646,386.478 246.646,385.645 245.5,385C 244.289,383.887 244.289,382.72 245.5,381.5C 244.167,380.833 242.833,380.167 241.5,379.5C 244.797,378.858 245.131,377.691 242.5,376C 244.891,375.309 244.891,374.309 242.5,373C 245.683,370.249 248.683,368.082 251.5,366.5C 252.315,365.571 253.148,364.571 254,363.5C 255.03,365.776 256.53,366.443 258.5,365.5C 259.197,367.385 260.197,367.718 261.5,366.5C 262.726,368.278 264.393,369.278 266.5,369.5 Z"/></g>
<g><path style="opacity:1" fill="#f8dbc0" d="M 187.5,388.5 C 188.5,388.5 189.5,388.5 190.5,388.5C 190.326,395.535 190.659,402.535 191.5,409.5C 188.355,408.923 186.855,406.923 187,403.5C 186.222,398.416 186.389,393.416 187.5,388.5 Z"/></g>
<g><path style="opacity:1" fill="#f8dbc0" d="M 52.5,396.5 C 53.7479,397.334 54.4146,398.667 54.5,400.5C 53.6469,404.563 52.4802,408.563 51,412.5C 50.3109,413.357 49.4776,414.023 48.5,414.5C 47.9357,408.166 49.269,402.166 52.5,396.5 Z"/></g>
<g><path style="opacity:1" fill="#f8dbc1" d="M 523.5,396.5 C 524.496,396.414 525.329,396.748 526,397.5C 527.815,403.106 529.315,408.773 530.5,414.5C 528.089,414.863 526.589,413.863 526,411.5C 523.936,406.55 523.103,401.55 523.5,396.5 Z"/></g>
<g><path style="opacity:1" fill="#5b5644" d="M 352.5,440.5 C 353.391,439.89 354.391,439.557 355.5,439.5C 355.843,441.225 356.843,441.725 358.5,441C 363.167,438.333 367.833,435.667 372.5,433C 374.311,431.959 374.645,430.793 373.5,429.5C 373.973,428.094 374.973,427.427 376.5,427.5C 376.517,429.028 377.184,429.528 378.5,429C 382.369,425.466 385.869,421.633 389,417.5C 390.5,411.165 388,408.499 381.5,409.5C 381.155,406.512 382.488,405.179 385.5,405.5C 393.732,408.468 395.566,413.801 391,421.5C 377.886,434.98 362.386,444.814 344.5,451C 342.741,451.798 341.074,451.631 339.5,450.5C 343.352,447.405 347.685,445.072 352.5,443.5C 353.562,442.575 353.562,441.575 352.5,440.5 Z"/></g>
<g><path style="opacity:1" fill="#f8dbc0" d="M 431.5,408.5 C 432.496,408.414 433.329,408.748 434,409.5C 435.254,415.472 434.088,420.806 430.5,425.5C 429.311,419.728 429.644,414.062 431.5,408.5 Z"/></g>
<g><path style="opacity:1" fill="#ea644e" d="M 376.5,427.5 C 374.973,427.427 373.973,428.094 373.5,429.5C 367.24,432.44 361.24,435.774 355.5,439.5C 354.391,439.557 353.391,439.89 352.5,440.5C 349.742,442.048 347.242,441.715 345,439.5C 341.663,433.829 339.163,427.829 337.5,421.5C 337.787,419.557 338.787,418.223 340.5,417.5C 343.904,418.964 346.238,417.964 347.5,414.5C 349.473,413.513 351.473,412.513 353.5,411.5C 359.614,419.732 367.281,421.565 376.5,417C 378.833,416.333 381.167,416.333 383.5,417C 384.517,418.049 384.684,419.216 384,420.5C 381.521,422.966 379.021,425.299 376.5,427.5 Z"/></g>
<g><path style="opacity:1" fill="#f8dcc2" d="M 327.5,420.5 C 328.675,420.281 329.675,420.614 330.5,421.5C 331.6,425.442 331.767,429.442 331,433.5C 330.804,435.286 329.971,436.619 328.5,437.5C 327.505,431.872 327.171,426.206 327.5,420.5 Z"/></g>
<g><path style="opacity:1" fill="#ea644e" d="M 245.5,421.5 C 245.5,422.5 245.5,423.5 245.5,424.5C 247.91,425.438 250.244,425.438 252.5,424.5C 255.097,424.643 257.431,425.477 259.5,427C 258.406,431.43 259.24,435.596 262,439.5C 265.752,442.629 269.919,445.129 274.5,447C 276.607,448.264 277.607,450.097 277.5,452.5C 273.167,452.5 268.833,452.5 264.5,452.5C 263.5,452.5 262.5,452.5 261.5,452.5C 254.644,450.704 247.644,449.037 240.5,447.5C 239.833,447.167 239.167,446.833 238.5,446.5C 236.629,446.141 235.129,445.141 234,443.5C 234.554,436.162 236.554,429.162 240,422.5C 241.699,421.594 243.533,421.261 245.5,421.5 Z"/></g>
<g><path style="opacity:0.957" fill="#166a87" d="M 5.5,427.5 C 20.3296,439.404 37.3296,445.404 56.5,445.5C 54.3358,448.476 52.8358,451.809 52,455.5C 34.8017,458.117 19.1351,454.117 5,443.5C 4.12515,442.127 3.62515,440.627 3.5,439C 4.56916,435.226 5.23583,431.393 5.5,427.5 Z"/></g>
<g><path style="opacity:1" fill="#eedcce" d="M 373.5,429.5 C 374.645,430.793 374.311,431.959 372.5,433C 367.833,435.667 363.167,438.333 358.5,441C 356.843,441.725 355.843,441.225 355.5,439.5C 361.24,435.774 367.24,432.44 373.5,429.5 Z"/></g>
<g><path style="opacity:0.954" fill="#176a87" d="M 574.5,427.5 C 574.71,432.92 575.21,438.253 576,443.5C 562.471,455.512 546.638,460.678 528.5,459C 527.077,453.986 524.744,449.486 521.5,445.5C 542.807,450.093 560.474,444.093 574.5,427.5 Z"/></g>
<g><path style="opacity:1" fill="#f8dbc1" d="M 398.5,438.5 C 399.5,438.5 400.5,438.5 401.5,438.5C 402.021,443.821 401.021,448.821 398.5,453.5C 397.675,454.386 396.675,454.719 395.5,454.5C 395.988,449.062 396.988,443.729 398.5,438.5 Z"/></g>
<g><path style="opacity:1" fill="#5c5846" d="M 238.5,446.5 C 239.167,446.833 239.833,447.167 240.5,447.5C 240.281,448.675 240.614,449.675 241.5,450.5C 247.2,452.383 253.034,453.717 259,454.5C 260.376,454.316 261.209,453.649 261.5,452.5C 262.5,452.5 263.5,452.5 264.5,452.5C 264.5,453.5 264.5,454.5 264.5,455.5C 269.179,455.666 273.845,455.499 278.5,455C 286.791,452.148 287.458,448.148 280.5,443C 283.432,440.855 285.932,441.355 288,444.5C 289.962,451.075 287.795,455.575 281.5,458C 266.154,460.003 251.154,458.336 236.5,453C 231.258,451.874 226.591,449.707 222.5,446.5C 222.833,445.5 223.5,444.833 224.5,444.5C 228.019,446.229 231.686,447.562 235.5,448.5C 237.038,448.547 238.038,447.88 238.5,446.5 Z"/></g>
<g><path style="opacity:1" fill="#ead6c7" d="M 240.5,447.5 C 247.644,449.037 254.644,450.704 261.5,452.5C 261.209,453.649 260.376,454.316 259,454.5C 253.034,453.717 247.2,452.383 241.5,450.5C 240.614,449.675 240.281,448.675 240.5,447.5 Z"/></g>
<g><path style="opacity:0.983" fill="#176c89" d="M 156.5,484.5 C 165.773,488.758 175.44,491.924 185.5,494C 214.001,498.732 242.668,499.899 271.5,497.5C 304.488,498.971 337.488,499.471 370.5,499C 389.058,496.694 407.058,492.194 424.5,485.5C 426.584,495.125 423.251,501.958 414.5,506C 394.897,512.542 374.897,516.375 354.5,517.5C 330.5,517.5 306.5,517.5 282.5,517.5C 258.64,516.737 234.64,515.57 210.5,514C 196.679,513.026 183.012,511.026 169.5,508C 158.297,504.103 153.964,496.27 156.5,484.5 Z"/></g>
</svg>
