<?xml version="1.0" encoding="UTF-8"?>
<!DOCTYPE svg PUBLIC "-//W3C//DTD SVG 1.1//EN" "http://www.w3.org/Graphics/SVG/1.1/DTD/svg11.dtd">
<svg xmlns="http://www.w3.org/2000/svg" version="1.1" width="650px" height="516px" style="shape-rendering:geometricPrecision; text-rendering:geometricPrecision; image-rendering:optimizeQuality; fill-rule:evenodd; clip-rule:evenodd" xmlns:xlink="http://www.w3.org/1999/xlink">
<g><path style="opacity:0.988" fill="#339f8c" d="M 246.5,-0.5 C 247.167,-0.5 247.833,-0.5 248.5,-0.5C 253.909,5.41142 259.576,11.2448 265.5,17C 279.228,26.0605 294.394,30.5605 311,30.5C 326.676,30.2616 341.842,27.4283 356.5,22C 368.044,16.8976 377.711,9.39756 385.5,-0.5C 386.5,-0.5 387.5,-0.5 388.5,-0.5C 395.126,9.29341 404.126,15.7934 415.5,19C 416.71,20.0391 417.71,21.2058 418.5,22.5C 419.228,25.0795 419.728,27.7462 420,30.5C 420.333,30.1667 420.667,29.8333 421,29.5C 422.719,30.8688 424.552,31.8688 426.5,32.5C 424.302,32.1201 422.635,32.7868 421.5,34.5C 414.18,33.3469 407.514,30.1803 401.5,25C 395.833,19.3333 390.167,13.6667 384.5,8C 382.071,8.33537 381.238,9.83537 382,12.5C 388.469,17.9677 394.636,23.801 400.5,30C 405.673,34.0896 411.34,37.423 417.5,40C 414.712,45.7449 411.546,51.2449 408,56.5C 407.825,59.1572 407.992,61.8239 408.5,64.5C 404.515,61.3614 401.515,62.0281 399.5,66.5C 397.433,68.5467 395.6,68.5467 394,66.5C 383.246,53.5617 374.746,39.2283 368.5,23.5C 366.243,22.4362 364.243,22.9362 362.5,25C 370.148,41.9733 379.815,57.64 391.5,72C 380.908,78.364 369.575,82.864 357.5,85.5C 352.079,67.4807 348.079,49.1474 345.5,30.5C 343.833,30.5 342.167,30.5 340.5,30.5C 342.131,49.3583 346.131,67.6916 352.5,85.5C 352.291,86.086 351.957,86.586 351.5,87C 340.638,89.4476 329.638,90.6142 318.5,90.5C 316.552,71.2129 316.552,51.8796 318.5,32.5C 316.5,32.5 314.5,32.5 312.5,32.5C 311.566,51.8431 311.566,71.1764 312.5,90.5C 300.637,91.0921 289.137,89.4254 278,85.5C 278.004,79.4635 278.671,73.4635 280,67.5C 284.478,55.2319 288.645,42.8986 292.5,30.5C 291.07,30.5792 289.736,30.2458 288.5,29.5C 281.668,46.8432 275.668,64.5098 270.5,82.5C 261.195,79.6811 252.528,75.5144 244.5,70C 243.196,69.196 242.529,68.0293 242.5,66.5C 249.97,51.8658 258.47,37.8658 268,24.5C 268.01,21.6005 266.677,20.9338 264,22.5C 254.606,36.2314 245.606,50.2314 237,64.5C 229.565,58.2688 223.565,50.9355 219,42.5C 217.989,43.3366 216.822,43.67 215.5,43.5C 215.33,42.1779 215.663,41.0113 216.5,40C 217.833,40.3333 219.167,40.6667 220.5,41C 231.799,31.3693 242.799,21.3693 253.5,11C 252.299,10.0975 251.465,8.93081 251,7.5C 239.961,17.5415 228.627,27.2081 217,36.5C 215.101,32.3795 214.268,28.0462 214.5,23.5C 214.908,22.3569 215.575,21.3569 216.5,20.5C 228.948,16.9472 238.948,9.94722 246.5,-0.5 Z"/></g>
<g><path style="opacity:0.995" fill="#1d8a76" d="M 399.5,66.5 C 400.462,70.1461 402.795,71.3128 406.5,70C 408.155,68.5557 408.822,66.7224 408.5,64.5C 407.992,61.8239 407.825,59.1572 408,56.5C 411.546,51.2449 414.712,45.7449 417.5,40C 411.34,37.423 405.673,34.0896 400.5,30C 394.636,23.801 388.469,17.9677 382,12.5C 381.238,9.83537 382.071,8.33537 384.5,8C 390.167,13.6667 395.833,19.3333 401.5,25C 407.514,30.1803 414.18,33.3469 421.5,34.5C 421.014,38.509 422.68,40.3423 426.5,40C 429.14,37.3794 429.14,34.8794 426.5,32.5C 424.552,31.8688 422.719,30.8688 421,29.5C 420.667,29.8333 420.333,30.1667 420,30.5C 419.728,27.7462 419.228,25.0795 418.5,22.5C 439.106,28.3141 459.106,35.8141 478.5,45C 481.927,46.796 485.094,48.9627 488,51.5C 492.021,50.7921 495.854,51.6255 499.5,54C 506.427,58.9249 511.927,65.0915 516,72.5C 528.519,95.5394 538.852,119.539 547,144.5C 560.312,187.086 573.312,229.752 586,272.5C 598.907,300.647 612.074,328.647 625.5,356.5C 618.724,355.179 611.891,354.179 605,353.5C 597.761,353.119 592.428,356.119 589,362.5C 586.867,373.62 580.701,381.453 570.5,386C 567.406,386.652 564.406,386.318 561.5,385C 551.027,376.792 540.36,376.458 529.5,384C 525.301,388.899 521.468,394.066 518,399.5C 509.811,406.411 501.977,406.078 494.5,398.5C 491.768,360.778 484.935,323.778 474,287.5C 474.713,321.112 479.547,354.112 488.5,386.5C 480.343,386.496 473.843,389.829 469,396.5C 466.667,400.167 464.333,403.833 462,407.5C 457.983,412.593 452.816,414.426 446.5,413C 437.912,408.935 428.912,406.935 419.5,407C 411.782,410.053 405.948,415.219 402,422.5C 398.749,426.422 394.916,429.588 390.5,432C 388.167,432.667 385.833,432.667 383.5,432C 375.5,427.333 367.5,422.667 359.5,418C 352.979,415.685 346.646,416.019 340.5,419C 336.289,422.721 332.289,426.721 328.5,431C 323.686,433.893 318.686,434.226 313.5,432C 308.5,427.667 303.5,423.333 298.5,419C 291.633,414.447 284.299,413.447 276.5,416C 271.5,419.667 266.5,423.333 261.5,427C 255.547,428.126 250.214,426.793 245.5,423C 241.154,419.133 237.654,414.633 235,409.5C 230.41,403.082 224.243,400.582 216.5,402C 210.957,403.438 205.624,405.438 200.5,408C 195.3,410.626 190.8,409.793 187,405.5C 182.885,397.421 177.052,390.921 169.5,386C 166.408,385.264 163.408,385.431 160.5,386.5C 165.557,359.047 168.39,331.38 169,303.5C 161.224,335.437 156.39,367.771 154.5,400.5C 147.079,407.946 139.412,408.279 131.5,401.5C 127.189,395.721 122.523,390.221 117.5,385C 106.541,379.587 96.2074,380.587 86.5,388C 78.3245,389.682 71.4912,387.182 66,380.5C 63.3933,375.62 61.06,370.62 59,365.5C 54.9826,359.096 49.1493,356.429 41.5,357.5C 35.3265,357.545 29.3265,358.545 23.5,360.5C 36.5901,331.316 49.4234,301.983 62,272.5C 73.0583,230.992 84.7249,189.659 97,148.5C 104.515,123.621 114.181,99.6209 126,76.5C 130.42,68.844 135.92,62.0106 142.5,56C 145.948,54.0728 149.615,52.7394 153.5,52C 161.163,45.1622 169.829,39.8288 179.5,36C 190.973,31.2623 202.64,27.0956 214.5,23.5C 214.268,28.0462 215.101,32.3795 217,36.5C 228.627,27.2081 239.961,17.5415 251,7.5C 251.465,8.93081 252.299,10.0975 253.5,11C 242.799,21.3693 231.799,31.3693 220.5,41C 219.167,40.6667 217.833,40.3333 216.5,40C 215.663,41.0113 215.33,42.1779 215.5,43.5C 216.822,43.67 217.989,43.3366 219,42.5C 223.565,50.9355 229.565,58.2688 237,64.5C 245.606,50.2314 254.606,36.2314 264,22.5C 266.677,20.9338 268.01,21.6005 268,24.5C 258.47,37.8658 249.97,51.8658 242.5,66.5C 242.529,68.0293 243.196,69.196 244.5,70C 252.528,75.5144 261.195,79.6811 270.5,82.5C 275.668,64.5098 281.668,46.8432 288.5,29.5C 289.736,30.2458 291.07,30.5792 292.5,30.5C 288.645,42.8986 284.478,55.2319 280,67.5C 278.671,73.4635 278.004,79.4635 278,85.5C 289.137,89.4254 300.637,91.0921 312.5,90.5C 311.566,71.1764 311.566,51.8431 312.5,32.5C 314.5,32.5 316.5,32.5 318.5,32.5C 316.552,51.8796 316.552,71.2129 318.5,90.5C 329.638,90.6142 340.638,89.4476 351.5,87C 351.957,86.586 352.291,86.086 352.5,85.5C 346.131,67.6916 342.131,49.3583 340.5,30.5C 342.167,30.5 343.833,30.5 345.5,30.5C 348.079,49.1474 352.079,67.4807 357.5,85.5C 369.575,82.864 380.908,78.364 391.5,72C 379.815,57.64 370.148,41.9733 362.5,25C 364.243,22.9362 366.243,22.4362 368.5,23.5C 374.746,39.2283 383.246,53.5617 394,66.5C 395.6,68.5467 397.433,68.5467 399.5,66.5 Z"/></g>
<g><path style="opacity:1" fill="#ede7dc" d="M 426.5,32.5 C 429.14,34.8794 429.14,37.3794 426.5,40C 422.68,40.3423 421.014,38.509 421.5,34.5C 422.635,32.7868 424.302,32.1201 426.5,32.5 Z"/></g>
<g><path style="opacity:1" fill="#ebe6da" d="M 191.5,38.5 C 198.02,38.7174 199.687,41.5508 196.5,47C 189.237,47.8209 187.571,44.9876 191.5,38.5 Z"/></g>
<g><path style="opacity:1" fill="#e2e0d5" d="M 447.5,42.5 C 448.833,42.5 450.167,42.5 451.5,42.5C 451.5,44.1667 451.5,45.8333 451.5,47.5C 447.464,47.7179 446.13,46.0512 447.5,42.5 Z"/></g>
<g><path style="opacity:1" fill="#e7e3d8" d="M 214.5,48.5 C 215.833,48.5 217.167,48.5 218.5,48.5C 218.829,54.9363 216.829,55.9363 212.5,51.5C 213.193,50.4822 213.859,49.4822 214.5,48.5 Z"/></g>
<g><path style="opacity:1" fill="#e3e1d6" d="M 494.5,59.5 C 495.833,59.5 497.167,59.5 498.5,59.5C 498.99,61.9484 498.157,63.615 496,64.5C 493.389,63.5001 492.889,61.8334 494.5,59.5 Z"/></g>
<g><path style="opacity:1" fill="#e4e2d6" d="M 169.5,60.5 C 175.704,60.3137 177.037,62.8137 173.5,68C 167.403,68.1475 166.07,65.6475 169.5,60.5 Z"/></g>
<g><path style="opacity:1" fill="#ebe7db" d="M 408.5,64.5 C 408.822,66.7224 408.155,68.5557 406.5,70C 402.795,71.3128 400.462,70.1461 399.5,66.5C 401.515,62.0281 404.515,61.3614 408.5,64.5 Z"/></g>
<g><path style="opacity:1" fill="#e8e5da" d="M 137.5,72.5 C 142.123,71.4082 143.956,73.0748 143,77.5C 137.42,79.7516 135.587,78.0849 137.5,72.5 Z"/></g>
<g><path style="opacity:1" fill="#ddddd1" d="M 471.5,73.5 C 474.95,72.7564 476.616,74.0897 476.5,77.5C 474.833,77.5 473.167,77.5 471.5,77.5C 471.5,76.1667 471.5,74.8333 471.5,73.5 Z"/></g>
<g><path style="opacity:1" fill="#f0e9de" d="M 208.5,77.5 C 216.486,76.998 218.486,80.1647 214.5,87C 206.424,87.8047 204.424,84.638 208.5,77.5 Z"/></g>
<g><path style="opacity:1" fill="#e7e4d8" d="M 491.5,79.5 C 497.293,80.4215 498.626,83.2548 495.5,88C 490.502,89.3297 488.336,87.4964 489,82.5C 489.698,81.3094 490.531,80.3094 491.5,79.5 Z"/></g>
<g><path style="opacity:1" fill="#e2e0d5" d="M 267.5,86.5 C 272.159,86.0146 273.492,87.848 271.5,92C 266.711,92.8446 265.377,91.0113 267.5,86.5 Z"/></g>
<g><path style="opacity:1" fill="#deded2" d="M 360.5,89.5 C 361.833,89.5 363.167,89.5 364.5,89.5C 364.99,91.9484 364.157,93.615 362,94.5C 359.389,93.5001 358.889,91.8334 360.5,89.5 Z"/></g>
<g><path style="opacity:1" fill="#ebe6da" d="M 429.5,88.5 C 435.264,88.8596 436.931,91.6929 434.5,97C 426.208,97.89 424.542,95.0567 429.5,88.5 Z"/></g>
<g><path style="opacity:1" fill="#f0e9de" d="M 512.5,90.5 C 516.676,89.8307 518.009,91.3307 516.5,95C 514.866,95.4935 513.199,95.6602 511.5,95.5C 511.366,93.7085 511.699,92.0418 512.5,90.5 Z"/></g>
<g><path style="opacity:1" fill="#e8e4d9" d="M 302.5,94.5 C 305.966,95.109 306.966,96.9423 305.5,100C 303.866,100.494 302.199,100.66 300.5,100.5C 300.259,98.1137 300.925,96.1137 302.5,94.5 Z"/></g>
<g><path style="opacity:1" fill="#ede7db" d="M 149.5,97.5 C 150.833,97.5 152.167,97.5 153.5,97.5C 153.99,99.9484 153.157,101.615 151,102.5C 148.389,101.5 147.889,99.8334 149.5,97.5 Z"/></g>
<g><path style="opacity:1" fill="#e9e5d9" d="M 126.5,98.5 C 132.704,98.3137 134.037,100.814 130.5,106C 124.834,105.835 123.501,103.335 126.5,98.5 Z"/></g>
<g><path style="opacity:1" fill="#e8e4d8" d="M 249.5,100.5 C 256.004,100.138 257.671,102.638 254.5,108C 247.745,108.756 246.078,106.256 249.5,100.5 Z"/></g>
<g><path style="opacity:1" fill="#e9e4d9" d="M 462.5,100.5 C 467.665,100.162 469.831,102.495 469,107.5C 466.048,111.482 463.048,111.482 460,107.5C 459.333,106.167 459.333,104.833 460,103.5C 461.045,102.627 461.878,101.627 462.5,100.5 Z"/></g>
<g><path style="opacity:1" fill="#eee7dc" d="M 344.5,107.5 C 351.297,108.107 352.964,111.274 349.5,117C 342.662,118.822 340.162,116.322 342,109.5C 342.995,108.934 343.828,108.267 344.5,107.5 Z"/></g>
<g><path style="opacity:1" fill="#e9e4d9" d="M 426.5,108.5 C 428.912,108.694 429.912,110.027 429.5,112.5C 428.167,112.5 426.833,112.5 425.5,112.5C 425.433,111.041 425.766,109.708 426.5,108.5 Z"/></g>
<g><path style="opacity:1" fill="#e4e1d6" d="M 504.5,109.5 C 509.159,109.015 510.492,110.848 508.5,115C 503.728,115.81 502.395,113.977 504.5,109.5 Z"/></g>
<g><path style="opacity:1" fill="#e6e2d7" d="M 381.5,111.5 C 383.048,111.821 383.715,112.821 383.5,114.5C 380.752,114.598 380.086,113.598 381.5,111.5 Z"/></g>
<g><path style="opacity:1" fill="#e5e2d7" d="M 211.5,113.5 C 212.833,113.5 214.167,113.5 215.5,113.5C 215.5,114.833 215.5,116.167 215.5,117.5C 211.56,118.234 210.227,116.901 211.5,113.5 Z"/></g>
<g><path style="opacity:1" fill="#e4e1d6" d="M 190.5,114.5 C 193.243,114.077 194.576,115.244 194.5,118C 192.551,122.634 190.551,122.634 188.5,118C 188.978,116.697 189.645,115.531 190.5,114.5 Z"/></g>
<g><path style="opacity:1" fill="#dadbcf" d="M 280.5,119.5 C 284.485,119.629 285.818,121.463 284.5,125C 279.728,125.81 278.395,123.977 280.5,119.5 Z"/></g>
<g><path style="opacity:1" fill="#ebe6da" d="M 478.5,120.5 C 480.167,120.5 481.833,120.5 483.5,120.5C 484.508,125.667 482.675,127.334 478,125.5C 477.36,123.735 477.527,122.068 478.5,120.5 Z"/></g>
<g><path style="opacity:1" fill="#d8a66c" d="M 364.5,219.5 C 363.167,219.5 361.833,219.5 360.5,219.5C 360.337,217.143 360.503,214.81 361,212.5C 384.665,184.811 382.831,158.978 355.5,135C 329.06,120.464 305.56,124.297 285,146.5C 272.796,163.614 272.462,180.948 284,198.5C 289.611,203.592 293.778,209.592 296.5,216.5C 296.197,218.114 295.53,219.448 294.5,220.5C 293.609,219.89 292.609,219.557 291.5,219.5C 293.113,218.162 293.613,216.495 293,214.5C 268.576,194.023 264.909,170.357 282,143.5C 303.3,120.811 327.8,116.644 355.5,131C 381.535,150.414 387.368,174.581 373,203.5C 370,206.5 367,209.5 364,212.5C 363.297,214.929 363.463,217.262 364.5,219.5 Z"/></g>
<g><path style="opacity:1" fill="#eae5da" d="M 148.5,123.5 C 153.159,123.015 154.492,124.848 152.5,129C 150.866,129.494 149.199,129.66 147.5,129.5C 147.325,127.379 147.659,125.379 148.5,123.5 Z"/></g>
<g><path style="opacity:1" fill="#efe8dd" d="M 390.5,131.5 C 396.71,131.041 398.71,133.708 396.5,139.5C 388.387,141.596 386.387,138.929 390.5,131.5 Z"/></g>
<g><path style="opacity:1" fill="#eae5da" d="M 428.5,132.5 C 433.895,131.555 435.561,133.555 433.5,138.5C 428.321,139.647 426.654,137.647 428.5,132.5 Z"/></g>
<g><path style="opacity:1" fill="#ece6db" d="M 221.5,137.5 C 228.486,137.331 230.153,140.164 226.5,146C 224.559,146.743 222.726,146.576 221,145.5C 220.278,142.739 220.445,140.073 221.5,137.5 Z"/></g>
<g><path style="opacity:1" fill="#e0e0d4" d="M 472.5,140.5 C 477.805,141.241 479.139,143.741 476.5,148C 470.403,148.147 469.07,145.647 472.5,140.5 Z"/></g>
<g><path style="opacity:1" fill="#e5e2d6" d="M 190.5,143.5 C 193.166,143.066 194.333,144.066 194,146.5C 190.403,148.066 189.237,147.066 190.5,143.5 Z"/></g>
<g><path style="opacity:1" fill="#eae5da" d="M 125.5,144.5 C 132.225,144.204 133.891,146.871 130.5,152.5C 123.409,153.531 121.742,150.864 125.5,144.5 Z"/></g>
<g><path style="opacity:1" fill="#d7d9cd" d="M 256.5,144.5 C 258.167,144.5 259.833,144.5 261.5,144.5C 261.65,148.161 260.15,149.161 257,147.5C 256.517,146.552 256.351,145.552 256.5,144.5 Z"/></g>
<g><path style="opacity:1" fill="#d8dace" d="M 503.5,147.5 C 507.161,147.35 508.161,148.85 506.5,152C 502.707,152.487 501.707,150.987 503.5,147.5 Z"/></g>
<g><path style="opacity:1" fill="#f0e9dd" d="M 530.5,156.5 C 532.5,156.5 534.5,156.5 536.5,156.5C 537.193,161.983 535.026,163.983 530,162.5C 529.322,160.402 529.489,158.402 530.5,156.5 Z"/></g>
<g><path style="opacity:1" fill="#e4e2d7" d="M 444.5,158.5 C 447.389,158.999 448.056,160.499 446.5,163C 445.552,163.483 444.552,163.649 443.5,163.5C 443.366,161.708 443.699,160.042 444.5,158.5 Z"/></g>
<g><path style="opacity:1" fill="#e1dfd4" d="M 387.5,163.5 C 391.35,163.701 392.35,165.534 390.5,169C 385.289,169.546 384.289,167.713 387.5,163.5 Z"/></g>
<g><path style="opacity:1" fill="#efe8dd" d="M 102.5,168.5 C 106.5,167.833 108.167,169.5 107.5,173.5C 105.5,173.5 103.5,173.5 101.5,173.5C 101.366,171.708 101.699,170.042 102.5,168.5 Z"/></g>
<g><path style="opacity:1" fill="#ede7dc" d="M 426.5,168.5 C 427.833,168.5 429.167,168.5 430.5,168.5C 430.884,170.665 430.217,172.332 428.5,173.5C 426.783,172.332 426.116,170.665 426.5,168.5 Z"/></g>
<g><path style="opacity:1" fill="#e7e3d8" d="M 158.5,169.5 C 162.161,169.35 163.161,170.85 161.5,174C 160.207,174.49 158.873,174.657 157.5,174.5C 157.366,172.708 157.699,171.042 158.5,169.5 Z"/></g>
<g><path style="opacity:1" fill="#eae5da" d="M 463.5,173.5 C 468.5,172.5 470.5,174.5 469.5,179.5C 465.167,179.833 463.167,177.833 463.5,173.5 Z"/></g>
<g><path style="opacity:1" fill="#deded2" d="M 505.5,176.5 C 509.138,175.737 510.638,177.07 510,180.5C 505.415,182.413 503.915,181.079 505.5,176.5 Z"/></g>
<g><path style="opacity:1" fill="#ebe6da" d="M 213.5,177.5 C 220.004,177.138 221.671,179.638 218.5,185C 212.593,185.746 210.927,183.246 213.5,177.5 Z"/></g>
<g><path style="opacity:1" fill="#ede7dc" d="M 254.5,179.5 C 258.35,179.701 259.35,181.534 257.5,185C 253.537,185.118 252.537,183.284 254.5,179.5 Z"/></g>
<g><path style="opacity:1" fill="#e6e3d7" d="M 547.5,179.5 C 550.166,179.066 551.333,180.066 551,182.5C 547.403,184.066 546.237,183.066 547.5,179.5 Z"/></g>
<g><path style="opacity:1" fill="#eee7dc" d="M 127.5,184.5 C 130.91,184.384 132.244,186.05 131.5,189.5C 129.833,189.5 128.167,189.5 126.5,189.5C 126.366,187.708 126.699,186.042 127.5,184.5 Z"/></g>
<g><path style="opacity:1" fill="#ece6db" d="M 521.5,200.5 C 526.75,200.236 528.416,202.569 526.5,207.5C 519.789,208.788 518.122,206.454 521.5,200.5 Z"/></g>
<g><path style="opacity:1" fill="#d4d8cc" d="M 389.5,200.5 C 392.5,200.167 393.833,201.5 393.5,204.5C 389.56,205.234 388.227,203.901 389.5,200.5 Z"/></g>
<g><path style="opacity:1" fill="#ede7db" d="M 415.5,201.5 C 421.572,202.712 422.905,205.878 419.5,211C 413.498,211.993 411.332,209.493 413,203.5C 413.995,202.934 414.828,202.267 415.5,201.5 Z"/></g>
<g><path style="opacity:1" fill="#e5e2d7" d="M 177.5,203.5 C 183.748,205.27 184.081,207.937 178.5,211.5C 174.933,209.235 174.6,206.568 177.5,203.5 Z"/></g>
<g><path style="opacity:1" fill="#f4e9dd" d="M 364.5,219.5 C 368.245,227.371 366.745,234.038 360,239.5C 355.133,246.43 355.467,253.097 361,259.5C 360.668,265.56 358.001,270.56 353,274.5C 351.596,276.639 350.763,278.972 350.5,281.5C 352.587,285.985 353.754,290.652 354,295.5C 350.946,299.044 347.613,302.377 344,305.5C 343.667,308.833 343.333,312.167 343,315.5C 341.367,318.148 339.033,319.481 336,319.5C 329.299,317.918 322.466,317.084 315.5,317C 314.54,315.581 313.707,314.081 313,312.5C 312.667,308.167 312.333,303.833 312,299.5C 308.272,295.619 304.272,291.952 300,288.5C 300.178,283.113 301.844,278.113 305,273.5C 307.226,268.314 306.893,263.314 304,258.5C 301.333,255.167 298.667,251.833 296,248.5C 295.333,245.5 295.333,242.5 296,239.5C 301.17,232.571 300.67,226.238 294.5,220.5C 295.53,219.448 296.197,218.114 296.5,216.5C 293.778,209.592 289.611,203.592 284,198.5C 272.462,180.948 272.796,163.614 285,146.5C 305.56,124.297 329.06,120.464 355.5,135C 382.831,158.978 384.665,184.811 361,212.5C 360.503,214.81 360.337,217.143 360.5,219.5C 361.833,219.5 363.167,219.5 364.5,219.5 Z"/></g>
<g><path style="opacity:1" fill="#ecb57c" d="M 354.5,221.5 C 354.664,218.813 354.497,216.146 354,213.5C 353.196,212.196 352.029,211.529 350.5,211.5C 343.971,213.679 338.138,217.013 333,221.5C 331.981,220.313 330.814,219.313 329.5,218.5C 328.452,219.383 327.285,220.05 326,220.5C 322.426,217.961 318.593,215.794 314.5,214C 305.734,210.267 302.068,213.101 303.5,222.5C 302.504,222.586 301.671,222.252 301,221.5C 300.667,218.5 300.333,215.5 300,212.5C 291.041,204.863 284.374,195.53 280,184.5C 277.435,167.196 282.268,152.363 294.5,140C 308.319,129.255 323.652,126.588 340.5,132C 371.227,144.619 380.727,166.452 369,197.5C 366.385,201.783 363.385,205.783 360,209.5C 358.241,212.964 357.074,216.63 356.5,220.5C 355.817,220.863 355.15,221.196 354.5,221.5 Z"/></g>
<g><path style="opacity:1" fill="#5b5440" d="M 340.5,189.5 C 341.5,189.5 342.5,189.5 343.5,189.5C 343.456,193.09 341.789,195.59 338.5,197C 330.819,200.28 323.152,200.28 315.5,197C 313.393,195.736 312.393,193.903 312.5,191.5C 315.14,191.954 317.473,193.121 319.5,195C 328.006,198.242 335.006,196.408 340.5,189.5 Z"/></g>
<g><path style="opacity:1" fill="#c3422c" d="M 324.5,175.5 C 332.185,173.345 335.351,176.345 334,184.5C 329.723,189.682 325.389,189.682 321,184.5C 320.149,181.947 320.482,179.614 322,177.5C 323.444,179.155 325.278,179.822 327.5,179.5C 327.912,177.027 326.912,175.694 324.5,175.5 Z"/></g>
<g><path style="opacity:1" fill="#585340" d="M 308.5,166.5 C 314.367,167.203 316.533,170.536 315,176.5C 311.512,179.462 308.845,178.795 307,174.5C 306.109,171.502 306.609,168.836 308.5,166.5 Z"/></g>
<g><path style="opacity:1" fill="#ded5c9" d="M 308.5,168.5 C 310.76,169.238 310.927,170.238 309,171.5C 307.272,170.648 307.105,169.648 308.5,168.5 Z"/></g>
<g><path style="opacity:1" fill="#5a5541" d="M 341.5,164.5 C 345.741,163.909 347.407,165.742 346.5,170C 347.064,173.764 345.564,176.264 342,177.5C 339.116,176.576 337.949,174.576 338.5,171.5C 338.667,170.167 338.833,168.833 339,167.5C 340.045,166.627 340.878,165.627 341.5,164.5 Z"/></g>
<g><path style="opacity:1" fill="#e4dbcf" d="M 341.5,166.5 C 343.337,166.639 343.67,167.306 342.5,168.5C 341.702,168.043 341.369,167.376 341.5,166.5 Z"/></g>
<g><path style="opacity:1" fill="#615842" d="M 341.5,149.5 C 345.377,149.231 347.544,150.898 348,154.5C 344.784,155.652 342.284,154.652 340.5,151.5C 340.863,150.817 341.196,150.15 341.5,149.5 Z"/></g>
<g><path style="opacity:1" fill="#59533f" d="M 306.5,150.5 C 308.167,150.5 309.833,150.5 311.5,150.5C 310.91,154.316 308.577,155.983 304.5,155.5C 304.365,153.446 305.032,151.779 306.5,150.5 Z"/></g>
<g><path style="opacity:1" fill="#dbdcd0" d="M 455.5,204.5 C 456.833,204.5 458.167,204.5 459.5,204.5C 459.778,206.346 459.111,207.68 457.5,208.5C 455.889,207.68 455.222,206.346 455.5,204.5 Z"/></g>
<g><path style="opacity:1" fill="#ddddd2" d="M 486.5,205.5 C 487.5,205.5 488.5,205.5 489.5,205.5C 490.244,208.95 488.91,210.616 485.5,210.5C 485.366,208.708 485.699,207.042 486.5,205.5 Z"/></g>
<g><path style="opacity:1" fill="#ede7dc" d="M 220.5,208.5 C 225.587,208.284 226.587,210.118 223.5,214C 219.537,214.118 218.537,212.284 220.5,208.5 Z"/></g>
<g><path style="opacity:1" fill="#e34f38" d="M 354.5,221.5 C 354.79,227.561 354.457,233.561 353.5,239.5C 351.235,240.647 348.902,240.814 346.5,240C 341.667,237.418 337,234.585 332.5,231.5C 330.208,233.024 328.208,232.691 326.5,230.5C 321.617,235.384 315.95,239.051 309.5,241.5C 306.825,240.523 305.325,238.523 305,235.5C 304.825,230.981 304.325,226.647 303.5,222.5C 302.068,213.101 305.734,210.267 314.5,214C 318.593,215.794 322.426,217.961 326,220.5C 327.285,220.05 328.452,219.383 329.5,218.5C 330.814,219.313 331.981,220.313 333,221.5C 338.138,217.013 343.971,213.679 350.5,211.5C 352.029,211.529 353.196,212.196 354,213.5C 354.497,216.146 354.664,218.813 354.5,221.5 Z"/></g>
<g><path style="opacity:1" fill="#e6e3d7" d="M 269.5,213.5 C 270.833,213.5 272.167,213.5 273.5,213.5C 273.5,214.833 273.5,216.167 273.5,217.5C 272.167,217.5 270.833,217.5 269.5,217.5C 269.5,216.167 269.5,214.833 269.5,213.5 Z"/></g>
<g><path style="opacity:1" fill="#e7e3d8" d="M 114.5,220.5 C 120.496,219.333 122.996,221.666 122,227.5C 117.494,230.808 114.327,229.975 112.5,225C 112.519,223.167 113.185,221.667 114.5,220.5 Z"/></g>
<g><path style="opacity:1" fill="#ede7dc" d="M 82.5,222.5 C 84.1992,222.34 85.8659,222.506 87.5,223C 88.9948,226.841 87.6615,228.174 83.5,227C 82.6198,225.644 82.2865,224.144 82.5,222.5 Z"/></g>
<g><path style="opacity:1" fill="#f2e9dd" d="M 248.5,222.5 C 248.5,222.833 248.5,223.167 248.5,223.5C 247.624,223.369 246.957,223.702 246.5,224.5C 251.492,228.62 252.659,233.62 250,239.5C 247.667,242.5 245.333,245.5 243,248.5C 241.964,253.227 242.797,257.56 245.5,261.5C 233.603,258.805 223.436,253.138 215,244.5C 210.873,235.572 213.373,229.072 222.5,225C 231.002,222.753 239.669,221.92 248.5,222.5 Z"/></g>
<g><path style="opacity:1" fill="#67b0a0" d="M 248.5,222.5 C 250.735,222.205 252.735,222.539 254.5,223.5C 253.957,223.56 253.624,223.893 253.5,224.5C 256.399,227.139 258.399,230.306 259.5,234C 259.204,235.888 258.704,237.722 258,239.5C 254.853,242.468 252.186,245.802 250,249.5C 249.333,251.833 249.333,254.167 250,256.5C 251.765,259.032 253.265,261.699 254.5,264.5C 252.214,264.405 250.214,263.738 248.5,262.5C 249.043,262.44 249.376,262.107 249.5,261.5C 243.634,253.995 244.468,247.328 252,241.5C 256.067,234.461 254.9,228.461 248.5,223.5C 248.5,223.167 248.5,222.833 248.5,222.5 Z"/></g>
<g><path style="opacity:1" fill="#e4593e" d="M 388.5,225.5 C 388.46,228.425 389.293,231.091 391,233.5C 393.575,236.319 395.908,239.319 398,242.5C 398.667,245.167 398.667,247.833 398,250.5C 394.037,255.532 393.537,260.865 396.5,266.5C 393.642,266.972 391.642,265.972 390.5,263.5C 390.337,261.143 390.503,258.81 391,256.5C 393.443,253.395 394.943,249.895 395.5,246C 395.333,244.833 395.167,243.667 395,242.5C 390.732,238.458 387.898,233.624 386.5,228C 386.833,226.833 387.167,225.667 387.5,224.5C 388.107,224.624 388.44,224.957 388.5,225.5 Z"/></g>
<g><path style="opacity:1" fill="#63b1a3" d="M 389.5,223.5 C 395.69,223.177 401.69,223.51 407.5,224.5C 404.5,224.5 401.5,224.5 398.5,224.5C 397.5,224.5 396.5,224.5 395.5,224.5C 395.56,230.954 398.06,236.288 403,240.5C 405.437,246.426 404.437,251.76 400,256.5C 399.366,259.555 399.532,262.555 400.5,265.5C 399.432,266.434 398.099,266.768 396.5,266.5C 393.537,260.865 394.037,255.532 398,250.5C 398.667,247.833 398.667,245.167 398,242.5C 395.908,239.319 393.575,236.319 391,233.5C 389.293,231.091 388.46,228.425 388.5,225.5C 389.338,225.158 389.672,224.492 389.5,223.5 Z"/></g>
<g><path style="opacity:1" fill="#e55f44" d="M 398.5,224.5 C 398.337,226.857 398.503,229.19 399,231.5C 401.667,234.833 404.333,238.167 407,241.5C 407.667,244.5 407.667,247.5 407,250.5C 403.697,254.803 402.864,259.47 404.5,264.5C 403.432,265.434 402.099,265.768 400.5,265.5C 399.532,262.555 399.366,259.555 400,256.5C 404.437,251.76 405.437,246.426 403,240.5C 398.06,236.288 395.56,230.954 395.5,224.5C 396.5,224.5 397.5,224.5 398.5,224.5 Z"/></g>
<g><path style="opacity:1" fill="#f3e9dd" d="M 398.5,224.5 C 401.5,224.5 404.5,224.5 407.5,224.5C 419.385,224.742 426.385,230.576 428.5,242C 428.469,248.394 425.803,253.394 420.5,257C 415.537,260.315 410.204,262.815 404.5,264.5C 402.864,259.47 403.697,254.803 407,250.5C 407.667,247.5 407.667,244.5 407,241.5C 404.333,238.167 401.667,234.833 399,231.5C 398.503,229.19 398.337,226.857 398.5,224.5 Z"/></g>
<g><path style="opacity:1" fill="#ebb47a" d="M 288.5,220.5 C 288.5,220.833 288.5,221.167 288.5,221.5C 288.062,221.435 287.728,221.601 287.5,222C 290.23,223.878 291.897,226.378 292.5,229.5C 291.483,233.868 289.65,237.868 287,241.5C 286.333,244.833 286.333,248.167 287,251.5C 289.964,255.466 293.297,259.133 297,262.5C 297.923,264.034 298.423,265.701 298.5,267.5C 296.815,273.205 294.315,278.538 291,283.5C 289.849,287.829 290.682,291.662 293.5,295C 297.351,297.169 301.185,299.336 305,301.5C 306.232,306.721 306.899,312.054 307,317.5C 308.24,322.071 311.24,324.404 316,324.5C 320.147,323.594 324.314,323.427 328.5,324C 334.413,326.726 340.413,327.06 346.5,325C 349.936,321.243 351.436,316.743 351,311.5C 355.14,308.272 358.806,304.605 362,300.5C 362.869,298.419 363.369,296.253 363.5,294C 361.919,290.151 360.586,286.151 359.5,282C 359.804,278.55 361.471,276.05 364.5,274.5C 370.271,299.26 374.938,324.26 378.5,349.5C 375.206,349.259 372.206,350.092 369.5,352C 365.764,357.372 360.764,359.705 354.5,359C 347.896,354.2 341.563,354.366 335.5,359.5C 334.921,354.798 334.088,350.131 333,345.5C 329.666,340.141 326.666,340.475 324,346.5C 322.817,349.526 321.651,352.526 320.5,355.5C 314.665,350.756 308.332,350.256 301.5,354C 298.833,354.667 296.167,354.667 293.5,354C 290.833,351.333 288.167,348.667 285.5,346C 282.986,344.748 280.32,344.248 277.5,344.5C 280.583,322.838 283.75,301.171 287,279.5C 287.667,276.167 287.667,272.833 287,269.5C 285.2,267.683 283.034,266.516 280.5,266C 272.584,265.603 264.918,264.103 257.5,261.5C 255.084,259.01 253.418,256.01 252.5,252.5C 256.057,246.781 259.391,240.947 262.5,235C 261.395,230.621 259.395,226.788 256.5,223.5C 267.287,223.555 277.954,222.555 288.5,220.5 Z"/></g>
<g><path style="opacity:1" fill="#e65c42" d="M 248.5,223.5 C 254.9,228.461 256.067,234.461 252,241.5C 244.468,247.328 243.634,253.995 249.5,261.5C 249.376,262.107 249.043,262.44 248.5,262.5C 247.209,262.737 246.209,262.404 245.5,261.5C 242.797,257.56 241.964,253.227 243,248.5C 245.333,245.5 247.667,242.5 250,239.5C 252.659,233.62 251.492,228.62 246.5,224.5C 246.957,223.702 247.624,223.369 248.5,223.5 Z"/></g>
<g><path style="opacity:1" fill="#e45c40" d="M 254.5,223.5 C 255.167,223.5 255.833,223.5 256.5,223.5C 259.395,226.788 261.395,230.621 262.5,235C 259.391,240.947 256.057,246.781 252.5,252.5C 253.418,256.01 255.084,259.01 257.5,261.5C 257.433,262.959 257.766,264.292 258.5,265.5C 257.041,265.567 255.708,265.234 254.5,264.5C 253.265,261.699 251.765,259.032 250,256.5C 249.333,254.167 249.333,251.833 250,249.5C 252.186,245.802 254.853,242.468 258,239.5C 258.704,237.722 259.204,235.888 259.5,234C 258.399,230.306 256.399,227.139 253.5,224.5C 253.624,223.893 253.957,223.56 254.5,223.5 Z"/></g>
<g><path style="opacity:1" fill="#ebb379" d="M 371.5,222.5 C 377.441,223.413 383.441,223.746 389.5,223.5C 389.672,224.492 389.338,225.158 388.5,225.5C 388.44,224.957 388.107,224.624 387.5,224.5C 387.167,225.667 386.833,226.833 386.5,228C 387.898,233.624 390.732,238.458 395,242.5C 395.167,243.667 395.333,244.833 395.5,246C 394.943,249.895 393.443,253.395 391,256.5C 390.503,258.81 390.337,261.143 390.5,263.5C 383.76,263.915 377.094,264.581 370.5,265.5C 370.66,263.801 370.494,262.134 370,260.5C 367.192,256.855 365.025,252.855 363.5,248.5C 366.128,243.375 368.961,238.375 372,233.5C 372.755,229.745 372.589,226.078 371.5,222.5 Z"/></g>
<g><path style="opacity:1" fill="#dbdcd0" d="M 437.5,227.5 C 438.833,227.5 440.167,227.5 441.5,227.5C 441.616,230.91 439.95,232.244 436.5,231.5C 436.433,230.041 436.766,228.708 437.5,227.5 Z"/></g>
<g><path style="opacity:1" fill="#e8e4d9" d="M 497.5,230.5 C 501.068,230.759 502.401,232.759 501.5,236.5C 499.833,236.5 498.167,236.5 496.5,236.5C 496.325,234.379 496.659,232.379 497.5,230.5 Z"/></g>
<g><path style="opacity:1" fill="#e7e4d9" d="M 551.5,235.5 C 555.35,235.701 556.35,237.534 554.5,241C 550.537,241.118 549.537,239.284 551.5,235.5 Z"/></g>
<g><path style="opacity:1" fill="#ebe6da" d="M 460.5,238.5 C 466.155,238.325 467.488,240.491 464.5,245C 462.888,245.72 461.388,245.554 460,244.5C 459.51,242.455 459.677,240.455 460.5,238.5 Z"/></g>
<g><path style="opacity:1" fill="#e55b40" d="M 290.5,219.5 C 290.833,219.5 291.167,219.5 291.5,219.5C 292.609,219.557 293.609,219.89 294.5,220.5C 300.67,226.238 301.17,232.571 296,239.5C 295.333,242.5 295.333,245.5 296,248.5C 298.667,251.833 301.333,255.167 304,258.5C 306.893,263.314 307.226,268.314 305,273.5C 301.844,278.113 300.178,283.113 300,288.5C 304.272,291.952 308.272,295.619 312,299.5C 312.333,303.833 312.667,308.167 313,312.5C 313.707,314.081 314.54,315.581 315.5,317C 322.466,317.084 329.299,317.918 336,319.5C 339.033,319.481 341.367,318.148 343,315.5C 343.333,312.167 343.667,308.833 344,305.5C 347.613,302.377 350.946,299.044 354,295.5C 353.754,290.652 352.587,285.985 350.5,281.5C 350.763,278.972 351.596,276.639 353,274.5C 358.001,270.56 360.668,265.56 361,259.5C 355.467,253.097 355.133,246.43 360,239.5C 366.745,234.038 368.245,227.371 364.5,219.5C 366.751,220.695 369.085,221.695 371.5,222.5C 372.589,226.078 372.755,229.745 372,233.5C 368.961,238.375 366.128,243.375 363.5,248.5C 365.025,252.855 367.192,256.855 370,260.5C 370.494,262.134 370.66,263.801 370.5,265.5C 369.315,269.023 367.315,272.023 364.5,274.5C 361.471,276.05 359.804,278.55 359.5,282C 360.586,286.151 361.919,290.151 363.5,294C 363.369,296.253 362.869,298.419 362,300.5C 358.806,304.605 355.14,308.272 351,311.5C 351.436,316.743 349.936,321.243 346.5,325C 340.413,327.06 334.413,326.726 328.5,324C 324.314,323.427 320.147,323.594 316,324.5C 311.24,324.404 308.24,322.071 307,317.5C 306.899,312.054 306.232,306.721 305,301.5C 301.185,299.336 297.351,297.169 293.5,295C 290.682,291.662 289.849,287.829 291,283.5C 294.315,278.538 296.815,273.205 298.5,267.5C 298.423,265.701 297.923,264.034 297,262.5C 293.297,259.133 289.964,255.466 287,251.5C 286.333,248.167 286.333,244.833 287,241.5C 289.65,237.868 291.483,233.868 292.5,229.5C 291.897,226.378 290.23,223.878 287.5,222C 287.728,221.601 288.062,221.435 288.5,221.5C 292.353,222.697 294.353,225.363 294.5,229.5C 293.511,234.482 291.677,239.148 289,243.5C 288.257,246.783 288.924,249.783 291,252.5C 294.027,255.527 297.027,258.527 300,261.5C 301.899,265.136 301.899,268.803 300,272.5C 298.254,276.327 296.254,279.993 294,283.5C 293.333,286.167 293.333,288.833 294,291.5C 297.985,294.993 302.318,297.993 307,300.5C 308,306.5 309,312.5 310,318.5C 312.897,321.231 316.397,322.231 320.5,321.5C 325.274,320.852 329.941,321.519 334.5,323.5C 339.535,324.498 343.702,323.165 347,319.5C 347.16,315.713 347.826,312.046 349,308.5C 353.333,305.5 357,301.833 360,297.5C 360.667,295.833 360.667,294.167 360,292.5C 356.049,286.909 355.715,281.243 359,275.5C 362.038,272.797 364.705,269.797 367,266.5C 367.667,264.167 367.667,261.833 367,259.5C 362.744,255.33 361.077,250.33 362,244.5C 365.095,240.411 367.761,236.077 370,231.5C 370.938,228.12 370.271,225.12 368,222.5C 368.32,225.46 368.32,228.46 368,231.5C 365.584,236.001 362.917,240.334 360,244.5C 359.333,247.5 359.333,250.5 360,253.5C 363.331,256.486 364.664,260.152 364,264.5C 361.247,269.008 358.247,273.341 355,277.5C 354.773,283.995 355.44,290.328 357,296.5C 354.807,300.938 351.473,304.272 347,306.5C 346.667,309.833 346.333,313.167 346,316.5C 344.924,319.079 343.091,320.746 340.5,321.5C 335.218,321.672 330.051,321.006 325,319.5C 323.408,319.605 321.908,319.939 320.5,320.5C 315.926,320.764 312.759,318.764 311,314.5C 310.667,310.167 310.333,305.833 310,301.5C 307.129,297.969 303.629,295.136 299.5,293C 296.906,289.949 296.073,286.449 297,282.5C 300.009,277.486 302.175,272.153 303.5,266.5C 303.237,263.972 302.404,261.639 301,259.5C 297.947,256.113 295.28,252.447 293,248.5C 292.333,245.833 292.333,243.167 293,240.5C 299.746,232.346 298.912,225.346 290.5,219.5 Z"/></g>
<g><path style="opacity:1" fill="#2b8c78" d="M 326.5,239.5 C 335.369,239.517 337.703,243.35 333.5,251C 327.793,253.977 324.126,252.31 322.5,246C 323.25,243.429 324.583,241.262 326.5,239.5 Z"/></g>
<g><path style="opacity:1" fill="#ede7dc" d="M 150.5,241.5 C 156.758,242.477 158.091,245.644 154.5,251C 148.333,252.833 146.167,250.667 148,244.5C 149.045,243.627 149.878,242.627 150.5,241.5 Z"/></g>
<g><path style="opacity:1" fill="#e6e3d7" d="M 87.5,249.5 C 91.485,249.629 92.8183,251.463 91.5,255C 85.5456,256.227 84.2123,254.394 87.5,249.5 Z"/></g>
<g><path style="opacity:1" fill="#ebe5da" d="M 524.5,251.5 C 530.643,252.026 531.976,254.86 528.5,260C 522.92,261.261 521.087,259.094 523,253.5C 523.717,252.956 524.217,252.289 524.5,251.5 Z"/></g>
<g><path style="opacity:1" fill="#ebe6db" d="M 190.5,257.5 C 195.159,257.015 196.492,258.848 194.5,263C 189.728,263.81 188.395,261.977 190.5,257.5 Z"/></g>
<g><path style="opacity:1" fill="#d6a469" d="M 257.5,261.5 C 264.918,264.103 272.584,265.603 280.5,266C 283.034,266.516 285.2,267.683 287,269.5C 287.667,272.833 287.667,276.167 287,279.5C 283.75,301.171 280.583,322.838 277.5,344.5C 275.716,344.893 274.05,345.559 272.5,346.5C 275.175,325.106 278.341,303.772 282,282.5C 282.667,279.167 282.667,275.833 282,272.5C 280.2,270.683 278.034,269.516 275.5,269C 269.583,268.883 263.916,267.716 258.5,265.5C 257.766,264.292 257.433,262.959 257.5,261.5 Z"/></g>
<g><path style="opacity:1" fill="#deded3" d="M 493.5,260.5 C 496.966,261.109 497.966,262.942 496.5,266C 491.289,266.546 490.289,264.713 493.5,260.5 Z"/></g>
<g><path style="opacity:1" fill="#d8a469" d="M 390.5,263.5 C 391.642,265.972 393.642,266.972 396.5,266.5C 388.585,267.334 380.585,268.501 372.5,270C 370.167,271.333 369.167,273.333 369.5,276C 375.723,301.283 380.723,326.783 384.5,352.5C 382.517,351.529 380.517,350.529 378.5,349.5C 374.938,324.26 370.271,299.26 364.5,274.5C 367.315,272.023 369.315,269.023 370.5,265.5C 377.094,264.581 383.76,263.915 390.5,263.5 Z"/></g>
<g><path style="opacity:1" fill="#59b6aa" d="M 328.5,264.5 C 335.369,264.538 337.869,267.871 336,274.5C 332.333,278.5 328.667,278.5 325,274.5C 323.581,270.082 324.748,266.749 328.5,264.5 Z"/></g>
<g><path style="opacity:1" fill="#ebe5da" d="M 424.5,268.5 C 429.328,268.385 430.661,270.552 428.5,275C 422.681,275.526 421.348,273.359 424.5,268.5 Z"/></g>
<g><path style="opacity:1" fill="#e5e2d7" d="M 120.5,272.5 C 125.159,272.015 126.492,273.848 124.5,278C 118.546,279.227 117.212,277.394 120.5,272.5 Z"/></g>
<g><path style="opacity:1" fill="#e2e0d5" d="M 544.5,272.5 C 550.643,273.026 551.976,275.86 548.5,281C 543.824,281.986 541.658,280.152 542,275.5C 542.698,274.309 543.531,273.309 544.5,272.5 Z"/></g>
<g><path style="opacity:1" fill="#6dae9e" d="M 334.5,323.5 C 336.5,322.833 338.5,322.167 340.5,321.5C 343.091,320.746 344.924,319.079 346,316.5C 346.333,313.167 346.667,309.833 347,306.5C 351.473,304.272 354.807,300.938 357,296.5C 355.44,290.328 354.773,283.995 355,277.5C 358.247,273.341 361.247,269.008 364,264.5C 364.664,260.152 363.331,256.486 360,253.5C 359.333,250.5 359.333,247.5 360,244.5C 362.917,240.334 365.584,236.001 368,231.5C 368.32,228.46 368.32,225.46 368,222.5C 370.271,225.12 370.938,228.12 370,231.5C 367.761,236.077 365.095,240.411 362,244.5C 361.077,250.33 362.744,255.33 367,259.5C 367.667,261.833 367.667,264.167 367,266.5C 364.705,269.797 362.038,272.797 359,275.5C 355.715,281.243 356.049,286.909 360,292.5C 360.667,294.167 360.667,295.833 360,297.5C 357,301.833 353.333,305.5 349,308.5C 347.826,312.046 347.16,315.713 347,319.5C 343.702,323.165 339.535,324.498 334.5,323.5 Z"/></g>
<g><path style="opacity:1" fill="#d8dace" d="M 458.5,277.5 C 462.379,278.836 462.379,280.502 458.5,282.5C 455.839,280.828 455.839,279.161 458.5,277.5 Z"/></g>
<g><path style="opacity:1" fill="#e9e5d9" d="M 378.5,280.5 C 383.123,279.408 384.956,281.075 384,285.5C 379.325,287.334 377.492,285.667 378.5,280.5 Z"/></g>
<g><path style="opacity:1" fill="#6dae9d" d="M 290.5,219.5 C 298.912,225.346 299.746,232.346 293,240.5C 292.333,243.167 292.333,245.833 293,248.5C 295.28,252.447 297.947,256.113 301,259.5C 302.404,261.639 303.237,263.972 303.5,266.5C 302.175,272.153 300.009,277.486 297,282.5C 296.073,286.449 296.906,289.949 299.5,293C 303.629,295.136 307.129,297.969 310,301.5C 310.333,305.833 310.667,310.167 311,314.5C 312.759,318.764 315.926,320.764 320.5,320.5C 320.5,320.833 320.5,321.167 320.5,321.5C 316.397,322.231 312.897,321.231 310,318.5C 309,312.5 308,306.5 307,300.5C 302.318,297.993 297.985,294.993 294,291.5C 293.333,288.833 293.333,286.167 294,283.5C 296.254,279.993 298.254,276.327 300,272.5C 301.899,268.803 301.899,265.136 300,261.5C 297.027,258.527 294.027,255.527 291,252.5C 288.924,249.783 288.257,246.783 289,243.5C 291.677,239.148 293.511,234.482 294.5,229.5C 294.353,225.363 292.353,222.697 288.5,221.5C 288.5,221.167 288.5,220.833 288.5,220.5C 288.842,219.662 289.508,219.328 290.5,219.5 Z"/></g>
<g><path style="opacity:1" fill="#ebe5da" d="M 75.5,282.5 C 82.2646,282.464 84.2646,285.631 81.5,292C 74.7784,294.732 71.945,292.565 73,285.5C 74.045,284.627 74.8783,283.627 75.5,282.5 Z"/></g>
<g><path style="opacity:1" fill="#e2e0d5" d="M 228.5,284.5 C 233.159,284.015 234.492,285.848 232.5,290C 226.527,291.16 225.193,289.326 228.5,284.5 Z"/></g>
<g><path style="opacity:1" fill="#ece6db" d="M 258.5,286.5 C 266.933,285.417 269.266,288.584 265.5,296C 257.466,296.814 255.132,293.648 258.5,286.5 Z"/></g>
<g><path style="opacity:1" fill="#2f8d79" d="M 328.5,290.5 C 336.391,291.129 338.725,294.962 335.5,302C 327.758,305.248 324.258,302.748 325,294.5C 325.69,292.65 326.856,291.316 328.5,290.5 Z"/></g>
<g><path style="opacity:1" fill="#e9e5da" d="M 579.5,295.5 C 585.209,294.867 587.209,297.2 585.5,302.5C 578.293,304.302 576.293,301.969 579.5,295.5 Z"/></g>
<g><path style="opacity:1" fill="#efe8dd" d="M 432.5,297.5 C 440.486,296.998 442.486,300.165 438.5,307C 430.424,307.805 428.424,304.638 432.5,297.5 Z"/></g>
<g><path style="opacity:1" fill="#dadbd0" d="M 534.5,300.5 C 536.912,300.694 537.912,302.027 537.5,304.5C 534.046,304.733 533.046,303.4 534.5,300.5 Z"/></g>
<g><path style="opacity:1" fill="#e0dfd3" d="M 490.5,301.5 C 496.016,301.473 497.349,303.64 494.5,308C 489.57,308.427 488.237,306.26 490.5,301.5 Z"/></g>
<g><path style="opacity:1" fill="#e8e4d8" d="M 197.5,303.5 C 200.5,303.167 201.833,304.5 201.5,307.5C 198.5,307.833 197.167,306.5 197.5,303.5 Z"/></g>
<g><path style="opacity:1" fill="#ece7dc" d="M 144.5,304.5 C 149.159,304.015 150.492,305.848 148.5,310C 143.728,310.81 142.395,308.977 144.5,304.5 Z"/></g>
<g><path style="opacity:1" fill="#e0dfd3" d="M 400.5,305.5 C 403.233,305.196 404.899,306.363 405.5,309C 403.5,313.667 401.5,313.667 399.5,309C 399.989,307.862 400.322,306.695 400.5,305.5 Z"/></g>
<g><path style="opacity:1" fill="#e0dfd4" d="M 463.5,305.5 C 468.159,305.015 469.492,306.848 467.5,311C 462.728,311.81 461.395,309.977 463.5,305.5 Z"/></g>
<g><path style="opacity:1" fill="#efe8dd" d="M 177.5,307.5 C 181.138,306.737 182.638,308.07 182,311.5C 177.415,313.413 175.915,312.079 177.5,307.5 Z"/></g>
<g><path style="opacity:1" fill="#e4e1d6" d="M 252.5,313.5 C 257.159,313.015 258.492,314.848 256.5,319C 251.728,319.81 250.395,317.977 252.5,313.5 Z"/></g>
<g><path style="opacity:1" fill="#ddddd2" d="M 95.5,317.5 C 100.123,316.408 101.956,318.075 101,322.5C 95.4205,324.752 93.5871,323.085 95.5,317.5 Z"/></g>
<g><path style="opacity:1" fill="#e6e2d7" d="M 48.5,319.5 C 49.8333,319.5 51.1667,319.5 52.5,319.5C 52.5,320.5 52.5,321.5 52.5,322.5C 51.1667,322.5 49.8333,322.5 48.5,322.5C 48.5,321.5 48.5,320.5 48.5,319.5 Z"/></g>
<g><path style="opacity:1" fill="#a19b81" d="M 340.5,321.5 C 338.5,322.167 336.5,322.833 334.5,323.5C 329.941,321.519 325.274,320.852 320.5,321.5C 320.5,321.167 320.5,320.833 320.5,320.5C 321.908,319.939 323.408,319.605 325,319.5C 330.051,321.006 335.218,321.672 340.5,321.5 Z"/></g>
<g><path style="opacity:1" fill="#e9e4d9" d="M 542.5,320.5 C 547.013,320.991 548.68,323.324 547.5,327.5C 543.805,330.546 541.472,329.713 540.5,325C 540.519,323.167 541.185,321.667 542.5,320.5 Z"/></g>
<g><path style="opacity:1" fill="#e0dfd3" d="M 505.5,323.5 C 511.488,323.664 512.821,326.164 509.5,331C 503.403,331.147 502.07,328.647 505.5,323.5 Z"/></g>
<g><path style="opacity:1" fill="#e6e3d7" d="M 218.5,326.5 C 220.5,326.5 222.5,326.5 224.5,326.5C 225.141,331.295 223.307,332.961 219,331.5C 218.506,329.866 218.34,328.199 218.5,326.5 Z"/></g>
<g><path style="opacity:1" fill="#e8e3d8" d="M 131.5,327.5 C 132.5,327.5 133.5,327.5 134.5,327.5C 134.5,328.833 134.5,330.167 134.5,331.5C 131.046,331.733 130.046,330.4 131.5,327.5 Z"/></g>
<g><path style="opacity:1" fill="#e1dfd4" d="M 576.5,327.5 C 577.833,327.5 579.167,327.5 580.5,327.5C 580.616,330.91 578.95,332.244 575.5,331.5C 575.433,330.041 575.766,328.708 576.5,327.5 Z"/></g>
<g><path style="opacity:1" fill="#f0e9de" d="M 599.5,328.5 C 609.855,327.599 612.189,331.432 606.5,340C 597.507,340.535 595.173,336.702 599.5,328.5 Z"/></g>
<g><path style="opacity:1" fill="#ebe6da" d="M 188.5,332.5 C 196.244,332.048 198.577,335.215 195.5,342C 186.812,343.481 184.479,340.314 188.5,332.5 Z"/></g>
<g><path style="opacity:1" fill="#e3e1d5" d="M 441.5,336.5 C 444.5,336.167 445.833,337.5 445.5,340.5C 442.5,340.833 441.167,339.5 441.5,336.5 Z"/></g>
<g><path style="opacity:1" fill="#e5e3d7" d="M 62.5,341.5 C 66.35,341.701 67.35,343.534 65.5,347C 61.5369,347.118 60.5369,345.284 62.5,341.5 Z"/></g>
<g><path style="opacity:1" fill="#e4e2d7" d="M 396.5,342.5 C 400.509,342.014 402.342,343.68 402,347.5C 396.42,349.752 394.587,348.085 396.5,342.5 Z"/></g>
<g><path style="opacity:1" fill="#e45b3f" d="M 277.5,344.5 C 280.32,344.248 282.986,344.748 285.5,346C 288.167,348.667 290.833,351.333 293.5,354C 296.167,354.667 298.833,354.667 301.5,354C 308.332,350.256 314.665,350.756 320.5,355.5C 320.5,356.833 320.5,358.167 320.5,359.5C 318.75,358.258 317.083,356.758 315.5,355C 307.883,355.865 300.216,356.531 292.5,357C 288.833,354 285.167,351 281.5,348C 278.319,347.403 275.319,347.903 272.5,349.5C 272.5,348.5 272.5,347.5 272.5,346.5C 274.05,345.559 275.716,344.893 277.5,344.5 Z"/></g>
<g><path style="opacity:1" fill="#65b0a2" d="M 320.5,359.5 C 320.011,360.995 319.345,362.329 318.5,363.5C 316.193,360.427 313.027,358.761 309,358.5C 304.254,359.538 299.588,360.872 295,362.5C 290.177,359.015 285.344,355.515 280.5,352C 277.667,351.554 275.001,352.054 272.5,353.5C 272.5,352.167 272.5,350.833 272.5,349.5C 275.319,347.903 278.319,347.403 281.5,348C 285.167,351 288.833,354 292.5,357C 300.216,356.531 307.883,355.865 315.5,355C 317.083,356.758 318.75,358.258 320.5,359.5 Z"/></g>
<g><path style="opacity:1" fill="#ede7dc" d="M 416.5,348.5 C 421.041,348.815 422.041,350.649 419.5,354C 415.537,354.118 414.537,352.284 416.5,348.5 Z"/></g>
<g><path style="opacity:1" fill="#e45a3f" d="M 378.5,349.5 C 380.517,350.529 382.517,351.529 384.5,352.5C 384.5,353.167 384.5,353.833 384.5,354.5C 384.565,354.938 384.399,355.272 384,355.5C 380.577,352.82 376.744,351.987 372.5,353C 369.203,355.295 366.203,357.962 363.5,361C 361.487,362.257 359.321,363.091 357,363.5C 352.961,361.729 348.794,360.395 344.5,359.5C 341.174,359.67 338.174,360.67 335.5,362.5C 335.5,361.5 335.5,360.5 335.5,359.5C 341.563,354.366 347.896,354.2 354.5,359C 360.764,359.705 365.764,357.372 369.5,352C 372.206,350.092 375.206,349.259 378.5,349.5 Z"/></g>
<g><path style="opacity:1" fill="#e55f44" d="M 318.5,363.5 C 318.5,364.5 318.5,365.5 318.5,366.5C 316.75,365.258 315.083,363.758 313.5,362C 307.774,360.896 302.44,361.896 297.5,365C 295.5,365.667 293.5,365.667 291.5,365C 288.203,362.705 285.203,360.038 282.5,357C 279.211,355.305 275.878,355.138 272.5,356.5C 272.5,355.5 272.5,354.5 272.5,353.5C 275.001,352.054 277.667,351.554 280.5,352C 285.344,355.515 290.177,359.015 295,362.5C 299.588,360.872 304.254,359.538 309,358.5C 313.027,358.761 316.193,360.427 318.5,363.5 Z"/></g>
<g><path style="opacity:1" fill="#6aafa0" d="M 384.5,354.5 C 385.451,355.919 385.784,357.585 385.5,359.5C 381.448,356.379 377.115,355.879 372.5,358C 369.113,361.053 365.447,363.72 361.5,366C 356.237,366.03 351.07,365.197 346,363.5C 342.403,363.884 339.236,365.217 336.5,367.5C 335.699,365.958 335.366,364.292 335.5,362.5C 338.174,360.67 341.174,359.67 344.5,359.5C 348.794,360.395 352.961,361.729 357,363.5C 359.321,363.091 361.487,362.257 363.5,361C 366.203,357.962 369.203,355.295 372.5,353C 376.744,351.987 380.577,352.82 384,355.5C 384.399,355.272 384.565,354.938 384.5,354.5 Z"/></g>
<g><path style="opacity:1" fill="#f0e9de" d="M 552.5,353.5 C 559.628,353.706 561.294,356.873 557.5,363C 551.498,363.993 549.332,361.493 551,355.5C 551.717,354.956 552.217,354.289 552.5,353.5 Z"/></g>
<g><path style="opacity:1" fill="#ebe6da" d="M 625.5,356.5 C 626.167,358.167 626.833,359.833 627.5,361.5C 621.183,360.507 614.849,359.34 608.5,358C 602.622,356.347 597.788,357.847 594,362.5C 591.113,369.942 587.446,376.942 583,383.5C 572.067,392.605 560.9,392.772 549.5,384C 543.162,382.48 537.662,383.98 533,388.5C 528.93,395.24 524.096,401.407 518.5,407C 510.886,411.442 503.219,411.609 495.5,407.5C 494.841,404.545 494.508,401.545 494.5,398.5C 501.977,406.078 509.811,406.411 518,399.5C 521.468,394.066 525.301,388.899 529.5,384C 540.36,376.458 551.027,376.792 561.5,385C 564.406,386.318 567.406,386.652 570.5,386C 580.701,381.453 586.867,373.62 589,362.5C 592.428,356.119 597.761,353.119 605,353.5C 611.891,354.179 618.724,355.179 625.5,356.5 Z"/></g>
<g><path style="opacity:1" fill="#e6e2d7" d="M 101.5,354.5 C 105.485,354.629 106.818,356.463 105.5,360C 99.5456,361.227 98.2123,359.394 101.5,354.5 Z"/></g>
<g><path style="opacity:1" fill="#e9e5da" d="M 250.5,355.5 C 256.643,356.026 257.976,358.86 254.5,364C 249.504,364.664 247.67,362.498 249,357.5C 249.717,356.956 250.217,356.289 250.5,355.5 Z"/></g>
<g><path style="opacity:1" fill="#f3e9dd" d="M 318.5,366.5 C 311.486,385.847 298.819,391.014 280.5,382C 273.891,374.835 271.224,366.335 272.5,356.5C 275.878,355.138 279.211,355.305 282.5,357C 285.203,360.038 288.203,362.705 291.5,365C 293.5,365.667 295.5,365.667 297.5,365C 302.44,361.896 307.774,360.896 313.5,362C 315.083,363.758 316.75,365.258 318.5,366.5 Z"/></g>
<g><path style="opacity:1" fill="#e65d43" d="M 385.5,359.5 C 385.5,360.5 385.5,361.5 385.5,362.5C 382.322,359.78 378.655,358.946 374.5,360C 370.783,363.385 366.783,366.385 362.5,369C 356.902,369.6 351.402,369.1 346,367.5C 344.5,367.667 343,367.833 341.5,368C 340.295,369.376 338.962,370.542 337.5,371.5C 336.566,370.432 336.232,369.099 336.5,367.5C 339.236,365.217 342.403,363.884 346,363.5C 351.07,365.197 356.237,366.03 361.5,366C 365.447,363.72 369.113,361.053 372.5,358C 377.115,355.879 381.448,356.379 385.5,359.5 Z"/></g>
<g><path style="opacity:1" fill="#ebe6da" d="M 154.5,400.5 C 154.632,403.57 154.299,406.57 153.5,409.5C 141.839,415.117 132.006,412.784 124,402.5C 115.507,385.006 103.34,381.839 87.5,393C 78.1051,394.555 70.2717,391.722 64,384.5C 60.8061,379.446 58.1394,374.112 56,368.5C 53.5034,363.272 49.3367,360.939 43.5,361.5C 36.1366,362.706 28.8032,364.039 21.5,365.5C 21.4021,363.447 22.0687,361.78 23.5,360.5C 29.3265,358.545 35.3265,357.545 41.5,357.5C 49.1493,356.429 54.9826,359.096 59,365.5C 61.06,370.62 63.3933,375.62 66,380.5C 71.4912,387.182 78.3245,389.682 86.5,388C 96.2074,380.587 106.541,379.587 117.5,385C 122.523,390.221 127.189,395.721 131.5,401.5C 139.412,408.279 147.079,407.946 154.5,400.5 Z"/></g>
<g><path style="opacity:0.995" fill="#288c78" d="M 627.5,361.5 C 628.899,364.699 629.899,368.032 630.5,371.5C 629.448,372.53 628.114,373.197 626.5,373.5C 620.234,372.016 613.901,371.016 607.5,370.5C 602.095,369.788 597.595,371.455 594,375.5C 591.14,381.081 588.474,386.748 586,392.5C 584.669,394.996 582.836,396.996 580.5,398.5C 580.217,397.711 579.717,397.044 579,396.5C 577.97,398.776 576.47,399.443 574.5,398.5C 572.993,400.69 570.993,402.024 568.5,402.5C 562.63,400.899 556.963,398.733 551.5,396C 545.473,394.966 539.806,395.966 534.5,399C 528.706,405.447 523.039,411.947 517.5,418.5C 516.833,418.167 516.167,417.833 515.5,417.5C 512.394,418.356 509.394,419.356 506.5,420.5C 503.084,419.956 500.084,418.622 497.5,416.5C 496.677,413.539 496.01,410.539 495.5,407.5C 503.219,411.609 510.886,411.442 518.5,407C 524.096,401.407 528.93,395.24 533,388.5C 537.662,383.98 543.162,382.48 549.5,384C 560.9,392.772 572.067,392.605 583,383.5C 587.446,376.942 591.113,369.942 594,362.5C 597.788,357.847 602.622,356.347 608.5,358C 614.849,359.34 621.183,360.507 627.5,361.5 Z"/></g>
<g><path style="opacity:1" fill="#e8e4d9" d="M 461.5,358.5 C 468.486,358.331 470.153,361.164 466.5,367C 459.409,367.396 457.742,364.562 461.5,358.5 Z"/></g>
<g><path style="opacity:1" fill="#e6e3d7" d="M 145.5,359.5 C 151.263,359.783 152.93,362.616 150.5,368C 143.413,368.558 141.746,365.724 145.5,359.5 Z"/></g>
<g><path style="opacity:1" fill="#f3e9dd" d="M 385.5,362.5 C 385.78,372.862 382.114,381.362 374.5,388C 361.189,394.588 350.022,392.088 341,380.5C 339.259,377.691 338.092,374.691 337.5,371.5C 338.962,370.542 340.295,369.376 341.5,368C 343,367.833 344.5,367.667 346,367.5C 351.402,369.1 356.902,369.6 362.5,369C 366.783,366.385 370.783,363.385 374.5,360C 378.655,358.946 382.322,359.78 385.5,362.5 Z"/></g>
<g><path style="opacity:0.995" fill="#278c78" d="M 153.5,409.5 C 153.3,412.63 152.634,415.63 151.5,418.5C 148.916,420.622 145.916,421.956 142.5,422.5C 139.478,421.255 136.478,420.255 133.5,419.5C 132.914,419.709 132.414,420.043 132,420.5C 126.557,414.385 121.057,408.218 115.5,402C 104.541,396.587 94.2074,397.587 84.5,405C 83.2068,405.49 81.8734,405.657 80.5,405.5C 79.2749,405.969 78.2749,405.302 77.5,403.5C 76.914,403.709 76.414,404.043 76,404.5C 75.7508,403.376 75.2508,402.376 74.5,401.5C 72.4392,401.439 70.4392,401.439 68.5,401.5C 65.8324,399.664 63.6657,397.331 62,394.5C 59.7374,388.139 56.5707,382.306 52.5,377C 48.4037,375.054 44.0704,374.22 39.5,374.5C 33.218,374.76 27.0513,375.76 21,377.5C 19.6974,377.022 18.5307,376.355 17.5,375.5C 18.3121,371.888 19.6454,368.554 21.5,365.5C 28.8032,364.039 36.1366,362.706 43.5,361.5C 49.3367,360.939 53.5034,363.272 56,368.5C 58.1394,374.112 60.8061,379.446 64,384.5C 70.2717,391.722 78.1051,394.555 87.5,393C 103.34,381.839 115.507,385.006 124,402.5C 132.006,412.784 141.839,415.117 153.5,409.5 Z"/></g>
<g><path style="opacity:1" fill="#e3e1d6" d="M 509.5,363.5 C 514.493,363.997 515.493,366.164 512.5,370C 507.148,370.175 506.148,368.009 509.5,363.5 Z"/></g>
<g><path style="opacity:1" fill="#e8e4d9" d="M 216.5,365.5 C 221.159,365.015 222.492,366.848 220.5,371C 215.221,371.585 213.888,369.751 216.5,365.5 Z"/></g>
<g><path style="opacity:1" fill="#e0dfd3" d="M 84.5,366.5 C 85.8333,366.5 87.1667,366.5 88.5,366.5C 88.5,367.833 88.5,369.167 88.5,370.5C 84.56,371.234 83.2266,369.901 84.5,366.5 Z"/></g>
<g><path style="opacity:0.942" fill="#f0e8dd" d="M 649.5,383.5 C 649.5,384.167 649.5,384.833 649.5,385.5C 647.13,385.983 646.463,387.149 647.5,389C 645.564,390.362 644.231,392.195 643.5,394.5C 642.914,394.291 642.414,393.957 642,393.5C 639.811,395.987 637.311,396.987 634.5,396.5C 633.811,395.226 632.977,395.226 632,396.5C 631.667,395.5 631.333,394.5 631,393.5C 630.163,395.007 628.996,395.507 627.5,395C 626.252,393.041 624.585,391.541 622.5,390.5C 623.55,388.898 622.883,388.065 620.5,388C 623.028,386.684 623.028,385.517 620.5,384.5C 621.025,383.808 621.692,383.308 622.5,383C 618.665,381.269 618.998,379.935 623.5,379C 616.654,375.167 609.32,373.833 601.5,375C 599.714,375.785 598.214,376.951 597,378.5C 594.194,385.446 590.861,392.112 587,398.5C 586.26,399.749 586.427,400.749 587.5,401.5C 587.44,402.043 587.107,402.376 586.5,402.5C 585.858,399.203 584.691,398.869 583,401.5C 582.302,400.309 581.469,399.309 580.5,398.5C 582.836,396.996 584.669,394.996 586,392.5C 588.474,386.748 591.14,381.081 594,375.5C 597.595,371.455 602.095,369.788 607.5,370.5C 613.901,371.016 620.234,372.016 626.5,373.5C 628.114,373.197 629.448,372.53 630.5,371.5C 632.143,371.52 633.476,370.853 634.5,369.5C 635.665,370.491 636.832,371.491 638,372.5C 638.95,371.978 639.784,371.311 640.5,370.5C 641.897,372.933 643.397,375.266 645,377.5C 646.156,376.007 646.99,376.174 647.5,378C 647.14,379.652 646.807,381.318 646.5,383C 647.448,383.483 648.448,383.649 649.5,383.5 Z"/></g>
<g><path style="opacity:0.945" fill="#efe8dd" d="M 17.5,375.5 C 18.5307,376.355 19.6974,377.022 21,377.5C 27.0513,375.76 33.218,374.76 39.5,374.5C 44.0704,374.22 48.4037,375.054 52.5,377C 56.5707,382.306 59.7374,388.139 62,394.5C 63.6657,397.331 65.8324,399.664 68.5,401.5C 67.5313,402.309 66.6979,403.309 66,404.5C 65.2917,403.619 64.4584,402.953 63.5,402.5C 61.5491,401.284 60.0491,399.618 59,397.5C 56.7374,391.139 53.5707,385.306 49.5,380C 41.1545,377.734 33.1545,378.568 25.5,382.5C 29.9387,383.67 30.272,385.17 26.5,387C 29.1667,388 29.1667,389 26.5,390C 29.2764,391.779 28.9431,392.779 25.5,393C 26.4506,393.718 26.6172,394.551 26,395.5C 24.0955,396.158 22.5955,397.325 21.5,399C 20.451,399.492 19.451,399.326 18.5,398.5C 17.4763,399.853 16.143,400.52 14.5,400.5C 13.8501,400.804 13.1835,401.137 12.5,401.5C 10.2546,399.377 7.58791,398.377 4.5,398.5C 4.75605,396.088 3.75605,394.421 1.5,393.5C 2.63943,391.604 1.97276,390.604 -0.5,390.5C -0.5,389.5 -0.5,388.5 -0.5,387.5C 1.37857,387.607 1.7119,387.107 0.5,386C 1.18606,382.478 3.18606,379.978 6.5,378.5C 7.4892,373.306 8.65586,373.306 10,378.5C 11.7179,374.629 14.0513,373.962 17,376.5C 17.3988,376.272 17.5654,375.938 17.5,375.5 Z"/></g>
<g><path style="opacity:0.992" fill="#218c78" d="M 634.5,396.5 C 634.012,411.813 627.512,423.813 615,432.5C 615.795,440.147 616.462,447.813 617,455.5C 611.785,462.525 604.952,467.192 596.5,469.5C 594.412,461.943 592.245,454.276 590,446.5C 589.667,446.167 589.333,445.833 589,445.5C 585.527,446.658 582.027,447.824 578.5,449C 577.484,449.519 576.818,450.353 576.5,451.5C 579.042,459.125 581.376,466.792 583.5,474.5C 581.5,474.833 579.5,475.167 577.5,475.5C 574.504,467.514 571.504,459.514 568.5,451.5C 565.192,452.395 561.859,453.229 558.5,454C 562.389,461.5 565.389,469.334 567.5,477.5C 562.588,477.937 557.922,477.104 553.5,475C 550.337,468.512 547.337,462.012 544.5,455.5C 531.883,456.968 521.55,452.968 513.5,443.5C 515.001,441.261 516.334,441.261 517.5,443.5C 518.251,442.624 518.751,441.624 519,440.5C 520.406,441.668 521.572,441.335 522.5,439.5C 524.838,441.011 525.504,440.677 524.5,438.5C 524.968,436.866 525.968,435.7 527.5,435C 527.167,434.667 526.833,434.333 526.5,434C 530.299,432.447 530.299,431.114 526.5,430C 528.891,428.691 528.891,427.691 526.5,427C 526.957,426.586 527.291,426.086 527.5,425.5C 526.184,424.193 525.184,422.693 524.5,421C 528.442,414.457 533.108,408.457 538.5,403C 542.555,400.66 546.889,399.993 551.5,401C 556.223,403.022 560.557,405.522 564.5,408.5C 564.944,410.113 565.944,411.28 567.5,412C 566.5,412.833 565.5,413.667 564.5,414.5C 566.837,415.517 568.504,417.184 569.5,419.5C 571.134,419.968 572.3,420.968 573,422.5C 574.378,420.146 575.878,420.146 577.5,422.5C 579.345,421.062 580.511,421.396 581,423.5C 581.915,422.672 582.581,421.672 583,420.5C 584.43,420.306 585.93,420.306 587.5,420.5C 588.406,418.614 589.406,416.78 590.5,415C 590.043,414.586 589.709,414.086 589.5,413.5C 594.378,411.756 594.378,409.589 589.5,407C 592.365,404.597 592.199,403.764 589,404.5C 588.768,403.263 588.268,402.263 587.5,401.5C 586.427,400.749 586.26,399.749 587,398.5C 590.861,392.112 594.194,385.446 597,378.5C 598.214,376.951 599.714,375.785 601.5,375C 609.32,373.833 616.654,375.167 623.5,379C 618.998,379.935 618.665,381.269 622.5,383C 621.692,383.308 621.025,383.808 620.5,384.5C 623.028,385.517 623.028,386.684 620.5,388C 622.883,388.065 623.55,388.898 622.5,390.5C 624.585,391.541 626.252,393.041 627.5,395C 628.996,395.507 630.163,395.007 631,393.5C 631.333,394.5 631.667,395.5 632,396.5C 632.977,395.226 633.811,395.226 634.5,396.5 Z"/></g>
<g><path style="opacity:0.993" fill="#208c78" d="M 63.5,402.5 C 63.6567,403.873 63.49,405.207 63,406.5C 62.586,406.043 62.086,405.709 61.5,405.5C 60.4096,406.727 59.0762,407.56 57.5,408C 58.1667,408.667 58.8333,409.333 59.5,410C 58.4167,411.529 57.4167,413.029 56.5,414.5C 57.09,415.799 58.09,416.632 59.5,417C 58.6456,418.881 58.9789,420.714 60.5,422.5C 61.3914,423.59 62.3914,423.59 63.5,422.5C 64.4277,424.335 65.5944,424.668 67,423.5C 67.5823,426.668 68.5823,427.001 70,424.5C 71,425.167 72,425.833 73,426.5C 75.2246,425.061 77.2246,423.394 79,421.5C 79.414,421.957 79.914,422.291 80.5,422.5C 81.593,420.651 82.9263,418.984 84.5,417.5C 83.943,415.765 83.6097,414.098 83.5,412.5C 84.6119,411.735 85.2786,410.735 85.5,409.5C 89.1136,407.693 92.7802,405.86 96.5,404C 101.734,403.023 106.734,403.69 111.5,406C 116.738,411.815 121.738,417.815 126.5,424C 124.896,425.237 123.229,426.403 121.5,427.5C 121.723,428.967 122.056,430.467 122.5,432C 121.027,432.71 120.36,433.876 120.5,435.5C 122.942,435.119 123.609,435.786 122.5,437.5C 123.263,438.719 124.263,439.719 125.5,440.5C 124.496,442.677 125.162,443.011 127.5,441.5C 128.984,443.074 130.651,444.407 132.5,445.5C 133.995,444.295 135.328,444.295 136.5,445.5C 128.827,454.826 118.827,458.992 106.5,458C 102.911,464.512 99.5775,471.178 96.5,478C 92.0783,480.104 87.4116,480.937 82.5,480.5C 85.0073,472.478 88.0073,464.645 91.5,457C 88.1409,456.229 84.8075,455.395 81.5,454.5C 78.8863,462.678 75.8863,470.678 72.5,478.5C 70.7839,478.371 69.1172,478.038 67.5,477.5C 69.5,469.167 71.5,460.833 73.5,452.5C 68.8333,451.5 64.1667,450.5 59.5,449.5C 57.5084,457.462 55.8418,465.462 54.5,473.5C 46.4517,471.06 39.6184,466.727 34,460.5C 33.077,458.966 32.577,457.299 32.5,455.5C 33.6659,449.312 34.6659,443.145 35.5,437C 22.4243,428.351 15.4243,416.184 14.5,400.5C 16.143,400.52 17.4763,399.853 18.5,398.5C 19.451,399.326 20.451,399.492 21.5,399C 22.5955,397.325 24.0955,396.158 26,395.5C 26.6172,394.551 26.4506,393.718 25.5,393C 28.9431,392.779 29.2764,391.779 26.5,390C 29.1667,389 29.1667,388 26.5,387C 30.272,385.17 29.9387,383.67 25.5,382.5C 33.1545,378.568 41.1545,377.734 49.5,380C 53.5707,385.306 56.7374,391.139 59,397.5C 60.0491,399.618 61.5491,401.284 63.5,402.5 Z"/></g>
<g><path style="opacity:1" fill="#ede7dc" d="M 182.5,381.5 C 184.288,381.215 185.955,381.548 187.5,382.5C 186.332,384.217 184.665,384.884 182.5,384.5C 182.5,383.5 182.5,382.5 182.5,381.5 Z"/></g>
<g><path style="opacity:1" fill="#e2e0d5" d="M 236.5,381.5 C 239.5,381.167 240.833,382.5 240.5,385.5C 238.833,385.5 237.167,385.5 235.5,385.5C 235.433,384.041 235.766,382.708 236.5,381.5 Z"/></g>
<g><path style="opacity:1" fill="#e6e2d7" d="M 269.5,381.5 C 274.159,381.015 275.492,382.848 273.5,387C 269.266,387.267 267.933,385.434 269.5,381.5 Z"/></g>
<g><path style="opacity:1" fill="#e2e0d4" d="M 427.5,380.5 C 431.264,381.385 432.264,383.552 430.5,387C 425.148,387.175 424.148,385.009 427.5,380.5 Z"/></g>
<g><path style="opacity:1" fill="#eae5da" d="M 488.5,386.5 C 488.5,388.167 488.5,389.833 488.5,391.5C 483.756,391.04 479.756,392.54 476.5,396C 471.885,402.95 466.885,409.616 461.5,416C 456.894,419.033 451.894,420.033 446.5,419C 437.668,414.457 428.334,412.457 418.5,413C 416.833,414 415.167,415 413.5,416C 408.533,421.969 403.199,427.635 397.5,433C 391.472,436.67 385.139,437.336 378.5,435C 371.633,430.13 364.3,426.13 356.5,423C 352.833,422.333 349.167,422.333 345.5,423C 340.276,427.47 335.276,432.137 330.5,437C 324.309,439.865 317.976,440.199 311.5,438C 304.5,432.333 297.5,426.667 290.5,421C 286.5,420.333 282.5,420.333 278.5,421C 273.751,424.756 268.751,428.089 263.5,431C 252.632,432.65 243.799,429.15 237,420.5C 234.241,414.411 230.074,409.577 224.5,406C 222.167,405.333 219.833,405.333 217.5,406C 210.823,408.673 204.157,411.339 197.5,414C 191.716,415.509 186.883,414.009 183,409.5C 179.532,404.066 175.699,398.899 171.5,394C 167.812,391.307 163.812,390.807 159.5,392.5C 159.205,390.265 159.539,388.265 160.5,386.5C 163.408,385.431 166.408,385.264 169.5,386C 177.052,390.921 182.885,397.421 187,405.5C 190.8,409.793 195.3,410.626 200.5,408C 205.624,405.438 210.957,403.438 216.5,402C 224.243,400.582 230.41,403.082 235,409.5C 237.654,414.633 241.154,419.133 245.5,423C 250.214,426.793 255.547,428.126 261.5,427C 266.5,423.333 271.5,419.667 276.5,416C 284.299,413.447 291.633,414.447 298.5,419C 303.5,423.333 308.5,427.667 313.5,432C 318.686,434.226 323.686,433.893 328.5,431C 332.289,426.721 336.289,422.721 340.5,419C 346.646,416.019 352.979,415.685 359.5,418C 367.5,422.667 375.5,427.333 383.5,432C 385.833,432.667 388.167,432.667 390.5,432C 394.916,429.588 398.749,426.422 402,422.5C 405.948,415.219 411.782,410.053 419.5,407C 428.912,406.935 437.912,408.935 446.5,413C 452.816,414.426 457.983,412.593 462,407.5C 464.333,403.833 466.667,400.167 469,396.5C 473.843,389.829 480.343,386.496 488.5,386.5 Z"/></g>
<g><path style="opacity:1" fill="#eae5da" d="M 327.5,386.5 C 333.42,386.024 335.92,388.69 335,394.5C 328.412,399.509 325.078,397.842 325,389.5C 326.045,388.627 326.878,387.627 327.5,386.5 Z"/></g>
<g><path style="opacity:1" fill="#ece7db" d="M 197.5,389.5 C 204.997,388.804 206.997,391.637 203.5,398C 201.231,398.758 199.064,398.591 197,397.5C 196.278,394.739 196.445,392.073 197.5,389.5 Z"/></g>
<g><path style="opacity:1" fill="#e9e5d9" d="M 507.5,389.5 C 508.833,389.5 510.167,389.5 511.5,389.5C 511.978,392.278 510.978,394.278 508.5,395.5C 506.261,393.867 505.928,391.867 507.5,389.5 Z"/></g>
<g><path style="opacity:0.997" fill="#258b77" d="M 488.5,391.5 C 489.795,395.267 490.461,399.267 490.5,403.5C 484.792,402.69 479.792,404.19 475.5,408C 469.606,415.382 463.606,422.549 457.5,429.5C 455.409,429.682 453.409,429.348 451.5,428.5C 450.702,428.957 450.369,429.624 450.5,430.5C 444.685,429.173 439.019,427.34 433.5,425C 424.928,423.067 417.262,424.733 410.5,430C 406.069,435.521 401.402,440.854 396.5,446C 394.899,446.273 393.399,446.773 392,447.5C 391.418,444.332 390.418,443.999 389,446.5C 386.738,443.903 384.905,444.07 383.5,447C 382.167,447.667 380.833,447.667 379.5,447C 372.352,441.093 364.352,436.76 355.5,434C 348.532,432.292 342.532,433.959 337.5,439C 334.547,443.792 330.547,447.292 325.5,449.5C 324.504,449.414 323.671,449.748 323,450.5C 322.395,448.519 321.395,448.185 320,449.5C 318.152,447.312 316.652,447.312 315.5,449.5C 309.789,446.299 304.789,442.132 300.5,437C 294.498,432.666 287.831,430.999 280.5,432C 274.819,435.173 269.486,438.839 264.5,443C 261.028,443.872 258.028,443.039 255.5,440.5C 253.554,442.087 252.054,441.754 251,439.5C 250.311,440.357 249.478,441.023 248.5,441.5C 242.714,437.217 238.214,431.884 235,425.5C 229.279,418.461 222.113,416.628 213.5,420C 208.033,422.735 202.367,424.902 196.5,426.5C 194.17,425.714 191.503,424.714 188.5,423.5C 184.789,416.289 179.789,410.122 173.5,405C 168.28,401.909 162.947,401.742 157.5,404.5C 157.851,400.316 158.518,396.316 159.5,392.5C 163.812,390.807 167.812,391.307 171.5,394C 175.699,398.899 179.532,404.066 183,409.5C 186.883,414.009 191.716,415.509 197.5,414C 204.157,411.339 210.823,408.673 217.5,406C 219.833,405.333 222.167,405.333 224.5,406C 230.074,409.577 234.241,414.411 237,420.5C 243.799,429.15 252.632,432.65 263.5,431C 268.751,428.089 273.751,424.756 278.5,421C 282.5,420.333 286.5,420.333 290.5,421C 297.5,426.667 304.5,432.333 311.5,438C 317.976,440.199 324.309,439.865 330.5,437C 335.276,432.137 340.276,427.47 345.5,423C 349.167,422.333 352.833,422.333 356.5,423C 364.3,426.13 371.633,430.13 378.5,435C 385.139,437.336 391.472,436.67 397.5,433C 403.199,427.635 408.533,421.969 413.5,416C 415.167,415 416.833,414 418.5,413C 428.334,412.457 437.668,414.457 446.5,419C 451.894,420.033 456.894,419.033 461.5,416C 466.885,409.616 471.885,402.95 476.5,396C 479.756,392.54 483.756,391.04 488.5,391.5 Z"/></g>
<g><path style="opacity:1" fill="#eae5da" d="M 452.5,391.5 C 456.068,391.759 457.401,393.759 456.5,397.5C 450.541,398.222 449.207,396.222 452.5,391.5 Z"/></g>
<g><path style="opacity:1" fill="#e6e3d7" d="M 407.5,395.5 C 412.159,395.015 413.492,396.848 411.5,401C 406.728,401.81 405.395,399.977 407.5,395.5 Z"/></g>
<g><path style="opacity:0.977" fill="#eee7dc" d="M 568.5,402.5 C 567.316,403.688 567.316,404.855 568.5,406C 566.563,406.122 565.23,406.955 564.5,408.5C 560.557,405.522 556.223,403.022 551.5,401C 546.889,399.993 542.555,400.66 538.5,403C 533.108,408.457 528.442,414.457 524.5,421C 525.184,422.693 526.184,424.193 527.5,425.5C 527.291,426.086 526.957,426.586 526.5,427C 528.891,427.691 528.891,428.691 526.5,430C 530.299,431.114 530.299,432.447 526.5,434C 526.833,434.333 527.167,434.667 527.5,435C 525.968,435.7 524.968,436.866 524.5,438.5C 525.504,440.677 524.838,441.011 522.5,439.5C 521.572,441.335 520.406,441.668 519,440.5C 518.751,441.624 518.251,442.624 517.5,443.5C 516.334,441.261 515.001,441.261 513.5,443.5C 507.861,442.679 503.527,439.846 500.5,435C 500.905,434.055 501.572,433.388 502.5,433C 501.098,427.428 499.431,421.928 497.5,416.5C 500.084,418.622 503.084,419.956 506.5,420.5C 509.394,419.356 512.394,418.356 515.5,417.5C 516.167,417.833 516.833,418.167 517.5,418.5C 523.039,411.947 528.706,405.447 534.5,399C 539.806,395.966 545.473,394.966 551.5,396C 556.963,398.733 562.63,400.899 568.5,402.5 Z"/></g>
<g><path style="opacity:1" fill="#e2523a" d="M 580.5,398.5 C 581.469,399.309 582.302,400.309 583,401.5C 584.691,398.869 585.858,399.203 586.5,402.5C 587.107,402.376 587.44,402.043 587.5,401.5C 588.268,402.263 588.768,403.263 589,404.5C 592.199,403.764 592.365,404.597 589.5,407C 594.378,409.589 594.378,411.756 589.5,413.5C 589.709,414.086 590.043,414.586 590.5,415C 589.406,416.78 588.406,418.614 587.5,420.5C 585.93,420.306 584.43,420.306 583,420.5C 582.581,421.672 581.915,422.672 581,423.5C 580.511,421.396 579.345,421.062 577.5,422.5C 575.878,420.146 574.378,420.146 573,422.5C 572.3,420.968 571.134,419.968 569.5,419.5C 568.504,417.184 566.837,415.517 564.5,414.5C 565.5,413.667 566.5,412.833 567.5,412C 565.944,411.28 564.944,410.113 564.5,408.5C 565.23,406.955 566.563,406.122 568.5,406C 567.316,404.855 567.316,403.688 568.5,402.5C 570.993,402.024 572.993,400.69 574.5,398.5C 576.47,399.443 577.97,398.776 579,396.5C 579.717,397.044 580.217,397.711 580.5,398.5 Z"/></g>
<g><path style="opacity:0.98" fill="#eee7dc" d="M 151.5,418.5 C 149.305,423.97 147.972,429.47 147.5,435C 150.332,436.908 149.999,437.741 146.5,437.5C 145.027,442.291 141.693,444.958 136.5,445.5C 135.328,444.295 133.995,444.295 132.5,445.5C 130.651,444.407 128.984,443.074 127.5,441.5C 125.162,443.011 124.496,442.677 125.5,440.5C 124.263,439.719 123.263,438.719 122.5,437.5C 123.609,435.786 122.942,435.119 120.5,435.5C 120.36,433.876 121.027,432.71 122.5,432C 122.056,430.467 121.723,428.967 121.5,427.5C 123.229,426.403 124.896,425.237 126.5,424C 121.738,417.815 116.738,411.815 111.5,406C 106.734,403.69 101.734,403.023 96.5,404C 92.7802,405.86 89.1136,407.693 85.5,409.5C 83.8008,409.66 82.1341,409.494 80.5,409C 83.1251,407.607 83.1251,406.441 80.5,405.5C 81.8734,405.657 83.2068,405.49 84.5,405C 94.2074,397.587 104.541,396.587 115.5,402C 121.057,408.218 126.557,414.385 132,420.5C 132.414,420.043 132.914,419.709 133.5,419.5C 136.478,420.255 139.478,421.255 142.5,422.5C 145.916,421.956 148.916,420.622 151.5,418.5 Z"/></g>
<g><path style="opacity:1" fill="#e2533a" d="M 80.5,405.5 C 83.1251,406.441 83.1251,407.607 80.5,409C 82.1341,409.494 83.8008,409.66 85.5,409.5C 85.2786,410.735 84.6119,411.735 83.5,412.5C 83.6097,414.098 83.943,415.765 84.5,417.5C 82.9263,418.984 81.593,420.651 80.5,422.5C 79.914,422.291 79.414,421.957 79,421.5C 77.2246,423.394 75.2246,425.061 73,426.5C 72,425.833 71,425.167 70,424.5C 68.5823,427.001 67.5823,426.668 67,423.5C 65.5944,424.668 64.4277,424.335 63.5,422.5C 62.3914,423.59 61.3914,423.59 60.5,422.5C 58.9789,420.714 58.6456,418.881 59.5,417C 58.09,416.632 57.09,415.799 56.5,414.5C 57.4167,413.029 58.4167,411.529 59.5,410C 58.8333,409.333 58.1667,408.667 57.5,408C 59.0762,407.56 60.4096,406.727 61.5,405.5C 62.086,405.709 62.586,406.043 63,406.5C 63.49,405.207 63.6567,403.873 63.5,402.5C 64.4584,402.953 65.2917,403.619 66,404.5C 66.6979,403.309 67.5313,402.309 68.5,401.5C 70.4392,401.439 72.4392,401.439 74.5,401.5C 75.2508,402.376 75.7508,403.376 76,404.5C 76.414,404.043 76.914,403.709 77.5,403.5C 78.2749,405.302 79.2749,405.969 80.5,405.5 Z"/></g>
<g><path style="opacity:1" fill="#e4e2d6" d="M 375.5,399.5 C 379.184,400.372 380.184,402.539 378.5,406C 374.494,406.987 372.661,405.487 373,401.5C 373.995,400.934 374.828,400.267 375.5,399.5 Z"/></g>
<g><path style="opacity:1" fill="#e9e4d9" d="M 188.5,423.5 C 187.167,424.5 185.833,425.5 184.5,426.5C 180.53,421.685 176.697,416.685 173,411.5C 168.115,407.83 162.948,407.497 157.5,410.5C 157.5,408.5 157.5,406.5 157.5,404.5C 162.947,401.742 168.28,401.909 173.5,405C 179.789,410.122 184.789,416.289 188.5,423.5 Z"/></g>
<g><path style="opacity:1" fill="#e6e3d7" d="M 301.5,403.5 C 306.159,403.015 307.492,404.848 305.5,409C 300.728,409.81 299.395,407.977 301.5,403.5 Z"/></g>
<g><path style="opacity:1" fill="#eae4d9" d="M 490.5,403.5 C 490.5,404.5 490.5,405.5 490.5,406.5C 488.695,408.197 486.361,409.03 483.5,409C 481.333,410.5 479.167,412 477,413.5C 472.887,419.947 468.387,426.114 463.5,432C 464.056,432.383 464.389,432.883 464.5,433.5C 462.813,432.133 461.147,431.133 459.5,430.5C 458.056,431.981 457.389,431.648 457.5,429.5C 463.606,422.549 469.606,415.382 475.5,408C 479.792,404.19 484.792,402.69 490.5,403.5 Z"/></g>
<g><path style="opacity:0.995" fill="#1f8a76" d="M 490.5,406.5 C 493.362,423.317 490.195,438.984 481,453.5C 475.572,458.931 469.572,463.598 463,467.5C 460.922,476.44 460.255,485.44 461,494.5C 458.139,499.344 453.973,502.344 448.5,503.5C 447.257,493.341 446.257,483.007 445.5,472.5C 439.617,474.095 433.783,475.762 428,477.5C 428.232,487.829 428.732,498.162 429.5,508.5C 426.873,509.092 424.206,509.425 421.5,509.5C 420.867,499.179 420.534,488.845 420.5,478.5C 415.178,478.98 409.845,479.313 404.5,479.5C 404.5,490.167 404.5,500.833 404.5,511.5C 402.167,511.5 399.833,511.5 397.5,511.5C 397.5,501.5 397.5,491.5 397.5,481.5C 390.847,482.054 384.18,482.388 377.5,482.5C 377.129,492.88 377.129,503.213 377.5,513.5C 375.167,513.5 372.833,513.5 370.5,513.5C 369.852,503.847 369.518,494.18 369.5,484.5C 362.178,485.038 354.845,485.371 347.5,485.5C 347.5,495.167 347.5,504.833 347.5,514.5C 347.5,514.833 347.5,515.167 347.5,515.5C 345.167,515.5 342.833,515.5 340.5,515.5C 340.167,505.5 339.833,495.5 339.5,485.5C 332.5,485.5 325.5,485.5 318.5,485.5C 319.458,495.455 320.458,505.455 321.5,515.5C 318.167,515.5 314.833,515.5 311.5,515.5C 312.371,505.194 312.704,494.86 312.5,484.5C 305.159,483.907 297.826,483.24 290.5,482.5C 290.47,493.181 290.804,503.848 291.5,514.5C 288.833,514.5 286.167,514.5 283.5,514.5C 283.783,503.432 283.116,492.432 281.5,481.5C 273.868,480.642 266.201,480.309 258.5,480.5C 258.354,491.187 258.688,501.854 259.5,512.5C 256.833,512.5 254.167,512.5 251.5,512.5C 251.5,501.5 251.5,490.5 251.5,479.5C 244.847,478.946 238.18,478.612 231.5,478.5C 231.94,489.013 231.94,499.346 231.5,509.5C 229.5,509.5 227.5,509.5 225.5,509.5C 224.891,498.491 224.224,487.491 223.5,476.5C 217.102,475.887 210.769,474.887 204.5,473.5C 204.516,484.179 204.85,494.846 205.5,505.5C 202.833,504.833 200.167,504.167 197.5,503.5C 197.627,492.148 197.294,480.815 196.5,469.5C 191.319,467.886 186.319,465.886 181.5,463.5C 168.515,455.567 161.015,443.901 159,428.5C 158.037,422.535 157.537,416.535 157.5,410.5C 162.948,407.497 168.115,407.83 173,411.5C 176.697,416.685 180.53,421.685 184.5,426.5C 184.611,428.648 183.944,428.981 182.5,427.5C 181.167,430.167 179.167,432.167 176.5,433.5C 177.516,436.134 177.516,438.8 176.5,441.5C 177.873,441.343 179.207,441.51 180.5,442C 180.043,442.414 179.709,442.914 179.5,443.5C 181.103,444.899 182.437,446.565 183.5,448.5C 184.967,448.277 186.467,447.944 188,447.5C 190.882,449.596 193.715,449.263 196.5,446.5C 197.086,446.709 197.586,447.043 198,447.5C 198.5,446.333 199.333,445.5 200.5,445C 200.167,444.667 199.833,444.333 199.5,444C 202.646,443.89 203.646,442.557 202.5,440C 203.308,439.692 203.975,439.192 204.5,438.5C 203.5,437.667 202.5,436.833 201.5,436C 203.099,434.934 204.099,433.434 204.5,431.5C 204.376,430.893 204.043,430.56 203.5,430.5C 210.447,424.8 218.447,422.634 227.5,424C 232.625,430.793 238.125,437.293 244,443.5C 244.54,445.135 244.04,446.468 242.5,447.5C 243.55,449.102 242.883,449.935 240.5,450C 241.197,452.159 240.863,454.326 239.5,456.5C 240.833,457.167 242.167,457.833 243.5,458.5C 243.291,459.086 242.957,459.586 242.5,460C 243.833,460.667 245.167,461.333 246.5,462C 245.764,465.199 246.597,465.365 249,462.5C 250.351,463.961 251.851,465.294 253.5,466.5C 256.282,464.083 259.282,462.916 262.5,463C 262.167,462.667 261.833,462.333 261.5,462C 265.069,461.153 266.402,459.153 265.5,456C 269.5,455 269.5,454 265.5,453C 266.833,452 266.833,451 265.5,450C 269.527,445.31 274.194,441.31 279.5,438C 285.557,436.838 291.223,437.838 296.5,441C 300.729,445.398 305.062,449.564 309.5,453.5C 308.694,454.868 307.694,456.201 306.5,457.5C 306.723,458.967 307.056,460.467 307.5,462C 305.052,464.3 305.719,465.633 309.5,466C 309.043,466.414 308.709,466.914 308.5,467.5C 310.074,468.984 311.407,470.651 312.5,472.5C 313.478,472.023 314.311,471.357 315,470.5C 316.529,471.583 318.029,472.583 319.5,473.5C 320.192,472.975 320.692,472.308 321,471.5C 323.251,472.745 325.418,472.745 327.5,471.5C 329.833,468.5 332.167,465.5 334.5,462.5C 333.833,461.833 333.167,461.167 332.5,460.5C 332.792,458.311 332.792,456.311 332.5,454.5C 336.356,449.018 341.023,444.185 346.5,440C 359.174,439.335 369.841,443.669 378.5,453C 377.376,453.249 376.376,453.749 375.5,454.5C 375.723,455.967 376.056,457.467 376.5,459C 375.044,459.423 374.544,460.256 375,461.5C 377.69,463.356 379.856,465.689 381.5,468.5C 382.478,468.023 383.311,467.357 384,466.5C 384.605,468.481 385.605,468.815 387,467.5C 387.249,468.624 387.749,469.624 388.5,470.5C 391.589,470.154 394.589,468.988 397.5,467C 398.313,465.686 399.313,464.519 400.5,463.5C 401.711,462.28 401.711,461.113 400.5,460C 404.272,459.389 404.272,458.389 400.5,457C 403.167,456 403.167,455 400.5,454C 401.973,453.29 402.64,452.124 402.5,450.5C 400.645,450.728 399.812,450.061 400,448.5C 405.2,443.635 410.033,438.468 414.5,433C 424.603,428.024 434.269,428.858 443.5,435.5C 442.993,436.859 441.993,437.859 440.5,438.5C 441.833,440.833 441.833,443.167 440.5,445.5C 441.729,446.281 443.062,446.781 444.5,447C 443.549,447.718 443.383,448.551 444,449.5C 445,449.5 446,449.5 447,449.5C 447.492,450.549 447.326,451.549 446.5,452.5C 446.833,452.833 447.167,453.167 447.5,453.5C 448.167,452.833 448.833,452.167 449.5,451.5C 452.373,454.609 455.706,455.276 459.5,453.5C 459.259,450.001 460.092,449.668 462,452.5C 462.5,451.333 463.333,450.5 464.5,450C 464.167,449.667 463.833,449.333 463.5,449C 466.646,448.89 467.646,447.557 466.5,445C 467.308,444.692 467.975,444.192 468.5,443.5C 467.5,442.667 466.5,441.833 465.5,441C 467.099,439.934 468.099,438.434 468.5,436.5C 466.668,435.943 465.335,434.943 464.5,433.5C 464.389,432.883 464.056,432.383 463.5,432C 468.387,426.114 472.887,419.947 477,413.5C 479.167,412 481.333,410.5 483.5,409C 486.361,409.03 488.695,408.197 490.5,406.5 Z"/></g>
<g><path style="opacity:1" fill="#e4e1d6" d="M 251.5,408.5 C 255.161,408.35 256.161,409.85 254.5,413C 253.207,413.49 251.873,413.657 250.5,413.5C 250.366,411.708 250.699,410.042 251.5,408.5 Z"/></g>
<g><path style="opacity:1" fill="#ece5da" d="M 315.5,449.5 C 315.203,453.395 313.87,454.062 311.5,451.5C 310.818,452.243 310.151,452.909 309.5,453.5C 305.062,449.564 300.729,445.398 296.5,441C 291.223,437.838 285.557,436.838 279.5,438C 274.194,441.31 269.527,445.31 265.5,450C 266.833,451 266.833,452 265.5,453C 269.5,454 269.5,455 265.5,456C 266.402,459.153 265.069,461.153 261.5,462C 261.833,462.333 262.167,462.667 262.5,463C 259.282,462.916 256.282,464.083 253.5,466.5C 251.851,465.294 250.351,463.961 249,462.5C 246.597,465.365 245.764,465.199 246.5,462C 245.167,461.333 243.833,460.667 242.5,460C 242.957,459.586 243.291,459.086 243.5,458.5C 242.167,457.833 240.833,457.167 239.5,456.5C 240.863,454.326 241.197,452.159 240.5,450C 242.883,449.935 243.55,449.102 242.5,447.5C 244.04,446.468 244.54,445.135 244,443.5C 238.125,437.293 232.625,430.793 227.5,424C 218.447,422.634 210.447,424.8 203.5,430.5C 200.917,429.579 198.584,428.246 196.5,426.5C 202.367,424.902 208.033,422.735 213.5,420C 222.113,416.628 229.279,418.461 235,425.5C 238.214,431.884 242.714,437.217 248.5,441.5C 249.478,441.023 250.311,440.357 251,439.5C 252.054,441.754 253.554,442.087 255.5,440.5C 258.028,443.039 261.028,443.872 264.5,443C 269.486,438.839 274.819,435.173 280.5,432C 287.831,430.999 294.498,432.666 300.5,437C 304.789,442.132 309.789,446.299 315.5,449.5 Z"/></g>
<g><path style="opacity:1" fill="#e2543b" d="M 188.5,423.5 C 191.503,424.714 194.17,425.714 196.5,426.5C 198.584,428.246 200.917,429.579 203.5,430.5C 204.043,430.56 204.376,430.893 204.5,431.5C 204.099,433.434 203.099,434.934 201.5,436C 202.5,436.833 203.5,437.667 204.5,438.5C 203.975,439.192 203.308,439.692 202.5,440C 203.646,442.557 202.646,443.89 199.5,444C 199.833,444.333 200.167,444.667 200.5,445C 199.333,445.5 198.5,446.333 198,447.5C 197.586,447.043 197.086,446.709 196.5,446.5C 193.715,449.263 190.882,449.596 188,447.5C 186.467,447.944 184.967,448.277 183.5,448.5C 182.437,446.565 181.103,444.899 179.5,443.5C 179.709,442.914 180.043,442.414 180.5,442C 179.207,441.51 177.873,441.343 176.5,441.5C 177.516,438.8 177.516,436.134 176.5,433.5C 179.167,432.167 181.167,430.167 182.5,427.5C 183.944,428.981 184.611,428.648 184.5,426.5C 185.833,425.5 187.167,424.5 188.5,423.5 Z"/></g>
<g><path style="opacity:1" fill="#ece6da" d="M 450.5,430.5 C 448.206,431.987 445.873,433.654 443.5,435.5C 434.269,428.858 424.603,428.024 414.5,433C 410.033,438.468 405.2,443.635 400,448.5C 399.812,450.061 400.645,450.728 402.5,450.5C 402.64,452.124 401.973,453.29 400.5,454C 403.167,455 403.167,456 400.5,457C 404.272,458.389 404.272,459.389 400.5,460C 401.711,461.113 401.711,462.28 400.5,463.5C 399.313,464.519 398.313,465.686 397.5,467C 394.589,468.988 391.589,470.154 388.5,470.5C 387.749,469.624 387.249,468.624 387,467.5C 385.605,468.815 384.605,468.481 384,466.5C 383.311,467.357 382.478,468.023 381.5,468.5C 379.856,465.689 377.69,463.356 375,461.5C 374.544,460.256 375.044,459.423 376.5,459C 376.056,457.467 375.723,455.967 375.5,454.5C 376.376,453.749 377.376,453.249 378.5,453C 369.841,443.669 359.174,439.335 346.5,440C 341.023,444.185 336.356,449.018 332.5,454.5C 330.302,453.986 328.302,452.986 326.5,451.5C 325.702,451.043 325.369,450.376 325.5,449.5C 330.547,447.292 334.547,443.792 337.5,439C 342.532,433.959 348.532,432.292 355.5,434C 364.352,436.76 372.352,441.093 379.5,447C 380.833,447.667 382.167,447.667 383.5,447C 384.905,444.07 386.738,443.903 389,446.5C 390.418,443.999 391.418,444.332 392,447.5C 393.399,446.773 394.899,446.273 396.5,446C 401.402,440.854 406.069,435.521 410.5,430C 417.262,424.733 424.928,423.067 433.5,425C 439.019,427.34 444.685,429.173 450.5,430.5 Z"/></g>
<g><path style="opacity:1" fill="#e3533b" d="M 457.5,429.5 C 457.389,431.648 458.056,431.981 459.5,430.5C 461.147,431.133 462.813,432.133 464.5,433.5C 465.335,434.943 466.668,435.943 468.5,436.5C 468.099,438.434 467.099,439.934 465.5,441C 466.5,441.833 467.5,442.667 468.5,443.5C 467.975,444.192 467.308,444.692 466.5,445C 467.646,447.557 466.646,448.89 463.5,449C 463.833,449.333 464.167,449.667 464.5,450C 463.333,450.5 462.5,451.333 462,452.5C 460.092,449.668 459.259,450.001 459.5,453.5C 455.706,455.276 452.373,454.609 449.5,451.5C 448.833,452.167 448.167,452.833 447.5,453.5C 447.167,453.167 446.833,452.833 446.5,452.5C 447.326,451.549 447.492,450.549 447,449.5C 446,449.5 445,449.5 444,449.5C 443.383,448.551 443.549,447.718 444.5,447C 443.062,446.781 441.729,446.281 440.5,445.5C 441.833,443.167 441.833,440.833 440.5,438.5C 441.993,437.859 442.993,436.859 443.5,435.5C 445.873,433.654 448.206,431.987 450.5,430.5C 450.369,429.624 450.702,428.957 451.5,428.5C 453.409,429.348 455.409,429.682 457.5,429.5 Z"/></g>
<g><path style="opacity:0.982" fill="#339f8c" d="M 596.5,469.5 C 592.461,471.738 588.128,473.405 583.5,474.5C 581.376,466.792 579.042,459.125 576.5,451.5C 576.818,450.353 577.484,449.519 578.5,449C 582.027,447.824 585.527,446.658 589,445.5C 589.333,445.833 589.667,446.167 590,446.5C 592.245,454.276 594.412,461.943 596.5,469.5 Z"/></g>
<g><path style="opacity:1" fill="#e1533a" d="M 325.5,449.5 C 325.369,450.376 325.702,451.043 326.5,451.5C 328.302,452.986 330.302,453.986 332.5,454.5C 332.792,456.311 332.792,458.311 332.5,460.5C 333.167,461.167 333.833,461.833 334.5,462.5C 332.167,465.5 329.833,468.5 327.5,471.5C 325.418,472.745 323.251,472.745 321,471.5C 320.692,472.308 320.192,472.975 319.5,473.5C 318.029,472.583 316.529,471.583 315,470.5C 314.311,471.357 313.478,472.023 312.5,472.5C 311.407,470.651 310.074,468.984 308.5,467.5C 308.709,466.914 309.043,466.414 309.5,466C 305.719,465.633 305.052,464.3 307.5,462C 307.056,460.467 306.723,458.967 306.5,457.5C 307.694,456.201 308.694,454.868 309.5,453.5C 310.151,452.909 310.818,452.243 311.5,451.5C 313.87,454.062 315.203,453.395 315.5,449.5C 316.652,447.312 318.152,447.312 320,449.5C 321.395,448.185 322.395,448.519 323,450.5C 323.671,449.748 324.504,449.414 325.5,449.5 Z"/></g>
<g><path style="opacity:0.979" fill="#339f8c" d="M 67.5,477.5 C 62.8348,476.922 58.5015,475.589 54.5,473.5C 55.8418,465.462 57.5084,457.462 59.5,449.5C 64.1667,450.5 68.8333,451.5 73.5,452.5C 71.5,460.833 69.5,469.167 67.5,477.5 Z"/></g>
<g><path style="opacity:0.981" fill="#339f8c" d="M 577.5,475.5 C 574.239,476.378 570.906,477.044 567.5,477.5C 565.389,469.334 562.389,461.5 558.5,454C 561.859,453.229 565.192,452.395 568.5,451.5C 571.504,459.514 574.504,467.514 577.5,475.5 Z"/></g>
<g><path style="opacity:0.978" fill="#339f8c" d="M 82.5,480.5 C 79.0945,480.044 75.7611,479.378 72.5,478.5C 75.8863,470.678 78.8863,462.678 81.5,454.5C 84.8075,455.395 88.1409,456.229 91.5,457C 88.0073,464.645 85.0073,472.478 82.5,480.5 Z"/></g>
<g><path style="opacity:0.947" fill="#339f8c" d="M 181.5,463.5 C 186.319,465.886 191.319,467.886 196.5,469.5C 197.294,480.815 197.627,492.148 197.5,503.5C 191.508,502.424 187.341,499.09 185,493.5C 186.719,483.133 185.552,473.133 181.5,463.5 Z"/></g>
<g><path style="opacity:0.987" fill="#339f8c" d="M 225.5,509.5 C 218.857,508.17 212.191,506.837 205.5,505.5C 204.85,494.846 204.516,484.179 204.5,473.5C 210.769,474.887 217.102,475.887 223.5,476.5C 224.224,487.491 224.891,498.491 225.5,509.5 Z"/></g>
<g><path style="opacity:0.983" fill="#339f8c" d="M 448.5,503.5 C 442.476,505.924 436.143,507.591 429.5,508.5C 428.732,498.162 428.232,487.829 428,477.5C 433.783,475.762 439.617,474.095 445.5,472.5C 446.257,483.007 447.257,493.341 448.5,503.5 Z"/></g>
<g><path style="opacity:0.99" fill="#339f8c" d="M 251.5,512.5 C 244.661,511.782 237.995,510.782 231.5,509.5C 231.94,499.346 231.94,489.013 231.5,478.5C 238.18,478.612 244.847,478.946 251.5,479.5C 251.5,490.5 251.5,501.5 251.5,512.5 Z"/></g>
<g><path style="opacity:0.987" fill="#339f8c" d="M 421.5,509.5 C 415.845,510.232 410.179,510.899 404.5,511.5C 404.5,500.833 404.5,490.167 404.5,479.5C 409.845,479.313 415.178,478.98 420.5,478.5C 420.534,488.845 420.867,499.179 421.5,509.5 Z"/></g>
<g><path style="opacity:0.986" fill="#339f8c" d="M 283.5,514.5 C 275.319,514.224 267.319,513.557 259.5,512.5C 258.688,501.854 258.354,491.187 258.5,480.5C 266.201,480.309 273.868,480.642 281.5,481.5C 283.116,492.432 283.783,503.432 283.5,514.5 Z"/></g>
<g><path style="opacity:0.983" fill="#339f8c" d="M 397.5,511.5 C 391.013,512.515 384.346,513.182 377.5,513.5C 377.129,503.213 377.129,492.88 377.5,482.5C 384.18,482.388 390.847,482.054 397.5,481.5C 397.5,491.5 397.5,501.5 397.5,511.5 Z"/></g>
<g><path style="opacity:0.985" fill="#339f8c" d="M 311.5,515.5 C 307.167,515.5 302.833,515.5 298.5,515.5C 296.393,514.532 294.059,514.198 291.5,514.5C 290.804,503.848 290.47,493.181 290.5,482.5C 297.826,483.24 305.159,483.907 312.5,484.5C 312.704,494.86 312.371,505.194 311.5,515.5 Z"/></g>
<g><path style="opacity:0.988" fill="#339f8c" d="M 370.5,513.5 C 362.92,514.466 355.253,514.799 347.5,514.5C 347.5,504.833 347.5,495.167 347.5,485.5C 354.845,485.371 362.178,485.038 369.5,484.5C 369.518,494.18 369.852,503.847 370.5,513.5 Z"/></g>
<g><path style="opacity:0.981" fill="#339f8c" d="M 340.5,515.5 C 334.167,515.5 327.833,515.5 321.5,515.5C 320.458,505.455 319.458,495.455 318.5,485.5C 325.5,485.5 332.5,485.5 339.5,485.5C 339.833,495.5 340.167,505.5 340.5,515.5 Z"/></g>
</svg>
