<?xml version="1.0" encoding="UTF-8"?>
<!DOCTYPE svg PUBLIC "-//W3C//DTD SVG 1.1//EN" "http://www.w3.org/Graphics/SVG/1.1/DTD/svg11.dtd">
<svg xmlns="http://www.w3.org/2000/svg" version="1.1" width="578px" height="516px" style="shape-rendering:geometricPrecision; text-rendering:geometricPrecision; image-rendering:optimizeQuality; fill-rule:evenodd; clip-rule:evenodd" xmlns:xlink="http://www.w3.org/1999/xlink">
<g><path style="opacity:0.994" fill="#7cc7be" d="M 409.5,7.5 C 435.405,15.2694 457.905,28.6027 477,47.5C 488.208,64.5766 497.874,82.5766 506,101.5C 528.206,157.123 544.54,214.457 555,273.5C 562.466,315.651 569.966,357.651 577.5,399.5C 577.5,404.833 577.5,410.167 577.5,415.5C 576.512,418.081 575.512,420.748 574.5,423.5C 560.599,439.915 542.932,446.248 521.5,442.5C 514.068,439.863 508.234,435.196 504,428.5C 492.923,407.942 484.589,386.275 479,363.5C 467.197,321.287 455.864,278.954 445,236.5C 443.962,256.817 443.462,277.151 443.5,297.5C 444.379,346.173 445.212,394.84 446,443.5C 445.586,457.486 440.42,469.32 430.5,479C 428.612,480.394 426.612,481.56 424.5,482.5C 398.95,493.247 372.283,498.247 344.5,497.5C 321.014,496.397 297.514,495.73 274,495.5C 253.83,495.954 233.663,496.121 213.5,496C 193.704,495.2 174.704,491.033 156.5,483.5C 144.622,476.1 137.456,465.433 135,451.5C 134.07,446.201 133.403,440.867 133,435.5C 133.278,399.337 133.778,363.171 134.5,327C 134.315,296.814 133.481,266.648 132,236.5C 122.961,274.656 113.294,312.656 103,350.5C 95.617,379.655 85.2836,407.655 72,434.5C 68.176,439.991 63.0094,443.324 56.5,444.5C 37.241,444.772 20.241,438.772 5.5,426.5C 4.54163,426.047 3.7083,425.381 3,424.5C 1.51368,421.15 0.347016,417.816 -0.5,414.5C -0.5,411.833 -0.5,409.167 -0.5,406.5C 8.51695,358.072 17.0169,309.405 25,260.5C 34.7123,205.647 49.7123,152.314 70,100.5C 77.6022,81.2898 87.2688,63.2898 99,46.5C 116.156,29.9978 135.99,17.6645 158.5,9.5C 159.045,11.5932 159.878,13.5932 161,15.5C 170.926,26.3799 182.426,35.2132 195.5,42C 147.571,92.1074 126.404,151.941 132,221.5C 135.341,183.117 144.341,146.117 159,110.5C 169.564,86.5152 183.73,65.0152 201.5,46C 204.098,46.1256 206.431,47.1256 208.5,49C 204.85,50.4708 203.517,52.9708 204.5,56.5C 207.167,54.5 209.5,52.1667 211.5,49.5C 250.353,63.4815 290.02,66.1482 330.5,57.5C 330.548,60.3128 331.215,62.9795 332.5,65.5C 333.325,66.3857 334.325,66.719 335.5,66.5C 335.404,63.0441 334.404,59.8774 332.5,57C 338.6,54.412 344.933,52.412 351.5,51C 357.126,48.5228 362.793,46.0228 368.5,43.5C 388.743,62.6337 404.577,84.967 416,110.5C 431.756,145.856 441.089,182.856 444,221.5C 444.333,209.5 444.667,197.5 445,185.5C 445.419,186.672 446.085,187.672 447,188.5C 447.667,184.167 447.667,179.833 447,175.5C 446.586,175.043 446.086,174.709 445.5,174.5C 444.679,177.447 444.179,180.447 444,183.5C 439.096,127.201 416.596,79.368 376.5,40C 380.833,37.1667 385.167,34.3333 389.5,31.5C 391.69,33.8557 393.69,36.3557 395.5,39C 396.448,39.4828 397.448,39.6495 398.5,39.5C 397.93,35.0885 395.597,31.9218 391.5,30C 399.231,23.7812 405.231,16.2812 409.5,7.5 Z"/></g>
<g><path style="opacity:0.985" fill="#4fb2a5" d="M 176.5,-0.5 C 178.833,-0.5 181.167,-0.5 183.5,-0.5C 191.678,10.7735 202.345,18.9402 215.5,24C 237.845,31.6686 260.845,35.1686 284.5,34.5C 305.222,35.0221 325.555,32.5221 345.5,27C 352.724,24.7211 359.391,21.3878 365.5,17C 372.106,10.5487 379.106,4.71541 386.5,-0.5C 389.167,-0.5 391.833,-0.5 394.5,-0.5C 397.814,3.4842 402.147,5.31753 407.5,5C 408.381,5.7083 409.047,6.54163 409.5,7.5C 405.231,16.2812 399.231,23.7812 391.5,30C 395.597,31.9218 397.93,35.0885 398.5,39.5C 397.448,39.6495 396.448,39.4828 395.5,39C 393.69,36.3557 391.69,33.8557 389.5,31.5C 385.167,34.3333 380.833,37.1667 376.5,40C 416.596,79.368 439.096,127.201 444,183.5C 444.179,180.447 444.679,177.447 445.5,174.5C 446.086,174.709 446.586,175.043 447,175.5C 447.667,179.833 447.667,184.167 447,188.5C 446.085,187.672 445.419,186.672 445,185.5C 444.667,197.5 444.333,209.5 444,221.5C 441.089,182.856 431.756,145.856 416,110.5C 404.577,84.967 388.743,62.6337 368.5,43.5C 362.793,46.0228 357.126,48.5228 351.5,51C 344.933,52.412 338.6,54.412 332.5,57C 334.404,59.8774 335.404,63.0441 335.5,66.5C 334.325,66.719 333.325,66.3857 332.5,65.5C 331.215,62.9795 330.548,60.3128 330.5,57.5C 290.02,66.1482 250.353,63.4815 211.5,49.5C 209.5,52.1667 207.167,54.5 204.5,56.5C 203.517,52.9708 204.85,50.4708 208.5,49C 206.431,47.1256 204.098,46.1256 201.5,46C 183.73,65.0152 169.564,86.5152 159,110.5C 144.341,146.117 135.341,183.117 132,221.5C 126.404,151.941 147.571,92.1074 195.5,42C 182.426,35.2132 170.926,26.3799 161,15.5C 159.878,13.5932 159.045,11.5932 158.5,9.5C 158.47,8.50278 158.97,7.83611 160,7.5C 166.44,6.52873 171.94,3.86206 176.5,-0.5 Z"/></g>
<g><path style="opacity:1" fill="#ede9de" d="M 222.5,58.5 C 229.145,57.9772 230.811,60.4772 227.5,66C 221.785,66.401 220.119,63.901 222.5,58.5 Z"/></g>
<g><path style="opacity:1" fill="#eee9de" d="M 362.5,68.5 C 368.704,68.3137 370.037,70.8137 366.5,76C 360.403,76.1475 359.07,73.6475 362.5,68.5 Z"/></g>
<g><path style="opacity:1" fill="#f0eadf" d="M 272.5,70.5 C 280.933,69.4172 283.266,72.5839 279.5,80C 272.735,82.2434 269.902,79.7434 271,72.5C 271.717,71.9558 272.217,71.2891 272.5,70.5 Z"/></g>
<g><path style="opacity:1" fill="#f2ebe0" d="M 194.5,78.5 C 203.306,78.464 205.639,82.2974 201.5,90C 198.571,90.7772 195.737,90.6105 193,89.5C 190.689,85.3741 191.189,81.7075 194.5,78.5 Z"/></g>
<g><path style="opacity:1" fill="#f0eadf" d="M 325.5,83.5 C 333.525,84.0058 335.858,87.8391 332.5,95C 326.945,97.8666 323.279,96.3666 321.5,90.5C 322.071,87.6873 323.404,85.354 325.5,83.5 Z"/></g>
<g><path style="opacity:1" fill="#f1eadf" d="M 245.5,92.5 C 253.661,91.1715 257.495,94.5048 257,102.5C 253.702,107.774 249.369,108.774 244,105.5C 240.513,100.754 241.013,96.4204 245.5,92.5 Z"/></g>
<g><path style="opacity:1" fill="#ece9de" d="M 226.5,97.5 C 233.494,97.4149 235.161,100.248 231.5,106C 227.26,107.539 224.593,106.206 223.5,102C 223.957,100.06 224.957,98.5598 226.5,97.5 Z"/></g>
<g><path style="opacity:1" fill="#e3593f" d="M 225.5,191.5 C 225.5,191.833 225.5,192.167 225.5,192.5C 224.034,193.347 223.2,194.68 223,196.5C 222.292,195.619 221.458,194.953 220.5,194.5C 217.116,186.734 212.95,179.401 208,172.5C 196.582,160.419 185.915,147.753 176,134.5C 169.95,125.692 167.616,116.025 169,105.5C 171.743,101.128 175.743,99.1284 181,99.5C 186.049,99.4051 190.549,100.905 194.5,104C 202.478,112.112 208.312,121.612 212,132.5C 218.552,151.708 223.052,171.375 225.5,191.5 Z"/></g>
<g><path style="opacity:1" fill="#80c5bb" d="M 176.5,103.5 C 185.857,102.594 193.357,105.927 199,113.5C 205.597,123.281 210.264,133.948 213,145.5C 216.321,159.436 218.988,173.436 221,187.5C 212.67,171.491 201.67,157.491 188,145.5C 180.947,138.066 175.947,129.399 173,119.5C 172.333,115.5 172.333,111.5 173,107.5C 173.69,105.65 174.856,104.316 176.5,103.5 Z"/></g>
<g><path style="opacity:1" fill="#eee9de" d="M 383.5,103.5 C 389.989,103.156 391.989,105.99 389.5,112C 383.086,114.593 380.586,112.426 382,105.5C 382.717,104.956 383.217,104.289 383.5,103.5 Z"/></g>
<g><path style="opacity:1" fill="#f2ebe0" d="M 283.5,110.5 C 290.997,109.804 292.997,112.637 289.5,119C 282.781,119.726 280.781,116.893 283.5,110.5 Z"/></g>
<g><path style="opacity:1" fill="#f3e7dc" d="M 373.5,119.5 C 367.829,119.39 362.829,121.057 358.5,124.5C 353.901,124.138 349.901,125.471 346.5,128.5C 346.388,123.074 347.722,118.074 350.5,113.5C 357.394,111.64 364.061,112.474 370.5,116C 371.71,117.039 372.71,118.206 373.5,119.5 Z"/></g>
<g><path style="opacity:1" fill="#eb6953" d="M 350.5,113.5 C 347.722,118.074 346.388,123.074 346.5,128.5C 345.167,129.5 343.833,130.5 342.5,131.5C 341.601,126.445 341.934,121.445 343.5,116.5C 345.426,114.707 347.759,113.707 350.5,113.5 Z"/></g>
<g><path style="opacity:1" fill="#f2ebe0" d="M 187.5,117.5 C 197.247,117.085 199.913,121.252 195.5,130C 187.447,132.951 183.613,130.118 184,121.5C 184.69,119.65 185.856,118.316 187.5,117.5 Z"/></g>
<g><path style="opacity:1" fill="#f2e7da" d="M 343.5,116.5 C 341.934,121.445 341.601,126.445 342.5,131.5C 338.096,135.897 334.096,140.564 330.5,145.5C 328.441,140.593 327.108,135.593 326.5,130.5C 330.605,126.898 334.605,123.065 338.5,119C 340.078,117.906 341.745,117.072 343.5,116.5 Z"/></g>
<g><path style="opacity:1" fill="#c65038" d="M 373.5,119.5 C 375.316,121.118 376.649,123.118 377.5,125.5C 373.102,125.294 368.768,125.627 364.5,126.5C 362.703,125.27 360.703,124.604 358.5,124.5C 362.829,121.057 367.829,119.39 373.5,119.5 Z"/></g>
<g><path style="opacity:1" fill="#f0eadf" d="M 407.5,119.5 C 415.149,119.314 418.315,122.981 417,130.5C 412.748,136.653 408.081,136.986 403,131.5C 401.309,126.131 402.809,122.131 407.5,119.5 Z"/></g>
<g><path style="opacity:1" fill="#c44831" d="M 258.5,127.5 C 259.551,130.656 259.551,133.656 258.5,136.5C 257.5,136.167 256.833,135.5 256.5,134.5C 256.104,131.279 254.771,128.612 252.5,126.5C 252.586,125.504 252.252,124.671 251.5,124C 254.84,123.176 257.173,124.343 258.5,127.5 Z"/></g>
<g><path style="opacity:1" fill="#eee9dd" d="M 246.5,123.5 C 250.628,126.087 252.295,129.753 251.5,134.5C 246.152,137.594 240.652,140.594 235,143.5C 234.948,134.604 238.782,127.937 246.5,123.5 Z"/></g>
<g><path style="opacity:1" fill="#f3e9de" d="M 377.5,125.5 C 379.321,132.994 378.321,139.994 374.5,146.5C 372.506,142.506 369.506,139.506 365.5,137.5C 367.054,133.61 366.721,129.943 364.5,126.5C 368.768,125.627 373.102,125.294 377.5,125.5 Z"/></g>
<g><path style="opacity:1" fill="#efe8dd" d="M 260.5,124.5 C 266.89,128.556 271.89,133.889 275.5,140.5C 274.617,144.854 272.617,148.521 269.5,151.5C 267.489,148.139 265.489,144.806 263.5,141.5C 264.006,135.531 263.006,129.865 260.5,124.5 Z"/></g>
<g><path style="opacity:1" fill="#ede9de" d="M 311.5,125.5 C 316.984,125.481 318.65,127.981 316.5,133C 309.683,133.861 308.016,131.361 311.5,125.5 Z"/></g>
<g><path style="opacity:1" fill="#e2bfaa" d="M 252.5,126.5 C 254.771,128.612 256.104,131.279 256.5,134.5C 254.583,132.305 253.249,129.638 252.5,126.5 Z"/></g>
<g><path style="opacity:1" fill="#3c907d" d="M 260.5,124.5 C 263.006,129.865 264.006,135.531 263.5,141.5C 262.833,139.5 262.167,137.5 261.5,135.5C 261.585,132.351 260.585,129.684 258.5,127.5C 258.285,125.821 258.952,124.821 260.5,124.5 Z"/></g>
<g><path style="opacity:1" fill="#c44831" d="M 326.5,130.5 C 327.108,135.593 328.441,140.593 330.5,145.5C 330.068,146.71 329.401,147.71 328.5,148.5C 325.183,145.252 323.183,141.252 322.5,136.5C 323.833,134.5 325.167,132.5 326.5,130.5 Z"/></g>
<g><path style="opacity:1" fill="#e0d0c0" d="M 258.5,127.5 C 260.585,129.684 261.585,132.351 261.5,135.5C 261.649,139.001 260.649,139.334 258.5,136.5C 259.551,133.656 259.551,130.656 258.5,127.5 Z"/></g>
<g><path style="opacity:1" fill="#f1eadf" d="M 223.5,134.5 C 229.488,134.664 230.821,137.164 227.5,142C 221.403,142.147 220.07,139.647 223.5,134.5 Z"/></g>
<g><path style="opacity:1" fill="#f2e9dd" d="M 322.5,136.5 C 323.183,141.252 325.183,145.252 328.5,148.5C 325.248,153.334 322.248,158.334 319.5,163.5C 316.088,160.33 313.422,156.663 311.5,152.5C 315.179,147.129 318.846,141.796 322.5,136.5 Z"/></g>
<g><path style="opacity:1" fill="#eb6b54" d="M 365.5,137.5 C 369.506,139.506 372.506,142.506 374.5,146.5C 374.025,148.784 373.025,150.784 371.5,152.5C 369.43,148.7 367.097,145.034 364.5,141.5C 364.833,140.167 365.167,138.833 365.5,137.5 Z"/></g>
<g><path style="opacity:1" fill="#f2e8dc" d="M 364.5,141.5 C 367.097,145.034 369.43,148.7 371.5,152.5C 367.793,157.208 363.46,161.208 358.5,164.5C 358.84,159.867 357.506,155.867 354.5,152.5C 358.544,149.457 361.877,145.791 364.5,141.5 Z"/></g>
<g><path style="opacity:1" fill="#ddd5c6" d="M 245.5,142.5 C 240.412,143.514 236.745,146.181 234.5,150.5C 233.876,150.083 233.543,149.416 233.5,148.5C 236.388,143.721 240.388,141.721 245.5,142.5 Z"/></g>
<g><path style="opacity:1" fill="#c54b33" d="M 245.5,142.5 C 245.762,143.978 245.429,145.311 244.5,146.5C 240.933,147.907 237.766,149.907 235,152.5C 234.536,151.906 234.369,151.239 234.5,150.5C 236.745,146.181 240.412,143.514 245.5,142.5 Z"/></g>
<g><path style="opacity:1" fill="#c44931" d="M 279.5,148.5 C 278.054,153.061 275.387,156.728 271.5,159.5C 271.461,158.417 271.127,157.417 270.5,156.5C 273.764,152.972 276.264,148.972 278,144.5C 278.791,145.745 279.291,147.078 279.5,148.5 Z"/></g>
<g><path style="opacity:1" fill="#efe9de" d="M 242.5,150.5 C 243.822,150.33 244.989,150.663 246,151.5C 246.833,154 247.667,156.5 248.5,159C 246.8,163.102 245.3,167.268 244,171.5C 240.14,167.118 237.307,162.118 235.5,156.5C 237.678,154.255 240.012,152.255 242.5,150.5 Z"/></g>
<g><path style="opacity:1" fill="#efe9de" d="M 157.5,152.5 C 163.585,152.51 165.585,155.344 163.5,161C 157.086,163.593 154.586,161.426 156,154.5C 156.717,153.956 157.217,153.289 157.5,152.5 Z"/></g>
<g><path style="opacity:1" fill="#eb6b54" d="M 311.5,152.5 C 313.422,156.663 316.088,160.33 319.5,163.5C 319.443,164.609 319.11,165.609 318.5,166.5C 317.662,166.842 317.328,167.508 317.5,168.5C 313.293,165.959 310.627,162.292 309.5,157.5C 310.441,155.95 311.107,154.284 311.5,152.5 Z"/></g>
<g><path style="opacity:1" fill="#c44932" d="M 354.5,152.5 C 357.506,155.867 358.84,159.867 358.5,164.5C 356.999,165.752 355.332,166.752 353.5,167.5C 353.968,163.058 352.968,159.058 350.5,155.5C 351.795,154.512 353.128,153.512 354.5,152.5 Z"/></g>
<g><path style="opacity:1" fill="#eee8dd" d="M 280.5,154.5 C 281.497,154.47 282.164,154.97 282.5,156C 283.247,159.735 284.247,163.401 285.5,167C 283.318,171.559 280.318,175.392 276.5,178.5C 275.29,178.068 274.29,177.401 273.5,176.5C 274.649,176.209 275.316,175.376 275.5,174C 274.308,170.593 273.641,167.093 273.5,163.5C 276.556,161.051 278.889,158.051 280.5,154.5 Z"/></g>
<g><path style="opacity:1" fill="#f0eadf" d="M 391.5,154.5 C 400.306,154.464 402.639,158.297 398.5,166C 390.735,168.575 387.568,165.742 389,157.5C 390.045,156.627 390.878,155.627 391.5,154.5 Z"/></g>
<g><path style="opacity:1" fill="#449380" d="M 280.5,150.5 C 281.686,151.705 281.686,153.039 280.5,154.5C 278.889,158.051 276.556,161.051 273.5,163.5C 272.662,163.158 272.328,162.492 272.5,161.5C 275.908,158.417 278.575,154.751 280.5,150.5 Z"/></g>
<g><path style="opacity:1" fill="#f0e8dd" d="M 350.5,155.5 C 352.968,159.058 353.968,163.058 353.5,167.5C 345.891,171.395 342.391,169.061 343,160.5C 345.099,158.203 347.599,156.536 350.5,155.5 Z"/></g>
<g><path style="opacity:1" fill="#e5d7c8" d="M 279.5,148.5 C 280.338,148.842 280.672,149.508 280.5,150.5C 278.575,154.751 275.908,158.417 272.5,161.5C 272.167,160.833 271.833,160.167 271.5,159.5C 275.387,156.728 278.054,153.061 279.5,148.5 Z"/></g>
<g><path style="opacity:1" fill="#f2e9de" d="M 309.5,157.5 C 310.627,162.292 313.293,165.959 317.5,168.5C 315.243,172.683 313.243,177.016 311.5,181.5C 311.167,182.167 310.833,182.833 310.5,183.5C 306.854,181.518 303.854,178.851 301.5,175.5C 303.656,169.196 306.322,163.196 309.5,157.5 Z"/></g>
<g><path style="opacity:1" fill="#c34630" d="M 251.5,163.5 C 252.5,163.833 253.167,164.5 253.5,165.5C 252.197,169.382 251.53,173.382 251.5,177.5C 249.973,177.573 248.973,176.906 248.5,175.5C 248.034,171.018 249.034,167.018 251.5,163.5 Z"/></g>
<g><path style="opacity:1" fill="#3ea391" d="M 318.5,166.5 C 323.813,165.115 326.313,167.115 326,172.5C 329.333,174.5 332.667,176.5 336,178.5C 334.678,180.581 333.845,183.081 333.5,186C 333.494,188.3 333.994,190.466 335,192.5C 336.722,192.038 338.555,191.872 340.5,192C 337.887,190.929 337.887,190.095 340.5,189.5C 344.505,190.498 347.839,192.498 350.5,195.5C 349.895,197.481 348.895,197.815 347.5,196.5C 345.115,192.524 342.782,192.524 340.5,196.5C 338.249,195.305 335.915,194.305 333.5,193.5C 332.25,193.423 331.417,192.756 331,191.5C 330.503,188.854 330.336,186.187 330.5,183.5C 327.62,183.033 325.287,183.866 323.5,186C 325.185,190.681 325.852,195.515 325.5,200.5C 318.263,200.018 311.263,201.018 304.5,203.5C 305.677,198.457 307.011,193.457 308.5,188.5C 309.931,187.22 310.598,185.553 310.5,183.5C 310.833,182.833 311.167,182.167 311.5,181.5C 314.323,181.975 316.323,180.975 317.5,178.5C 318.362,174.547 318.695,170.547 318.5,166.5 Z"/></g>
<g><path style="opacity:1" fill="#ded6c7" d="M 251.5,163.5 C 249.034,167.018 248.034,171.018 248.5,175.5C 247.833,175.5 247.167,175.5 246.5,175.5C 246.589,170.554 247.755,165.887 250,161.5C 250.717,162.044 251.217,162.711 251.5,163.5 Z"/></g>
<g><path style="opacity:1" fill="#85c8be" d="M 318.5,166.5 C 318.695,170.547 318.362,174.547 317.5,178.5C 316.323,180.975 314.323,181.975 311.5,181.5C 313.243,177.016 315.243,172.683 317.5,168.5C 317.328,167.508 317.662,166.842 318.5,166.5 Z"/></g>
<g><path style="opacity:1" fill="#e6decd" d="M 257.5,173.5 C 257.262,175.404 256.262,176.738 254.5,177.5C 254.28,174.6 254.946,171.933 256.5,169.5C 257.429,170.689 257.762,172.022 257.5,173.5 Z"/></g>
<g><path style="opacity:1" fill="#f5a831" d="M 257.5,173.5 C 263.026,173.643 268.36,174.643 273.5,176.5C 274.29,177.401 275.29,178.068 276.5,178.5C 276.5,179.167 276.5,179.833 276.5,180.5C 276.5,180.833 276.5,181.167 276.5,181.5C 276.232,183.099 276.566,184.432 277.5,185.5C 277.5,186.167 277.5,186.833 277.5,187.5C 277.5,187.833 277.5,188.167 277.5,188.5C 278.907,192.683 279.574,197.016 279.5,201.5C 277.473,201.338 275.473,201.505 273.5,202C 272.874,202.75 272.374,203.584 272,204.5C 269.119,200.317 265.286,198.15 260.5,198C 259.809,199.067 259.309,200.234 259,201.5C 256.669,197.971 253.503,195.971 249.5,195.5C 249.649,196.552 249.483,197.552 249,198.5C 246.429,194.042 242.762,192.375 238,193.5C 237.667,194.833 237.333,196.167 237,197.5C 233.441,195.136 229.608,193.469 225.5,192.5C 225.5,192.167 225.5,191.833 225.5,191.5C 230.765,183.903 237.765,178.57 246.5,175.5C 247.167,175.5 247.833,175.5 248.5,175.5C 248.973,176.906 249.973,177.573 251.5,177.5C 251.833,177.5 252.167,177.5 252.5,177.5C 253.167,177.5 253.833,177.5 254.5,177.5C 256.262,176.738 257.262,175.404 257.5,173.5 Z"/></g>
<g><path style="opacity:1" fill="#c54e34" d="M 285.5,172.5 C 286.931,173.78 287.598,175.447 287.5,177.5C 284.455,180.547 281.122,183.213 277.5,185.5C 276.566,184.432 276.232,183.099 276.5,181.5C 280.5,179.5 283.5,176.5 285.5,172.5 Z"/></g>
<g><path style="opacity:1" fill="#f1eadf" d="M 383.5,174.5 C 383.5,178.167 383.5,181.833 383.5,185.5C 382.85,185.804 382.183,186.137 381.5,186.5C 378.557,185.756 375.557,185.256 372.5,185C 369.352,181.929 366.019,179.096 362.5,176.5C 369.277,173.421 376.277,172.754 383.5,174.5 Z"/></g>
<g><path style="opacity:1" fill="#c1b9a7" d="M 253.5,165.5 C 254.097,165.735 254.43,166.235 254.5,167C 253.786,170.506 253.119,174.006 252.5,177.5C 252.167,177.5 251.833,177.5 251.5,177.5C 251.53,173.382 252.197,169.382 253.5,165.5 Z"/></g>
<g><path style="opacity:1" fill="#368e7b" d="M 383.5,174.5 C 384.496,174.414 385.329,174.748 386,175.5C 386.733,179.972 386.233,184.305 384.5,188.5C 383.614,187.675 383.281,186.675 383.5,185.5C 383.5,181.833 383.5,178.167 383.5,174.5 Z"/></g>
<g><path style="opacity:1" fill="#dac5b4" d="M 285.5,172.5 C 283.5,176.5 280.5,179.5 276.5,181.5C 276.5,181.167 276.5,180.833 276.5,180.5C 279.5,177.833 282.5,175.167 285.5,172.5 Z"/></g>
<g><path style="opacity:1" fill="#c34831" d="M 301.5,175.5 C 303.854,178.851 306.854,181.518 310.5,183.5C 310.598,185.553 309.931,187.22 308.5,188.5C 304.854,186.518 301.854,183.851 299.5,180.5C 299.402,178.447 300.069,176.78 301.5,175.5 Z"/></g>
<g><path style="opacity:1" fill="#f0e9de" d="M 396.5,200.5 C 392.881,201.244 389.215,201.577 385.5,201.5C 385.082,200.778 384.416,200.278 383.5,200C 387.76,193.142 390.26,185.642 391,177.5C 398.674,183.865 400.508,191.531 396.5,200.5 Z"/></g>
<g><path style="opacity:1" fill="#eaddcf" d="M 287.5,177.5 C 285.188,181.812 281.855,185.145 277.5,187.5C 277.5,186.833 277.5,186.167 277.5,185.5C 281.122,183.213 284.455,180.547 287.5,177.5 Z"/></g>
<g><path style="opacity:1" fill="#378f7b" d="M 365.5,187.5 C 362.308,184.405 358.641,182.072 354.5,180.5C 354.811,179.522 355.478,178.855 356.5,178.5C 361.091,179.956 364.758,182.623 367.5,186.5C 367.043,187.298 366.376,187.631 365.5,187.5 Z"/></g>
<g><path style="opacity:1" fill="#f1eadf" d="M 419.5,179.5 C 427.562,179.232 429.562,182.566 425.5,189.5C 420.385,191.727 417.385,190.06 416.5,184.5C 417.092,182.577 418.092,180.911 419.5,179.5 Z"/></g>
<g><path style="opacity:1" fill="#f0eadf" d="M 354.5,180.5 C 358.641,182.072 362.308,184.405 365.5,187.5C 360.698,190.403 355.698,193.07 350.5,195.5C 347.839,192.498 344.505,190.498 340.5,189.5C 344.479,185.506 349.145,182.506 354.5,180.5 Z"/></g>
<g><path style="opacity:1" fill="#f2e9dd" d="M 299.5,180.5 C 301.854,183.851 304.854,186.518 308.5,188.5C 307.011,193.457 305.677,198.457 304.5,203.5C 303.609,204.11 302.609,204.443 301.5,204.5C 299.708,204.366 298.042,204.699 296.5,205.5C 295.136,203.809 293.803,202.142 292.5,200.5C 293.234,199.292 293.567,197.959 293.5,196.5C 294.978,190.894 296.978,185.561 299.5,180.5 Z"/></g>
<g><path style="opacity:1" fill="#7fc8be" d="M 333.5,193.5 C 330.861,195.473 328.527,197.806 326.5,200.5C 326.167,200.5 325.833,200.5 325.5,200.5C 325.852,195.515 325.185,190.681 323.5,186C 325.287,183.866 327.62,183.033 330.5,183.5C 330.336,186.187 330.503,188.854 331,191.5C 331.417,192.756 332.25,193.423 333.5,193.5 Z"/></g>
<g><path style="opacity:1" fill="#f2ebe0" d="M 176.5,184.5 C 186.818,184.322 189.151,188.489 183.5,197C 177.648,199.04 174.315,197.04 173.5,191C 173.84,188.489 174.84,186.322 176.5,184.5 Z"/></g>
<g><path style="opacity:1" fill="#fdeed6" d="M 290.5,191.5 C 289.876,191.917 289.543,192.584 289.5,193.5C 290.139,196.475 290.639,199.475 291,202.5C 291.383,203.056 291.883,203.389 292.5,203.5C 293.688,204.364 294.855,205.364 296,206.5C 296.399,206.272 296.565,205.938 296.5,205.5C 298.042,204.699 299.708,204.366 301.5,204.5C 303.208,206.216 304.542,208.216 305.5,210.5C 308.535,208.699 311.869,208.032 315.5,208.5C 315.5,209.5 315.5,210.5 315.5,211.5C 318.5,211.5 321.5,211.5 324.5,211.5C 323.765,215.757 325.265,216.757 329,214.5C 331.41,214.482 333.577,215.149 335.5,216.5C 335.422,219.487 336.589,220.153 339,218.5C 342.395,219.062 344.229,221.062 344.5,224.5C 349.025,225.352 351.358,228.019 351.5,232.5C 350.325,232.281 349.325,232.614 348.5,233.5C 351.04,236.039 351.874,239.039 351,242.5C 350,243.833 349,243.833 348,242.5C 347.651,247.534 345.485,251.534 341.5,254.5C 340.549,253.674 339.549,253.508 338.5,254C 336.451,257.929 333.451,259.096 329.5,257.5C 329.631,256.761 329.464,256.094 329,255.5C 326.16,258.371 323.826,258.037 322,254.5C 319.289,255.926 316.789,255.592 314.5,253.5C 312.232,254.544 309.899,254.711 307.5,254C 303.052,251.964 298.552,250.13 294,248.5C 293.326,249.578 292.326,250.245 291,250.5C 288.908,250.121 286.908,249.454 285,248.5C 282.88,249.459 280.713,249.626 278.5,249C 275.431,247.154 272.098,246.154 268.5,246C 267.41,243.03 265.744,242.697 263.5,245C 260.833,245.667 258.167,245.667 255.5,245C 254.23,244.1 253.23,242.934 252.5,241.5C 248.874,243.971 244.874,244.971 240.5,244.5C 240.649,243.448 240.483,242.448 240,241.5C 235.795,244.821 232.628,244.154 230.5,239.5C 226.03,240.899 221.696,240.566 217.5,238.5C 214.548,237.641 212.715,235.641 212,232.5C 211.035,234.26 209.868,234.594 208.5,233.5C 207.167,230.5 207.167,227.5 208.5,224.5C 206.922,223.702 205.256,223.202 203.5,223C 202.249,218.81 203.582,215.477 207.5,213C 205.527,212.505 203.527,212.338 201.5,212.5C 201.081,209.675 202.081,207.509 204.5,206C 207.246,204.25 210.246,203.25 213.5,203C 210.638,201.214 209.972,198.881 211.5,196C 214.351,194.711 217.351,194.211 220.5,194.5C 221.458,194.953 222.292,195.619 223,196.5C 223.2,194.68 224.034,193.347 225.5,192.5C 229.608,193.469 233.441,195.136 237,197.5C 237.333,196.167 237.667,194.833 238,193.5C 242.762,192.375 246.429,194.042 249,198.5C 249.483,197.552 249.649,196.552 249.5,195.5C 253.503,195.971 256.669,197.971 259,201.5C 259.309,200.234 259.809,199.067 260.5,198C 265.286,198.15 269.119,200.317 272,204.5C 272.374,203.584 272.874,202.75 273.5,202C 275.473,201.505 277.473,201.338 279.5,201.5C 279.574,197.016 278.907,192.683 277.5,188.5C 281.886,187.634 285.386,185.301 288,181.5C 288.146,185.058 288.979,188.391 290.5,191.5 Z"/></g>
<g><path style="opacity:1" fill="#eeab4f" d="M 290.5,191.5 C 291.263,193.368 292.263,195.035 293.5,196.5C 293.567,197.959 293.234,199.292 292.5,200.5C 292.5,201.5 292.5,202.5 292.5,203.5C 291.883,203.389 291.383,203.056 291,202.5C 290.639,199.475 290.139,196.475 289.5,193.5C 289.543,192.584 289.876,191.917 290.5,191.5 Z"/></g>
<g><path style="opacity:1" fill="#e96952" d="M 347.5,196.5 C 346.865,199.493 346.699,202.493 347,205.5C 348.634,207.062 350.134,208.729 351.5,210.5C 351.768,212.099 351.434,213.432 350.5,214.5C 345.912,213.249 341.245,212.249 336.5,211.5C 336.371,213.216 336.038,214.883 335.5,216.5C 333.577,215.149 331.41,214.482 329,214.5C 325.265,216.757 323.765,215.757 324.5,211.5C 321.5,211.5 318.5,211.5 315.5,211.5C 315.5,210.5 315.5,209.5 315.5,208.5C 311.869,208.032 308.535,208.699 305.5,210.5C 304.542,208.216 303.208,206.216 301.5,204.5C 302.609,204.443 303.609,204.11 304.5,203.5C 311.263,201.018 318.263,200.018 325.5,200.5C 325.833,200.5 326.167,200.5 326.5,200.5C 328.885,201.917 331.385,203.25 334,204.5C 336.734,202.269 338.901,199.602 340.5,196.5C 342.782,192.524 345.115,192.524 347.5,196.5 Z"/></g>
<g><path style="opacity:1" fill="#f3e7db" d="M 333.5,193.5 C 335.915,194.305 338.249,195.305 340.5,196.5C 338.901,199.602 336.734,202.269 334,204.5C 331.385,203.25 328.885,201.917 326.5,200.5C 328.527,197.806 330.861,195.473 333.5,193.5 Z"/></g>
<g><path style="opacity:1" fill="#2c8c79" d="M 396.5,200.5 C 396.5,201.5 396.5,202.5 396.5,203.5C 391.456,203.827 386.456,203.494 381.5,202.5C 382.689,201.571 384.022,201.238 385.5,201.5C 389.215,201.577 392.881,201.244 396.5,200.5 Z"/></g>
<g><path style="opacity:1" fill="#ee7e64" d="M 292.5,200.5 C 293.803,202.142 295.136,203.809 296.5,205.5C 296.565,205.938 296.399,206.272 296,206.5C 294.855,205.364 293.688,204.364 292.5,203.5C 292.5,202.5 292.5,201.5 292.5,200.5 Z"/></g>
<g><path style="opacity:1" fill="#f1eadf" d="M 374.5,218.5 C 369.937,216.605 366.27,213.605 363.5,209.5C 367.835,208.614 372.168,207.281 376.5,205.5C 381.539,206.676 386.539,208.01 391.5,209.5C 386.832,214.334 381.166,217.334 374.5,218.5 Z"/></g>
<g><path style="opacity:1" fill="#ebe7dc" d="M 350.5,214.5 C 351.434,213.432 351.768,212.099 351.5,210.5C 352.473,209.016 353.807,208.516 355.5,209C 357.804,213.297 360.804,216.964 364.5,220C 358.476,221.385 353.81,219.552 350.5,214.5 Z"/></g>
<g><path style="opacity:1" fill="#358e7b" d="M 363.5,209.5 C 366.27,213.605 369.937,216.605 374.5,218.5C 372.228,219.764 369.895,219.598 367.5,218C 363.666,215.21 361.166,211.71 360,207.5C 361.113,208.305 362.279,208.972 363.5,209.5 Z"/></g>
<g><path style="opacity:1" fill="#eee9de" d="M 413.5,211.5 C 419.501,211.741 420.834,214.241 417.5,219C 411.202,219.495 409.868,216.995 413.5,211.5 Z"/></g>
<g><path style="opacity:1" fill="#ede9de" d="M 145.5,216.5 C 152.896,216.615 154.23,219.448 149.5,225C 145.663,226 143.663,224.5 143.5,220.5C 143.803,218.886 144.47,217.552 145.5,216.5 Z"/></g>
<g><path style="opacity:1" fill="#e7cdaf" d="M 217.5,238.5 C 221.696,240.566 226.03,240.899 230.5,239.5C 232.628,244.154 235.795,244.821 240,241.5C 240.483,242.448 240.649,243.448 240.5,244.5C 244.874,244.971 248.874,243.971 252.5,241.5C 253.23,242.934 254.23,244.1 255.5,245C 258.167,245.667 260.833,245.667 263.5,245C 265.744,242.697 267.41,243.03 268.5,246C 272.098,246.154 275.431,247.154 278.5,249C 280.713,249.626 282.88,249.459 285,248.5C 286.908,249.454 288.908,250.121 291,250.5C 292.326,250.245 293.326,249.578 294,248.5C 298.552,250.13 303.052,251.964 307.5,254C 309.899,254.711 312.232,254.544 314.5,253.5C 316.789,255.592 319.289,255.926 322,254.5C 323.826,258.037 326.16,258.371 329,255.5C 329.464,256.094 329.631,256.761 329.5,257.5C 325.97,265.925 323.136,274.591 321,283.5C 320.333,289.833 320.333,296.167 321,302.5C 321.516,305.034 322.683,307.2 324.5,309C 333.319,313.243 341.986,317.743 350.5,322.5C 331.638,343.285 325.971,367.285 333.5,394.5C 305.943,394.514 278.943,391.181 252.5,384.5C 253.496,384.586 254.329,384.252 255,383.5C 258.52,368.363 256.52,354.03 249,340.5C 239.877,326.203 227.377,316.203 211.5,310.5C 214.293,286.57 216.293,262.57 217.5,238.5 Z"/></g>
<g><path style="opacity:1" fill="#eee9de" d="M 396.5,244.5 C 403.803,245.267 405.136,248.433 400.5,254C 393.075,253.484 391.742,250.318 396.5,244.5 Z"/></g>
<g><path style="opacity:1" fill="#ede9de" d="M 190.5,246.5 C 195.984,246.481 197.65,248.981 195.5,254C 188.745,254.756 187.078,252.256 190.5,246.5 Z"/></g>
<g><path style="opacity:1" fill="#f2ebe0" d="M 357.5,249.5 C 365.818,249.987 367.485,253.487 362.5,260C 354.088,259.812 352.421,256.312 357.5,249.5 Z"/></g>
<g><path style="opacity:1" fill="#54b3a7" d="M 288.5,254.5 C 286.933,257.967 285.099,261.3 283,264.5C 282.667,262.833 282.333,261.167 282,259.5C 282.411,265.518 280.745,270.852 277,275.5C 276.156,271.789 275.156,268.123 274,264.5C 273.599,268.744 274.099,272.911 275.5,277C 274.633,279.896 273.633,282.729 272.5,285.5C 271.833,285.5 271.5,285.167 271.5,284.5C 271.666,280.326 271,276.326 269.5,272.5C 270.176,266.304 273.176,261.471 278.5,258C 281.561,255.965 284.895,254.799 288.5,254.5 Z"/></g>
<g><path style="opacity:1" fill="#56b3a6" d="M 289.5,255.5 C 290.222,255.918 290.722,256.584 291,257.5C 291.777,262.222 291.61,266.889 290.5,271.5C 291.325,272.386 292.325,272.719 293.5,272.5C 292.432,273.434 291.099,273.768 289.5,273.5C 288.824,277.187 287.324,280.52 285,283.5C 281.543,282.858 278.21,283.524 275,285.5C 274.316,284.216 274.483,283.049 275.5,282C 279.75,280.873 283.75,279.207 287.5,277C 284.577,277.193 281.744,278.026 279,279.5C 278.5,279.167 278,278.833 277.5,278.5C 278.899,272.938 282.232,269.104 287.5,267C 286.167,267 284.833,267 283.5,267C 285.64,263.219 287.64,259.385 289.5,255.5 Z"/></g>
<g><path style="opacity:1" fill="#57b3a6" d="M 256.5,273.5 C 257.602,277.473 258.935,281.473 260.5,285.5C 258.695,284.763 257.029,283.763 255.5,282.5C 254.333,279.167 253.167,275.833 252,272.5C 252,275.167 252,277.833 252,280.5C 250.48,277.618 249.147,274.618 248,271.5C 247.349,273.235 247.515,274.902 248.5,276.5C 247.998,277.521 247.332,277.688 246.5,277C 245.335,275.916 244.002,275.083 242.5,274.5C 241.611,271.721 240.444,269.055 239,266.5C 239,268.5 239,270.5 239,272.5C 237.29,271.055 235.456,270.222 233.5,270C 236.833,272.333 240.167,274.667 243.5,277C 240.167,277.333 236.833,277.667 233.5,278C 237.833,278.333 242.167,278.667 246.5,279C 249.833,281 253.167,283 256.5,285C 250.782,285.211 245.115,285.711 239.5,286.5C 238.817,286.137 238.15,285.804 237.5,285.5C 222.084,265.919 226.084,260.419 249.5,269C 251.862,270.511 254.195,272.011 256.5,273.5 Z"/></g>
<g><path style="opacity:1" fill="#efeadf" d="M 417.5,267.5 C 423.651,268.103 424.984,270.936 421.5,276C 416.502,277.33 414.336,275.496 415,270.5C 415.698,269.309 416.531,268.309 417.5,267.5 Z"/></g>
<g><path style="opacity:1" fill="#de5a44" d="M 269.5,272.5 C 271,276.326 271.666,280.326 271.5,284.5C 268.192,282.716 266.525,283.716 266.5,287.5C 265.167,287.5 263.833,287.5 262.5,287.5C 262.167,286.5 261.5,285.833 260.5,285.5C 258.935,281.473 257.602,277.473 256.5,273.5C 256.767,269.254 257.767,265.254 259.5,261.5C 263.594,264.589 266.928,268.255 269.5,272.5 Z"/></g>
<g><path style="opacity:1" fill="#359b88" d="M 288.5,254.5 C 289.167,254.5 289.5,254.833 289.5,255.5C 287.64,259.385 285.64,263.219 283.5,267C 284.833,267 286.167,267 287.5,267C 282.232,269.104 278.899,272.938 277.5,278.5C 278,278.833 278.5,279.167 279,279.5C 281.744,278.026 284.577,277.193 287.5,277C 283.75,279.207 279.75,280.873 275.5,282C 274.483,283.049 274.316,284.216 275,285.5C 278.21,283.524 281.543,282.858 285,283.5C 287.324,280.52 288.824,277.187 289.5,273.5C 291.099,273.768 292.432,273.434 293.5,272.5C 298.518,272.613 303.518,272.947 308.5,273.5C 305.995,281.34 300.995,287.007 293.5,290.5C 286.91,286.59 279.91,285.59 272.5,287.5C 272.5,286.833 272.5,286.167 272.5,285.5C 273.633,282.729 274.633,279.896 275.5,277C 274.099,272.911 273.599,268.744 274,264.5C 275.156,268.123 276.156,271.789 277,275.5C 280.745,270.852 282.411,265.518 282,259.5C 282.333,261.167 282.667,262.833 283,264.5C 285.099,261.3 286.933,257.967 288.5,254.5 Z"/></g>
<g><path style="opacity:1" fill="#f0c93a" d="M 271.5,284.5 C 271.5,285.167 271.833,285.5 272.5,285.5C 272.5,286.167 272.5,286.833 272.5,287.5C 273.238,290.731 273.238,293.731 272.5,296.5C 270.784,296.371 269.117,296.038 267.5,295.5C 266.318,293.9 264.985,293.567 263.5,294.5C 262.534,292.604 262.201,290.604 262.5,288.5C 262.5,288.167 262.5,287.833 262.5,287.5C 263.833,287.5 265.167,287.5 266.5,287.5C 266.525,283.716 268.192,282.716 271.5,284.5 Z"/></g>
<g><path style="opacity:1" fill="#efeadf" d="M 168.5,285.5 C 175.94,284.753 177.94,287.587 174.5,294C 167.188,294.871 165.188,292.038 168.5,285.5 Z"/></g>
<g><path style="opacity:1" fill="#399d8b" d="M 260.5,285.5 C 261.5,285.833 262.167,286.5 262.5,287.5C 262.5,287.833 262.5,288.167 262.5,288.5C 253.259,288.62 246.259,292.62 241.5,300.5C 235.579,300.038 230.579,297.705 226.5,293.5C 229.627,290.102 233.293,287.435 237.5,285.5C 238.15,285.804 238.817,286.137 239.5,286.5C 245.115,285.711 250.782,285.211 256.5,285C 253.167,283 249.833,281 246.5,279C 242.167,278.667 237.833,278.333 233.5,278C 236.833,277.667 240.167,277.333 243.5,277C 240.167,274.667 236.833,272.333 233.5,270C 235.456,270.222 237.29,271.055 239,272.5C 239,270.5 239,268.5 239,266.5C 240.444,269.055 241.611,271.721 242.5,274.5C 244.002,275.083 245.335,275.916 246.5,277C 247.332,277.688 247.998,277.521 248.5,276.5C 247.515,274.902 247.349,273.235 248,271.5C 249.147,274.618 250.48,277.618 252,280.5C 252,277.833 252,275.167 252,272.5C 253.167,275.833 254.333,279.167 255.5,282.5C 257.029,283.763 258.695,284.763 260.5,285.5 Z"/></g>
<g><path style="opacity:1" fill="#f2ebe0" d="M 369.5,286.5 C 377.885,285.716 381.051,289.383 379,297.5C 375.269,301.05 371.269,301.383 367,298.5C 364.523,293.669 365.356,289.669 369.5,286.5 Z"/></g>
<g><path style="opacity:1" fill="#eee9de" d="M 337.5,288.5 C 343.643,289.026 344.976,291.86 341.5,297C 336.504,297.664 334.67,295.498 336,290.5C 336.717,289.956 337.217,289.289 337.5,288.5 Z"/></g>
<g><path style="opacity:1" fill="#db5640" d="M 293.5,290.5 C 296.306,292.475 298.639,294.975 300.5,298C 295.199,300.868 289.533,302.035 283.5,301.5C 280.121,301.485 277.121,300.485 274.5,298.5C 273.5,298.167 272.833,297.5 272.5,296.5C 273.238,293.731 273.238,290.731 272.5,287.5C 279.91,285.59 286.91,286.59 293.5,290.5 Z"/></g>
<g><path style="opacity:1" fill="#db5943" d="M 262.5,288.5 C 262.201,290.604 262.534,292.604 263.5,294.5C 264.985,293.567 266.318,293.9 267.5,295.5C 264.489,300.174 260.155,302.507 254.5,302.5C 251.15,302.665 247.817,302.498 244.5,302C 243.263,301.768 242.263,301.268 241.5,300.5C 246.259,292.62 253.259,288.62 262.5,288.5 Z"/></g>
<g><path style="opacity:1" fill="#43a695" d="M 267.5,295.5 C 269.117,296.038 270.784,296.371 272.5,296.5C 272.833,297.5 273.5,298.167 274.5,298.5C 273.174,302.791 272.341,307.124 272,311.5C 273.266,308.534 274.433,305.534 275.5,302.5C 276.919,304.336 278.086,306.336 279,308.5C 279.052,313.199 278.552,317.866 277.5,322.5C 273.787,319.108 270.787,315.108 268.5,310.5C 263.576,317.296 256.909,320.963 248.5,321.5C 248.161,316.07 248.661,310.736 250,305.5C 251.409,304.219 252.909,303.219 254.5,302.5C 260.155,302.507 264.489,300.174 267.5,295.5 Z"/></g>
<g><path style="opacity:1" fill="#efeadf" d="M 195.5,305.5 C 201.488,305.664 202.821,308.164 199.5,313C 196.402,314.067 194.402,313.067 193.5,310C 193.519,308.167 194.185,306.667 195.5,305.5 Z"/></g>
<g><path style="opacity:1" fill="#f3957c" d="M 211.5,310.5 C 227.377,316.203 239.877,326.203 249,340.5C 256.52,354.03 258.52,368.363 255,383.5C 254.329,384.252 253.496,384.586 252.5,384.5C 240.571,382.2 229.571,377.7 219.5,371C 213.764,365.361 210.264,358.528 209,350.5C 208.333,341.5 208.333,332.5 209,323.5C 209.429,318.953 210.262,314.619 211.5,310.5 Z"/></g>
<g><path style="opacity:1" fill="#339c88" d="M 274.5,298.5 C 277.121,300.485 280.121,301.485 283.5,301.5C 284.952,302.302 286.618,302.802 288.5,303C 295.228,311.727 297.228,321.56 294.5,332.5C 287.749,330.96 282.082,327.626 277.5,322.5C 278.552,317.866 279.052,313.199 279,308.5C 278.086,306.336 276.919,304.336 275.5,302.5C 274.433,305.534 273.266,308.534 272,311.5C 272.341,307.124 273.174,302.791 274.5,298.5 Z"/></g>
<g><path style="opacity:1" fill="#efe9de" d="M 384.5,313.5 C 389.835,313.005 392.335,315.338 392,320.5C 389,323.167 386,323.167 383,320.5C 382.167,317.829 382.667,315.496 384.5,313.5 Z"/></g>
<g><path style="opacity:1" fill="#f1eadf" d="M 411.5,317.5 C 419.494,316.329 422.994,319.663 422,327.5C 417.884,332.249 413.551,332.582 409,328.5C 407.812,324.259 408.645,320.592 411.5,317.5 Z"/></g>
<g><path style="opacity:1" fill="#c64731" d="M 214.5,320.5 C 217.585,320.542 219.919,321.875 221.5,324.5C 217.929,325.544 215.596,324.211 214.5,320.5 Z"/></g>
<g><path style="opacity:1" fill="#f4957c" d="M 350.5,322.5 C 362.544,328.366 373.044,336.366 382,346.5C 394.229,365.405 390.062,379.238 369.5,388C 357.724,392.651 345.724,394.817 333.5,394.5C 325.971,367.285 331.638,343.285 350.5,322.5 Z"/></g>
<g><path style="opacity:1" fill="#f0eadf" d="M 163.5,327.5 C 169.488,327.664 170.821,330.164 167.5,335C 161.403,335.147 160.07,332.647 163.5,327.5 Z"/></g>
<g><path style="opacity:1" fill="#c5452f" d="M 223.5,326.5 C 226.069,327.396 228.069,329.062 229.5,331.5C 225.853,332.21 223.853,330.543 223.5,326.5 Z"/></g>
<g><path style="opacity:1" fill="#c64530" d="M 352.5,329.5 C 353.497,329.47 354.164,329.97 354.5,331C 353.527,333.12 352.194,334.953 350.5,336.5C 349.633,333.857 350.3,331.523 352.5,329.5 Z"/></g>
<g><path style="opacity:1" fill="#c74731" d="M 230.5,334.5 C 234.167,334.833 236.167,336.833 236.5,340.5C 233.545,339.545 231.545,337.545 230.5,334.5 Z"/></g>
<g><path style="opacity:1" fill="#c64530" d="M 346.5,338.5 C 349.01,340.896 348.677,343.229 345.5,345.5C 344.368,343.01 344.701,340.676 346.5,338.5 Z"/></g>
<g><path style="opacity:1" fill="#c64630" d="M 237.5,342.5 C 239.624,343.031 241.124,344.365 242,346.5C 242.399,348.944 241.566,349.61 239.5,348.5C 238.253,346.677 237.586,344.677 237.5,342.5 Z"/></g>
<g><path style="opacity:1" fill="#c84a33" d="M 341.5,348.5 C 342.995,348.415 343.995,349.081 344.5,350.5C 343.586,352.664 342.419,354.664 341,356.5C 340.308,355.975 339.808,355.308 339.5,354.5C 340.372,352.55 341.039,350.55 341.5,348.5 Z"/></g>
<g><path style="opacity:1" fill="#c64530" d="M 242.5,351.5 C 246.01,353.483 246.844,356.15 245,359.5C 243.269,357.138 242.435,354.471 242.5,351.5 Z"/></g>
<g><path style="opacity:1" fill="#c94c34" d="M 338.5,359.5 C 339.5,359.5 340.5,359.5 341.5,359.5C 341.565,362.471 340.731,365.138 339,367.5C 337.255,364.99 337.089,362.324 338.5,359.5 Z"/></g>
<g><path style="opacity:1" fill="#c64731" d="M 245.5,361.5 C 248.967,363.823 249.3,366.489 246.5,369.5C 245.52,366.914 245.187,364.247 245.5,361.5 Z"/></g>
<g><path style="opacity:1" fill="#f1eadf" d="M 410.5,362.5 C 415.006,361.527 417.172,363.194 417,367.5C 410.645,371.201 408.478,369.534 410.5,362.5 Z"/></g>
<g><path style="opacity:1" fill="#f0eadf" d="M 188.5,364.5 C 194.665,363.829 197.165,366.496 196,372.5C 192.667,376.5 189.333,376.5 186,372.5C 185.018,369.225 185.851,366.559 188.5,364.5 Z"/></g>
<g><path style="opacity:1" fill="#c5442e" d="M 337.5,370.5 C 338.496,370.414 339.329,370.748 340,371.5C 340.851,374.053 340.518,376.386 339,378.5C 337.625,376.063 337.125,373.397 337.5,370.5 Z"/></g>
<g><path style="opacity:1" fill="#c64630" d="M 338.5,381.5 C 339.496,381.414 340.329,381.748 341,382.5C 341.851,385.053 341.518,387.386 340,389.5C 338.625,387.063 338.125,384.397 338.5,381.5 Z"/></g>
<g><path style="opacity:1" fill="#efeadf" d="M 423.5,385.5 C 429.704,385.314 431.037,387.814 427.5,393C 421.95,392.635 420.617,390.135 423.5,385.5 Z"/></g>
<g><path style="opacity:1" fill="#ede9de" d="M 382.5,389.5 C 388.488,389.664 389.821,392.164 386.5,397C 380.412,397.084 379.079,394.584 382.5,389.5 Z"/></g>
<g><path style="opacity:1" fill="#f0eadf" d="M 222.5,395.5 C 229.985,394.829 233.152,398.163 232,405.5C 227.162,411.036 222.829,410.703 219,404.5C 217.98,400.553 219.147,397.553 222.5,395.5 Z"/></g>
<g><path style="opacity:1" fill="#f0eadf" d="M 266.5,396.5 C 274.828,397.069 276.495,400.569 271.5,407C 264.495,408.324 261.995,405.49 264,398.5C 264.995,397.934 265.828,397.267 266.5,396.5 Z"/></g>
<g><path style="opacity:1" fill="#f0eadf" d="M 319.5,405.5 C 325.488,405.664 326.821,408.164 323.5,413C 317.403,413.147 316.07,410.647 319.5,405.5 Z"/></g>
<g><path style="opacity:1" fill="#eee9de" d="M 163.5,409.5 C 169.704,409.314 171.037,411.814 167.5,417C 161.403,417.147 160.07,414.647 163.5,409.5 Z"/></g>
<g><path style="opacity:1" fill="#f2ebe0" d="M 283.5,419.5 C 291.885,418.716 295.051,422.383 293,430.5C 288.322,434.689 283.989,434.356 280,429.5C 279.333,427.5 279.333,425.5 280,423.5C 281.376,422.295 282.542,420.962 283.5,419.5 Z"/></g>
<g><path style="opacity:1" fill="#ede9de" d="M 354.5,419.5 C 360.704,419.314 362.037,421.814 358.5,427C 352.403,427.147 351.07,424.647 354.5,419.5 Z"/></g>
<g><path style="opacity:1" fill="#eee9de" d="M 407.5,425.5 C 413.356,425.854 415.523,428.854 414,434.5C 410.157,438.729 406.823,438.395 404,433.5C 402.78,429.707 403.947,427.04 407.5,425.5 Z"/></g>
<g><path style="opacity:1" fill="#eee9de" d="M 255.5,438.5 C 261.704,438.314 263.037,440.814 259.5,446C 253.403,446.147 252.07,443.647 255.5,438.5 Z"/></g>
<g><path style="opacity:1" fill="#f1eadf" d="M 202.5,440.5 C 212.809,439.625 215.809,443.792 211.5,453C 207.407,455.317 203.74,454.817 200.5,451.5C 198.906,447.396 199.573,443.729 202.5,440.5 Z"/></g>
<g><path style="opacity:1" fill="#ede9de" d="M 424.5,440.5 C 430.191,440.554 431.858,443.221 429.5,448.5C 421.249,449.917 419.582,447.251 424.5,440.5 Z"/></g>
<g><path style="opacity:0.969" fill="#4bafa1" d="M 5.5,426.5 C 20.241,438.772 37.241,444.772 56.5,444.5C 54.6081,448.233 52.9414,452.066 51.5,456C 36.0839,457.229 21.7505,453.896 8.5,446C 7,444.5 5.5,443 4,441.5C 4.32276,436.52 4.82276,431.52 5.5,426.5 Z"/></g>
<g><path style="opacity:0.965" fill="#4cb0a2" d="M 574.5,423.5 C 574.71,428.92 575.21,434.253 576,439.5C 567.379,448.226 556.879,453.393 544.5,455C 538.862,456.96 533.362,456.793 528,454.5C 527.125,449.748 524.959,445.748 521.5,442.5C 542.932,446.248 560.599,439.915 574.5,423.5 Z"/></g>
<g><path style="opacity:1" fill="#f1eadf" d="M 375.5,447.5 C 383.303,447.789 385.303,451.289 381.5,458C 376.308,459.872 373.308,458.205 372.5,453C 372.863,450.808 373.863,448.974 375.5,447.5 Z"/></g>
<g><path style="opacity:1" fill="#efeadf" d="M 242.5,464.5 C 248.989,464.156 250.989,466.99 248.5,473C 244.003,475.418 241.337,474.085 240.5,469C 240.519,467.167 241.185,465.667 242.5,464.5 Z"/></g>
<g><path style="opacity:1" fill="#eee9df" d="M 309.5,465.5 C 315.359,464.074 317.359,466.074 315.5,471.5C 309.129,473.796 307.129,471.796 309.5,465.5 Z"/></g>
<g><path style="opacity:1" fill="#f0eadf" d="M 172.5,470.5 C 178.191,470.548 179.857,473.215 177.5,478.5C 171.38,480.882 169.213,478.882 171,472.5C 171.717,471.956 172.217,471.289 172.5,470.5 Z"/></g>
<g><path style="opacity:0.974" fill="#4db1a4" d="M 424.5,482.5 C 424.666,486.846 424.499,491.179 424,495.5C 420.54,499.994 416.04,503.16 410.5,505C 388.805,511.291 366.805,514.791 344.5,515.5C 324.167,515.5 303.833,515.5 283.5,515.5C 261.658,514.731 239.658,513.898 217.5,513C 202.01,512.147 186.676,510.147 171.5,507C 159.328,503.834 154.328,496.001 156.5,483.5C 174.704,491.033 193.704,495.2 213.5,496C 233.663,496.121 253.83,495.954 274,495.5C 297.514,495.73 321.014,496.397 344.5,497.5C 372.283,498.247 398.95,493.247 424.5,482.5 Z"/></g>
</svg>
