<?xml version="1.0" encoding="UTF-8"?>
<!DOCTYPE svg PUBLIC "-//W3C//DTD SVG 1.1//EN" "http://www.w3.org/Graphics/SVG/1.1/DTD/svg11.dtd">
<svg xmlns="http://www.w3.org/2000/svg" version="1.1" width="480px" height="577px" style="shape-rendering:geometricPrecision; text-rendering:geometricPrecision; image-rendering:optimizeQuality; fill-rule:evenodd; clip-rule:evenodd" xmlns:xlink="http://www.w3.org/1999/xlink">
<g><path style="opacity:0.992" fill="#871950" d="M 249.5,-0.5 C 251.833,-0.5 254.167,-0.5 256.5,-0.5C 256.5,0.166667 256.833,0.5 257.5,0.5C 257.422,24.0054 257.755,47.5054 258.5,71C 258.538,78.0705 259.205,84.9038 260.5,91.5C 255.836,93.5699 251.17,93.9032 246.5,92.5C 247.163,90.5274 247.496,88.3608 247.5,86C 246.258,58.004 244.925,30.1707 243.5,2.5C 245.5,1.5 247.5,0.5 249.5,-0.5 Z"/></g>
<g><path style="opacity:0.994" fill="#871950" d="M 267.5,-0.5 C 269.167,-0.5 270.833,-0.5 272.5,-0.5C 272.5,0.166667 272.833,0.5 273.5,0.5C 273.868,30.0326 275.202,59.3659 277.5,88.5C 273.037,92.3271 268.037,93.3271 262.5,91.5C 263.09,61.6693 263.09,31.6693 262.5,1.5C 264.306,0.975875 265.972,0.309209 267.5,-0.5 Z"/></g>
<g><path style="opacity:0.994" fill="#871950" d="M 223.5,1.5 C 222.177,31.4591 222.51,61.4591 224.5,91.5C 224.5,91.8333 224.5,92.1667 224.5,92.5C 219.475,94.4114 214.808,93.7447 210.5,90.5C 209.817,90.8627 209.15,91.1961 208.5,91.5C 208.364,62.145 209.031,32.8117 210.5,3.5C 214.65,1.1031 218.983,0.436437 223.5,1.5 Z"/></g>
<g><path style="opacity:0.995" fill="#871950" d="M 239.5,1.5 C 239.848,31.5078 240.515,61.5078 241.5,91.5C 242.791,91.2627 243.791,91.596 244.5,92.5C 239.322,94.0855 233.988,94.7521 228.5,94.5C 228.5,94.1667 228.5,93.8333 228.5,93.5C 228.626,63.3459 228.626,33.0126 228.5,2.5C 232.12,0.418795 235.786,0.0854614 239.5,1.5 Z"/></g>
<g><path style="opacity:0.995" fill="#6e1141" d="M 273.5,0.5 C 275.284,0.892535 276.95,1.5592 278.5,2.5C 279.336,31.0133 280.336,59.68 281.5,88.5C 280.833,88.5 280.167,88.5 279.5,88.5C 278.833,88.5 278.167,88.5 277.5,88.5C 275.202,59.3659 273.868,30.0326 273.5,0.5 Z"/></g>
<g><path style="opacity:0.994" fill="#871950" d="M 289.5,0.5 C 289.654,29.0463 290.988,57.3797 293.5,85.5C 291.109,88.917 287.775,90.2503 283.5,89.5C 282.508,89.6716 281.842,89.3382 281.5,88.5C 280.336,59.68 279.336,31.0133 278.5,2.5C 278.918,1.77842 279.584,1.27842 280.5,1C 283.482,0.50204 286.482,0.335374 289.5,0.5 Z"/></g>
<g><path style="opacity:0.994" fill="#6e1141" d="M 289.5,0.5 C 291.169,1.88974 292.836,2.22308 294.5,1.5C 295.109,29.5133 296.109,57.5133 297.5,85.5C 296.167,85.5 294.833,85.5 293.5,85.5C 290.988,57.3797 289.654,29.0463 289.5,0.5 Z"/></g>
<g><path style="opacity:0.994" fill="#871950" d="M 188.5,1.5 C 185.946,29.7155 184.946,58.0489 185.5,86.5C 182.272,85.0193 178.939,84.0193 175.5,83.5C 176.383,57.2978 177.716,30.9644 179.5,4.5C 182.084,2.52751 185.084,1.52751 188.5,1.5 Z"/></g>
<g><path style="opacity:0.991" fill="#6e1141" d="M 188.5,1.5 C 190.553,1.40206 192.22,2.06873 193.5,3.5C 191.009,31.456 190.343,59.456 191.5,87.5C 190.167,87.5 188.833,87.5 187.5,87.5C 186.833,87.1667 186.167,86.8333 185.5,86.5C 184.946,58.0489 185.946,29.7155 188.5,1.5 Z"/></g>
<g><path style="opacity:0.997" fill="#871950" d="M 205.5,1.5 C 203.716,31.4395 203.05,61.4395 203.5,91.5C 198.345,89.2579 193.012,87.9246 187.5,87.5C 188.833,87.5 190.167,87.5 191.5,87.5C 190.343,59.456 191.009,31.456 193.5,3.5C 197.3,1.85681 201.3,1.19014 205.5,1.5 Z"/></g>
<g><path style="opacity:0.993" fill="#6e1141" d="M 205.5,1.5 C 207.553,1.40206 209.22,2.06873 210.5,3.5C 209.031,32.8117 208.364,62.145 208.5,91.5C 206.833,91.5 205.167,91.5 203.5,91.5C 203.05,61.4395 203.716,31.4395 205.5,1.5 Z"/></g>
<g><path style="opacity:0.993" fill="#6f1141" d="M 223.5,1.5 C 225.216,1.62867 226.883,1.962 228.5,2.5C 228.626,33.0126 228.626,63.3459 228.5,93.5C 227.167,92.8333 225.833,92.1667 224.5,91.5C 222.51,61.4591 222.177,31.4591 223.5,1.5 Z"/></g>
<g><path style="opacity:0.995" fill="#6f1141" d="M 239.5,1.5 C 240.833,1.83333 242.167,2.16667 243.5,2.5C 244.925,30.1707 246.258,58.004 247.5,86C 247.496,88.3608 247.163,90.5274 246.5,92.5C 245.833,92.5 245.167,92.5 244.5,92.5C 243.791,91.596 242.791,91.2627 241.5,91.5C 240.515,61.5078 239.848,31.5078 239.5,1.5 Z"/></g>
<g><path style="opacity:0.994" fill="#6e1141" d="M 257.5,0.5 C 259.042,1.30071 260.708,1.63404 262.5,1.5C 263.09,31.6693 263.09,61.6693 262.5,91.5C 261.833,91.5 261.167,91.5 260.5,91.5C 259.205,84.9038 258.538,78.0705 258.5,71C 257.755,47.5054 257.422,24.0054 257.5,0.5 Z"/></g>
<g><path style="opacity:0.996" fill="#871950" d="M 294.5,1.5 C 297.187,1.33591 299.854,1.50258 302.5,2C 303.416,2.27842 304.082,2.77842 304.5,3.5C 305.799,28.4867 306.799,53.4867 307.5,78.5C 306.309,83.7706 302.976,86.1039 297.5,85.5C 296.109,57.5133 295.109,29.5133 294.5,1.5 Z"/></g>
<g><path style="opacity:0.994" fill="#6e1141" d="M 304.5,3.5 C 306.042,4.30071 307.708,4.63404 309.5,4.5C 311.243,28.8007 312.243,53.134 312.5,77.5C 311.081,78.4511 309.415,78.7845 307.5,78.5C 306.799,53.4867 305.799,28.4867 304.5,3.5 Z"/></g>
<g><path style="opacity:0.968" fill="#881a50" d="M 174.5,4.5 C 171.537,29.4311 170.537,54.4311 171.5,79.5C 171.167,79.5 170.833,79.5 170.5,79.5C 169.292,78.7659 167.959,78.4326 166.5,78.5C 164.856,77.6836 163.69,76.3502 163,74.5C 161.536,68.5107 161.369,62.5107 162.5,56.5C 161.999,54.1643 160.999,52.1643 159.5,50.5C 159.154,47.3979 159.821,44.5645 161.5,42C 159.994,37.0585 160.328,32.2252 162.5,27.5C 160.417,19.4872 162.084,12.3205 167.5,6C 169.677,4.79777 172.011,4.29777 174.5,4.5 Z"/></g>
<g><path style="opacity:0.996" fill="#6f1141" d="M 174.5,4.5 C 176.167,4.5 177.833,4.5 179.5,4.5C 177.716,30.9644 176.383,57.2978 175.5,83.5C 173.167,83.1667 171.833,81.8333 171.5,79.5C 170.537,54.4311 171.537,29.4311 174.5,4.5 Z"/></g>
<g><path style="opacity:0.965" fill="#881a50" d="M 309.5,4.5 C 311.199,4.33982 312.866,4.50649 314.5,5C 317.359,8.24102 319.859,11.741 322,15.5C 322.728,18.2305 322.562,20.8971 321.5,23.5C 322.922,25.7875 323.589,28.2875 323.5,31C 323.38,38.5121 323.047,46.0121 322.5,53.5C 322.151,56.6417 321.984,59.975 322,63.5C 321.138,65.087 320.471,66.7536 320,68.5C 317.759,71.7791 315.259,74.7791 312.5,77.5C 312.243,53.134 311.243,28.8007 309.5,4.5 Z"/></g>
<g><path style="opacity:0.998" fill="#d42e30" d="M 159.5,50.5 C 160.999,52.1643 161.999,54.1643 162.5,56.5C 161.369,62.5107 161.536,68.5107 163,74.5C 163.69,76.3502 164.856,77.6836 166.5,78.5C 167.479,100.775 168.479,123.109 169.5,145.5C 164.166,148.967 163.166,153.467 166.5,159C 164.737,162.243 164.071,165.743 164.5,169.5C 160.817,172.185 157.817,175.518 155.5,179.5C 154.27,181.297 153.604,183.297 153.5,185.5C 152.275,190.29 151.608,195.29 151.5,200.5C 151.5,201.5 151.5,202.5 151.5,203.5C 151.5,205.167 151.5,206.833 151.5,208.5C 151.682,217.734 152.682,226.734 154.5,235.5C 154.753,239.04 155.419,242.373 156.5,245.5C 156.5,246.5 156.5,247.5 156.5,248.5C 157.833,252.167 159.167,255.833 160.5,259.5C 161.456,264.198 163.289,268.532 166,272.5C 169.925,276.41 173.925,276.41 178,272.5C 180.656,268.856 182.489,264.856 183.5,260.5C 185.336,255.659 187.003,250.659 188.5,245.5C 189.234,244.292 189.567,242.959 189.5,241.5C 190.64,238.632 191.64,235.632 192.5,232.5C 193.756,226.551 194.756,220.551 195.5,214.5C 196.225,210.605 196.891,206.605 197.5,202.5C 197.5,201.5 197.5,200.5 197.5,199.5C 197.656,195.236 196.989,191.236 195.5,187.5C 195.606,184.921 194.939,182.588 193.5,180.5C 190.904,173.577 185.904,169.577 178.5,168.5C 178.85,164.946 178.184,161.612 176.5,158.5C 178.117,156.368 178.617,154.035 178,151.5C 176.64,148.977 174.807,146.977 172.5,145.5C 171.719,123.504 171.052,101.504 170.5,79.5C 170.833,79.5 171.167,79.5 171.5,79.5C 171.833,81.8333 173.167,83.1667 175.5,83.5C 178.939,84.0193 182.272,85.0193 185.5,86.5C 186.167,86.8333 186.833,87.1667 187.5,87.5C 193.012,87.9246 198.345,89.2579 203.5,91.5C 205.167,91.5 206.833,91.5 208.5,91.5C 209.15,91.1961 209.817,90.8627 210.5,90.5C 214.808,93.7447 219.475,94.4114 224.5,92.5C 226.193,133.809 227.193,175.143 227.5,216.5C 222.587,211.311 217.753,211.311 213,216.5C 211.221,225.388 214.721,228.888 223.5,227C 224.705,225.624 226.038,224.458 227.5,223.5C 227.5,235.167 227.5,246.833 227.5,258.5C 222.525,261.117 220.858,265.117 222.5,270.5C 219.924,272.878 218.924,275.878 219.5,279.5C 216.256,280.463 213.256,281.796 210.5,283.5C 207.669,284.079 205.336,285.412 203.5,287.5C 202.29,287.932 201.29,288.599 200.5,289.5C 198.833,290.5 197.5,291.833 196.5,293.5C 193.044,297.302 190.377,301.635 188.5,306.5C 185.949,312.2 184.949,318.2 185.5,324.5C 185.875,326.698 186.542,328.698 187.5,330.5C 187.629,332.216 187.962,333.883 188.5,335.5C 191.168,341.672 195.168,346.838 200.5,351C 207.007,354.058 213.674,356.725 220.5,359C 223.463,360.961 226.129,363.294 228.5,366C 232.943,365.754 236.276,363.588 238.5,359.5C 239.71,359.068 240.71,358.401 241.5,357.5C 243.368,356.737 245.035,355.737 246.5,354.5C 253.222,352.456 258.556,348.456 262.5,342.5C 265.372,337.421 267.705,332.088 269.5,326.5C 269.674,324.139 270.007,321.806 270.5,319.5C 270.5,318.5 270.5,317.5 270.5,316.5C 270.44,313.659 269.774,310.993 268.5,308.5C 263.544,292.544 252.877,282.878 236.5,279.5C 235.5,273.846 235.334,268.179 236,262.5C 234.982,260.072 233.148,258.738 230.5,258.5C 230.591,203.823 229.924,149.156 228.5,94.5C 233.988,94.7521 239.322,94.0855 244.5,92.5C 245.167,92.5 245.833,92.5 246.5,92.5C 251.17,93.9032 255.836,93.5699 260.5,91.5C 261.167,91.5 261.833,91.5 262.5,91.5C 268.037,93.3271 273.037,92.3271 277.5,88.5C 278.167,88.5 278.833,88.5 279.5,88.5C 279.868,115.999 280.201,143.499 280.5,171C 280.499,185.849 279.833,200.349 278.5,214.5C 271.904,212.681 265.237,211.514 258.5,211C 256.522,214.933 256.022,219.1 257,223.5C 258.789,225.229 260.956,225.896 263.5,225.5C 257.864,232.509 256.031,240.509 258,249.5C 258.232,250.737 258.732,251.737 259.5,252.5C 260.471,254.483 261.471,256.483 262.5,258.5C 263.167,259.833 264.167,260.833 265.5,261.5C 266.833,263.5 268.5,265.167 270.5,266.5C 271.391,267.11 272.391,267.443 273.5,267.5C 282.124,272.06 290.124,271.06 297.5,264.5C 299.341,263.598 300.674,262.264 301.5,260.5C 303.083,258.337 304.416,256.004 305.5,253.5C 306.11,252.609 306.443,251.609 306.5,250.5C 307.219,248.236 307.552,245.903 307.5,243.5C 307.5,241.5 307.5,239.5 307.5,237.5C 313.865,238.488 317.531,235.822 318.5,229.5C 316.804,223.057 312.804,220.724 306.5,222.5C 307.511,218.888 307.678,215.221 307,211.5C 305.136,208.793 302.636,207.959 299.5,209C 294.177,210.609 288.844,212.109 283.5,213.5C 283.5,192.833 283.5,172.167 283.5,151.5C 290.49,154.437 294.823,152.27 296.5,145C 294.674,138.087 290.341,135.92 283.5,138.5C 283.5,122.167 283.5,105.833 283.5,89.5C 287.775,90.2503 291.109,88.917 293.5,85.5C 294.833,85.5 296.167,85.5 297.5,85.5C 302.976,86.1039 306.309,83.7706 307.5,78.5C 309.415,78.7845 311.081,78.4511 312.5,77.5C 315.259,74.7791 317.759,71.7791 320,68.5C 320.471,66.7536 321.138,65.087 322,63.5C 321.984,59.975 322.151,56.6417 322.5,53.5C 328.967,55.1001 335.3,57.1001 341.5,59.5C 339.086,126.466 338.086,193.466 338.5,260.5C 333.156,262.691 331.49,266.524 333.5,272C 331.775,274.886 331.108,278.052 331.5,281.5C 322.072,285.928 316.405,293.261 314.5,303.5C 313.586,306.728 313.253,310.061 313.5,313.5C 313.5,314.833 313.5,316.167 313.5,317.5C 313.884,322.01 314.551,326.343 315.5,330.5C 315.629,332.216 315.962,333.883 316.5,335.5C 316.263,336.791 316.596,337.791 317.5,338.5C 318.13,342.048 319.13,345.381 320.5,348.5C 320.833,349.833 321.167,351.167 321.5,352.5C 321.989,353.995 322.655,355.329 323.5,356.5C 323.98,359.443 324.98,362.11 326.5,364.5C 326.893,366.284 327.559,367.95 328.5,369.5C 329.11,370.391 329.443,371.391 329.5,372.5C 332.884,382.814 338.384,384.148 346,376.5C 351.163,368.512 354.663,359.845 356.5,350.5C 357.301,348.958 357.634,347.292 357.5,345.5C 358.167,342.167 358.833,338.833 359.5,335.5C 360.49,331.228 361.156,326.894 361.5,322.5C 361.5,321.167 361.5,319.833 361.5,318.5C 361.5,318.167 361.5,317.833 361.5,317.5C 362.156,316.378 362.489,315.045 362.5,313.5C 361.934,308.841 361.434,304.174 361,299.5C 360.626,297.509 359.793,295.842 358.5,294.5C 358.672,293.508 358.338,292.842 357.5,292.5C 357.262,290.596 356.262,289.262 354.5,288.5C 352.36,285.939 350.027,283.605 347.5,281.5C 346.954,276.1 346.787,270.766 347,265.5C 345.945,262.944 344.112,261.277 341.5,260.5C 341.292,197.081 342.292,133.747 344.5,70.5C 350.627,73.6057 354.961,71.9391 357.5,65.5C 373.841,71.9929 388.508,80.9929 401.5,92.5C 401.5,99.1667 401.5,105.833 401.5,112.5C 396.801,137.145 394.135,162.145 393.5,187.5C 391.887,188.692 390.22,189.692 388.5,190.5C 386.147,191.34 384.147,192.674 382.5,194.5C 380.833,195.5 379.5,196.833 378.5,198.5C 375.22,201.388 373.22,205.055 372.5,209.5C 371.577,213.064 371.244,216.731 371.5,220.5C 371.132,224.044 372.132,227.044 374.5,229.5C 375.167,230.5 375.833,231.5 376.5,232.5C 377.625,234.129 378.959,235.629 380.5,237C 384.056,238.608 387.389,240.441 390.5,242.5C 389.733,246.415 389.233,250.415 389,254.5C 388.186,291.529 388.352,328.529 389.5,365.5C 384.509,411.778 376.176,457.445 364.5,502.5C 362.194,502.007 359.861,501.674 357.5,501.5C 355.585,501.216 353.919,501.549 352.5,502.5C 348.208,503.416 343.874,503.416 339.5,502.5C 337.833,501.167 336.167,501.167 334.5,502.5C 330.136,505.374 325.47,506.374 320.5,505.5C 319.081,504.549 317.415,504.216 315.5,504.5C 310.458,505.181 305.458,506.181 300.5,507.5C 295.949,505.893 291.615,506.226 287.5,508.5C 285.833,508.5 284.167,508.5 282.5,508.5C 278.674,507 274.674,506.334 270.5,506.5C 268.784,506.629 267.117,506.962 265.5,507.5C 260.858,508.673 256.191,508.673 251.5,507.5C 249.883,506.962 248.216,506.629 246.5,506.5C 241.833,507.167 237.167,507.833 232.5,508.5C 230.784,508.371 229.117,508.038 227.5,507.5C 224.041,506.135 220.708,506.469 217.5,508.5C 216.5,508.5 215.5,508.5 214.5,508.5C 208.003,507.528 201.67,507.528 195.5,508.5C 195.167,508.5 194.833,508.5 194.5,508.5C 188.771,508.254 183.104,507.588 177.5,506.5C 176.833,506.5 176.167,506.5 175.5,506.5C 171.865,507.114 168.198,507.448 164.5,507.5C 162.95,506.559 161.284,505.893 159.5,505.5C 154.695,504.513 149.695,504.179 144.5,504.5C 144.167,504.5 143.833,504.5 143.5,504.5C 139.176,501.905 134.51,501.239 129.5,502.5C 128.167,502.5 126.833,502.5 125.5,502.5C 122.134,500.215 118.468,499.881 114.5,501.5C 105.094,459.393 97.7608,417.06 92.5,374.5C 93.2095,363.514 93.5428,352.514 93.5,341.5C 99.5299,342.132 102.863,339.465 103.5,333.5C 102.592,327.201 98.9254,324.534 92.5,325.5C 93.5776,309.869 93.5776,294.202 92.5,278.5C 93.609,278.557 94.609,278.89 95.5,279.5C 97.6351,281.071 99.9684,282.404 102.5,283.5C 104.379,284.341 106.379,284.675 108.5,284.5C 110.5,285.833 112.5,285.833 114.5,284.5C 116.5,284.5 118.5,284.5 120.5,284.5C 123.721,284.104 126.388,282.771 128.5,280.5C 131.427,279.243 133.761,277.243 135.5,274.5C 140.552,269.698 142.885,263.698 142.5,256.5C 142.941,249.564 140.941,243.564 136.5,238.5C 134.761,235.757 132.427,233.757 129.5,232.5C 128.101,231.11 126.434,230.11 124.5,229.5C 123.167,229.167 121.833,228.833 120.5,228.5C 120.848,224.422 120.181,220.588 118.5,217C 118.648,215.744 118.982,214.577 119.5,213.5C 128.076,216.788 132.242,213.788 132,204.5C 128.914,199.248 124.747,198.248 119.5,201.5C 118.304,203.145 117.304,204.811 116.5,206.5C 115.532,204.393 115.198,202.059 115.5,199.5C 115.074,154.834 114.741,110.168 114.5,65.5C 118.433,63.9668 122.433,62.6334 126.5,61.5C 128.638,70.324 133.471,72.324 141,67.5C 143.216,63.1322 142.716,59.1322 139.5,55.5C 146.062,53.424 152.729,51.7573 159.5,50.5 Z"/></g>
<g><path style="opacity:0.953" fill="#ef5253" d="M 139.5,55.5 C 142.716,59.1322 143.216,63.1322 141,67.5C 133.471,72.324 128.638,70.324 126.5,61.5C 130.591,59.1288 134.924,57.1288 139.5,55.5 Z"/></g>
<g><path style="opacity:0.999" fill="#753747" d="M 341.5,59.5 C 342.391,60.1098 343.391,60.4431 344.5,60.5C 344.5,63.8333 344.5,67.1667 344.5,70.5C 342.292,133.747 341.292,197.081 341.5,260.5C 340.5,260.5 339.5,260.5 338.5,260.5C 338.086,193.466 339.086,126.466 341.5,59.5 Z"/></g>
<g><path style="opacity:0.932" fill="#ee5254" d="M 344.5,60.5 C 348.755,62.3629 353.088,64.0296 357.5,65.5C 354.961,71.9391 350.627,73.6057 344.5,70.5C 344.5,67.1667 344.5,63.8333 344.5,60.5 Z"/></g>
<g><path style="opacity:0.995" fill="#fdf5f2" d="M 114.5,65.5 C 114.741,110.168 115.074,154.834 115.5,199.5C 115.06,201.844 114.06,203.844 112.5,205.5C 112.186,159.5 111.852,113.5 111.5,67.5C 112.29,66.5987 113.29,65.9321 114.5,65.5 Z"/></g>
<g><path style="opacity:0.994" fill="#d53030" d="M 111.5,67.5 C 111.852,113.5 112.186,159.5 112.5,205.5C 105.718,207.163 103.718,211.329 106.5,218C 105.766,221.501 105.1,225.001 104.5,228.5C 104.5,229.167 104.167,229.5 103.5,229.5C 101.5,230.5 99.5,231.5 97.5,232.5C 95.6675,233.248 94.0009,234.248 92.5,235.5C 92.5042,193.258 89.3376,151.258 83,109.5C 82.129,102.889 80.629,96.5559 78.5,90.5C 87.5701,80.1261 98.5701,72.4594 111.5,67.5 Z"/></g>
<g><path style="opacity:0.999" fill="#783747" d="M 166.5,78.5 C 167.959,78.4326 169.292,78.7659 170.5,79.5C 171.052,101.504 171.719,123.504 172.5,145.5C 171.5,145.5 170.5,145.5 169.5,145.5C 168.479,123.109 167.479,100.775 166.5,78.5 Z"/></g>
<g><path style="opacity:1" fill="#fdf0ec" d="M 279.5,88.5 C 280.167,88.5 280.833,88.5 281.5,88.5C 281.842,89.3382 282.508,89.6716 283.5,89.5C 283.5,105.833 283.5,122.167 283.5,138.5C 283.5,142.833 283.5,147.167 283.5,151.5C 283.5,172.167 283.5,192.833 283.5,213.5C 286.516,217.085 285.85,219.751 281.5,221.5C 277.643,220.414 276.643,218.08 278.5,214.5C 279.833,200.349 280.499,185.849 280.5,171C 280.201,143.499 279.868,115.999 279.5,88.5 Z"/></g>
<g><path style="opacity:0.99" fill="#a83d3c" d="M 78.5,90.5 C 80.629,96.5559 82.129,102.889 83,109.5C 89.3376,151.258 92.5042,193.258 92.5,235.5C 91.0256,236.436 90.0256,237.77 89.5,239.5C 80.8166,248.276 79.3166,258.276 85,269.5C 85.9487,271.093 87.1154,272.426 88.5,273.5C 89.8333,275.167 91.1667,276.833 92.5,278.5C 93.5776,294.202 93.5776,309.869 92.5,325.5C 93.3424,330.787 93.6757,336.12 93.5,341.5C 93.5428,352.514 93.2095,363.514 92.5,374.5C 91.5034,401.809 88.8367,428.809 84.5,455.5C 78.7535,454.866 75.4202,457.366 74.5,463C 74.6246,468.29 77.2913,471.123 82.5,471.5C 79.086,491.155 74.4194,510.489 68.5,529.5C 63.9692,527.864 59.6358,528.198 55.5,530.5C 53.9505,529.559 52.2838,528.893 50.5,528.5C 49.9032,527.861 49.0698,527.528 48,527.5C 46.3009,527.387 45.1342,528.053 44.5,529.5C 42.8828,530.038 41.2161,530.371 39.5,530.5C 36.8333,527.833 34.1667,527.833 31.5,530.5C 29.8333,531.833 28.1667,531.833 26.5,530.5C 23.9741,529.343 21.3074,529.343 18.5,530.5C 10.0663,497.704 4.89958,464.371 3,430.5C 2.22288,409.321 1.05622,388.321 -0.5,367.5C -0.5,359.5 -0.5,351.5 -0.5,343.5C 0.403972,344.209 0.737305,345.209 0.5,346.5C 9.63542,345.146 11.9688,340.313 7.5,332C 5.32253,330.798 2.9892,330.298 0.5,330.5C 2.54959,296.099 7.21626,262.099 14.5,228.5C 25.0314,230.803 28.8647,226.803 26,216.5C 24.005,214.253 21.505,213.253 18.5,213.5C 26.1733,183.134 37.1733,154.134 51.5,126.5C 52.0431,126.56 52.3764,126.893 52.5,127.5C 48.5806,167.714 46.2473,208.048 45.5,248.5C 44.1667,249.167 42.8333,249.833 41.5,250.5C 34.9692,249.222 28.4692,249.222 22,250.5C 21.5992,254.316 22.2658,257.983 24,261.5C 25.8425,263.834 28.0091,264.168 30.5,262.5C 26.3432,273.099 24.8432,284.099 26,295.5C 27.1782,315.069 32.5116,333.402 42,350.5C 47.9825,357.312 53.6492,356.979 59,349.5C 64.6815,337.441 68.1815,324.774 69.5,311.5C 75.9254,312.466 79.5921,309.799 80.5,303.5C 80.0151,298.016 77.0151,295.349 71.5,295.5C 71.8386,286.774 71.3386,278.107 70,269.5C 68.553,263.588 65.3863,258.921 60.5,255.5C 63.9609,254.07 67.6276,252.904 71.5,252C 74.0213,248.518 73.8547,245.018 71,241.5C 69.8176,239.643 68.151,238.643 66,238.5C 60.2419,240.713 54.9086,243.713 50,247.5C 50.0098,231.171 50.3432,214.838 51,198.5C 52.6251,176.165 54.1251,153.831 55.5,131.5C 62.2668,130.318 64.7668,126.318 63,119.5C 61.6032,117.93 60.1032,116.596 58.5,115.5C 63.6535,106.007 70.3202,97.6737 78.5,90.5 Z"/></g>
<g><path style="opacity:1" fill="#763747" d="M 224.5,91.5 C 225.833,92.1667 227.167,92.8333 228.5,93.5C 228.5,93.8333 228.5,94.1667 228.5,94.5C 229.924,149.156 230.591,203.823 230.5,258.5C 229.5,258.5 228.5,258.5 227.5,258.5C 227.5,246.833 227.5,235.167 227.5,223.5C 227.5,221.167 227.5,218.833 227.5,216.5C 227.193,175.143 226.193,133.809 224.5,92.5C 224.5,92.1667 224.5,91.8333 224.5,91.5 Z"/></g>
<g><path style="opacity:0.989" fill="#743747" d="M 401.5,92.5 C 403.833,92.8333 405.167,94.1667 405.5,96.5C 404.894,119.829 404.561,143.162 404.5,166.5C 403.5,166.5 402.5,166.5 401.5,166.5C 401.5,148.5 401.5,130.5 401.5,112.5C 401.5,105.833 401.5,99.1667 401.5,92.5 Z"/></g>
<g><path style="opacity:0.991" fill="#a83d3c" d="M 405.5,96.5 C 415.956,106.071 423.956,117.404 429.5,130.5C 426.697,133.204 425.863,136.537 427,140.5C 429.091,143.969 431.924,145.303 435.5,144.5C 445.054,165.326 452.554,186.992 458,209.5C 467.209,250.42 473.709,291.754 477.5,333.5C 467.967,333.241 464.801,337.574 468,346.5C 470.897,349.231 474.397,350.231 478.5,349.5C 478.173,359.015 478.506,368.348 479.5,377.5C 479.5,378.833 479.5,380.167 479.5,381.5C 478.833,395.833 478.167,410.167 477.5,424.5C 469.359,424.481 466.192,428.481 468,436.5C 470.141,439.321 472.975,440.654 476.5,440.5C 474.571,468.006 471.237,495.339 466.5,522.5C 465.167,522.5 463.833,522.5 462.5,522.5C 460.486,522.392 458.82,523.058 457.5,524.5C 454.031,523.3 450.698,523.3 447.5,524.5C 446.041,524.433 444.708,524.766 443.5,525.5C 440.103,526.494 436.77,526.16 433.5,524.5C 431.447,524.402 429.78,525.069 428.5,526.5C 425.771,527.53 423.104,527.53 420.5,526.5C 418.958,525.699 417.292,525.366 415.5,525.5C 413.833,525.5 412.167,525.5 410.5,525.5C 406.745,507.969 403.745,490.302 401.5,472.5C 410.99,471.022 413.323,466.189 408.5,458C 405.649,456.711 402.649,456.211 399.5,456.5C 395.776,426.113 392.443,395.78 389.5,365.5C 388.352,328.529 388.186,291.529 389,254.5C 389.233,250.415 389.733,246.415 390.5,242.5C 393.603,244.423 396.603,246.59 399.5,249C 401.167,249.667 402.833,249.667 404.5,249C 409.793,244.343 415.126,239.677 420.5,235C 422.765,233.242 424.432,231.075 425.5,228.5C 426.401,227.71 427.068,226.71 427.5,225.5C 428.15,223.565 428.483,221.565 428.5,219.5C 429.99,216.021 429.657,212.688 427.5,209.5C 428.442,204.351 426.776,200.018 422.5,196.5C 421.089,194.086 419.089,192.419 416.5,191.5C 415.486,190.326 414.153,189.66 412.5,189.5C 411.486,188.326 410.153,187.66 408.5,187.5C 408.322,182.961 408.655,178.461 409.5,174C 409.375,172.373 408.875,170.873 408,169.5C 406.482,168.837 405.315,167.837 404.5,166.5C 404.561,143.162 404.894,119.829 405.5,96.5 Z"/></g>
<g><path style="opacity:0.985" fill="#ee5254" d="M 58.5,115.5 C 60.1032,116.596 61.6032,117.93 63,119.5C 64.7668,126.318 62.2668,130.318 55.5,131.5C 56.3726,127.232 56.7059,122.898 56.5,118.5C 56.427,116.973 57.0937,115.973 58.5,115.5 Z"/></g>
<g><path style="opacity:1" fill="#b62226" d="M 401.5,112.5 C 401.5,130.5 401.5,148.5 401.5,166.5C 398.888,167.277 397.055,168.944 396,171.5C 396.824,176.503 396.657,181.503 395.5,186.5C 394.833,186.833 394.167,187.167 393.5,187.5C 394.135,162.145 396.801,137.145 401.5,112.5 Z"/></g>
<g><path style="opacity:0.99" fill="#753748" d="M 56.5,118.5 C 56.7059,122.898 56.3726,127.232 55.5,131.5C 54.1251,153.831 52.6251,176.165 51,198.5C 50.3432,214.838 50.0098,231.171 50,247.5C 54.9086,243.713 60.2419,240.713 66,238.5C 68.151,238.643 69.8176,239.643 71,241.5C 73.8547,245.018 74.0213,248.518 71.5,252C 67.6276,252.904 63.9609,254.07 60.5,255.5C 57.5,255.5 54.5,255.5 51.5,255.5C 51.5729,251.28 49.5729,248.946 45.5,248.5C 46.2473,208.048 48.5806,167.714 52.5,127.5C 52.3764,126.893 52.0431,126.56 51.5,126.5C 51.7014,122.87 53.368,120.203 56.5,118.5 Z"/></g>
<g><path style="opacity:1" fill="#ef5253" d="M 188.5,122.5 C 197.35,122.864 200.184,127.197 197,135.5C 192.337,139.753 188.003,139.42 184,134.5C 182.309,129.131 183.809,125.131 188.5,122.5 Z"/></g>
<g><path style="opacity:1" fill="#ef5254" d="M 98.5,128.5 C 106.665,127.175 110.498,130.509 110,138.5C 107.565,143.224 103.731,144.724 98.5,143C 93.232,138.171 93.232,133.337 98.5,128.5 Z"/></g>
<g><path style="opacity:1" fill="#ef5253" d="M 354.5,131.5 C 362.614,130.121 366.447,133.454 366,141.5C 362.196,147.377 357.529,148.044 352,143.5C 349.696,138.855 350.529,134.855 354.5,131.5 Z"/></g>
<g><path style="opacity:0.902" fill="#ed5254" d="M 429.5,130.5 C 432.054,134.941 434.054,139.608 435.5,144.5C 431.924,145.303 429.091,143.969 427,140.5C 425.863,136.537 426.697,133.204 429.5,130.5 Z"/></g>
<g><path style="opacity:1" fill="#ef5254" d="M 283.5,151.5 C 283.5,147.167 283.5,142.833 283.5,138.5C 290.341,135.92 294.674,138.087 296.5,145C 294.823,152.27 290.49,154.437 283.5,151.5 Z"/></g>
<g><path style="opacity:1" fill="#305f72" d="M 169.5,145.5 C 170.5,145.5 171.5,145.5 172.5,145.5C 174.807,146.977 176.64,148.977 178,151.5C 178.617,154.035 178.117,156.368 176.5,158.5C 178.184,161.612 178.85,164.946 178.5,168.5C 173.797,168.437 169.13,168.771 164.5,169.5C 164.071,165.743 164.737,162.243 166.5,159C 163.166,153.467 164.166,148.967 169.5,145.5 Z"/></g>
<g><path style="opacity:1" fill="#ce2a2b" d="M 168.5,149.5 C 174.623,149.417 176.29,151.917 173.5,157C 167.593,157.746 165.927,155.246 168.5,149.5 Z"/></g>
<g><path style="opacity:1" fill="#2b5f72" d="M 401.5,166.5 C 402.5,166.5 403.5,166.5 404.5,166.5C 405.315,167.837 406.482,168.837 408,169.5C 408.875,170.873 409.375,172.373 409.5,174C 408.655,178.461 408.322,182.961 408.5,187.5C 404.232,186.627 399.898,186.294 395.5,186.5C 396.657,181.503 396.824,176.503 396,171.5C 397.055,168.944 398.888,167.277 401.5,166.5 Z"/></g>
<g><path style="opacity:0.999" fill="#a1465f" d="M 178.5,168.5 C 185.904,169.577 190.904,173.577 193.5,180.5C 190.221,181.492 186.888,181.659 183.5,181C 180.732,179.285 177.732,178.118 174.5,177.5C 170.5,178.833 166.5,180.167 162.5,181.5C 160.159,180.818 157.826,180.151 155.5,179.5C 157.817,175.518 160.817,172.185 164.5,169.5C 169.13,168.771 173.797,168.437 178.5,168.5 Z"/></g>
<g><path style="opacity:1" fill="#b12829" d="M 400.5,170.5 C 405.068,170.083 406.568,172.083 405,176.5C 401.575,179.467 399.409,178.634 398.5,174C 398.978,172.697 399.645,171.531 400.5,170.5 Z"/></g>
<g><path style="opacity:1" fill="#723748" d="M 193.5,180.5 C 194.939,182.588 195.606,184.921 195.5,187.5C 193.039,190.331 189.873,192.331 186,193.5C 182.362,191.016 178.362,189.349 174,188.5C 169.043,190.81 164.043,193.144 159,195.5C 155.023,193.441 153.189,190.107 153.5,185.5C 153.604,183.297 154.27,181.297 155.5,179.5C 157.826,180.151 160.159,180.818 162.5,181.5C 166.5,180.167 170.5,178.833 174.5,177.5C 177.732,178.118 180.732,179.285 183.5,181C 186.888,181.659 190.221,181.492 193.5,180.5 Z"/></g>
<g><path style="opacity:1" fill="#f2f0f1" d="M 395.5,186.5 C 399.898,186.294 404.232,186.627 408.5,187.5C 410.153,187.66 411.486,188.326 412.5,189.5C 408.388,190.569 404.221,191.569 400,192.5C 396.286,191.131 392.453,190.464 388.5,190.5C 390.22,189.692 391.887,188.692 393.5,187.5C 394.167,187.167 394.833,186.833 395.5,186.5 Z"/></g>
<g><path style="opacity:0.999" fill="#a2475f" d="M 153.5,185.5 C 153.189,190.107 155.023,193.441 159,195.5C 164.043,193.144 169.043,190.81 174,188.5C 178.362,189.349 182.362,191.016 186,193.5C 189.873,192.331 193.039,190.331 195.5,187.5C 196.989,191.236 197.656,195.236 197.5,199.5C 182.203,201.625 166.869,201.959 151.5,200.5C 151.608,195.29 152.275,190.29 153.5,185.5 Z"/></g>
<g><path style="opacity:1" fill="#3b6e82" d="M 412.5,189.5 C 414.153,189.66 415.486,190.326 416.5,191.5C 411.247,192.529 406.08,193.863 401,195.5C 394.92,193.385 388.753,193.052 382.5,194.5C 384.147,192.674 386.147,191.34 388.5,190.5C 392.453,190.464 396.286,191.131 400,192.5C 404.221,191.569 408.388,190.569 412.5,189.5 Z"/></g>
<g><path style="opacity:1" fill="#ee5254" d="M 70.5,190.5 C 77.3038,189.221 81.3038,191.888 82.5,198.5C 82.1667,203.5 79.5,206.167 74.5,206.5C 68.0414,205.592 65.5414,201.926 67,195.5C 67.9973,193.677 69.1639,192.01 70.5,190.5 Z"/></g>
<g><path style="opacity:1" fill="#f6f4f5" d="M 416.5,191.5 C 419.089,192.419 421.089,194.086 422.5,196.5C 419.813,196.336 417.146,196.503 414.5,197C 408.335,201.121 402.002,201.454 395.5,198C 389.805,197.374 384.138,197.541 378.5,198.5C 379.5,196.833 380.833,195.5 382.5,194.5C 388.753,193.052 394.92,193.385 401,195.5C 406.08,193.863 411.247,192.529 416.5,191.5 Z"/></g>
<g><path style="opacity:1" fill="#743849" d="M 422.5,196.5 C 426.776,200.018 428.442,204.351 427.5,209.5C 426.258,208.957 424.925,208.623 423.5,208.5C 418.594,210.247 413.594,211.581 408.5,212.5C 402.999,211.744 397.666,210.411 392.5,208.5C 385.845,210.411 379.178,210.744 372.5,209.5C 373.22,205.055 375.22,201.388 378.5,198.5C 384.138,197.541 389.805,197.374 395.5,198C 402.002,201.454 408.335,201.121 414.5,197C 417.146,196.503 419.813,196.336 422.5,196.5 Z"/></g>
<g><path style="opacity:1" fill="#ef5254" d="M 119.5,213.5 C 119.312,210.794 118.312,208.461 116.5,206.5C 117.304,204.811 118.304,203.145 119.5,201.5C 124.747,198.248 128.914,199.248 132,204.5C 132.242,213.788 128.076,216.788 119.5,213.5 Z"/></g>
<g><path style="opacity:1" fill="#f9f2f2" d="M 197.5,199.5 C 197.5,200.5 197.5,201.5 197.5,202.5C 182.217,204.717 166.883,205.05 151.5,203.5C 151.5,202.5 151.5,201.5 151.5,200.5C 166.869,201.959 182.203,201.625 197.5,199.5 Z"/></g>
<g><path style="opacity:0.999" fill="#a14760" d="M 197.5,202.5 C 196.891,206.605 196.225,210.605 195.5,214.5C 195.565,214.062 195.399,213.728 195,213.5C 192.776,215.195 190.276,216.195 187.5,216.5C 183.813,215.57 180.313,214.236 177,212.5C 172.852,214.406 168.518,215.739 164,216.5C 162.033,216.458 160.199,215.958 158.5,215C 156.242,212.534 153.909,210.367 151.5,208.5C 151.5,206.833 151.5,205.167 151.5,203.5C 166.883,205.05 182.217,204.717 197.5,202.5 Z"/></g>
<g><path style="opacity:1" fill="#fbdecd" d="M 115.5,199.5 C 115.198,202.059 115.532,204.393 116.5,206.5C 118.312,208.461 119.312,210.794 119.5,213.5C 118.982,214.577 118.648,215.744 118.5,217C 120.181,220.588 120.848,224.422 120.5,228.5C 119.5,228.5 118.5,228.5 117.5,228.5C 115.167,228.5 112.833,228.5 110.5,228.5C 108.5,228.5 106.5,228.5 104.5,228.5C 105.1,225.001 105.766,221.501 106.5,218C 103.718,211.329 105.718,207.163 112.5,205.5C 114.06,203.844 115.06,201.844 115.5,199.5 Z"/></g>
<g><path style="opacity:1" fill="#723748" d="M 151.5,208.5 C 153.909,210.367 156.242,212.534 158.5,215C 160.199,215.958 162.033,216.458 164,216.5C 168.518,215.739 172.852,214.406 177,212.5C 180.313,214.236 183.813,215.57 187.5,216.5C 190.276,216.195 192.776,215.195 195,213.5C 195.399,213.728 195.565,214.062 195.5,214.5C 194.756,220.551 193.756,226.551 192.5,232.5C 187.774,235.234 183.107,235.067 178.5,232C 176.5,231.333 174.5,231.333 172.5,232C 168.885,234.629 165.052,236.796 161,238.5C 158.735,237.741 156.568,236.741 154.5,235.5C 152.682,226.734 151.682,217.734 151.5,208.5 Z"/></g>
<g><path style="opacity:0.999" fill="#d7557a" d="M 427.5,209.5 C 429.657,212.688 429.99,216.021 428.5,219.5C 427.423,218.982 426.256,218.648 425,218.5C 419.722,220.76 414.222,222.093 408.5,222.5C 403.09,221.919 397.757,220.919 392.5,219.5C 385.542,221.467 378.542,221.801 371.5,220.5C 371.244,216.731 371.577,213.064 372.5,209.5C 379.178,210.744 385.845,210.411 392.5,208.5C 397.666,210.411 402.999,211.744 408.5,212.5C 413.594,211.581 418.594,210.247 423.5,208.5C 424.925,208.623 426.258,208.957 427.5,209.5 Z"/></g>
<g><path style="opacity:1" fill="#d8302c" d="M 110.5,208.5 C 116.305,209.276 117.639,212.109 114.5,217C 109.504,217.664 107.67,215.498 109,210.5C 109.717,209.956 110.217,209.289 110.5,208.5 Z"/></g>
<g><path style="opacity:0.999" fill="#ef668c" d="M 306.5,222.5 C 303.794,222.425 301.127,222.092 298.5,221.5C 294.501,220.662 290.501,220.162 286.5,220C 291.301,223.799 295.801,227.966 300,232.5C 299.641,236.384 297.475,239.051 293.5,240.5C 292.186,239.687 291.019,238.687 290,237.5C 287.031,232.366 283.864,227.366 280.5,222.5C 277.096,227.633 273.93,232.966 271,238.5C 266.91,239.802 264.076,238.302 262.5,234C 264.782,230.714 267.449,227.714 270.5,225C 268.153,224.666 265.819,224.833 263.5,225.5C 260.956,225.896 258.789,225.229 257,223.5C 256.022,219.1 256.522,214.933 258.5,211C 265.237,211.514 271.904,212.681 278.5,214.5C 276.643,218.08 277.643,220.414 281.5,221.5C 285.85,219.751 286.516,217.085 283.5,213.5C 288.844,212.109 294.177,210.609 299.5,209C 302.636,207.959 305.136,208.793 307,211.5C 307.678,215.221 307.511,218.888 306.5,222.5 Z"/></g>
<g><path style="opacity:1" fill="#ef5254" d="M 227.5,216.5 C 227.5,218.833 227.5,221.167 227.5,223.5C 226.038,224.458 224.705,225.624 223.5,227C 214.721,228.888 211.221,225.388 213,216.5C 217.753,211.311 222.587,211.311 227.5,216.5 Z"/></g>
<g><path style="opacity:0.946" fill="#ef5254" d="M 18.5,213.5 C 21.505,213.253 24.005,214.253 26,216.5C 28.8647,226.803 25.0314,230.803 14.5,228.5C 15.3887,223.272 16.722,218.272 18.5,213.5 Z"/></g>
<g><path style="opacity:1" fill="#faf6f7" d="M 428.5,219.5 C 428.483,221.565 428.15,223.565 427.5,225.5C 423.486,225.334 419.486,225.501 415.5,226C 412.626,227.899 409.459,228.733 406,228.5C 401.032,227.623 396.032,226.956 391,226.5C 385.481,227.34 379.981,228.34 374.5,229.5C 372.132,227.044 371.132,224.044 371.5,220.5C 378.542,221.801 385.542,221.467 392.5,219.5C 397.757,220.919 403.09,221.919 408.5,222.5C 414.222,222.093 419.722,220.76 425,218.5C 426.256,218.648 427.423,218.982 428.5,219.5 Z"/></g>
<g><path style="opacity:1" fill="#a34760" d="M 298.5,221.5 C 303.051,225.932 306.051,231.265 307.5,237.5C 307.5,239.5 307.5,241.5 307.5,243.5C 292.076,249.585 276.076,252.585 259.5,252.5C 258.732,251.737 258.232,250.737 258,249.5C 256.031,240.509 257.864,232.509 263.5,225.5C 265.819,224.833 268.153,224.666 270.5,225C 267.449,227.714 264.782,230.714 262.5,234C 264.076,238.302 266.91,239.802 271,238.5C 273.93,232.966 277.096,227.633 280.5,222.5C 283.864,227.366 287.031,232.366 290,237.5C 291.019,238.687 292.186,239.687 293.5,240.5C 297.475,239.051 299.641,236.384 300,232.5C 295.801,227.966 291.301,223.799 286.5,220C 290.501,220.162 294.501,220.662 298.5,221.5 Z"/></g>
<g><path style="opacity:1" fill="#eb4e4c" d="M 298.5,221.5 C 301.127,222.092 303.794,222.425 306.5,222.5C 312.804,220.724 316.804,223.057 318.5,229.5C 317.531,235.822 313.865,238.488 307.5,237.5C 306.051,231.265 303.051,225.932 298.5,221.5 Z"/></g>
<g><path style="opacity:1" fill="#306a7f" d="M 427.5,225.5 C 427.068,226.71 426.401,227.71 425.5,228.5C 422.482,228.335 419.482,228.502 416.5,229C 413.134,230.566 409.634,231.733 406,232.5C 401.242,231.032 396.409,230.032 391.5,229.5C 386.367,229.879 381.367,230.879 376.5,232.5C 375.833,231.5 375.167,230.5 374.5,229.5C 379.981,228.34 385.481,227.34 391,226.5C 396.032,226.956 401.032,227.623 406,228.5C 409.459,228.733 412.626,227.899 415.5,226C 419.486,225.501 423.486,225.334 427.5,225.5 Z"/></g>
<g><path style="opacity:1" fill="#ef668c" d="M 104.5,228.5 C 106.5,228.5 108.5,228.5 110.5,228.5C 109.242,247.143 108.575,265.81 108.5,284.5C 106.379,284.675 104.379,284.341 102.5,283.5C 102.319,265.486 102.652,247.486 103.5,229.5C 104.167,229.5 104.5,229.167 104.5,228.5 Z"/></g>
<g><path style="opacity:1" fill="#a34760" d="M 110.5,228.5 C 112.833,228.5 115.167,228.5 117.5,228.5C 116.57,247.17 115.57,265.837 114.5,284.5C 112.5,285.833 110.5,285.833 108.5,284.5C 108.575,265.81 109.242,247.143 110.5,228.5 Z"/></g>
<g><path style="opacity:1" fill="#ed658c" d="M 117.5,228.5 C 118.5,228.5 119.5,228.5 120.5,228.5C 121.833,228.833 123.167,229.167 124.5,229.5C 123.52,247.871 122.186,266.204 120.5,284.5C 118.5,284.5 116.5,284.5 114.5,284.5C 115.57,265.837 116.57,247.17 117.5,228.5 Z"/></g>
<g><path style="opacity:1" fill="#fcfbfb" d="M 425.5,228.5 C 424.432,231.075 422.765,233.242 420.5,235C 415.126,239.677 409.793,244.343 404.5,249C 402.833,249.667 401.167,249.667 399.5,249C 396.603,246.59 393.603,244.423 390.5,242.5C 387.389,240.441 384.056,238.608 380.5,237C 378.959,235.629 377.625,234.129 376.5,232.5C 381.367,230.879 386.367,229.879 391.5,229.5C 396.409,230.032 401.242,231.032 406,232.5C 409.634,231.733 413.134,230.566 416.5,229C 419.482,228.502 422.482,228.335 425.5,228.5 Z"/></g>
<g><path style="opacity:1" fill="#a54861" d="M 103.5,229.5 C 102.652,247.486 102.319,265.486 102.5,283.5C 99.9684,282.404 97.6351,281.071 95.5,279.5C 95.2129,263.774 95.8796,248.108 97.5,232.5C 99.5,231.5 101.5,230.5 103.5,229.5 Z"/></g>
<g><path style="opacity:1" fill="#a44760" d="M 124.5,229.5 C 126.434,230.11 128.101,231.11 129.5,232.5C 128.654,248.484 128.321,264.484 128.5,280.5C 126.388,282.771 123.721,284.104 120.5,284.5C 122.186,266.204 123.52,247.871 124.5,229.5 Z"/></g>
<g><path style="opacity:0.999" fill="#a14760" d="M 192.5,232.5 C 191.64,235.632 190.64,238.632 189.5,241.5C 178.777,244.858 167.777,246.192 156.5,245.5C 155.419,242.373 154.753,239.04 154.5,235.5C 156.568,236.741 158.735,237.741 161,238.5C 165.052,236.796 168.885,234.629 172.5,232C 174.5,231.333 176.5,231.333 178.5,232C 183.107,235.067 187.774,235.234 192.5,232.5 Z"/></g>
<g><path style="opacity:1" fill="#ee658b" d="M 97.5,232.5 C 95.8796,248.108 95.2129,263.774 95.5,279.5C 94.609,278.89 93.609,278.557 92.5,278.5C 91.1667,276.833 89.8333,275.167 88.5,273.5C 88.3104,262.143 88.6437,250.81 89.5,239.5C 90.0256,237.77 91.0256,236.436 92.5,235.5C 94.0009,234.248 95.6675,233.248 97.5,232.5 Z"/></g>
<g><path style="opacity:1" fill="#ee658c" d="M 129.5,232.5 C 132.427,233.757 134.761,235.757 136.5,238.5C 135.691,250.482 135.358,262.482 135.5,274.5C 133.761,277.243 131.427,279.243 128.5,280.5C 128.321,264.484 128.654,248.484 129.5,232.5 Z"/></g>
<g><path style="opacity:1" fill="#a4465f" d="M 136.5,238.5 C 140.941,243.564 142.941,249.564 142.5,256.5C 142.885,263.698 140.552,269.698 135.5,274.5C 135.358,262.482 135.691,250.482 136.5,238.5 Z"/></g>
<g><path style="opacity:0.999" fill="#a2465e" d="M 89.5,239.5 C 88.6437,250.81 88.3104,262.143 88.5,273.5C 87.1154,272.426 85.9487,271.093 85,269.5C 79.3166,258.276 80.8166,248.276 89.5,239.5 Z"/></g>
<g><path style="opacity:0.999" fill="#f8f2f2" d="M 189.5,241.5 C 189.567,242.959 189.234,244.292 188.5,245.5C 177.946,247.626 167.28,248.626 156.5,248.5C 156.5,247.5 156.5,246.5 156.5,245.5C 167.777,246.192 178.777,244.858 189.5,241.5 Z"/></g>
<g><path style="opacity:0.999" fill="#d7567b" d="M 307.5,243.5 C 307.552,245.903 307.219,248.236 306.5,250.5C 292.202,255.105 277.536,257.772 262.5,258.5C 261.471,256.483 260.471,254.483 259.5,252.5C 276.076,252.585 292.076,249.585 307.5,243.5 Z"/></g>
<g><path style="opacity:0.999" fill="#a24860" d="M 188.5,245.5 C 187.003,250.659 185.336,255.659 183.5,260.5C 178.836,259.574 174.502,257.574 170.5,254.5C 167.381,256.726 164.048,258.393 160.5,259.5C 159.167,255.833 157.833,252.167 156.5,248.5C 167.28,248.626 177.946,247.626 188.5,245.5 Z"/></g>
<g><path style="opacity:1" fill="#f9f6f6" d="M 45.5,248.5 C 49.5729,248.946 51.5729,251.28 51.5,255.5C 51.5,255.833 51.5,256.167 51.5,256.5C 49.8869,257.692 48.2202,258.692 46.5,259.5C 45.8333,259.5 45.1667,259.5 44.5,259.5C 41.9238,257.112 40.9238,254.112 41.5,250.5C 42.8333,249.833 44.1667,249.167 45.5,248.5 Z"/></g>
<g><path style="opacity:0.999" fill="#743849" d="M 41.5,250.5 C 40.9238,254.112 41.9238,257.112 44.5,259.5C 43.1345,265.961 41.3012,272.294 39,278.5C 38.4387,279.022 37.772,279.355 37,279.5C 34.1667,278 32,275.833 30.5,273C 32.2794,268.302 34.1127,263.802 36,259.5C 34.2196,260.639 32.3863,261.639 30.5,262.5C 28.0091,264.168 25.8425,263.834 24,261.5C 22.2658,257.983 21.5992,254.316 22,250.5C 28.4692,249.222 34.9692,249.222 41.5,250.5 Z"/></g>
<g><path style="opacity:0.998" fill="#fcf2f3" d="M 306.5,250.5 C 306.443,251.609 306.11,252.609 305.5,253.5C 292.457,257.575 279.123,260.242 265.5,261.5C 264.167,260.833 263.167,259.833 262.5,258.5C 277.536,257.772 292.202,255.105 306.5,250.5 Z"/></g>
<g><path style="opacity:1" fill="#d95c7e" d="M 305.5,253.5 C 304.416,256.004 303.083,258.337 301.5,260.5C 291.103,262.841 280.77,264.841 270.5,266.5C 268.5,265.167 266.833,263.5 265.5,261.5C 279.123,260.242 292.457,257.575 305.5,253.5 Z"/></g>
<g><path style="opacity:1" fill="#f0678d" d="M 51.5,256.5 C 51.5,256.167 51.5,255.833 51.5,255.5C 54.5,255.5 57.5,255.5 60.5,255.5C 65.3863,258.921 68.553,263.588 70,269.5C 71.3386,278.107 71.8386,286.774 71.5,295.5C 70.774,300.816 70.1073,306.149 69.5,311.5C 68.1815,324.774 64.6815,337.441 59,349.5C 53.6492,356.979 47.9825,357.312 42,350.5C 32.5116,333.402 27.1782,315.069 26,295.5C 24.8432,284.099 26.3432,273.099 30.5,262.5C 32.3863,261.639 34.2196,260.639 36,259.5C 34.1127,263.802 32.2794,268.302 30.5,273C 32,275.833 34.1667,278 37,279.5C 37.772,279.355 38.4387,279.022 39,278.5C 41.3012,272.294 43.1345,265.961 44.5,259.5C 45.1667,259.5 45.8333,259.5 46.5,259.5C 49.5925,265.353 52.4258,271.353 55,277.5C 58.7199,280.215 61.3865,279.215 63,274.5C 63.6667,272.833 63.6667,271.167 63,269.5C 60.0696,264.261 56.2363,259.927 51.5,256.5 Z"/></g>
<g><path style="opacity:1" fill="#733748" d="M 183.5,260.5 C 182.489,264.856 180.656,268.856 178,272.5C 173.925,276.41 169.925,276.41 166,272.5C 163.289,268.532 161.456,264.198 160.5,259.5C 164.048,258.393 167.381,256.726 170.5,254.5C 174.502,257.574 178.836,259.574 183.5,260.5 Z"/></g>
<g><path style="opacity:0.999" fill="#76394a" d="M 51.5,256.5 C 56.2363,259.927 60.0696,264.261 63,269.5C 63.6667,271.167 63.6667,272.833 63,274.5C 61.3865,279.215 58.7199,280.215 55,277.5C 52.4258,271.353 49.5925,265.353 46.5,259.5C 48.2202,258.692 49.8869,257.692 51.5,256.5 Z"/></g>
<g><path style="opacity:1" fill="#316073" d="M 227.5,258.5 C 228.5,258.5 229.5,258.5 230.5,258.5C 233.148,258.738 234.982,260.072 236,262.5C 235.334,268.179 235.5,273.846 236.5,279.5C 230.833,279.5 225.167,279.5 219.5,279.5C 218.924,275.878 219.924,272.878 222.5,270.5C 220.858,265.117 222.525,261.117 227.5,258.5 Z"/></g>
<g><path style="opacity:1" fill="#fbdfce" d="M 338.5,260.5 C 339.5,260.5 340.5,260.5 341.5,260.5C 344.112,261.277 345.945,262.944 347,265.5C 346.787,270.766 346.954,276.1 347.5,281.5C 347.167,281.5 346.833,281.5 346.5,281.5C 345.5,281.5 344.5,281.5 343.5,281.5C 341.735,280.539 339.735,280.205 337.5,280.5C 335.435,280.517 333.435,280.85 331.5,281.5C 331.108,278.052 331.775,274.886 333.5,272C 331.49,266.524 333.156,262.691 338.5,260.5 Z"/></g>
<g><path style="opacity:0.999" fill="#ee5254" d="M 437.5,260.5 C 447.996,259.82 451.33,264.32 447.5,274C 442.06,277.911 437.56,277.078 434,271.5C 432.662,266.96 433.829,263.293 437.5,260.5 Z"/></g>
<g><path style="opacity:0.999" fill="#fbebec" d="M 301.5,260.5 C 300.674,262.264 299.341,263.598 297.5,264.5C 289.567,265.992 281.567,266.992 273.5,267.5C 272.391,267.443 271.391,267.11 270.5,266.5C 280.77,264.841 291.103,262.841 301.5,260.5 Z"/></g>
<g><path style="opacity:1" fill="#d32328" d="M 227.5,262.5 C 233.704,262.314 235.037,264.814 231.5,270C 224.193,270.541 222.86,268.041 227.5,262.5 Z"/></g>
<g><path style="opacity:1" fill="#d85779" d="M 297.5,264.5 C 290.124,271.06 282.124,272.06 273.5,267.5C 281.567,266.992 289.567,265.992 297.5,264.5 Z"/></g>
<g><path style="opacity:0.999" fill="#d7302c" d="M 338.5,263.5 C 343.708,263.369 345.375,265.702 343.5,270.5C 339.808,273.577 337.141,272.911 335.5,268.5C 336.092,266.577 337.092,264.911 338.5,263.5 Z"/></g>
<g><path style="opacity:0.999" fill="#fef8f9" d="M 44.5,279.5 C 53.4373,278.603 55.7706,282.103 51.5,290C 47.5431,292.385 44.3764,291.552 42,287.5C 41.0182,284.225 41.8515,281.559 44.5,279.5 Z"/></g>
<g><path style="opacity:1" fill="#f0688e" d="M 219.5,279.5 C 225.167,279.5 230.833,279.5 236.5,279.5C 252.877,282.878 263.544,292.544 268.5,308.5C 248.928,300.714 229.594,292.38 210.5,283.5C 213.256,281.796 216.256,280.463 219.5,279.5 Z"/></g>
<g><path style="opacity:1" fill="#faf6f6" d="M 337.5,280.5 C 339.735,280.205 341.735,280.539 343.5,281.5C 338.342,287.803 333.175,294.136 328,300.5C 323.594,305.411 318.76,309.745 313.5,313.5C 313.253,310.061 313.586,306.728 314.5,303.5C 323.167,296.833 330.833,289.167 337.5,280.5 Z"/></g>
<g><path style="opacity:1" fill="#f0688d" d="M 337.5,280.5 C 330.833,289.167 323.167,296.833 314.5,303.5C 316.405,293.261 322.072,285.928 331.5,281.5C 333.435,280.85 335.435,280.517 337.5,280.5 Z"/></g>
<g><path style="opacity:0.998" fill="#793d4e" d="M 343.5,281.5 C 344.5,281.5 345.5,281.5 346.5,281.5C 341.5,288.803 336,295.803 330,302.5C 324.929,308.076 319.429,313.076 313.5,317.5C 313.5,316.167 313.5,314.833 313.5,313.5C 318.76,309.745 323.594,305.411 328,300.5C 333.175,294.136 338.342,287.803 343.5,281.5 Z"/></g>
<g><path style="opacity:1" fill="#ef688e" d="M 346.5,281.5 C 346.833,281.5 347.167,281.5 347.5,281.5C 350.027,283.605 352.36,285.939 354.5,288.5C 342.935,302.902 330.101,316.235 316,328.5C 315.536,329.094 315.369,329.761 315.5,330.5C 314.551,326.343 313.884,322.01 313.5,317.5C 319.429,313.076 324.929,308.076 330,302.5C 336,295.803 341.5,288.803 346.5,281.5 Z"/></g>
<g><path style="opacity:1" fill="#fbf9fa" d="M 210.5,283.5 C 229.594,292.38 248.928,300.714 268.5,308.5C 269.774,310.993 270.44,313.659 270.5,316.5C 247.59,308.213 225.257,298.546 203.5,287.5C 205.336,285.412 207.669,284.079 210.5,283.5 Z"/></g>
<g><path style="opacity:1" fill="#ee5153" d="M 165.5,284.5 C 175.227,284.301 178.227,288.634 174.5,297.5C 168.862,301.967 164.362,300.967 161,294.5C 160.438,290.232 161.938,286.898 165.5,284.5 Z"/></g>
<g><path style="opacity:1" fill="#30697e" d="M 203.5,287.5 C 225.257,298.546 247.59,308.213 270.5,316.5C 270.5,317.5 270.5,318.5 270.5,319.5C 246.477,311.156 223.143,301.156 200.5,289.5C 201.29,288.599 202.29,287.932 203.5,287.5 Z"/></g>
<g><path style="opacity:0.999" fill="#f9f5f5" d="M 354.5,288.5 C 356.262,289.262 357.262,290.596 357.5,292.5C 350.865,299.975 344.365,307.642 338,315.5C 331.264,322.739 324.098,329.406 316.5,335.5C 315.962,333.883 315.629,332.216 315.5,330.5C 315.369,329.761 315.536,329.094 316,328.5C 330.101,316.235 342.935,302.902 354.5,288.5 Z"/></g>
<g><path style="opacity:1" fill="#fbf9fa" d="M 200.5,289.5 C 223.143,301.156 246.477,311.156 270.5,319.5C 270.007,321.806 269.674,324.139 269.5,326.5C 259.885,323.864 250.552,320.364 241.5,316C 226.447,308.473 211.447,300.973 196.5,293.5C 197.5,291.833 198.833,290.5 200.5,289.5 Z"/></g>
<g><path style="opacity:1" fill="#f0678d" d="M 196.5,293.5 C 211.447,300.973 226.447,308.473 241.5,316C 250.552,320.364 259.885,323.864 269.5,326.5C 267.705,332.088 265.372,337.421 262.5,342.5C 236.761,332.63 212.094,320.63 188.5,306.5C 190.377,301.635 193.044,297.302 196.5,293.5 Z"/></g>
<g><path style="opacity:0.997" fill="#783d4d" d="M 357.5,292.5 C 358.338,292.842 358.672,293.508 358.5,294.5C 346.93,311.072 333.263,325.739 317.5,338.5C 316.596,337.791 316.263,336.791 316.5,335.5C 324.098,329.406 331.264,322.739 338,315.5C 344.365,307.642 350.865,299.975 357.5,292.5 Z"/></g>
<g><path style="opacity:0.999" fill="#fef9fa" d="M 44.5,295.5 C 54.2156,295.946 55.8823,299.779 49.5,307C 42.8336,307.996 40.3336,305.163 42,298.5C 43.045,297.627 43.8783,296.627 44.5,295.5 Z"/></g>
<g><path style="opacity:1" fill="#ee5255" d="M 71.5,295.5 C 77.0151,295.349 80.0151,298.016 80.5,303.5C 79.5921,309.799 75.9254,312.466 69.5,311.5C 70.1073,306.149 70.774,300.816 71.5,295.5 Z"/></g>
<g><path style="opacity:1" fill="#ef688d" d="M 358.5,294.5 C 359.793,295.842 360.626,297.509 361,299.5C 361.434,304.174 361.934,308.841 362.5,313.5C 362.489,315.045 362.156,316.378 361.5,317.5C 361.663,315.143 361.497,312.81 361,310.5C 349.359,323.482 336.525,334.982 322.5,345C 321.177,345.816 320.511,346.983 320.5,348.5C 319.13,345.381 318.13,342.048 317.5,338.5C 333.263,325.739 346.93,311.072 358.5,294.5 Z"/></g>
<g><path style="opacity:1" fill="#733849" d="M 188.5,306.5 C 212.094,320.63 236.761,332.63 262.5,342.5C 258.556,348.456 253.222,352.456 246.5,354.5C 224.931,346.882 204.597,336.882 185.5,324.5C 184.949,318.2 185.949,312.2 188.5,306.5 Z"/></g>
<g><path style="opacity:0.999" fill="#fbf7f7" d="M 361.5,317.5 C 361.5,317.833 361.5,318.167 361.5,318.5C 349.028,330.981 335.695,342.315 321.5,352.5C 321.167,351.167 320.833,349.833 320.5,348.5C 320.511,346.983 321.177,345.816 322.5,345C 336.525,334.982 349.359,323.482 361,310.5C 361.497,312.81 361.663,315.143 361.5,317.5 Z"/></g>
<g><path style="opacity:0.999" fill="#fefafb" d="M 45.5,312.5 C 52.0001,311.499 54.5001,314.165 53,320.5C 49.6193,324.485 46.286,324.485 43,320.5C 42.0228,317.183 42.8562,314.516 45.5,312.5 Z"/></g>
<g><path style="opacity:1" fill="#ef5253" d="M 302.5,316.5 C 310.149,316.314 313.315,319.981 312,327.5C 307.829,333.729 303.163,334.062 298,328.5C 296.309,323.131 297.809,319.131 302.5,316.5 Z"/></g>
<g><path style="opacity:1" fill="#ed5254" d="M 408.5,317.5 C 417.365,317.847 420.532,322.181 418,330.5C 413.333,335.833 408.667,335.833 404,330.5C 402.379,324.923 403.879,320.589 408.5,317.5 Z"/></g>
<g><path style="opacity:0.998" fill="#793d4d" d="M 361.5,318.5 C 361.5,319.833 361.5,321.167 361.5,322.5C 349.106,334.233 336.439,345.566 323.5,356.5C 322.655,355.329 321.989,353.995 321.5,352.5C 335.695,342.315 349.028,330.981 361.5,318.5 Z"/></g>
<g><path style="opacity:1" fill="#ef678d" d="M 361.5,322.5 C 361.156,326.894 360.49,331.228 359.5,335.5C 349.389,346.284 338.389,355.95 326.5,364.5C 324.98,362.11 323.98,359.443 323.5,356.5C 336.439,345.566 349.106,334.233 361.5,322.5 Z"/></g>
<g><path style="opacity:1" fill="#f6f4f5" d="M 185.5,324.5 C 204.597,336.882 224.931,346.882 246.5,354.5C 245.035,355.737 243.368,356.737 241.5,357.5C 222.663,350.082 204.663,341.082 187.5,330.5C 186.542,328.698 185.875,326.698 185.5,324.5 Z"/></g>
<g><path style="opacity:1" fill="#ee5153" d="M 92.5,325.5 C 98.9254,324.534 102.592,327.201 103.5,333.5C 102.863,339.465 99.5299,342.132 93.5,341.5C 93.6757,336.12 93.3424,330.787 92.5,325.5 Z"/></g>
<g><path style="opacity:0.999" fill="#fefafa" d="M 46.5,328.5 C 54.7421,328.243 57.2421,331.91 54,339.5C 48.3954,344.141 44.5621,342.974 42.5,336C 42.9274,332.977 44.2607,330.477 46.5,328.5 Z"/></g>
<g><path style="opacity:0.949" fill="#ee5254" d="M 0.5,330.5 C 2.9892,330.298 5.32253,330.798 7.5,332C 11.9688,340.313 9.63542,345.146 0.5,346.5C 0.737305,345.209 0.403972,344.209 -0.5,343.5C -0.5,340.5 -0.5,337.5 -0.5,334.5C 0.434475,333.432 0.767809,332.099 0.5,330.5 Z"/></g>
<g><path style="opacity:1" fill="#2f697d" d="M 187.5,330.5 C 204.663,341.082 222.663,350.082 241.5,357.5C 240.71,358.401 239.71,359.068 238.5,359.5C 221.32,352.577 204.653,344.577 188.5,335.5C 187.962,333.883 187.629,332.216 187.5,330.5 Z"/></g>
<g><path style="opacity:0.967" fill="#ee5254" d="M 477.5,333.5 C 477.267,338.895 477.6,344.228 478.5,349.5C 474.397,350.231 470.897,349.231 468,346.5C 464.801,337.574 467.967,333.241 477.5,333.5 Z"/></g>
<g><path style="opacity:1" fill="#fbf8f7" d="M 188.5,335.5 C 204.653,344.577 221.32,352.577 238.5,359.5C 236.276,363.588 232.943,365.754 228.5,366C 226.129,363.294 223.463,360.961 220.5,359C 213.674,356.725 207.007,354.058 200.5,351C 195.168,346.838 191.168,341.672 188.5,335.5 Z"/></g>
<g><path style="opacity:0.999" fill="#fbf4f4" d="M 359.5,335.5 C 358.833,338.833 358.167,342.167 357.5,345.5C 348.386,354.216 338.72,362.216 328.5,369.5C 327.559,367.95 326.893,366.284 326.5,364.5C 338.389,355.95 349.389,346.284 359.5,335.5 Z"/></g>
<g><path style="opacity:0.996" fill="#793d4e" d="M 357.5,345.5 C 357.634,347.292 357.301,348.958 356.5,350.5C 348.051,358.552 339.051,365.885 329.5,372.5C 329.443,371.391 329.11,370.391 328.5,369.5C 338.72,362.216 348.386,354.216 357.5,345.5 Z"/></g>
<g><path style="opacity:1" fill="#ee658b" d="M 356.5,350.5 C 354.663,359.845 351.163,368.512 346,376.5C 338.384,384.148 332.884,382.814 329.5,372.5C 339.051,365.885 348.051,358.552 356.5,350.5 Z"/></g>
<g><path style="opacity:1" fill="#ef5254" d="M 224.5,370.5 C 230.975,369.23 234.975,371.73 236.5,378C 234.973,384.434 230.973,386.767 224.5,385C 219.232,380.171 219.232,375.337 224.5,370.5 Z"/></g>
<g><path style="opacity:1" fill="#ee5254" d="M 35.5,378.5 C 44.1584,377.327 47.9918,380.994 47,389.5C 45.4337,392.813 42.7671,394.479 39,394.5C 32.8941,393.296 30.5607,389.629 32,383.5C 32.9973,381.677 34.1639,380.01 35.5,378.5 Z"/></g>
<g><path style="opacity:1" fill="#ef5253" d="M 354.5,399.5 C 362.661,398.171 366.495,401.505 366,409.5C 362.243,415.21 357.743,415.876 352.5,411.5C 349.641,406.932 350.307,402.932 354.5,399.5 Z"/></g>
<g><path style="opacity:0.999" fill="#ed5254" d="M 426.5,403.5 C 436.745,402.57 439.745,406.736 435.5,416C 428.987,419.219 424.987,417.386 423.5,410.5C 423.695,407.782 424.695,405.449 426.5,403.5 Z"/></g>
<g><path style="opacity:1" fill="#ef5253" d="M 143.5,405.5 C 151.696,405.529 154.863,409.529 153,417.5C 147.979,422.917 143.312,422.584 139,416.5C 137.776,411.626 139.276,407.959 143.5,405.5 Z"/></g>
<g><path style="opacity:0.957" fill="#ef5254" d="M 477.5,424.5 C 477.676,429.88 477.342,435.213 476.5,440.5C 472.975,440.654 470.141,439.321 468,436.5C 466.192,428.481 469.359,424.481 477.5,424.5 Z"/></g>
<g><path style="opacity:0.999" fill="#ee5254" d="M 20.5,444.5 C 29.1584,443.327 32.9918,446.994 32,455.5C 26.3908,462.504 21.3908,462.171 17,454.5C 16.3333,452.5 16.3333,450.5 17,448.5C 18.3756,447.295 19.5423,445.962 20.5,444.5 Z"/></g>
<g><path style="opacity:1" fill="#ef5253" d="M 285.5,451.5 C 294.756,451.703 297.756,456.037 294.5,464.5C 288.862,468.967 284.362,467.967 281,461.5C 280.333,459.833 280.333,458.167 281,456.5C 282.366,454.638 283.866,452.972 285.5,451.5 Z"/></g>
<g><path style="opacity:0.952" fill="#ed5254" d="M 84.5,455.5 C 84.0506,460.863 83.3839,466.196 82.5,471.5C 77.2913,471.123 74.6246,468.29 74.5,463C 75.4202,457.366 78.7535,454.866 84.5,455.5 Z"/></g>
<g><path style="opacity:0.957" fill="#ee5254" d="M 399.5,456.5 C 402.649,456.211 405.649,456.711 408.5,458C 413.323,466.189 410.99,471.022 401.5,472.5C 400.346,467.27 399.68,461.936 399.5,456.5 Z"/></g>
<g><path style="opacity:1" fill="#ef5254" d="M 207.5,469.5 C 216.33,468.162 219.83,471.829 218,480.5C 213.333,485.833 208.667,485.833 204,480.5C 202.663,475.872 203.83,472.205 207.5,469.5 Z"/></g>
<g><path style="opacity:1" fill="#ee5254" d="M 458.5,488.5 C 467.872,488.414 470.539,492.581 466.5,501C 457.242,504.295 453.409,501.128 455,491.5C 456.145,490.364 457.312,489.364 458.5,488.5 Z"/></g>
<g><path style="opacity:0.964" fill="#871950" d="M 125.5,502.5 C 125.955,521.959 127.622,541.293 130.5,560.5C 120.861,560.693 116.028,556.026 116,546.5C 114.414,544.33 113.08,541.996 112,539.5C 110.876,529.407 110.376,519.241 110.5,509C 111.001,505.952 112.334,503.452 114.5,501.5C 118.468,499.881 122.134,500.215 125.5,502.5 Z"/></g>
<g><path style="opacity:0.989" fill="#6f1141" d="M 357.5,501.5 C 358.97,518.798 359.637,536.131 359.5,553.5C 358.341,555.25 356.674,556.25 354.5,556.5C 353.53,538.67 352.863,520.67 352.5,502.5C 353.919,501.549 355.585,501.216 357.5,501.5 Z"/></g>
<g><path style="opacity:0.939" fill="#871950" d="M 357.5,501.5 C 359.861,501.674 362.194,502.007 364.5,502.5C 366.927,504.508 367.927,507.174 367.5,510.5C 367.519,513.812 366.852,516.979 365.5,520C 367.438,526.622 366.605,532.788 363,538.5C 363.996,542.554 363.662,546.554 362,550.5C 361.623,551.942 360.79,552.942 359.5,553.5C 359.637,536.131 358.97,518.798 357.5,501.5 Z"/></g>
<g><path style="opacity:0.985" fill="#6f1141" d="M 125.5,502.5 C 126.833,502.5 128.167,502.5 129.5,502.5C 131.054,522.829 133.054,543.162 135.5,563.5C 133.326,563.25 131.659,562.25 130.5,560.5C 127.622,541.293 125.955,521.959 125.5,502.5 Z"/></g>
<g><path style="opacity:0.989" fill="#881a50" d="M 143.5,504.5 C 142.834,508.988 142.501,513.654 142.5,518.5C 142.92,533.881 143.92,549.214 145.5,564.5C 141.939,565.768 138.606,565.434 135.5,563.5C 133.054,543.162 131.054,522.829 129.5,502.5C 134.51,501.239 139.176,501.905 143.5,504.5 Z"/></g>
<g><path style="opacity:0.994" fill="#6e1141" d="M 339.5,502.5 C 340.78,522.166 340.78,541.832 339.5,561.5C 337.958,562.301 336.292,562.634 334.5,562.5C 335.822,542.704 335.822,522.704 334.5,502.5C 336.167,501.167 337.833,501.167 339.5,502.5 Z"/></g>
<g><path style="opacity:0.987" fill="#871950" d="M 339.5,502.5 C 343.874,503.416 348.208,503.416 352.5,502.5C 352.863,520.67 353.53,538.67 354.5,556.5C 353.571,557.315 352.571,558.148 351.5,559C 347.496,559.997 343.496,560.831 339.5,561.5C 340.78,541.832 340.78,522.166 339.5,502.5 Z"/></g>
<g><path style="opacity:0.985" fill="#6f1142" d="M 143.5,504.5 C 143.833,504.5 144.167,504.5 144.5,504.5C 145.209,505.404 146.209,505.737 147.5,505.5C 147.177,526.24 148.177,546.907 150.5,567.5C 148.326,567.25 146.659,566.25 145.5,564.5C 143.92,549.214 142.92,533.881 142.5,518.5C 142.501,513.654 142.834,508.988 143.5,504.5 Z"/></g>
<g><path style="opacity:0.992" fill="#871950" d="M 144.5,504.5 C 149.695,504.179 154.695,504.513 159.5,505.5C 159.285,525.515 159.618,545.515 160.5,565.5C 157.493,567.175 154.16,567.841 150.5,567.5C 148.177,546.907 147.177,526.24 147.5,505.5C 146.209,505.737 145.209,505.404 144.5,504.5 Z"/></g>
<g><path style="opacity:0.999" fill="#6e1141" d="M 315.5,504.5 C 317.415,504.216 319.081,504.549 320.5,505.5C 320.5,525.5 320.5,545.5 320.5,565.5C 318.958,564.699 317.292,564.366 315.5,564.5C 315.5,544.5 315.5,524.5 315.5,504.5 Z"/></g>
<g><path style="opacity:0.99" fill="#871950" d="M 334.5,502.5 C 335.822,522.704 335.822,542.704 334.5,562.5C 329.782,562.171 325.115,563.171 320.5,565.5C 320.5,545.5 320.5,525.5 320.5,505.5C 325.47,506.374 330.136,505.374 334.5,502.5 Z"/></g>
<g><path style="opacity:0.992" fill="#6e1141" d="M 159.5,505.5 C 161.284,505.893 162.95,506.559 164.5,507.5C 164.4,527.863 165.067,548.196 166.5,568.5C 164.5,567.5 162.5,566.5 160.5,565.5C 159.618,545.515 159.285,525.515 159.5,505.5 Z"/></g>
<g><path style="opacity:0.988" fill="#6e1141" d="M 175.5,506.5 C 176.167,506.5 176.833,506.5 177.5,506.5C 178.696,526.871 180.362,547.204 182.5,567.5C 180.901,566.438 179.234,566.438 177.5,567.5C 174.908,547.581 173.242,527.581 172.5,507.5C 173.791,507.737 174.791,507.404 175.5,506.5 Z"/></g>
<g><path style="opacity:0.995" fill="#871950" d="M 177.5,506.5 C 183.104,507.588 188.771,508.254 194.5,508.5C 194.073,527.552 194.739,546.552 196.5,565.5C 192.028,567.216 187.362,567.882 182.5,567.5C 180.362,547.204 178.696,526.871 177.5,506.5 Z"/></g>
<g><path style="opacity:0.992" fill="#871950" d="M 270.5,506.5 C 274.674,506.334 278.674,507 282.5,508.5C 282.415,528.176 282.748,547.843 283.5,567.5C 279.752,566.793 276.086,565.793 272.5,564.5C 270.826,545.233 270.16,525.9 270.5,506.5 Z"/></g>
<g><path style="opacity:0.99" fill="#871950" d="M 175.5,506.5 C 174.791,507.404 173.791,507.737 172.5,507.5C 173.242,527.581 174.908,547.581 177.5,567.5C 174.061,569.607 170.395,569.941 166.5,568.5C 165.067,548.196 164.4,527.863 164.5,507.5C 168.198,507.448 171.865,507.114 175.5,506.5 Z"/></g>
<g><path style="opacity:0.993" fill="#881a50" d="M 195.5,508.5 C 201.67,507.528 208.003,507.528 214.5,508.5C 213.323,528.104 213.323,547.77 214.5,567.5C 210.544,569.609 206.544,569.942 202.5,568.5C 200.086,548.587 199.086,528.587 199.5,508.5C 198.167,508.5 196.833,508.5 195.5,508.5 Z"/></g>
<g><path style="opacity:0.991" fill="#871950" d="M 227.5,507.5 C 228.059,527.405 229.726,547.072 232.5,566.5C 228.342,569.871 224.008,570.204 219.5,567.5C 219.147,547.664 218.481,527.997 217.5,508.5C 220.708,506.469 224.041,506.135 227.5,507.5 Z"/></g>
<g><path style="opacity:0.992" fill="#6e1141" d="M 227.5,507.5 C 229.117,508.038 230.784,508.371 232.5,508.5C 233.572,528.216 235.238,547.883 237.5,567.5C 235.784,567.371 234.117,567.038 232.5,566.5C 229.726,547.072 228.059,527.405 227.5,507.5 Z"/></g>
<g><path style="opacity:0.992" fill="#871950" d="M 246.5,506.5 C 246.428,527.556 247.428,548.556 249.5,569.5C 245.109,570.99 241.109,570.324 237.5,567.5C 235.238,547.883 233.572,528.216 232.5,508.5C 237.167,507.833 241.833,507.167 246.5,506.5 Z"/></g>
<g><path style="opacity:0.987" fill="#6f1141" d="M 246.5,506.5 C 248.216,506.629 249.883,506.962 251.5,507.5C 252.205,527.224 253.538,546.891 255.5,566.5C 253.819,568.008 251.819,569.008 249.5,569.5C 247.428,548.556 246.428,527.556 246.5,506.5 Z"/></g>
<g><path style="opacity:0.991" fill="#871950" d="M 251.5,507.5 C 256.191,508.673 260.858,508.673 265.5,507.5C 265.272,527.183 265.605,546.85 266.5,566.5C 263.006,567.335 259.34,567.335 255.5,566.5C 253.538,546.891 252.205,527.224 251.5,507.5 Z"/></g>
<g><path style="opacity:0.988" fill="#6e1141" d="M 270.5,506.5 C 270.16,525.9 270.826,545.233 272.5,564.5C 270.5,565.167 268.5,565.833 266.5,566.5C 265.605,546.85 265.272,527.183 265.5,507.5C 267.117,506.962 268.784,506.629 270.5,506.5 Z"/></g>
<g><path style="opacity:0.99" fill="#871950" d="M 315.5,504.5 C 315.5,524.5 315.5,544.5 315.5,564.5C 312.796,563.286 310.129,563.286 307.5,564.5C 306.107,545.84 304.773,527.173 303.5,508.5C 301.833,508.5 300.167,508.5 298.5,508.5C 299.832,528.151 300.832,547.818 301.5,567.5C 297.155,566.274 292.822,566.274 288.5,567.5C 287.817,547.841 287.484,528.174 287.5,508.5C 291.615,506.226 295.949,505.893 300.5,507.5C 305.458,506.181 310.458,505.181 315.5,504.5 Z"/></g>
<g><path style="opacity:0.988" fill="#6e1141" d="M 194.5,508.5 C 194.833,508.5 195.167,508.5 195.5,508.5C 196.833,508.5 198.167,508.5 199.5,508.5C 199.086,528.587 200.086,548.587 202.5,568.5C 200.517,567.529 198.517,566.529 196.5,565.5C 194.739,546.552 194.073,527.552 194.5,508.5 Z"/></g>
<g><path style="opacity:0.99" fill="#6e1141" d="M 214.5,508.5 C 215.5,508.5 216.5,508.5 217.5,508.5C 218.481,527.997 219.147,547.664 219.5,567.5C 217.833,566.167 216.167,566.167 214.5,567.5C 213.323,547.77 213.323,528.104 214.5,508.5 Z"/></g>
<g><path style="opacity:0.995" fill="#6e1141" d="M 282.5,508.5 C 284.167,508.5 285.833,508.5 287.5,508.5C 287.484,528.174 287.817,547.841 288.5,567.5C 286.833,567.5 285.167,567.5 283.5,567.5C 282.748,547.843 282.415,528.176 282.5,508.5 Z"/></g>
<g><path style="opacity:0.987" fill="#6f1141" d="M 307.5,564.5 C 305.967,566.245 303.967,567.245 301.5,567.5C 300.832,547.818 299.832,528.151 298.5,508.5C 300.167,508.5 301.833,508.5 303.5,508.5C 304.773,527.173 306.107,545.84 307.5,564.5 Z"/></g>
<g><path style="opacity:0.999" fill="#ed5254" d="M 40.5,510.5 C 47.148,509.654 51.148,512.487 52.5,519C 50.6702,525.179 46.6702,527.512 40.5,526C 36.1392,523.774 34.6392,520.274 36,515.5C 37.3657,513.638 38.8657,511.972 40.5,510.5 Z"/></g>
<g><path style="opacity:0.9" fill="#881a50" d="M 462.5,522.5 C 463.833,522.5 465.167,522.5 466.5,522.5C 469.084,527.23 470.418,532.396 470.5,538C 470.468,540.895 469.468,543.395 467.5,545.5C 468.544,547.768 468.711,550.101 468,552.5C 465.395,555.894 463.562,559.56 462.5,563.5C 462.5,549.833 462.5,536.167 462.5,522.5 Z"/></g>
<g><path style="opacity:0.989" fill="#871950" d="M 447.5,524.5 C 450.698,523.3 454.031,523.3 457.5,524.5C 457.5,538.833 457.5,553.167 457.5,567.5C 454.721,567.279 452.054,567.612 449.5,568.5C 449.027,553.669 448.36,539.002 447.5,524.5 Z"/></g>
<g><path style="opacity:0.979" fill="#6f1141" d="M 462.5,522.5 C 462.5,536.167 462.5,549.833 462.5,563.5C 461.871,565.997 460.204,567.33 457.5,567.5C 457.5,553.167 457.5,538.833 457.5,524.5C 458.82,523.058 460.486,522.392 462.5,522.5 Z"/></g>
<g><path style="opacity:0.987" fill="#6f1141" d="M 447.5,524.5 C 448.36,539.002 449.027,553.669 449.5,568.5C 447.388,569.275 445.388,569.275 443.5,568.5C 443.5,554.167 443.5,539.833 443.5,525.5C 444.708,524.766 446.041,524.433 447.5,524.5 Z"/></g>
<g><path style="opacity:0.916" fill="#871a50" d="M 410.5,525.5 C 412.167,525.5 413.833,525.5 415.5,525.5C 415.5,539.167 415.5,552.833 415.5,566.5C 414.178,566.67 413.011,566.337 412,565.5C 410.727,561.847 409.56,558.181 408.5,554.5C 408.57,553.228 408.903,552.062 409.5,551C 407.266,544.358 406.433,537.525 407,530.5C 407.997,528.677 409.164,527.01 410.5,525.5 Z"/></g>
<g><path style="opacity:0.988" fill="#6f1141" d="M 415.5,525.5 C 417.292,525.366 418.958,525.699 420.5,526.5C 420.369,540.848 420.702,555.181 421.5,569.5C 419.5,568.5 417.5,567.5 415.5,566.5C 415.5,552.833 415.5,539.167 415.5,525.5 Z"/></g>
<g><path style="opacity:0.997" fill="#6f1141" d="M 433.5,524.5 C 434.898,539.484 436.232,554.484 437.5,569.5C 435.5,569.5 433.5,569.5 431.5,569.5C 431.304,555.087 430.304,540.754 428.5,526.5C 429.78,525.069 431.447,524.402 433.5,524.5 Z"/></g>
<g><path style="opacity:0.993" fill="#871950" d="M 433.5,524.5 C 436.77,526.16 440.103,526.494 443.5,525.5C 443.5,539.833 443.5,554.167 443.5,568.5C 441.5,568.833 439.5,569.167 437.5,569.5C 436.232,554.484 434.898,539.484 433.5,524.5 Z"/></g>
<g><path style="opacity:0.982" fill="#871950" d="M 420.5,526.5 C 423.104,527.53 425.771,527.53 428.5,526.5C 430.304,540.754 431.304,555.087 431.5,569.5C 428.167,569.5 424.833,569.5 421.5,569.5C 420.702,555.181 420.369,540.848 420.5,526.5 Z"/></g>
<g><path style="opacity:0.989" fill="#861950" d="M 50.5,528.5 C 51.0928,544.512 51.7595,560.512 52.5,576.5C 51.8333,576.5 51.1667,576.5 50.5,576.5C 49.5,575.167 48.5,575.167 47.5,576.5C 46.5,576.5 45.5,576.5 44.5,576.5C 43.2583,560.838 43.2583,545.172 44.5,529.5C 45.1342,528.053 46.3009,527.387 48,527.5C 49.0698,527.528 49.9032,527.861 50.5,528.5 Z"/></g>
<g><path style="opacity:0.982" fill="#6e1141" d="M 50.5,528.5 C 52.2838,528.893 53.9505,529.559 55.5,530.5C 55.8817,545.183 56.5484,559.85 57.5,574.5C 56.8333,575.167 56.1667,575.833 55.5,576.5C 54.5,576.5 53.5,576.5 52.5,576.5C 51.7595,560.512 51.0928,544.512 50.5,528.5 Z"/></g>
<g><path style="opacity:0.961" fill="#871a50" d="M 68.5,529.5 C 70.3682,532.577 71.7015,535.91 72.5,539.5C 72.5142,541.593 71.8476,543.426 70.5,545C 73.1667,548.333 73.1667,551.667 70.5,555C 71.2598,556.441 71.9264,557.941 72.5,559.5C 71.6188,562.93 70.4521,566.263 69,569.5C 65.7062,572.397 61.8729,574.063 57.5,574.5C 56.5484,559.85 55.8817,545.183 55.5,530.5C 59.6358,528.198 63.9692,527.864 68.5,529.5 Z"/></g>
<g><path style="opacity:0.948" fill="#871950" d="M 26.5,530.5 C 26.5,544.833 26.5,559.167 26.5,573.5C 23.5178,573.896 20.8511,573.229 18.5,571.5C 17.5372,566.073 16.3705,560.74 15,555.5C 14.3333,554.833 13.6667,554.167 13,553.5C 13.9815,547.537 14.3148,541.537 14,535.5C 14.3122,532.691 15.8122,531.024 18.5,530.5C 21.3074,529.343 23.9741,529.343 26.5,530.5 Z"/></g>
<g><path style="opacity:0.991" fill="#871a50" d="M 39.5,530.5 C 38.5819,545.809 38.2486,561.142 38.5,576.5C 38.1667,576.5 37.8333,576.5 37.5,576.5C 37.1667,575.167 36.8333,575.167 36.5,576.5C 35.1667,576.5 33.8333,576.5 32.5,576.5C 31.7099,561.18 31.3766,545.847 31.5,530.5C 34.1667,527.833 36.8333,527.833 39.5,530.5 Z"/></g>
<g><path style="opacity:0.999" fill="#6e1141" d="M 44.5,529.5 C 43.2583,545.172 43.2583,560.838 44.5,576.5C 42.5,576.5 40.5,576.5 38.5,576.5C 38.2486,561.142 38.5819,545.809 39.5,530.5C 41.2161,530.371 42.8828,530.038 44.5,529.5 Z"/></g>
<g><path style="opacity:0.985" fill="#6e1141" d="M 26.5,530.5 C 28.1667,531.833 29.8333,531.833 31.5,530.5C 31.3766,545.847 31.7099,561.18 32.5,576.5C 31.5,576.5 30.5,576.5 29.5,576.5C 28.3065,575.728 27.3065,574.728 26.5,573.5C 26.5,559.167 26.5,544.833 26.5,530.5 Z"/></g>
</svg>
