<?xml version="1.0" encoding="UTF-8"?>
<!DOCTYPE svg PUBLIC "-//W3C//DTD SVG 1.1//EN" "http://www.w3.org/Graphics/SVG/1.1/DTD/svg11.dtd">
<svg xmlns="http://www.w3.org/2000/svg" version="1.1" width="642px" height="514px" style="shape-rendering:geometricPrecision; text-rendering:geometricPrecision; image-rendering:optimizeQuality; fill-rule:evenodd; clip-rule:evenodd" xmlns:xlink="http://www.w3.org/1999/xlink">
<g><path style="opacity:0.989" fill="#e63833" d="M 246.5,-0.5 C 248.167,-0.5 249.833,-0.5 251.5,-0.5C 259.911,13.06 271.911,21.8933 287.5,26C 306.964,30.4399 326.63,31.6066 346.5,29.5C 345.909,30.1515 345.243,30.8182 344.5,31.5C 347.182,50.248 351.515,68.5813 357.5,86.5C 346.019,89.3302 334.352,90.6635 322.5,90.5C 319.964,71.3399 319.964,52.1732 322.5,33C 320.527,32.5045 318.527,32.3379 316.5,32.5C 315.281,51.865 315.281,71.1984 316.5,90.5C 303.347,90.7766 290.681,88.7766 278.5,84.5C 279.915,78.2832 281.415,71.9498 283,65.5C 287.277,53.5024 291.443,41.5024 295.5,29.5C 293.5,29.5 291.5,29.5 289.5,29.5C 283.257,46.8989 277.59,64.5655 272.5,82.5C 261.437,78.4694 251.104,73.1361 241.5,66.5C 250.676,52.1181 260.176,37.7847 270,23.5C 270.01,20.6005 268.677,19.9338 266,21.5C 257.333,34.1667 248.667,46.8333 240,59.5C 238.991,61.0249 238.491,62.6916 238.5,64.5C 230.039,58.0353 223.373,50.0353 218.5,40.5C 231.363,31.6466 243.363,21.6466 254.5,10.5C 253.917,8.99842 253.084,7.66508 252,6.5C 242.188,16.1552 231.688,24.9885 220.5,33C 218.859,34.129 217.859,35.629 217.5,37.5C 215.261,32.5176 214.261,27.1843 214.5,21.5C 221.566,18.3001 228.566,14.8001 235.5,11C 240.045,7.95646 243.711,4.12313 246.5,-0.5 Z"/></g>
<g><path style="opacity:0.983" fill="#e63833" d="M 392.5,-0.5 C 393.5,-0.5 394.5,-0.5 395.5,-0.5C 403.027,9.27192 412.694,16.1052 424.5,20C 425.381,20.7083 426.047,21.5416 426.5,22.5C 426.5,26.1667 426.5,29.8333 426.5,33.5C 421.292,33.0631 416.625,31.2298 412.5,28C 405,21.1667 397.5,14.3333 390,7.5C 389.044,8.57862 388.211,9.74529 387.5,11C 394.469,16.9681 401.136,23.3014 407.5,30C 412.818,33.824 418.484,36.9906 424.5,39.5C 420.168,51.4917 412.835,61.1584 402.5,68.5C 390.163,54.5133 380.33,38.8466 373,21.5C 371.414,22.376 369.914,23.376 368.5,24.5C 375.791,42.1278 385.791,57.7945 398.5,71.5C 387.163,77.6766 375.163,82.3433 362.5,85.5C 357.45,66.6344 352.784,47.9678 348.5,29.5C 363.834,25.5823 377,17.9156 388,6.5C 389.511,4.13838 391.011,1.80505 392.5,-0.5 Z"/></g>
<g><path style="opacity:1" fill="#c33a29" d="M 218.5,40.5 C 218.443,39.391 218.11,38.391 217.5,37.5C 217.859,35.629 218.859,34.129 220.5,33C 231.688,24.9885 242.188,16.1552 252,6.5C 253.084,7.66508 253.917,8.99842 254.5,10.5C 243.363,21.6466 231.363,31.6466 218.5,40.5 Z"/></g>
<g><path style="opacity:1" fill="#c33a29" d="M 426.5,33.5 C 426.405,35.7857 425.738,37.7857 424.5,39.5C 418.484,36.9906 412.818,33.824 407.5,30C 401.136,23.3014 394.469,16.9681 387.5,11C 388.211,9.74529 389.044,8.57862 390,7.5C 397.5,14.3333 405,21.1667 412.5,28C 416.625,31.2298 421.292,33.0631 426.5,33.5 Z"/></g>
<g><path style="opacity:0.995" fill="#ee4538" d="M 214.5,21.5 C 214.261,27.1843 215.261,32.5176 217.5,37.5C 218.11,38.391 218.443,39.391 218.5,40.5C 223.373,50.0353 230.039,58.0353 238.5,64.5C 239.71,64.9321 240.71,65.5987 241.5,66.5C 251.104,73.1361 261.437,78.4694 272.5,82.5C 274.214,83.7384 276.214,84.405 278.5,84.5C 290.681,88.7766 303.347,90.7766 316.5,90.5C 318.5,90.5 320.5,90.5 322.5,90.5C 334.352,90.6635 346.019,89.3302 357.5,86.5C 359.216,86.3713 360.883,86.038 362.5,85.5C 375.163,82.3433 387.163,77.6766 398.5,71.5C 399.872,70.4884 401.205,69.4884 402.5,68.5C 412.835,61.1584 420.168,51.4917 424.5,39.5C 425.738,37.7857 426.405,35.7857 426.5,33.5C 426.5,29.8333 426.5,26.1667 426.5,22.5C 444.287,28.1537 461.287,35.6537 477.5,45C 482.454,48.2853 487.12,51.952 491.5,56C 498.983,56.0783 505.65,58.4116 511.5,63C 523.058,74.6087 531.724,88.1087 537.5,103.5C 531.901,102.122 526.234,101.622 520.5,102C 517.833,105.333 515.167,108.667 512.5,112C 506.244,110.856 499.91,110.19 493.5,110C 490.462,112.703 487.795,115.703 485.5,119C 478.886,118.016 472.219,117.349 465.5,117C 461.937,120.233 458.104,123.067 454,125.5C 447.763,122.618 441.263,121.451 434.5,122C 430.686,124.98 427.019,128.146 423.5,131.5C 418.38,128.605 413.047,126.272 407.5,124.5C 406.5,124.667 405.5,124.833 404.5,125C 400.937,128.233 397.104,131.067 393,133.5C 388.196,130.928 383.196,128.928 378,127.5C 376.033,127.542 374.199,128.042 372.5,129C 369.597,131.572 366.431,133.739 363,135.5C 358.259,132.63 353.259,130.296 348,128.5C 342.727,130.637 337.727,133.303 333,136.5C 327.778,133.556 322.445,130.889 317,128.5C 311.777,130.717 306.777,133.384 302,136.5C 297.387,133.443 292.553,130.776 287.5,128.5C 282.458,130.438 277.624,132.771 273,135.5C 267.835,131.916 262.502,128.583 257,125.5C 252.07,127.716 247.236,130.049 242.5,132.5C 238.827,131.336 235.827,129.169 233.5,126C 231.361,124.596 229.028,123.763 226.5,123.5C 221.849,125.157 217.182,126.823 212.5,128.5C 208.716,125.891 205.049,123.057 201.5,120C 200.127,119.125 198.627,118.625 197,118.5C 191.663,120.501 186.33,122.501 181,124.5C 177.464,121.299 174.297,117.799 171.5,114C 169.167,113.333 166.833,113.333 164.5,114C 160.739,116.229 156.739,117.229 152.5,117C 149.5,114 146.5,111 143.5,108C 137.147,107.294 130.98,108.128 125,110.5C 123.739,110.241 122.739,109.574 122,108.5C 120.204,105.073 118.037,101.906 115.5,99C 113.527,98.5045 111.527,98.3379 109.5,98.5C 115.423,81.4797 124.756,66.6463 137.5,54C 142.537,50.3231 148.204,48.6565 154.5,49C 160.327,44.2502 166.66,40.2502 173.5,37C 187.001,31.334 200.667,26.1673 214.5,21.5 Z"/></g>
<g><path style="opacity:1" fill="#c23a29" d="M 241.5,66.5 C 240.71,65.5987 239.71,64.9321 238.5,64.5C 238.491,62.6916 238.991,61.0249 240,59.5C 248.667,46.8333 257.333,34.1667 266,21.5C 268.677,19.9338 270.01,20.6005 270,23.5C 260.176,37.7847 250.676,52.1181 241.5,66.5 Z"/></g>
<g><path style="opacity:1" fill="#c23a29" d="M 402.5,68.5 C 401.205,69.4884 399.872,70.4884 398.5,71.5C 385.791,57.7945 375.791,42.1278 368.5,24.5C 369.914,23.376 371.414,22.376 373,21.5C 380.33,38.8466 390.163,54.5133 402.5,68.5 Z"/></g>
<g><path style="opacity:1" fill="#c33a29" d="M 278.5,84.5 C 276.214,84.405 274.214,83.7384 272.5,82.5C 277.59,64.5655 283.257,46.8989 289.5,29.5C 291.5,29.5 293.5,29.5 295.5,29.5C 291.443,41.5024 287.277,53.5024 283,65.5C 281.415,71.9498 279.915,78.2832 278.5,84.5 Z"/></g>
<g><path style="opacity:1" fill="#c33a29" d="M 346.5,29.5 C 347.167,29.5 347.833,29.5 348.5,29.5C 352.784,47.9678 357.45,66.6344 362.5,85.5C 360.883,86.038 359.216,86.3713 357.5,86.5C 351.515,68.5813 347.182,50.248 344.5,31.5C 345.243,30.8182 345.909,30.1515 346.5,29.5 Z"/></g>
<g><path style="opacity:1" fill="#c23a29" d="M 322.5,90.5 C 320.5,90.5 318.5,90.5 316.5,90.5C 315.281,71.1984 315.281,51.865 316.5,32.5C 318.527,32.3379 320.527,32.5045 322.5,33C 319.964,52.1732 319.964,71.3399 322.5,90.5 Z"/></g>
<g><path style="opacity:1" fill="#f5e2d5" d="M 109.5,98.5 C 111.527,98.3379 113.527,98.5045 115.5,99C 118.037,101.906 120.204,105.073 122,108.5C 122.739,109.574 123.739,110.241 125,110.5C 130.98,108.128 137.147,107.294 143.5,108C 146.5,111 149.5,114 152.5,117C 156.739,117.229 160.739,116.229 164.5,114C 166.833,113.333 169.167,113.333 171.5,114C 174.297,117.799 177.464,121.299 181,124.5C 186.33,122.501 191.663,120.501 197,118.5C 198.627,118.625 200.127,119.125 201.5,120C 205.049,123.057 208.716,125.891 212.5,128.5C 217.182,126.823 221.849,125.157 226.5,123.5C 229.028,123.763 231.361,124.596 233.5,126C 235.827,129.169 238.827,131.336 242.5,132.5C 247.236,130.049 252.07,127.716 257,125.5C 262.502,128.583 267.835,131.916 273,135.5C 277.624,132.771 282.458,130.438 287.5,128.5C 292.553,130.776 297.387,133.443 302,136.5C 306.777,133.384 311.777,130.717 317,128.5C 322.445,130.889 327.778,133.556 333,136.5C 337.727,133.303 342.727,130.637 348,128.5C 353.259,130.296 358.259,132.63 363,135.5C 366.431,133.739 369.597,131.572 372.5,129C 374.199,128.042 376.033,127.542 378,127.5C 383.196,128.928 388.196,130.928 393,133.5C 397.104,131.067 400.937,128.233 404.5,125C 405.5,124.833 406.5,124.667 407.5,124.5C 413.047,126.272 418.38,128.605 423.5,131.5C 427.019,128.146 430.686,124.98 434.5,122C 441.263,121.451 447.763,122.618 454,125.5C 458.104,123.067 461.937,120.233 465.5,117C 472.219,117.349 478.886,118.016 485.5,119C 487.795,115.703 490.462,112.703 493.5,110C 499.91,110.19 506.244,110.856 512.5,112C 515.167,108.667 517.833,105.333 520.5,102C 526.234,101.622 531.901,102.122 537.5,103.5C 538.234,104.708 538.567,106.041 538.5,107.5C 533.56,106.294 528.56,105.794 523.5,106C 517.81,117.218 509.31,119.718 498,113.5C 494.9,116.6 491.733,119.767 488.5,123C 487.127,123.875 485.627,124.375 484,124.5C 479.083,123.472 474.249,122.139 469.5,120.5C 465.486,122.004 462.152,124.504 459.5,128C 457.966,128.923 456.299,129.423 454.5,129.5C 449.039,128.735 443.872,127.069 439,124.5C 435.547,126.95 432.38,129.783 429.5,133C 427.487,134.257 425.321,135.091 423,135.5C 418.117,133.642 413.283,131.642 408.5,129.5C 404.486,131.004 401.152,133.504 398.5,137C 396.966,137.923 395.299,138.423 393.5,138.5C 387.927,137.033 382.761,134.699 378,131.5C 373.541,135.131 368.707,138.131 363.5,140.5C 358.613,138.223 353.613,136.223 348.5,134.5C 342.968,136.186 337.801,138.519 333,141.5C 327.555,139.111 322.222,136.444 317,133.5C 312.173,136.83 307.007,139.497 301.5,141.5C 296.768,138.716 291.935,136.049 287,133.5C 282.892,135.471 278.725,137.304 274.5,139C 272.5,139.667 270.5,139.667 268.5,139C 264.892,135.549 260.892,132.716 256.5,130.5C 252.56,131.804 248.893,133.637 245.5,136C 242.833,136.667 240.167,136.667 237.5,136C 234.22,132.879 230.553,130.379 226.5,128.5C 221.299,130.567 215.966,132.233 210.5,133.5C 205.87,130.041 201.37,126.374 197,122.5C 190.698,125.383 184.198,127.216 177.5,128C 174.13,124.965 171.13,121.632 168.5,118C 164.432,118.345 160.432,119.345 156.5,121C 154.167,121.667 151.833,121.667 149.5,121C 146.842,117.343 143.842,114.009 140.5,111C 133.683,112.823 126.683,113.489 119.5,113C 117.413,109.492 115.08,106.158 112.5,103C 110.866,102.506 109.199,102.34 107.5,102.5C 107.66,100.847 108.326,99.5137 109.5,98.5 Z"/></g>
<g><path style="opacity:1" fill="#f5e2d5" d="M 104.5,109.5 C 106.857,109.337 109.19,109.503 111.5,110C 114.014,114.501 117.18,118.334 121,121.5C 126.721,119.608 132.554,118.774 138.5,119C 139.833,119.667 141.167,120.333 142.5,121C 145.013,124.229 147.846,127.062 151,129.5C 156.2,126.635 161.7,125.135 167.5,125C 171.046,128.882 174.879,132.382 179,135.5C 184.143,133.674 189.31,132.007 194.5,130.5C 195.833,130.667 197.167,130.833 198.5,131C 202.333,134.167 206.167,137.333 210,140.5C 213.565,139.199 217.065,137.699 220.5,136C 223.167,135.333 225.833,135.333 228.5,136C 232.664,138.673 236.664,141.507 240.5,144.5C 245.465,141.768 250.632,139.435 256,137.5C 261.359,140.436 266.525,143.769 271.5,147.5C 276.501,144.749 281.668,142.415 287,140.5C 292.273,142.637 297.273,145.303 302,148.5C 306.777,145.384 311.777,142.717 317,140.5C 322.445,142.889 327.778,145.556 333,148.5C 338.222,145.556 343.555,142.889 349,140.5C 354.257,142.629 359.257,145.296 364,148.5C 368.451,144.447 373.451,141.447 379,139.5C 384.309,141.069 389.476,143.069 394.5,145.5C 398.553,143.621 402.22,141.121 405.5,138C 406.833,137.833 408.167,137.667 409.5,137.5C 415.34,138.501 420.84,140.501 426,143.5C 429.822,140.347 433.655,137.18 437.5,134C 439.833,133.333 442.167,133.333 444.5,134C 449.298,136.273 454.298,137.273 459.5,137C 463.159,133.327 467.326,130.494 472,128.5C 477.331,129.833 482.664,131.166 488,132.5C 491.199,129.301 494.366,126.134 497.5,123C 503.776,122.786 509.942,123.62 516,125.5C 519.042,121.939 522.209,118.439 525.5,115C 531.245,114.606 536.911,115.106 542.5,116.5C 543.404,117.209 543.737,118.209 543.5,119.5C 538.511,118.778 533.511,118.612 528.5,119C 526.553,123.28 523.553,126.613 519.5,129C 513.143,128.493 506.81,127.826 500.5,127C 497.5,130 494.5,133 491.5,136C 484.108,135.753 476.775,135.087 469.5,134C 466.338,138.076 462.338,140.909 457.5,142.5C 452.062,141.141 446.728,139.474 441.5,137.5C 438.089,139.403 435.089,141.903 432.5,145C 430.361,146.404 428.028,147.237 425.5,147.5C 420.403,145.786 415.403,143.786 410.5,141.5C 406.108,143.716 402.108,146.549 398.5,150C 396.167,150.667 393.833,150.667 391.5,150C 387.333,148.167 383.167,146.333 379,144.5C 374.387,147.557 369.553,150.224 364.5,152.5C 359.365,150.4 354.198,148.4 349,146.5C 343.632,148.435 338.465,150.768 333.5,153.5C 327.791,151.229 322.291,148.562 317,145.5C 311.891,148.304 306.724,150.971 301.5,153.5C 296.659,150.579 291.659,147.912 286.5,145.5C 282.172,147.33 277.838,149.164 273.5,151C 271.5,151.667 269.5,151.667 267.5,151C 263.841,147.327 259.674,144.494 255,142.5C 250.133,145.18 244.966,147.18 239.5,148.5C 234.891,147.074 230.891,144.574 227.5,141C 226.333,140.833 225.167,140.667 224,140.5C 218.594,141.866 213.261,143.533 208,145.5C 203.879,142.382 200.046,138.882 196.5,135C 190.918,135.078 185.584,136.411 180.5,139C 178.5,139.667 176.5,139.667 174.5,139C 171.5,136 168.5,133 165.5,130C 160.09,130.074 154.757,130.907 149.5,132.5C 144.833,130.351 140.833,127.184 137.5,123C 130.23,123.977 122.896,124.311 115.5,124C 112.974,120.974 110.64,117.807 108.5,114.5C 106.709,113.83 105.042,113.163 103.5,112.5C 103.263,111.209 103.596,110.209 104.5,109.5 Z"/></g>
<g><path style="opacity:0.999" fill="#ee4739" d="M 103.5,112.5 C 105.042,113.163 106.709,113.83 108.5,114.5C 110.64,117.807 112.974,120.974 115.5,124C 122.896,124.311 130.23,123.977 137.5,123C 140.833,127.184 144.833,130.351 149.5,132.5C 154.757,130.907 160.09,130.074 165.5,130C 168.5,133 171.5,136 174.5,139C 176.5,139.667 178.5,139.667 180.5,139C 185.584,136.411 190.918,135.078 196.5,135C 200.046,138.882 203.879,142.382 208,145.5C 213.261,143.533 218.594,141.866 224,140.5C 225.167,140.667 226.333,140.833 227.5,141C 230.891,144.574 234.891,147.074 239.5,148.5C 244.966,147.18 250.133,145.18 255,142.5C 259.674,144.494 263.841,147.327 267.5,151C 269.5,151.667 271.5,151.667 273.5,151C 277.838,149.164 282.172,147.33 286.5,145.5C 291.659,147.912 296.659,150.579 301.5,153.5C 306.724,150.971 311.891,148.304 317,145.5C 322.291,148.562 327.791,151.229 333.5,153.5C 338.465,150.768 343.632,148.435 349,146.5C 354.198,148.4 359.365,150.4 364.5,152.5C 369.553,150.224 374.387,147.557 379,144.5C 383.167,146.333 387.333,148.167 391.5,150C 393.833,150.667 396.167,150.667 398.5,150C 402.108,146.549 406.108,143.716 410.5,141.5C 415.403,143.786 420.403,145.786 425.5,147.5C 428.028,147.237 430.361,146.404 432.5,145C 435.089,141.903 438.089,139.403 441.5,137.5C 446.728,139.474 452.062,141.141 457.5,142.5C 462.338,140.909 466.338,138.076 469.5,134C 476.775,135.087 484.108,135.753 491.5,136C 494.5,133 497.5,130 500.5,127C 506.81,127.826 513.143,128.493 519.5,129C 523.553,126.613 526.553,123.28 528.5,119C 533.511,118.612 538.511,118.778 543.5,119.5C 547.405,128.994 551.072,138.66 554.5,148.5C 553.041,148.433 551.708,148.766 550.5,149.5C 549.833,148.5 549.167,147.5 548.5,146.5C 547.827,141.148 546.16,136.148 543.5,131.5C 539.319,137.535 536.486,144.202 535,151.5C 534.727,149.671 533.893,148.171 532.5,147C 527.5,144.5 522.5,142 517.5,139.5C 517.167,139.833 516.833,140.167 516.5,140.5C 518.902,146.039 520.902,151.706 522.5,157.5C 521.5,158.167 520.5,158.833 519.5,159.5C 514.304,160.565 509.304,162.232 504.5,164.5C 509.043,167.939 514.043,170.606 519.5,172.5C 520.167,173.167 520.833,173.833 521.5,174.5C 518.774,178.946 516.274,183.613 514,188.5C 513.251,189.635 513.417,190.635 514.5,191.5C 519.873,189.431 525.207,187.264 530.5,185C 531.211,183.745 532.044,182.579 533,181.5C 532.7,189 534.033,196.333 537,203.5C 540.337,198.829 543.171,193.829 545.5,188.5C 546.167,187.833 546.833,187.167 547.5,186.5C 552.761,190.297 558.428,193.297 564.5,195.5C 562.505,189.507 560.505,183.507 558.5,177.5C 555.5,175.667 552.5,173.833 549.5,172C 553.597,173.695 557.931,174.862 562.5,175.5C 566.589,186.171 569.923,197.171 572.5,208.5C 564.242,208.961 555.908,209.128 547.5,209C 546.025,212.421 544.359,215.754 542.5,219C 535.872,218.34 529.205,218.006 522.5,218C 519.633,221.862 516.466,225.362 513,228.5C 506.705,225.987 500.205,225.154 493.5,226C 491.021,229.313 488.355,232.48 485.5,235.5C 479.044,233.052 472.377,231.885 465.5,232C 461.976,235.025 458.309,237.858 454.5,240.5C 449.155,238.829 443.822,237.163 438.5,235.5C 435.972,235.763 433.639,236.596 431.5,238C 428.952,240.885 426.118,243.385 423,245.5C 418.892,243.529 414.725,241.696 410.5,240C 407.833,239.333 405.167,239.333 402.5,240C 399.268,242.903 395.768,245.403 392,247.5C 386.747,245.204 381.414,243.204 376,241.5C 374.033,241.542 372.199,242.042 370.5,243C 367.597,245.572 364.431,247.739 361,249.5C 356.513,246.09 351.513,243.757 346,242.5C 340.282,244.039 335.116,246.706 330.5,250.5C 325.343,247.255 320.01,244.588 314.5,242.5C 309.076,244.126 303.91,246.459 299,249.5C 294.273,246.303 289.273,243.637 284,241.5C 279,243.5 274,245.5 269,247.5C 263.864,243.872 258.364,240.872 252.5,238.5C 247.473,240.099 242.64,242.099 238,244.5C 233.707,243.221 230.207,240.721 227.5,237C 225.577,236.192 223.577,235.692 221.5,235.5C 216.727,237.258 211.893,238.925 207,240.5C 203.162,237.328 199.329,234.161 195.5,231C 188.671,230.826 182.171,232.326 176,235.5C 171.846,232.679 168.346,229.179 165.5,225C 159.299,224.841 153.466,226.341 148,229.5C 144.487,225.654 140.654,222.154 136.5,219C 129.709,218.829 123.042,219.495 116.5,221C 114.167,217.333 111.833,213.667 109.5,210C 102.446,209.68 95.4455,210.18 88.5,211.5C 87.5135,207.361 85.8468,203.528 83.5,200C 79.8484,199.501 76.1817,199.335 72.5,199.5C 74.1794,194.748 75.846,190.082 77.5,185.5C 77.5,186.5 77.5,187.5 77.5,188.5C 78.8221,188.67 79.9887,188.337 81,187.5C 82.4356,184.857 82.6023,182.19 81.5,179.5C 80.4822,180.193 79.4822,180.859 78.5,181.5C 78.7959,179.597 79.4625,177.93 80.5,176.5C 81.8333,175.167 83.1667,175.167 84.5,176.5C 86.2761,182.055 88.6095,187.388 91.5,192.5C 93.8019,187.302 95.8019,181.969 97.5,176.5C 98.1667,175.5 98.8333,174.5 99.5,173.5C 104.824,176.393 110.491,178.727 116.5,180.5C 116.833,180 117.167,179.5 117.5,179C 115.47,174.439 113.303,169.939 111,165.5C 109.786,163.951 108.286,162.785 106.5,162C 113.751,160.541 120.417,157.708 126.5,153.5C 121.253,151.522 115.92,149.856 110.5,148.5C 109.5,147.833 108.5,147.167 107.5,146.5C 110.446,140.689 112.112,134.689 112.5,128.5C 107.632,131.434 102.632,134.1 97.5,136.5C 96.391,136.443 95.391,136.11 94.5,135.5C 94.595,133.214 95.2616,131.214 96.5,129.5C 97.7848,133.466 99.2848,133.466 101,129.5C 101.808,127.421 101.641,125.421 100.5,123.5C 99.8165,123.863 99.1499,124.196 98.5,124.5C 99.6546,120.203 101.321,116.203 103.5,112.5 Z"/></g>
<g><path style="opacity:1" fill="#855540" d="M 96.5,129.5 C 96.7959,127.597 97.4625,125.93 98.5,124.5C 99.1499,124.196 99.8165,123.863 100.5,123.5C 101.641,125.421 101.808,127.421 101,129.5C 99.2848,133.466 97.7848,133.466 96.5,129.5 Z"/></g>
<g><path style="opacity:1" fill="#ef4c3c" d="M 107.5,102.5 C 109.199,102.34 110.866,102.506 112.5,103C 115.08,106.158 117.413,109.492 119.5,113C 126.683,113.489 133.683,112.823 140.5,111C 143.842,114.009 146.842,117.343 149.5,121C 151.833,121.667 154.167,121.667 156.5,121C 160.432,119.345 164.432,118.345 168.5,118C 171.13,121.632 174.13,124.965 177.5,128C 184.198,127.216 190.698,125.383 197,122.5C 201.37,126.374 205.87,130.041 210.5,133.5C 215.966,132.233 221.299,130.567 226.5,128.5C 230.553,130.379 234.22,132.879 237.5,136C 240.167,136.667 242.833,136.667 245.5,136C 248.893,133.637 252.56,131.804 256.5,130.5C 260.892,132.716 264.892,135.549 268.5,139C 270.5,139.667 272.5,139.667 274.5,139C 278.725,137.304 282.892,135.471 287,133.5C 291.935,136.049 296.768,138.716 301.5,141.5C 307.007,139.497 312.173,136.83 317,133.5C 322.222,136.444 327.555,139.111 333,141.5C 337.801,138.519 342.968,136.186 348.5,134.5C 353.613,136.223 358.613,138.223 363.5,140.5C 368.707,138.131 373.541,135.131 378,131.5C 382.761,134.699 387.927,137.033 393.5,138.5C 395.299,138.423 396.966,137.923 398.5,137C 401.152,133.504 404.486,131.004 408.5,129.5C 413.283,131.642 418.117,133.642 423,135.5C 425.321,135.091 427.487,134.257 429.5,133C 432.38,129.783 435.547,126.95 439,124.5C 443.872,127.069 449.039,128.735 454.5,129.5C 456.299,129.423 457.966,128.923 459.5,128C 462.152,124.504 465.486,122.004 469.5,120.5C 474.249,122.139 479.083,123.472 484,124.5C 485.627,124.375 487.127,123.875 488.5,123C 491.733,119.767 494.9,116.6 498,113.5C 509.31,119.718 517.81,117.218 523.5,106C 528.56,105.794 533.56,106.294 538.5,107.5C 540.592,110.088 541.925,113.088 542.5,116.5C 536.911,115.106 531.245,114.606 525.5,115C 522.209,118.439 519.042,121.939 516,125.5C 509.942,123.62 503.776,122.786 497.5,123C 494.366,126.134 491.199,129.301 488,132.5C 482.664,131.166 477.331,129.833 472,128.5C 467.326,130.494 463.159,133.327 459.5,137C 454.298,137.273 449.298,136.273 444.5,134C 442.167,133.333 439.833,133.333 437.5,134C 433.655,137.18 429.822,140.347 426,143.5C 420.84,140.501 415.34,138.501 409.5,137.5C 408.167,137.667 406.833,137.833 405.5,138C 402.22,141.121 398.553,143.621 394.5,145.5C 389.476,143.069 384.309,141.069 379,139.5C 373.451,141.447 368.451,144.447 364,148.5C 359.257,145.296 354.257,142.629 349,140.5C 343.555,142.889 338.222,145.556 333,148.5C 327.778,145.556 322.445,142.889 317,140.5C 311.777,142.717 306.777,145.384 302,148.5C 297.273,145.303 292.273,142.637 287,140.5C 281.668,142.415 276.501,144.749 271.5,147.5C 266.525,143.769 261.359,140.436 256,137.5C 250.632,139.435 245.465,141.768 240.5,144.5C 236.664,141.507 232.664,138.673 228.5,136C 225.833,135.333 223.167,135.333 220.5,136C 217.065,137.699 213.565,139.199 210,140.5C 206.167,137.333 202.333,134.167 198.5,131C 197.167,130.833 195.833,130.667 194.5,130.5C 189.31,132.007 184.143,133.674 179,135.5C 174.879,132.382 171.046,128.882 167.5,125C 161.7,125.135 156.2,126.635 151,129.5C 147.846,127.062 145.013,124.229 142.5,121C 141.167,120.333 139.833,119.667 138.5,119C 132.554,118.774 126.721,119.608 121,121.5C 117.18,118.334 114.014,114.501 111.5,110C 109.19,109.503 106.857,109.337 104.5,109.5C 105.264,106.982 106.264,104.649 107.5,102.5 Z"/></g>
<g><path style="opacity:1" fill="#f5eade" d="M 107.5,146.5 C 102.307,148.928 97.3065,151.595 92.5,154.5C 91.596,153.791 91.2627,152.791 91.5,151.5C 93.4809,146.571 95.4809,141.571 97.5,136.5C 102.632,134.1 107.632,131.434 112.5,128.5C 112.112,134.689 110.446,140.689 107.5,146.5 Z"/></g>
<g><path style="opacity:1" fill="#8a553f" d="M 528.5,134.5 C 533.187,135.506 535.187,138.506 534.5,143.5C 532.61,143.703 531.11,143.037 530,141.5C 529.023,139.26 528.523,136.927 528.5,134.5 Z"/></g>
<g><path style="opacity:1" fill="#f6cbb9" d="M 94.5,135.5 C 95.391,136.11 96.391,136.443 97.5,136.5C 95.4809,141.571 93.4809,146.571 91.5,151.5C 90.8485,152.091 90.1818,152.757 89.5,153.5C 88.8933,153.376 88.56,153.043 88.5,152.5C 89.7313,146.468 91.7313,140.801 94.5,135.5 Z"/></g>
<g><path style="opacity:1" fill="#b77a5c" d="M 114.5,137.5 C 118.555,137.176 122.555,137.509 126.5,138.5C 123.805,141.526 121.138,144.526 118.5,147.5C 113.665,145.674 112.331,142.34 114.5,137.5 Z"/></g>
<g><path style="opacity:1" fill="#f5e6da" d="M 548.5,146.5 C 547.301,152.906 544.967,158.906 541.5,164.5C 540.167,164.833 538.833,165.167 537.5,165.5C 532.693,162.595 527.693,159.928 522.5,157.5C 520.902,151.706 518.902,146.039 516.5,140.5C 516.833,140.167 517.167,139.833 517.5,139.5C 522.5,142 527.5,144.5 532.5,147C 533.893,148.171 534.727,149.671 535,151.5C 536.486,144.202 539.319,137.535 543.5,131.5C 546.16,136.148 547.827,141.148 548.5,146.5 Z"/></g>
<g><path style="opacity:1" fill="#b57b5e" d="M 155.5,147.5 C 158.284,149.396 161.284,151.063 164.5,152.5C 165.769,154.695 165.769,156.861 164.5,159C 161.901,159.769 159.401,159.602 157,158.5C 156.58,154.809 156.08,151.142 155.5,147.5 Z"/></g>
<g><path style="opacity:1" fill="#80553f" d="M 183.5,148.5 C 184.5,148.5 185.5,148.5 186.5,148.5C 186.663,150.857 186.497,153.19 186,155.5C 185.29,156.973 184.124,157.64 182.5,157.5C 182.368,154.43 182.701,151.43 183.5,148.5 Z"/></g>
<g><path style="opacity:1" fill="#b27c5f" d="M 504.5,150.5 C 508.351,149.191 512.351,149.191 516.5,150.5C 517.485,152.098 517.651,153.765 517,155.5C 515.247,156.627 513.413,157.627 511.5,158.5C 509.149,155.761 506.816,153.095 504.5,150.5 Z"/></g>
<g><path style="opacity:1" fill="#f29579" d="M 107.5,146.5 C 108.5,147.167 109.5,147.833 110.5,148.5C 104.094,149.699 98.0944,152.033 92.5,155.5C 92.5,155.167 92.5,154.833 92.5,154.5C 97.3065,151.595 102.307,148.928 107.5,146.5 Z"/></g>
<g><path style="opacity:1" fill="#f05d48" d="M 91.5,151.5 C 91.2627,152.791 91.596,153.791 92.5,154.5C 92.5,154.833 92.5,155.167 92.5,155.5C 93.5063,156.396 93.5063,157.062 92.5,157.5C 91.8333,157.833 91.1667,158.167 90.5,158.5C 89.6618,158.842 89.3284,159.508 89.5,160.5C 88.7777,159.449 87.7777,158.782 86.5,158.5C 86.595,156.214 87.2616,154.214 88.5,152.5C 88.56,153.043 88.8933,153.376 89.5,153.5C 90.1818,152.757 90.8485,152.091 91.5,151.5 Z"/></g>
<g><path style="opacity:1" fill="#85553f" d="M 449.5,152.5 C 451.411,152.574 452.578,153.574 453,155.5C 453.874,158.379 453.54,161.045 452,163.5C 451.333,162.833 450.667,162.167 450,161.5C 449.502,158.518 449.335,155.518 449.5,152.5 Z"/></g>
<g><path style="opacity:1" fill="#b47b5e" d="M 477.5,155.5 C 478.586,155.62 479.253,156.287 479.5,157.5C 478.698,160.449 478.364,163.449 478.5,166.5C 475.833,166.5 473.167,166.5 470.5,166.5C 469.986,164.488 469.82,162.488 470,160.5C 472.479,158.686 474.979,157.019 477.5,155.5 Z"/></g>
<g><path style="opacity:1" fill="#f5e6da" d="M 110.5,148.5 C 115.92,149.856 121.253,151.522 126.5,153.5C 120.417,157.708 113.751,160.541 106.5,162C 108.286,162.785 109.786,163.951 111,165.5C 113.303,169.939 115.47,174.439 117.5,179C 117.167,179.5 116.833,180 116.5,180.5C 110.491,178.727 104.824,176.393 99.5,173.5C 96.6132,168.395 94.2798,163.061 92.5,157.5C 93.5063,157.062 93.5063,156.396 92.5,155.5C 98.0944,152.033 104.094,149.699 110.5,148.5 Z"/></g>
<g><path style="opacity:1" fill="#f5e8dc" d="M 466.5,165.5 C 466.632,168.57 466.299,171.57 465.5,174.5C 463.738,175.262 462.738,176.596 462.5,178.5C 460.738,179.262 459.738,180.596 459.5,182.5C 456.445,185.131 454.945,184.131 455,179.5C 454.667,181.5 454.333,183.5 454,185.5C 453.329,184.748 452.496,184.414 451.5,184.5C 450.738,182.738 449.404,181.738 447.5,181.5C 447.027,180.094 446.027,179.427 444.5,179.5C 443.738,177.738 442.404,176.738 440.5,176.5C 439.216,170.361 437.882,164.194 436.5,158C 436.833,157.5 437.167,157 437.5,156.5C 442.678,159.922 447.678,163.589 452.5,167.5C 456.53,162.476 460.53,157.476 464.5,152.5C 465.912,156.717 466.579,161.05 466.5,165.5 Z"/></g>
<g><path style="opacity:1" fill="#f2987d" d="M 548.5,146.5 C 549.167,147.5 549.833,148.5 550.5,149.5C 548.072,154.693 545.405,159.693 542.5,164.5C 542.167,164.5 541.833,164.5 541.5,164.5C 544.967,158.906 547.301,152.906 548.5,146.5 Z"/></g>
<g><path style="opacity:1" fill="#f6cdba" d="M 86.5,158.5 C 87.7777,158.782 88.7777,159.449 89.5,160.5C 87.0325,165.57 85.3659,170.903 84.5,176.5C 83.1667,175.167 81.8333,175.167 80.5,176.5C 81.928,170.216 83.928,164.216 86.5,158.5 Z"/></g>
<g><path style="opacity:1" fill="#f5e9dd" d="M 90.5,158.5 C 93.9672,164.094 96.3005,170.094 97.5,176.5C 95.8019,181.969 93.8019,187.302 91.5,192.5C 88.6095,187.388 86.2761,182.055 84.5,176.5C 85.3659,170.903 87.0325,165.57 89.5,160.5C 89.3284,159.508 89.6618,158.842 90.5,158.5 Z"/></g>
<g><path style="opacity:1" fill="#f5e8dc" d="M 519.5,159.5 C 525.906,160.699 531.906,163.033 537.5,166.5C 537.5,166.833 537.5,167.167 537.5,167.5C 531.731,169.978 525.731,171.645 519.5,172.5C 514.043,170.606 509.043,167.939 504.5,164.5C 509.304,162.232 514.304,160.565 519.5,159.5 Z"/></g>
<g><path style="opacity:1" fill="#f3876d" d="M 522.5,157.5 C 527.693,159.928 532.693,162.595 537.5,165.5C 537.5,165.833 537.5,166.167 537.5,166.5C 531.906,163.033 525.906,160.699 519.5,159.5C 520.5,158.833 521.5,158.167 522.5,157.5 Z"/></g>
<g><path style="opacity:1" fill="#b27c5f" d="M 209.5,160.5 C 210.552,160.351 211.552,160.517 212.5,161C 210.273,163.564 208.439,166.397 207,169.5C 205.204,170.767 203.371,170.767 201.5,169.5C 200.353,167.235 200.186,164.902 201,162.5C 203.939,161.872 206.772,161.205 209.5,160.5 Z"/></g>
<g><path style="opacity:1" fill="#f5eade" d="M 272.5,176.5 C 271.772,181.451 271.272,186.451 271,191.5C 270.617,192.056 270.117,192.389 269.5,192.5C 269.167,192.5 268.833,192.5 268.5,192.5C 267.19,189.527 265.19,187.193 262.5,185.5C 262.315,183.804 261.481,182.471 260,181.5C 259.501,177.514 259.334,173.514 259.5,169.5C 259.187,166.753 259.52,164.086 260.5,161.5C 265.277,165.936 269.277,170.936 272.5,176.5 Z"/></g>
<g><path style="opacity:1" fill="#83553f" d="M 272.5,160.5 C 273.496,160.414 274.329,160.748 275,161.5C 275.667,164.167 275.667,166.833 275,169.5C 272.106,170.615 270.939,169.448 271.5,166C 271.696,164.122 272.029,162.288 272.5,160.5 Z"/></g>
<g><path style="opacity:1" fill="#8b553f" d="M 360.5,161.5 C 363.138,162.242 364.471,164.075 364.5,167C 364.568,169.034 363.734,170.534 362,171.5C 360.139,170.391 359.305,168.725 359.5,166.5C 359.728,164.793 360.062,163.126 360.5,161.5 Z"/></g>
<g><path style="opacity:1" fill="#86553f" d="M 113.5,163.5 C 115.857,163.337 118.19,163.503 120.5,164C 123.124,164.576 123.791,165.91 122.5,168C 119.581,168.552 116.914,167.885 114.5,166C 113.748,165.329 113.414,164.496 113.5,163.5 Z"/></g>
<g><path style="opacity:1" fill="#f5e8dc" d="M 286.5,182.5 C 285.5,182.833 284.833,183.5 284.5,184.5C 281.911,185.419 279.911,187.086 278.5,189.5C 276.606,190.048 274.94,191.048 273.5,192.5C 272.563,187.188 272.563,181.854 273.5,176.5C 273.369,175.761 273.536,175.094 274,174.5C 278.133,171.369 281.966,167.869 285.5,164C 286.448,163.517 287.448,163.351 288.5,163.5C 287.636,169.805 286.969,176.138 286.5,182.5 Z"/></g>
<g><path style="opacity:1" fill="#f5e9de" d="M 361.5,179.5 C 361.5,184.5 361.5,189.5 361.5,194.5C 361.167,194.5 360.833,194.5 360.5,194.5C 357.105,190.102 353.105,186.436 348.5,183.5C 347.947,176.792 347.947,170.126 348.5,163.5C 352.818,167.318 356.985,171.318 361,175.5C 361.49,176.793 361.657,178.127 361.5,179.5 Z"/></g>
<g><path style="opacity:1" fill="#f5e8dd" d="M 376.5,166.5 C 375.673,171.651 375.173,176.984 375,182.5C 372.331,186 369.498,189.333 366.5,192.5C 365.292,193.234 363.959,193.567 362.5,193.5C 362.5,188.833 362.5,184.167 362.5,179.5C 362.343,178.127 362.51,176.793 363,175.5C 367.376,171.292 371.543,166.959 375.5,162.5C 376.429,163.689 376.762,165.022 376.5,166.5 Z"/></g>
<g><path style="opacity:1" fill="#b47b5e" d="M 422.5,164.5 C 422.917,163.876 423.584,163.543 424.5,163.5C 427.535,164.061 430.535,164.727 433.5,165.5C 436.649,171.955 434.649,174.289 427.5,172.5C 426.309,169.432 424.642,166.765 422.5,164.5 Z"/></g>
<g><path style="opacity:1" fill="#f05c48" d="M 541.5,164.5 C 541.833,164.5 542.167,164.5 542.5,164.5C 542.859,166.371 543.859,167.871 545.5,169C 542.993,169.093 540.826,169.926 539,171.5C 538.768,170.263 538.268,169.263 537.5,168.5C 537.5,168.167 537.5,167.833 537.5,167.5C 537.5,167.167 537.5,166.833 537.5,166.5C 537.5,166.167 537.5,165.833 537.5,165.5C 538.833,165.167 540.167,164.833 541.5,164.5 Z"/></g>
<g><path style="opacity:1" fill="#b47b5e" d="M 244.5,164.5 C 247.663,166.246 250.996,167.746 254.5,169C 255.832,174.64 253.499,177.14 247.5,176.5C 246.809,172.404 245.809,168.404 244.5,164.5 Z"/></g>
<g><path style="opacity:1" fill="#f28a6f" d="M 92.5,157.5 C 94.2798,163.061 96.6132,168.395 99.5,173.5C 98.8333,174.5 98.1667,175.5 97.5,176.5C 96.3005,170.094 93.9672,164.094 90.5,158.5C 91.1667,158.167 91.8333,157.833 92.5,157.5 Z"/></g>
<g><path style="opacity:1" fill="#b37c5f" d="M 388.5,167.5 C 389.497,167.47 390.164,167.97 390.5,169C 388.993,172.021 387.993,175.188 387.5,178.5C 385.167,178.5 382.833,178.5 380.5,178.5C 380.187,175.753 380.52,173.086 381.5,170.5C 384.016,169.67 386.35,168.67 388.5,167.5 Z"/></g>
<g><path style="opacity:1" fill="#b47b5e" d="M 301.5,168.5 C 302.043,168.56 302.376,168.893 302.5,169.5C 300.594,172.64 299.26,175.973 298.5,179.5C 291.893,181.251 289.393,178.918 291,172.5C 294.688,171.441 298.188,170.107 301.5,168.5 Z"/></g>
<g><path style="opacity:1" fill="#b27c5f" d="M 332.5,169.5 C 332.735,168.903 333.235,168.57 334,168.5C 337.021,170.007 340.188,171.007 343.5,171.5C 343.5,173.833 343.5,176.167 343.5,178.5C 341.139,178.674 338.806,179.007 336.5,179.5C 336.128,175.703 334.794,172.37 332.5,169.5 Z"/></g>
<g><path style="opacity:1" fill="#f5e6da" d="M 554.5,148.5 C 557.572,157.382 560.238,166.382 562.5,175.5C 557.931,174.862 553.597,173.695 549.5,172C 552.5,173.833 555.5,175.667 558.5,177.5C 560.505,183.507 562.505,189.507 564.5,195.5C 558.428,193.297 552.761,190.297 547.5,186.5C 546.673,183.868 545.84,181.202 545,178.5C 545.046,181.8 545.212,185.134 545.5,188.5C 543.171,193.829 540.337,198.829 537,203.5C 534.033,196.333 532.7,189 533,181.5C 532.044,182.579 531.211,183.745 530.5,185C 525.207,187.264 519.873,189.431 514.5,191.5C 513.417,190.635 513.251,189.635 514,188.5C 516.274,183.613 518.774,178.946 521.5,174.5C 526.981,172.676 532.314,170.676 537.5,168.5C 538.268,169.263 538.768,170.263 539,171.5C 540.826,169.926 542.993,169.093 545.5,169C 543.859,167.871 542.859,166.371 542.5,164.5C 545.405,159.693 548.072,154.693 550.5,149.5C 551.708,148.766 553.041,148.433 554.5,148.5 Z"/></g>
<g><path style="opacity:1" fill="#f5bba5" d="M 537.5,167.5 C 537.5,167.833 537.5,168.167 537.5,168.5C 532.314,170.676 526.981,172.676 521.5,174.5C 520.833,173.833 520.167,173.167 519.5,172.5C 525.731,171.645 531.731,169.978 537.5,167.5 Z"/></g>
<g><path style="opacity:1" fill="#f49d83" d="M 466.5,165.5 C 467.167,167.5 467.833,169.5 468.5,171.5C 467.833,172.833 466.833,173.833 465.5,174.5C 466.299,171.57 466.632,168.57 466.5,165.5 Z"/></g>
<g><path style="opacity:1" fill="#88553f" d="M 144.5,172.5 C 147.313,172.548 149.979,173.215 152.5,174.5C 153.386,175.325 153.719,176.325 153.5,177.5C 150.813,177.664 148.146,177.497 145.5,177C 143.452,175.774 143.119,174.274 144.5,172.5 Z"/></g>
<g><path style="opacity:1" fill="#f28c71" d="M 191.5,173.5 C 191.027,174.906 190.027,175.573 188.5,175.5C 188.973,174.094 189.973,173.427 191.5,173.5 Z"/></g>
<g><path style="opacity:1" fill="#82553f" d="M 510.5,174.5 C 512.5,174.5 514.5,174.5 516.5,174.5C 514.99,178.431 511.99,180.097 507.5,179.5C 507.31,177.041 508.31,175.374 510.5,174.5 Z"/></g>
<g><path style="opacity:1" fill="#f3957a" d="M 465.5,174.5 C 465.262,176.404 464.262,177.738 462.5,178.5C 462.738,176.596 463.738,175.262 465.5,174.5 Z"/></g>
<g><path style="opacity:1" fill="#ef9074" d="M 188.5,175.5 C 187.341,177.25 185.674,178.25 183.5,178.5C 184.659,176.75 186.326,175.75 188.5,175.5 Z"/></g>
<g><path style="opacity:1" fill="#f3846a" d="M 440.5,176.5 C 442.404,176.738 443.738,177.738 444.5,179.5C 442.596,179.262 441.262,178.262 440.5,176.5 Z"/></g>
<g><path style="opacity:1" fill="#835540" d="M 77.5,185.5 C 77.4326,184.041 77.7659,182.708 78.5,181.5C 79.4822,180.859 80.4822,180.193 81.5,179.5C 82.6023,182.19 82.4356,184.857 81,187.5C 79.9887,188.337 78.8221,188.67 77.5,188.5C 77.5,187.5 77.5,186.5 77.5,185.5 Z"/></g>
<g><path style="opacity:1" fill="#b27c5f" d="M 100.5,179.5 C 102.591,179.318 104.591,179.652 106.5,180.5C 107.833,184.167 107.833,187.833 106.5,191.5C 104.144,189.31 101.644,187.31 99,185.5C 99.1503,183.494 99.6503,181.494 100.5,179.5 Z"/></g>
<g><path style="opacity:1" fill="#f16650" d="M 173.5,175.5 C 174.837,176.315 175.837,177.482 176.5,179C 178.885,179.556 181.218,179.39 183.5,178.5C 182.694,179.728 181.694,180.728 180.5,181.5C 179.596,182.209 179.263,183.209 179.5,184.5C 178.5,184.5 177.5,184.5 176.5,184.5C 174.5,185.167 172.5,185.833 170.5,186.5C 172.094,185.017 173.76,183.517 175.5,182C 175.167,180.053 174.5,177.886 173.5,175.5 Z"/></g>
<g><path style="opacity:1" fill="#f5e8dc" d="M 257.5,180.5 C 258.833,182.5 260.5,184.167 262.5,185.5C 263.781,188.447 265.781,190.781 268.5,192.5C 268.5,193.167 268.5,193.833 268.5,194.5C 263.493,194.249 258.493,193.916 253.5,193.5C 252.448,193.649 251.448,193.483 250.5,193C 245.943,188.946 241.943,184.446 238.5,179.5C 239.5,179.167 240.5,178.833 241.5,178.5C 246.833,179.241 252.167,179.907 257.5,180.5 Z"/></g>
<g><path style="opacity:1" fill="#f2876c" d="M 444.5,179.5 C 446.027,179.427 447.027,180.094 447.5,181.5C 445.973,181.573 444.973,180.906 444.5,179.5 Z"/></g>
<g><path style="opacity:1" fill="#f3947a" d="M 462.5,178.5 C 462.262,180.404 461.262,181.738 459.5,182.5C 459.738,180.596 460.738,179.262 462.5,178.5 Z"/></g>
<g><path style="opacity:1" fill="#f4967c" d="M 259.5,169.5 C 259.334,173.514 259.501,177.514 260,181.5C 261.481,182.471 262.315,183.804 262.5,185.5C 260.5,184.167 258.833,182.5 257.5,180.5C 258.167,176.833 258.833,173.167 259.5,169.5 Z"/></g>
<g><path style="opacity:1" fill="#f5e9dd" d="M 381.5,195.5 C 376.156,195.666 370.823,195.499 365.5,195C 366.252,194.329 366.586,193.496 366.5,192.5C 367.239,192.631 367.906,192.464 368.5,192C 371.293,188.895 373.96,185.728 376.5,182.5C 382.839,181.404 389.172,181.404 395.5,182.5C 391.42,187.584 386.754,191.917 381.5,195.5 Z"/></g>
<g><path style="opacity:1" fill="#87553f" d="M 483.5,180.5 C 485.527,180.338 487.527,180.505 489.5,181C 490.646,183.557 489.646,184.89 486.5,185C 480.292,186.006 479.292,184.506 483.5,180.5 Z"/></g>
<g><path style="opacity:1" fill="#f39075" d="M 180.5,181.5 C 181.263,182.268 182.263,182.768 183.5,183C 182.376,183.249 181.376,183.749 180.5,184.5C 181.127,185.417 181.461,186.417 181.5,187.5C 179.227,184.602 177.727,184.936 177,188.5C 176.51,187.207 176.343,185.873 176.5,184.5C 177.5,184.5 178.5,184.5 179.5,184.5C 179.263,183.209 179.596,182.209 180.5,181.5 Z"/></g>
<g><path style="opacity:1" fill="#f39379" d="M 447.5,181.5 C 449.404,181.738 450.738,182.738 451.5,184.5C 449.596,184.262 448.262,183.262 447.5,181.5 Z"/></g>
<g><path style="opacity:1" fill="#f5e7db" d="M 198.5,185.5 C 195.159,184.995 191.826,184.828 188.5,185C 191.579,185.685 194.579,186.519 197.5,187.5C 201.058,192.262 204.391,197.262 207.5,202.5C 201.376,202.643 195.376,201.476 189.5,199C 187.934,196.674 186.268,194.508 184.5,192.5C 184.25,190.326 183.25,188.659 181.5,187.5C 181.461,186.417 181.127,185.417 180.5,184.5C 181.376,183.749 182.376,183.249 183.5,183C 182.263,182.768 181.263,182.268 180.5,181.5C 181.694,180.728 182.694,179.728 183.5,178.5C 185.674,178.25 187.341,177.25 188.5,175.5C 190.027,175.573 191.027,174.906 191.5,173.5C 198.803,172.447 205.969,173.114 213,175.5C 213.089,177.113 212.255,178.28 210.5,179C 206.606,181.446 202.606,183.612 198.5,185.5 Z"/></g>
<g><path style="opacity:1" fill="#f5ac94" d="M 286.5,182.5 C 289.713,182.19 292.713,182.523 295.5,183.5C 291.766,183.323 288.099,183.656 284.5,184.5C 284.833,183.5 285.5,182.833 286.5,182.5 Z"/></g>
<g><path style="opacity:1" fill="#f5eadf" d="M 295.5,183.5 C 298.898,183.18 302.232,183.513 305.5,184.5C 301.875,187.991 298.209,191.491 294.5,195C 292.975,196.009 291.308,196.509 289.5,196.5C 284.477,196.073 279.477,195.407 274.5,194.5C 275.857,192.814 277.19,191.148 278.5,189.5C 281.089,188.581 283.089,186.914 284.5,184.5C 288.099,183.656 291.766,183.323 295.5,183.5 Z"/></g>
<g><path style="opacity:1" fill="#f5e7da" d="M 348.5,183.5 C 351.833,187.5 355.5,191.167 359.5,194.5C 359.5,194.833 359.5,195.167 359.5,195.5C 354.562,196.392 349.562,196.726 344.5,196.5C 342.692,196.509 341.025,196.009 339.5,195C 335.184,191.198 331.517,187.031 328.5,182.5C 335.255,182.207 341.922,182.54 348.5,183.5 Z"/></g>
<g><path style="opacity:1" fill="#f38f75" d="M 348.5,183.5 C 353.105,186.436 357.105,190.102 360.5,194.5C 360.167,194.5 359.833,194.5 359.5,194.5C 355.5,191.167 351.833,187.5 348.5,183.5 Z"/></g>
<g><path style="opacity:1" fill="#f5e6da" d="M 191.5,173.5 C 189.973,173.427 188.973,174.094 188.5,175.5C 186.326,175.75 184.659,176.75 183.5,178.5C 181.218,179.39 178.885,179.556 176.5,179C 175.837,177.482 174.837,176.315 173.5,175.5C 174.5,177.886 175.167,180.053 175.5,182C 173.76,183.517 172.094,185.017 170.5,186.5C 172.5,185.833 174.5,185.167 176.5,184.5C 176.343,185.873 176.51,187.207 177,188.5C 177.727,184.936 179.227,184.602 181.5,187.5C 181.75,189.674 182.75,191.341 184.5,192.5C 185.779,195.395 186.779,198.395 187.5,201.5C 186.315,207.26 184.815,212.926 183,218.5C 179.648,213.797 176.815,208.797 174.5,203.5C 174.663,201.143 174.497,198.81 174,196.5C 173.392,198.154 172.892,199.821 172.5,201.5C 167.231,204.808 161.898,208.142 156.5,211.5C 156.167,211 155.833,210.5 155.5,210C 157.078,204.856 158.578,199.689 160,194.5C 160.833,193.667 161.667,192.833 162.5,192C 155.243,191.626 148.243,190.292 141.5,188C 147.65,182.757 154.65,179.424 162.5,178C 159.262,177.768 156.762,176.268 155,173.5C 152.75,169.332 150.25,165.332 147.5,161.5C 155.081,161.269 162.081,163.269 168.5,167.5C 168.179,166.183 167.846,164.849 167.5,163.5C 168.992,157.865 170.326,152.198 171.5,146.5C 174.546,149.385 177.046,152.718 179,156.5C 180.562,158.957 181.562,161.624 182,164.5C 182.465,163.069 183.299,161.903 184.5,161C 189.298,158.365 193.965,155.532 198.5,152.5C 198.486,158.578 197.153,164.578 194.5,170.5C 193.23,171.288 192.23,172.288 191.5,173.5 Z"/></g>
<g><path style="opacity:1" fill="#f38d73" d="M 173.5,175.5 C 171.915,174.998 171.415,173.998 172,172.5C 173.039,173.244 173.539,174.244 173.5,175.5 Z"/></g>
<g><path style="opacity:1" fill="#f28368" d="M 168.5,167.5 C 170.085,168.002 170.585,169.002 170,170.5C 168.961,169.756 168.461,168.756 168.5,167.5 Z"/></g>
<g><path style="opacity:1" fill="#f3a288" d="M 198.5,185.5 C 198.167,186.167 197.833,186.833 197.5,187.5C 194.579,186.519 191.579,185.685 188.5,185C 191.826,184.828 195.159,184.995 198.5,185.5 Z"/></g>
<g><path style="opacity:1" fill="#f16750" d="M 459.5,182.5 C 459.489,184.017 458.823,185.184 457.5,186C 458.665,187.992 459.998,189.825 461.5,191.5C 459.938,191.267 458.605,190.6 457.5,189.5C 456.209,189.263 455.209,189.596 454.5,190.5C 453.527,192.139 452.194,193.473 450.5,194.5C 451.242,192.574 452.242,190.741 453.5,189C 452.833,188.667 452.167,188.333 451.5,188C 452.684,186.855 452.684,185.688 451.5,184.5C 452.496,184.414 453.329,184.748 454,185.5C 454.333,183.5 454.667,181.5 455,179.5C 454.945,184.131 456.445,185.131 459.5,182.5 Z"/></g>
<g><path style="opacity:1" fill="#f3a98f" d="M 475.5,183.5 C 475.833,184.167 476.167,184.833 476.5,185.5C 471.828,186.003 467.161,186.169 462.5,186C 466.918,185.376 471.251,184.543 475.5,183.5 Z"/></g>
<g><path style="opacity:1" fill="#f5e8dd" d="M 475.5,183.5 C 471.251,184.543 466.918,185.376 462.5,186C 467.161,186.169 471.828,186.003 476.5,185.5C 481.62,188.78 486.62,192.28 491.5,196C 485.018,197.577 478.351,198.411 471.5,198.5C 469.777,196.782 467.777,195.449 465.5,194.5C 464.738,192.738 463.404,191.738 461.5,191.5C 459.998,189.825 458.665,187.992 457.5,186C 458.823,185.184 459.489,184.017 459.5,182.5C 461.262,181.738 462.262,180.404 462.5,178.5C 464.262,177.738 465.262,176.404 465.5,174.5C 466.833,173.833 467.833,172.833 468.5,171.5C 474.771,170.182 481.104,169.349 487.5,169C 484.013,174.315 480.013,179.148 475.5,183.5 Z"/></g>
<g><path style="opacity:1" fill="#f2846a" d="M 170.5,186.5 C 169.998,188.085 168.998,188.585 167.5,188C 168.244,186.961 169.244,186.461 170.5,186.5 Z"/></g>
<g><path style="opacity:1" fill="#8a553f" d="M 202.5,186.5 C 204.857,186.337 207.19,186.503 209.5,187C 212.124,187.576 212.791,188.91 211.5,191C 208.412,191.847 205.579,191.347 203,189.5C 202.517,188.552 202.351,187.552 202.5,186.5 Z"/></g>
<g><path style="opacity:1" fill="#f1ab91" d="M 547.5,186.5 C 546.833,187.167 546.167,187.833 545.5,188.5C 545.212,185.134 545.046,181.8 545,178.5C 545.84,181.202 546.673,183.868 547.5,186.5 Z"/></g>
<g><path style="opacity:1" fill="#f49c82" d="M 284.5,184.5 C 283.089,186.914 281.089,188.581 278.5,189.5C 279.911,187.086 281.911,185.419 284.5,184.5 Z"/></g>
<g><path style="opacity:1" fill="#f38a70" d="M 181.5,187.5 C 183.25,188.659 184.25,190.326 184.5,192.5C 182.75,191.341 181.75,189.674 181.5,187.5 Z"/></g>
<g><path style="opacity:1" fill="#f39378" d="M 262.5,185.5 C 265.19,187.193 267.19,189.527 268.5,192.5C 265.781,190.781 263.781,188.447 262.5,185.5 Z"/></g>
<g><path style="opacity:1" fill="#f5e7db" d="M 440.5,176.5 C 441.262,178.262 442.596,179.262 444.5,179.5C 444.973,180.906 445.973,181.573 447.5,181.5C 448.262,183.262 449.596,184.262 451.5,184.5C 452.684,185.688 452.684,186.855 451.5,188C 452.167,188.333 452.833,188.667 453.5,189C 452.242,190.741 451.242,192.574 450.5,194.5C 452.194,193.473 453.527,192.139 454.5,190.5C 455.117,190.611 455.617,190.944 456,191.5C 456.904,197.135 457.404,202.802 457.5,208.5C 453.831,213.175 450.164,217.842 446.5,222.5C 445.218,215.895 444.384,209.228 444,202.5C 438.473,204.156 432.806,205.489 427,206.5C 426.167,206.167 425.333,205.833 424.5,205.5C 428.186,200.764 431.853,196.097 435.5,191.5C 439.749,190.457 444.082,189.624 448.5,189C 443.839,188.831 439.172,188.997 434.5,189.5C 429.38,186.22 424.38,182.72 419.5,179C 426.265,176.925 433.265,176.091 440.5,176.5 Z"/></g>
<g><path style="opacity:1" fill="#f3a187" d="M 435.5,191.5 C 435.167,190.833 434.833,190.167 434.5,189.5C 439.172,188.997 443.839,188.831 448.5,189C 444.082,189.624 439.749,190.457 435.5,191.5 Z"/></g>
<g><path style="opacity:1" fill="#86553f" d="M 424.5,189.5 C 426.199,189.34 427.866,189.506 429.5,190C 430.727,191.587 430.394,192.921 428.5,194C 426.19,194.497 423.857,194.663 421.5,194.5C 421.31,192.041 422.31,190.374 424.5,189.5 Z"/></g>
<g><path style="opacity:1" fill="#f5e6da" d="M 457.5,189.5 C 458.605,190.6 459.938,191.267 461.5,191.5C 462.262,193.262 463.596,194.262 465.5,194.5C 466.585,196.587 468.251,197.92 470.5,198.5C 472.29,204.331 473.624,210.331 474.5,216.5C 474.167,217.5 473.833,218.5 473.5,219.5C 468.494,215.822 463.827,211.822 459.5,207.5C 458.182,201.617 457.515,195.617 457.5,189.5 Z"/></g>
<g><path style="opacity:1" fill="#b37c5e" d="M 525.5,190.5 C 529.091,190.461 531.091,192.294 531.5,196C 529.049,198.615 526.382,201.115 523.5,203.5C 522.341,199.878 522.175,196.211 523,192.5C 523.995,191.934 524.828,191.267 525.5,190.5 Z"/></g>
<g><path style="opacity:1" fill="#86553f" d="M 236.5,191.5 C 239.518,191.335 242.518,191.502 245.5,192C 246.833,193 246.833,194 245.5,195C 242.833,195.667 240.167,195.667 237.5,195C 236.663,193.989 236.33,192.822 236.5,191.5 Z"/></g>
<g><path style="opacity:1" fill="#f6b39c" d="M 376.5,166.5 C 376.5,171.833 376.5,177.167 376.5,182.5C 373.96,185.728 371.293,188.895 368.5,192C 367.906,192.464 367.239,192.631 366.5,192.5C 369.498,189.333 372.331,186 375,182.5C 375.173,176.984 375.673,171.651 376.5,166.5 Z"/></g>
<g><path style="opacity:1" fill="#f4ab93" d="M 454.5,190.5 C 455.209,189.596 456.209,189.263 457.5,189.5C 457.515,195.617 458.182,201.617 459.5,207.5C 458.833,207.833 458.167,208.167 457.5,208.5C 457.404,202.802 456.904,197.135 456,191.5C 455.617,190.944 455.117,190.611 454.5,190.5 Z"/></g>
<g><path style="opacity:1" fill="#8c553f" d="M 546.5,191.5 C 551.187,192.506 553.187,195.506 552.5,200.5C 547.813,199.494 545.813,196.494 546.5,191.5 Z"/></g>
<g><path style="opacity:1" fill="#f39076" d="M 461.5,191.5 C 463.404,191.738 464.738,192.738 465.5,194.5C 463.596,194.262 462.262,193.262 461.5,191.5 Z"/></g>
<g><path style="opacity:1" fill="#f4b49c" d="M 253.5,194.5 C 253.5,194.167 253.5,193.833 253.5,193.5C 258.493,193.916 263.493,194.249 268.5,194.5C 268.5,194.833 268.5,195.167 268.5,195.5C 263.463,195.587 258.463,195.254 253.5,194.5 Z"/></g>
<g><path style="opacity:1" fill="#f15c48" d="M 268.5,192.5 C 268.833,192.5 269.167,192.5 269.5,192.5C 270.568,193.434 271.901,193.768 273.5,193.5C 273.5,194.833 273.5,196.167 273.5,197.5C 271.901,197.232 270.568,197.566 269.5,198.5C 268.078,199.925 266.411,200.925 264.5,201.5C 266.252,199.754 267.585,197.754 268.5,195.5C 268.5,195.167 268.5,194.833 268.5,194.5C 268.5,193.833 268.5,193.167 268.5,192.5 Z"/></g>
<g><path style="opacity:1" fill="#f4a38a" d="M 272.5,176.5 C 272.833,176.5 273.167,176.5 273.5,176.5C 272.563,181.854 272.563,187.188 273.5,192.5C 274.94,191.048 276.606,190.048 278.5,189.5C 277.19,191.148 275.857,192.814 274.5,194.5C 279.477,195.407 284.477,196.073 289.5,196.5C 289.5,196.833 289.5,197.167 289.5,197.5C 284.474,196.605 279.474,196.605 274.5,197.5C 275.952,198.94 276.952,200.606 277.5,202.5C 275.871,201.375 274.371,200.041 273,198.5C 271.408,203.972 270.574,209.639 270.5,215.5C 270.167,215.5 269.833,215.5 269.5,215.5C 270.133,209.654 270.133,203.987 269.5,198.5C 270.568,197.566 271.901,197.232 273.5,197.5C 273.5,196.167 273.5,194.833 273.5,193.5C 271.901,193.768 270.568,193.434 269.5,192.5C 270.117,192.389 270.617,192.056 271,191.5C 271.272,186.451 271.772,181.451 272.5,176.5 Z"/></g>
<g><path style="opacity:1" fill="#b47b5e" d="M 148.5,194.5 C 154.554,193.856 156.72,196.523 155,202.5C 151.534,203.202 148.034,203.869 144.5,204.5C 144.167,204.167 143.833,203.833 143.5,203.5C 145.624,200.721 147.291,197.721 148.5,194.5 Z"/></g>
<g><path style="opacity:1" fill="#ef483a" d="M 359.5,194.5 C 359.833,194.5 360.167,194.5 360.5,194.5C 360.833,194.5 361.167,194.5 361.5,194.5C 362.5,194.5 363.5,194.5 364.5,194.5C 364.5,195.833 364.5,197.167 364.5,198.5C 363.833,198.5 363.5,198.833 363.5,199.5C 363.167,199.5 362.833,199.5 362.5,199.5C 362.5,198.833 362.167,198.5 361.5,198.5C 360.599,197.71 359.932,196.71 359.5,195.5C 359.5,195.167 359.5,194.833 359.5,194.5 Z"/></g>
<g><path style="opacity:1" fill="#8b553f" d="M 390.5,193.5 C 393.38,193.033 395.713,193.866 397.5,196C 394.377,199.126 391.044,199.293 387.5,196.5C 388.34,195.265 389.34,194.265 390.5,193.5 Z"/></g>
<g><path style="opacity:1" fill="#84553f" d="M 328.5,195.5 C 331.572,195.183 334.572,195.516 337.5,196.5C 336.45,198.873 334.617,199.873 332,199.5C 328.289,199.973 327.122,198.639 328.5,195.5 Z"/></g>
<g><path style="opacity:1" fill="#f3846a" d="M 465.5,194.5 C 467.777,195.449 469.777,196.782 471.5,198.5C 471.167,198.5 470.833,198.5 470.5,198.5C 468.251,197.92 466.585,196.587 465.5,194.5 Z"/></g>
<g><path style="opacity:1" fill="#f5e7db" d="M 289.5,197.5 C 291.903,197.393 293.736,198.393 295,200.5C 297.295,203.797 299.962,206.797 303,209.5C 303.483,210.448 303.649,211.448 303.5,212.5C 296.662,212.285 289.995,211.285 283.5,209.5C 282.243,206.573 280.243,204.239 277.5,202.5C 276.952,200.606 275.952,198.94 274.5,197.5C 279.474,196.605 284.474,196.605 289.5,197.5 Z"/></g>
<g><path style="opacity:1" fill="#82553f" d="M 297.5,195.5 C 300.983,194.916 303.983,195.749 306.5,198C 303.706,199.557 300.706,199.89 297.5,199C 296.316,197.855 296.316,196.688 297.5,195.5 Z"/></g>
<g><path style="opacity:1" fill="#f5eade" d="M 381.5,196.5 C 386.781,200.444 391.781,204.777 396.5,209.5C 390.202,210.496 383.868,210.83 377.5,210.5C 373.704,206.202 369.704,202.036 365.5,198C 370.645,196.554 375.979,196.054 381.5,196.5 Z"/></g>
<g><path style="opacity:1" fill="#f39075" d="M 450.5,194.5 C 450.315,196.196 449.481,197.529 448,198.5C 447.721,196.588 448.554,195.254 450.5,194.5 Z"/></g>
<g><path style="opacity:1" fill="#f5eade" d="M 344.5,197.5 C 349.544,197.173 354.544,197.506 359.5,198.5C 355.811,202.52 352.145,206.52 348.5,210.5C 342.144,211.353 335.81,211.353 329.5,210.5C 333.66,204.993 338.66,200.66 344.5,197.5 Z"/></g>
<g><path style="opacity:1" fill="#f5e7db" d="M 253.5,194.5 C 258.463,195.254 263.463,195.587 268.5,195.5C 267.585,197.754 266.252,199.754 264.5,201.5C 266.411,200.925 268.078,199.925 269.5,198.5C 270.133,203.987 270.133,209.654 269.5,215.5C 264.519,219.476 259.519,223.476 254.5,227.5C 254.167,226.667 253.833,225.833 253.5,225C 254.719,219.663 255.719,214.329 256.5,209C 249.845,208.213 243.179,207.547 236.5,207C 240.2,202.965 244.2,199.298 248.5,196C 250.025,194.991 251.692,194.491 253.5,194.5 Z"/></g>
<g><path style="opacity:1" fill="#f5e8dc" d="M 277.5,202.5 C 279.122,205.455 281.122,208.122 283.5,210.5C 283.829,217.241 283.329,223.908 282,230.5C 277.544,225.89 273.71,220.89 270.5,215.5C 270.574,209.639 271.408,203.972 273,198.5C 274.371,200.041 275.871,201.375 277.5,202.5 Z"/></g>
<g><path style="opacity:1" fill="#f5e2d5" d="M 72.5,199.5 C 76.1817,199.335 79.8484,199.501 83.5,200C 85.8468,203.528 87.5135,207.361 88.5,211.5C 95.4455,210.18 102.446,209.68 109.5,210C 111.833,213.667 114.167,217.333 116.5,221C 123.042,219.495 129.709,218.829 136.5,219C 140.654,222.154 144.487,225.654 148,229.5C 153.466,226.341 159.299,224.841 165.5,225C 168.346,229.179 171.846,232.679 176,235.5C 182.171,232.326 188.671,230.826 195.5,231C 199.329,234.161 203.162,237.328 207,240.5C 211.893,238.925 216.727,237.258 221.5,235.5C 223.577,235.692 225.577,236.192 227.5,237C 230.207,240.721 233.707,243.221 238,244.5C 242.64,242.099 247.473,240.099 252.5,238.5C 258.364,240.872 263.864,243.872 269,247.5C 274,245.5 279,243.5 284,241.5C 289.273,243.637 294.273,246.303 299,249.5C 303.91,246.459 309.076,244.126 314.5,242.5C 320.01,244.588 325.343,247.255 330.5,250.5C 335.116,246.706 340.282,244.039 346,242.5C 351.513,243.757 356.513,246.09 361,249.5C 364.431,247.739 367.597,245.572 370.5,243C 372.199,242.042 374.033,241.542 376,241.5C 381.414,243.204 386.747,245.204 392,247.5C 395.768,245.403 399.268,242.903 402.5,240C 405.167,239.333 407.833,239.333 410.5,240C 414.725,241.696 418.892,243.529 423,245.5C 426.118,243.385 428.952,240.885 431.5,238C 433.639,236.596 435.972,235.763 438.5,235.5C 443.822,237.163 449.155,238.829 454.5,240.5C 458.309,237.858 461.976,235.025 465.5,232C 472.377,231.885 479.044,233.052 485.5,235.5C 488.355,232.48 491.021,229.313 493.5,226C 500.205,225.154 506.705,225.987 513,228.5C 516.466,225.362 519.633,221.862 522.5,218C 529.205,218.006 535.872,218.34 542.5,219C 544.359,215.754 546.025,212.421 547.5,209C 555.908,209.128 564.242,208.961 572.5,208.5C 573.434,209.568 573.768,210.901 573.5,212.5C 566.222,212.804 558.889,212.971 551.5,213C 550.774,217.123 548.774,220.456 545.5,223C 538.821,222.797 532.154,222.463 525.5,222C 523.553,226.28 520.553,229.613 516.5,232C 510.188,231.205 503.854,230.538 497.5,230C 494.5,233 491.5,236 488.5,239C 482.007,239.01 475.673,237.844 469.5,235.5C 465.716,238.109 462.049,240.943 458.5,244C 451.671,244.174 445.171,242.674 439,239.5C 434.941,242.783 430.774,245.949 426.5,249C 424.167,249.667 421.833,249.667 419.5,249C 415.614,246.89 411.614,245.057 407.5,243.5C 403.671,245.257 400.338,247.757 397.5,251C 395.966,251.923 394.299,252.423 392.5,252.5C 386.963,251.066 381.629,249.066 376.5,246.5C 371.5,249.167 366.5,251.833 361.5,254.5C 356.279,252.307 351.112,249.973 346,247.5C 340.783,249.951 335.616,252.284 330.5,254.5C 324.547,252.773 319.047,250.107 314,246.5C 309.156,249.834 303.989,252.501 298.5,254.5C 293.659,251.579 288.659,248.912 283.5,246.5C 279.172,248.33 274.838,250.164 270.5,252C 268.833,252.667 267.167,252.667 265.5,252C 262.167,249.333 258.833,246.667 255.5,244C 254.5,243.833 253.5,243.667 252.5,243.5C 247.286,245.356 242.119,247.356 237,249.5C 235.373,249.375 233.873,248.875 232.5,248C 229.599,244.635 226.099,242.135 222,240.5C 216.333,242.167 210.667,243.833 205,245.5C 200.63,241.626 196.13,237.959 191.5,234.5C 185.031,237.163 178.364,238.663 171.5,239C 167.934,235.434 164.434,231.934 161,228.5C 155.41,231.148 149.577,232.314 143.5,232C 140.87,228.368 137.87,225.035 134.5,222C 127.574,223.131 120.574,223.797 113.5,224C 110.642,220.642 107.975,217.142 105.5,213.5C 104.5,213.167 103.5,212.833 102.5,212.5C 96.9691,214.469 91.3024,215.303 85.5,215C 84.6667,214.167 83.8333,213.333 83,212.5C 82.3392,209.198 81.1725,206.198 79.5,203.5C 77.1667,202.833 74.8333,202.167 72.5,201.5C 72.5,200.833 72.5,200.167 72.5,199.5 Z"/></g>
<g><path style="opacity:1" fill="#f4aa91" d="M 174.5,203.5 C 173.833,202.833 173.167,202.167 172.5,201.5C 172.892,199.821 173.392,198.154 174,196.5C 174.497,198.81 174.663,201.143 174.5,203.5 Z"/></g>
<g><path style="opacity:1" fill="#f5e8dc" d="M 361.5,198.5 C 362.167,198.5 362.5,198.833 362.5,199.5C 362.575,205.529 362.241,211.529 361.5,217.5C 357.833,221.833 353.833,225.833 349.5,229.5C 348.514,225.03 348.181,220.363 348.5,215.5C 348.5,214.167 348.5,212.833 348.5,211.5C 353.167,207.5 357.5,203.167 361.5,198.5 Z"/></g>
<g><path style="opacity:1" fill="#f5eade" d="M 364.5,198.5 C 368.167,202.833 372.167,206.833 376.5,210.5C 376.666,217.175 376.5,223.842 376,230.5C 371.602,226.271 367.436,221.938 363.5,217.5C 363.5,211.5 363.5,205.5 363.5,199.5C 363.5,198.833 363.833,198.5 364.5,198.5 Z"/></g>
<g><path style="opacity:1" fill="#f4987e" d="M 361.5,179.5 C 361.833,179.5 362.167,179.5 362.5,179.5C 362.5,184.167 362.5,188.833 362.5,193.5C 363.959,193.567 365.292,193.234 366.5,192.5C 366.586,193.496 366.252,194.329 365.5,195C 370.823,195.499 376.156,195.666 381.5,195.5C 381.5,195.833 381.5,196.167 381.5,196.5C 375.979,196.054 370.645,196.554 365.5,198C 369.704,202.036 373.704,206.202 377.5,210.5C 377.167,210.5 376.833,210.5 376.5,210.5C 372.167,206.833 368.167,202.833 364.5,198.5C 364.5,197.167 364.5,195.833 364.5,194.5C 363.5,194.5 362.5,194.5 361.5,194.5C 361.5,189.5 361.5,184.5 361.5,179.5 Z"/></g>
<g><path style="opacity:1" fill="#b37c5f" d="M 479.5,201.5 C 480.978,201.238 482.311,201.571 483.5,202.5C 484.833,205.167 486.167,207.833 487.5,210.5C 486.833,210.833 486.167,211.167 485.5,211.5C 482.855,210.892 480.188,210.392 477.5,210C 476.565,207.619 476.232,205.119 476.5,202.5C 477.791,202.737 478.791,202.404 479.5,201.5 Z"/></g>
<g><path style="opacity:1" fill="#f29a80" d="M 72.5,201.5 C 74.8333,202.167 77.1667,202.833 79.5,203.5C 76.8333,203.5 74.1667,203.5 71.5,203.5C 71.3284,202.508 71.6618,201.842 72.5,201.5 Z"/></g>
<g><path style="opacity:1" fill="#ef4c3d" d="M 71.5,203.5 C 74.1667,203.5 76.8333,203.5 79.5,203.5C 81.1725,206.198 82.3392,209.198 83,212.5C 83.8333,213.333 84.6667,214.167 85.5,215C 91.3024,215.303 96.9691,214.469 102.5,212.5C 103.5,212.833 104.5,213.167 105.5,213.5C 107.975,217.142 110.642,220.642 113.5,224C 120.574,223.797 127.574,223.131 134.5,222C 137.87,225.035 140.87,228.368 143.5,232C 149.577,232.314 155.41,231.148 161,228.5C 164.434,231.934 167.934,235.434 171.5,239C 178.364,238.663 185.031,237.163 191.5,234.5C 196.13,237.959 200.63,241.626 205,245.5C 210.667,243.833 216.333,242.167 222,240.5C 226.099,242.135 229.599,244.635 232.5,248C 233.873,248.875 235.373,249.375 237,249.5C 242.119,247.356 247.286,245.356 252.5,243.5C 253.5,243.667 254.5,243.833 255.5,244C 258.833,246.667 262.167,249.333 265.5,252C 267.167,252.667 268.833,252.667 270.5,252C 274.838,250.164 279.172,248.33 283.5,246.5C 288.659,248.912 293.659,251.579 298.5,254.5C 303.989,252.501 309.156,249.834 314,246.5C 319.047,250.107 324.547,252.773 330.5,254.5C 335.616,252.284 340.783,249.951 346,247.5C 351.112,249.973 356.279,252.307 361.5,254.5C 366.5,251.833 371.5,249.167 376.5,246.5C 381.629,249.066 386.963,251.066 392.5,252.5C 394.299,252.423 395.966,251.923 397.5,251C 400.338,247.757 403.671,245.257 407.5,243.5C 411.614,245.057 415.614,246.89 419.5,249C 421.833,249.667 424.167,249.667 426.5,249C 430.774,245.949 434.941,242.783 439,239.5C 445.171,242.674 451.671,244.174 458.5,244C 462.049,240.943 465.716,238.109 469.5,235.5C 475.673,237.844 482.007,239.01 488.5,239C 491.5,236 494.5,233 497.5,230C 503.854,230.538 510.188,231.205 516.5,232C 520.553,229.613 523.553,226.28 525.5,222C 532.154,222.463 538.821,222.797 545.5,223C 548.774,220.456 550.774,217.123 551.5,213C 558.889,212.971 566.222,212.804 573.5,212.5C 574.924,214.515 575.59,216.848 575.5,219.5C 568.221,220.451 560.887,220.618 553.5,220C 551.366,222.889 549.699,226.056 548.5,229.5C 547.333,229.833 546.167,230.167 545,230.5C 539.195,229.336 533.362,228.836 527.5,229C 524.639,231.894 522.139,235.061 520,238.5C 519.275,239.059 518.442,239.392 517.5,239.5C 511.28,237.573 504.947,236.74 498.5,237C 495.375,240.113 492.375,243.28 489.5,246.5C 483.025,244.046 476.358,242.879 469.5,243C 465.892,246.451 461.892,249.284 457.5,251.5C 453.411,250.637 449.411,249.47 445.5,248C 442.833,247.333 440.167,247.333 437.5,248C 433.644,251.357 429.644,254.524 425.5,257.5C 420.277,254.47 414.777,252.137 409,250.5C 407.373,250.625 405.873,251.125 404.5,252C 401.268,254.903 397.768,257.403 394,259.5C 388.771,256.885 383.438,254.551 378,252.5C 372.483,254.84 367.317,257.84 362.5,261.5C 357.998,257.665 352.831,255.332 347,254.5C 345.5,254.667 344,254.833 342.5,255C 338.913,257.583 335.08,259.75 331,261.5C 325.662,258.414 320.162,255.747 314.5,253.5C 309.339,255.998 304.172,258.665 299,261.5C 294.38,258.109 289.547,255.109 284.5,252.5C 279.167,254.833 273.833,257.167 268.5,259.5C 263.433,255.771 258.099,252.438 252.5,249.5C 246.902,251.301 241.569,253.634 236.5,256.5C 232.364,253.926 228.364,251.092 224.5,248C 217.673,247.815 211.173,249.315 205,252.5C 200.644,247.835 195.644,244.168 190,241.5C 184.255,243.304 178.588,245.304 173,247.5C 169.464,244.299 166.297,240.799 163.5,237C 156.959,236.066 150.792,237.233 145,240.5C 141.53,236.701 137.697,233.201 133.5,230C 126.858,229.543 120.358,230.376 114,232.5C 110.806,228.967 107.973,225.134 105.5,221C 99.577,220.342 93.7436,220.842 88,222.5C 86.8333,222.167 85.6667,221.833 84.5,221.5C 83.2183,217.772 81.5516,214.272 79.5,211C 76.1832,210.502 72.8499,210.335 69.5,210.5C 70.1667,208.167 70.8333,205.833 71.5,203.5 Z"/></g>
<g><path style="opacity:1" fill="#b47b5e" d="M 190.5,204.5 C 193.119,204.232 195.619,204.565 198,205.5C 198.361,208.525 198.861,211.525 199.5,214.5C 199.167,215.167 198.833,215.833 198.5,216.5C 195.833,214.833 193.167,213.167 190.5,211.5C 189.637,209.229 189.637,206.895 190.5,204.5 Z"/></g>
<g><path style="opacity:1" fill="#f3a187" d="M 362.5,199.5 C 362.833,199.5 363.167,199.5 363.5,199.5C 363.5,205.5 363.5,211.5 363.5,217.5C 362.833,217.5 362.167,217.5 361.5,217.5C 362.241,211.529 362.575,205.529 362.5,199.5 Z"/></g>
<g><path style="opacity:1" fill="#f6aa92" d="M 264.5,201.5 C 263.121,204.073 261.121,205.573 258.5,206C 260.114,203.873 262.114,202.373 264.5,201.5 Z"/></g>
<g><path style="opacity:1" fill="#f3896e" d="M 277.5,202.5 C 280.243,204.239 282.243,206.573 283.5,209.5C 283.5,209.833 283.5,210.167 283.5,210.5C 281.122,208.122 279.122,205.455 277.5,202.5 Z"/></g>
<g><path style="opacity:1" fill="#f5aa91" d="M 359.5,195.5 C 359.932,196.71 360.599,197.71 361.5,198.5C 357.5,203.167 353.167,207.5 348.5,211.5C 348.5,211.167 348.5,210.833 348.5,210.5C 352.145,206.52 355.811,202.52 359.5,198.5C 354.544,197.506 349.544,197.173 344.5,197.5C 344.5,197.167 344.5,196.833 344.5,196.5C 349.562,196.726 354.562,196.392 359.5,195.5 Z"/></g>
<g><path style="opacity:1" fill="#80553f" d="M 169.5,206.5 C 170.5,206.5 171.5,206.5 172.5,206.5C 172.663,208.857 172.497,211.19 172,213.5C 171.29,214.973 170.124,215.64 168.5,215.5C 168.368,212.43 168.701,209.43 169.5,206.5 Z"/></g>
<g><path style="opacity:1" fill="#b37c5f" d="M 434.5,208.5 C 441.158,207.344 443.158,209.844 440.5,216C 437.671,217.247 435.005,218.747 432.5,220.5C 432.167,220 431.833,219.5 431.5,219C 432.694,215.515 433.694,212.015 434.5,208.5 Z"/></g>
<g><path style="opacity:1" fill="#f5e3d5" d="M 69.5,210.5 C 72.8499,210.335 76.1832,210.502 79.5,211C 81.5516,214.272 83.2183,217.772 84.5,221.5C 85.6667,221.833 86.8333,222.167 88,222.5C 93.7436,220.842 99.577,220.342 105.5,221C 107.973,225.134 110.806,228.967 114,232.5C 120.358,230.376 126.858,229.543 133.5,230C 137.697,233.201 141.53,236.701 145,240.5C 150.792,237.233 156.959,236.066 163.5,237C 166.297,240.799 169.464,244.299 173,247.5C 178.588,245.304 184.255,243.304 190,241.5C 195.644,244.168 200.644,247.835 205,252.5C 211.173,249.315 217.673,247.815 224.5,248C 228.364,251.092 232.364,253.926 236.5,256.5C 241.569,253.634 246.902,251.301 252.5,249.5C 258.099,252.438 263.433,255.771 268.5,259.5C 273.833,257.167 279.167,254.833 284.5,252.5C 289.547,255.109 294.38,258.109 299,261.5C 304.172,258.665 309.339,255.998 314.5,253.5C 320.162,255.747 325.662,258.414 331,261.5C 335.08,259.75 338.913,257.583 342.5,255C 344,254.833 345.5,254.667 347,254.5C 352.831,255.332 357.998,257.665 362.5,261.5C 367.317,257.84 372.483,254.84 378,252.5C 383.438,254.551 388.771,256.885 394,259.5C 397.768,257.403 401.268,254.903 404.5,252C 405.873,251.125 407.373,250.625 409,250.5C 414.777,252.137 420.277,254.47 425.5,257.5C 429.644,254.524 433.644,251.357 437.5,248C 440.167,247.333 442.833,247.333 445.5,248C 449.411,249.47 453.411,250.637 457.5,251.5C 461.892,249.284 465.892,246.451 469.5,243C 476.358,242.879 483.025,244.046 489.5,246.5C 492.375,243.28 495.375,240.113 498.5,237C 504.947,236.74 511.28,237.573 517.5,239.5C 518.442,239.392 519.275,239.059 520,238.5C 522.139,235.061 524.639,231.894 527.5,229C 533.362,228.836 539.195,229.336 545,230.5C 546.167,230.167 547.333,229.833 548.5,229.5C 549.699,226.056 551.366,222.889 553.5,220C 560.887,220.618 568.221,220.451 575.5,219.5C 576.537,220.93 577.204,222.597 577.5,224.5C 570.846,223.693 564.18,223.526 557.5,224C 556.268,227.798 554.268,231.131 551.5,234C 544.47,233.993 537.47,233.66 530.5,233C 528.553,237.28 525.553,240.613 521.5,243C 515.142,242.547 508.809,241.88 502.5,241C 499.167,244.333 495.833,247.667 492.5,251C 485.202,249.791 477.868,248.791 470.5,248C 466.875,251.722 462.708,254.555 458,256.5C 452.732,255.133 447.565,253.466 442.5,251.5C 438.486,253.004 435.152,255.504 432.5,259C 430.361,260.404 428.028,261.237 425.5,261.5C 420.286,259.644 415.119,257.644 410,255.5C 405.95,257.119 402.45,259.619 399.5,263C 397.966,263.923 396.299,264.423 394.5,264.5C 388.832,262.583 383.332,260.25 378,257.5C 374.167,260 370.333,262.5 366.5,265C 364.167,265.667 361.833,265.667 359.5,265C 355.614,262.89 351.614,261.057 347.5,259.5C 341.835,261.551 336.335,263.885 331,266.5C 325.446,263.973 319.946,261.307 314.5,258.5C 309.289,261.352 303.956,264.019 298.5,266.5C 293.704,263.264 288.704,260.264 283.5,257.5C 278.396,260.386 273.062,262.719 267.5,264.5C 261.901,261.562 256.567,258.229 251.5,254.5C 246.476,256.931 241.309,258.931 236,260.5C 234.833,260.333 233.667,260.167 232.5,260C 229.5,257.667 226.5,255.333 223.5,253C 216.622,253.218 209.956,254.718 203.5,257.5C 199.205,253.215 194.538,249.215 189.5,245.5C 182.827,248.786 175.827,250.286 168.5,250C 165.227,246.217 161.561,243.05 157.5,240.5C 153.417,241.361 149.417,242.527 145.5,244C 143.833,244.667 142.167,244.667 140.5,244C 137.615,239.872 134.281,236.206 130.5,233C 123.591,234.312 116.591,234.979 109.5,235C 106.447,231.613 103.78,227.947 101.5,224C 94.8333,224.667 88.1667,225.333 81.5,226C 78.8427,222.543 76.8427,218.709 75.5,214.5C 73.1561,214.06 71.1561,213.06 69.5,211.5C 69.5,211.167 69.5,210.833 69.5,210.5 Z"/></g>
<g><path style="opacity:1" fill="#b57a5d" d="M 244.5,211.5 C 246.833,211.5 249.167,211.5 251.5,211.5C 252.092,214.127 252.425,216.794 252.5,219.5C 248.622,219.719 244.956,220.719 241.5,222.5C 241.167,222.167 240.833,221.833 240.5,221.5C 242.4,218.371 243.733,215.037 244.5,211.5 Z"/></g>
<g><path style="opacity:1" fill="#80553f" d="M 457.5,212.5 C 458.822,212.33 459.989,212.663 461,213.5C 461.497,216.146 461.664,218.813 461.5,221.5C 459.876,221.64 458.71,220.973 458,219.5C 457.503,217.19 457.337,214.857 457.5,212.5 Z"/></g>
<g><path style="opacity:1" fill="#f2846a" d="M 69.5,211.5 C 71.1561,213.06 73.1561,214.06 75.5,214.5C 73.1667,214.5 70.8333,214.5 68.5,214.5C 68.2627,213.209 68.596,212.209 69.5,211.5 Z"/></g>
<g><path style="opacity:0.997" fill="#ee4538" d="M 68.5,214.5 C 70.8333,214.5 73.1667,214.5 75.5,214.5C 76.8427,218.709 78.8427,222.543 81.5,226C 88.1667,225.333 94.8333,224.667 101.5,224C 103.78,227.947 106.447,231.613 109.5,235C 116.591,234.979 123.591,234.312 130.5,233C 134.281,236.206 137.615,239.872 140.5,244C 142.167,244.667 143.833,244.667 145.5,244C 149.417,242.527 153.417,241.361 157.5,240.5C 161.561,243.05 165.227,246.217 168.5,250C 175.827,250.286 182.827,248.786 189.5,245.5C 194.538,249.215 199.205,253.215 203.5,257.5C 209.956,254.718 216.622,253.218 223.5,253C 226.5,255.333 229.5,257.667 232.5,260C 233.667,260.167 234.833,260.333 236,260.5C 241.309,258.931 246.476,256.931 251.5,254.5C 256.567,258.229 261.901,261.562 267.5,264.5C 273.062,262.719 278.396,260.386 283.5,257.5C 288.704,260.264 293.704,263.264 298.5,266.5C 303.956,264.019 309.289,261.352 314.5,258.5C 319.946,261.307 325.446,263.973 331,266.5C 336.335,263.885 341.835,261.551 347.5,259.5C 351.614,261.057 355.614,262.89 359.5,265C 361.833,265.667 364.167,265.667 366.5,265C 370.333,262.5 374.167,260 378,257.5C 383.332,260.25 388.832,262.583 394.5,264.5C 396.299,264.423 397.966,263.923 399.5,263C 402.45,259.619 405.95,257.119 410,255.5C 415.119,257.644 420.286,259.644 425.5,261.5C 428.028,261.237 430.361,260.404 432.5,259C 435.152,255.504 438.486,253.004 442.5,251.5C 447.565,253.466 452.732,255.133 458,256.5C 462.708,254.555 466.875,251.722 470.5,248C 477.868,248.791 485.202,249.791 492.5,251C 495.833,247.667 499.167,244.333 502.5,241C 508.809,241.88 515.142,242.547 521.5,243C 525.553,240.613 528.553,237.28 530.5,233C 537.47,233.66 544.47,233.993 551.5,234C 554.268,231.131 556.268,227.798 557.5,224C 564.18,223.526 570.846,223.693 577.5,224.5C 581.421,240.763 586.254,256.763 592,272.5C 604.727,300.287 617.727,327.954 631,355.5C 635.648,366.271 639.148,377.271 641.5,388.5C 641.5,390.167 641.5,391.833 641.5,393.5C 638.201,392.624 634.868,392.457 631.5,393C 627.592,397.485 623.926,402.152 620.5,407C 614.514,406.537 608.514,406.204 602.5,406C 599.167,410 595.833,414 592.5,418C 586.144,417.44 579.81,416.773 573.5,416C 569.657,421.009 565.324,425.509 560.5,429.5C 554.703,427.064 548.703,426.231 542.5,427C 538.571,431.1 534.571,434.934 530.5,438.5C 525.898,437.465 521.398,436.132 517,434.5C 515.467,434.773 513.967,435.106 512.5,435.5C 506.981,428.134 503.481,419.801 502,410.5C 499.391,384.739 496.057,359.073 492,333.5C 488.817,317.952 484.817,302.618 480,287.5C 479.323,302.853 479.657,318.186 481,333.5C 483.429,354.646 486.763,375.646 491,396.5C 491.89,406.927 491.39,417.26 489.5,427.5C 486.434,430.732 482.934,433.399 479,435.5C 472.433,432.641 465.6,431.474 458.5,432C 454.655,435.18 450.822,438.347 447,441.5C 441.966,438.648 436.633,436.648 431,435.5C 429.033,435.542 427.199,436.042 425.5,437C 422.77,440.108 419.603,442.608 416,444.5C 410.648,441.995 405.148,439.995 399.5,438.5C 393.812,440.185 388.812,443.185 384.5,447.5C 380.123,443.811 375.123,441.478 369.5,440.5C 363.469,442.021 357.969,444.688 353,448.5C 347.969,444.901 342.469,442.235 336.5,440.5C 331.01,442.495 325.843,445.162 321,448.5C 316.273,445.303 311.273,442.637 306,440.5C 300.562,442.551 295.229,444.885 290,447.5C 285.171,443.416 279.838,440.083 274,437.5C 268.841,439.999 263.675,442.332 258.5,444.5C 257.5,444.333 256.5,444.167 255.5,444C 252.101,439.64 247.768,436.807 242.5,435.5C 237.408,437.211 232.408,439.211 227.5,441.5C 223.356,438.524 219.356,435.357 215.5,432C 212.833,431.333 210.167,431.333 207.5,432C 203.605,433.781 199.605,435.281 195.5,436.5C 191.052,433.886 187.385,430.386 184.5,426C 182.5,425.333 180.5,425.333 178.5,426C 174.948,427.795 171.282,429.295 167.5,430.5C 163.418,427.925 159.751,424.758 156.5,421C 154.655,419.872 152.655,419.372 150.5,419.5C 150.334,411.16 150.5,402.827 151,394.5C 156.42,370.401 160.42,346.067 163,321.5C 163.254,312.813 163.754,304.147 164.5,295.5C 163.89,291.514 163.39,287.514 163,283.5C 150.383,323.917 142.383,365.251 139,407.5C 137.171,417.189 133.338,425.856 127.5,433.5C 126.376,432.191 124.876,431.525 123,431.5C 118.538,432.982 114.038,434.316 109.5,435.5C 106.043,431.542 102.377,427.708 98.5,424C 97.1268,423.125 95.6268,422.625 94,422.5C 88.8418,423.786 83.6751,424.619 78.5,425C 74.8115,420.314 70.8115,415.981 66.5,412C 60.5,412.667 54.5,413.333 48.5,414C 45.2567,410.179 42.2567,406.179 39.5,402C 32.8273,401.88 26.1606,401.88 19.5,402C 16.5,397.667 13.5,393.333 10.5,389C 7.25314,387.356 3.91981,387.189 0.5,388.5C 0.166667,388.5 -0.166667,388.5 -0.5,388.5C -0.5,387.5 -0.5,386.5 -0.5,385.5C 1.85237,374.271 5.35237,363.271 10,352.5C 24.1951,324.776 37.8617,296.776 51,268.5C 57.469,250.594 63.3023,232.594 68.5,214.5 Z"/></g>
<g><path style="opacity:1" fill="#b37c5e" d="M 380.5,214.5 C 383.167,214.5 385.833,214.5 388.5,214.5C 389.47,218.219 390.304,221.886 391,225.5C 387.815,223.772 384.481,222.439 381,221.5C 380.503,219.19 380.337,216.857 380.5,214.5 Z"/></g>
<g><path style="opacity:1" fill="#b57b5d" d="M 287.5,215.5 C 290.167,215.5 292.833,215.5 295.5,215.5C 295.768,218.74 296.434,221.906 297.5,225C 297.167,225.5 296.833,226 296.5,226.5C 293.41,224.611 290.243,222.945 287,221.5C 286.322,219.402 286.489,217.402 287.5,215.5 Z"/></g>
<g><path style="opacity:1" fill="#b47b5e" d="M 338.5,214.5 C 344.502,213.804 346.835,216.471 345.5,222.5C 341.668,222.944 338.168,224.278 335,226.5C 335.264,222.287 336.43,218.287 338.5,214.5 Z"/></g>
<g><path style="opacity:1" fill="#82553f" d="M 267.5,220.5 C 268.5,220.5 269.5,220.5 270.5,220.5C 271.12,224.302 270.286,227.635 268,230.5C 266.182,227.278 266.016,223.945 267.5,220.5 Z"/></g>
<g><path style="opacity:1" fill="#82553f" d="M 361.5,221.5 C 363.95,221.874 364.95,223.374 364.5,226C 363.316,233.063 361.983,233.23 360.5,226.5C 360.592,224.742 360.925,223.076 361.5,221.5 Z"/></g>
<g><path style="opacity:1" fill="#f28c71" d="M 348.5,215.5 C 348.181,220.363 348.514,225.03 349.5,229.5C 349.44,230.043 349.107,230.376 348.5,230.5C 347.186,225.348 347.186,220.348 348.5,215.5 Z"/></g>
<g><path style="opacity:1" fill="#f5e3d5" d="M 127.5,433.5 C 127.573,435.027 126.906,436.027 125.5,436.5C 120.276,438.139 114.943,439.473 109.5,440.5C 104.748,437.255 100.415,433.422 96.5,429C 89.7686,428.684 83.1019,429.018 76.5,430C 72.6575,424.991 68.3241,420.491 63.5,416.5C 57.9439,418.254 52.2772,419.088 46.5,419C 43.1667,415 39.8333,411 36.5,407C 30.1701,407.066 23.8368,407.066 17.5,407C 13.9213,402.509 10.5879,397.843 7.5,393C 5.19018,392.503 2.85684,392.337 0.5,392.5C 0.5,391.167 0.5,389.833 0.5,388.5C 3.91981,387.189 7.25314,387.356 10.5,389C 13.5,393.333 16.5,397.667 19.5,402C 26.1606,401.88 32.8273,401.88 39.5,402C 42.2567,406.179 45.2567,410.179 48.5,414C 54.5,413.333 60.5,412.667 66.5,412C 70.8115,415.981 74.8115,420.314 78.5,425C 83.6751,424.619 88.8418,423.786 94,422.5C 95.6268,422.625 97.1268,423.125 98.5,424C 102.377,427.708 106.043,431.542 109.5,435.5C 114.038,434.316 118.538,432.982 123,431.5C 124.876,431.525 126.376,432.191 127.5,433.5 Z"/></g>
<g><path style="opacity:1" fill="#ef4c3d" d="M -0.5,388.5 C -0.166667,388.5 0.166667,388.5 0.5,388.5C 0.5,389.833 0.5,391.167 0.5,392.5C 2.85684,392.337 5.19018,392.503 7.5,393C 10.5879,397.843 13.9213,402.509 17.5,407C 23.8368,407.066 30.1701,407.066 36.5,407C 39.8333,411 43.1667,415 46.5,419C 52.2772,419.088 57.9439,418.254 63.5,416.5C 68.3241,420.491 72.6575,424.991 76.5,430C 83.1019,429.018 89.7686,428.684 96.5,429C 100.415,433.422 104.748,437.255 109.5,440.5C 114.943,439.473 120.276,438.139 125.5,436.5C 122.833,439.833 119.833,442.833 116.5,445.5C 116.565,445.062 116.399,444.728 116,444.5C 112.891,445.591 109.725,446.591 106.5,447.5C 102.322,443.821 98.3219,439.988 94.5,436C 87.7335,435.455 81.0668,435.788 74.5,437C 70.8115,432.314 66.8115,427.981 62.5,424C 56.217,424.753 49.8836,425.086 43.5,425C 40.1667,421 36.8333,417 33.5,413C 27.1701,413.066 20.8368,413.066 14.5,413C 11.2147,408.046 7.54799,403.38 3.5,399C 2.55198,398.517 1.55198,398.351 0.5,398.5C 0.767809,396.901 0.434475,395.568 -0.5,394.5C -0.5,392.5 -0.5,390.5 -0.5,388.5 Z"/></g>
<g><path style="opacity:1" fill="#f5e3d6" d="M 641.5,393.5 C 641.5,394.833 641.5,396.167 641.5,397.5C 638.813,397.336 636.146,397.503 633.5,398C 630.519,402.643 627.185,406.976 623.5,411C 617.157,411.18 610.824,411.18 604.5,411C 601.167,415 597.833,419 594.5,423C 588.082,422.792 581.749,422.125 575.5,421C 571.868,425.634 567.868,429.967 563.5,434C 557.69,433.377 551.857,432.544 546,431.5C 541.545,434.952 537.378,438.786 533.5,443C 527.269,443.11 521.269,441.943 515.5,439.5C 513.738,438.738 512.738,437.404 512.5,435.5C 513.967,435.106 515.467,434.773 517,434.5C 521.398,436.132 525.898,437.465 530.5,438.5C 534.571,434.934 538.571,431.1 542.5,427C 548.703,426.231 554.703,427.064 560.5,429.5C 565.324,425.509 569.657,421.009 573.5,416C 579.81,416.773 586.144,417.44 592.5,418C 595.833,414 599.167,410 602.5,406C 608.514,406.204 614.514,406.537 620.5,407C 623.926,402.152 627.592,397.485 631.5,393C 634.868,392.457 638.201,392.624 641.5,393.5 Z"/></g>
<g><path style="opacity:0.995" fill="#ef4d3d" d="M 641.5,397.5 C 641.5,398.5 641.5,399.5 641.5,400.5C 640.596,401.209 640.263,402.209 640.5,403.5C 638.516,403.383 636.85,404.05 635.5,405.5C 632.306,409.527 629.306,413.694 626.5,418C 619.845,417.78 613.178,417.78 606.5,418C 603.167,422 599.833,426 596.5,430C 590.191,429.12 583.858,428.453 577.5,428C 573.132,432.033 569.132,436.366 565.5,441C 559.326,439.502 552.993,438.835 546.5,439C 542.167,442 538.5,445.667 535.5,450C 532.096,450.221 528.762,449.721 525.5,448.5C 524.893,448.624 524.56,448.957 524.5,449.5C 520.766,446.769 517.766,443.436 515.5,439.5C 521.269,441.943 527.269,443.11 533.5,443C 537.378,438.786 541.545,434.952 546,431.5C 551.857,432.544 557.69,433.377 563.5,434C 567.868,429.967 571.868,425.634 575.5,421C 581.749,422.125 588.082,422.792 594.5,423C 597.833,419 601.167,415 604.5,411C 610.824,411.18 617.157,411.18 623.5,411C 627.185,406.976 630.519,402.643 633.5,398C 636.146,397.503 638.813,397.336 641.5,397.5 Z"/></g>
<g><path style="opacity:1" fill="#f5e1d3" d="M 0.5,398.5 C 1.55198,398.351 2.55198,398.517 3.5,399C 7.54799,403.38 11.2147,408.046 14.5,413C 20.8368,413.066 27.1701,413.066 33.5,413C 36.8333,417 40.1667,421 43.5,425C 49.8836,425.086 56.217,424.753 62.5,424C 66.8115,427.981 70.8115,432.314 74.5,437C 81.0668,435.788 87.7335,435.455 94.5,436C 98.3219,439.988 102.322,443.821 106.5,447.5C 109.725,446.591 112.891,445.591 116,444.5C 116.399,444.728 116.565,445.062 116.5,445.5C 113.35,449.075 109.35,451.075 104.5,451.5C 100.095,448.604 96.0954,445.104 92.5,441C 85.7656,440.682 79.099,441.015 72.5,442C 68.6287,436.795 64.1287,432.295 59,428.5C 53.2887,430.351 47.4554,430.851 41.5,430C 38.1667,426 34.8333,422 31.5,418C 25.1701,418.066 18.8368,418.066 12.5,418C 8.53588,413.877 5.20254,409.377 2.5,404.5C 1.5418,402.698 0.875132,400.698 0.5,398.5 Z"/></g>
<g><path style="opacity:1" fill="#f5e2d4" d="M 640.5,403.5 C 640.125,405.698 639.458,407.698 638.5,409.5C 635.863,412.989 633.363,416.655 631,420.5C 630.097,421.701 628.931,422.535 627.5,423C 621.458,423.055 615.458,422.722 609.5,422C 605.632,426.865 601.465,431.365 597,435.5C 591.232,433.861 585.399,433.027 579.5,433C 575.868,437.634 571.868,441.967 567.5,446C 561.576,445.14 555.576,444.307 549.5,443.5C 545.146,447.188 541.146,451.188 537.5,455.5C 532.512,454.838 528.179,452.838 524.5,449.5C 524.56,448.957 524.893,448.624 525.5,448.5C 528.762,449.721 532.096,450.221 535.5,450C 538.5,445.667 542.167,442 546.5,439C 552.993,438.835 559.326,439.502 565.5,441C 569.132,436.366 573.132,432.033 577.5,428C 583.858,428.453 590.191,429.12 596.5,430C 599.833,426 603.167,422 606.5,418C 613.178,417.78 619.845,417.78 626.5,418C 629.306,413.694 632.306,409.527 635.5,405.5C 636.85,404.05 638.516,403.383 640.5,403.5 Z"/></g>
<g><path style="opacity:0.98" fill="#eb4036" d="M 638.5,409.5 C 635.805,420.037 629.805,428.204 620.5,434C 622.243,441.72 623.076,449.554 623,457.5C 622.617,458.056 622.117,458.389 621.5,458.5C 619.113,451.144 617.613,443.477 617,435.5C 614.577,436.785 612.744,438.618 611.5,441C 612.667,447.833 613.833,454.667 615,461.5C 615.278,462.416 615.778,463.082 616.5,463.5C 614.178,465.664 611.511,467.331 608.5,468.5C 606.143,460.437 603.81,452.437 601.5,444.5C 600.205,445.098 598.872,445.598 597.5,446C 596.941,446.725 596.608,447.558 596.5,448.5C 599.278,455.943 600.945,463.61 601.5,471.5C 597.785,473.405 593.785,474.738 589.5,475.5C 587.846,468.037 585.68,460.703 583,453.5C 580.377,450.886 577.877,451.053 575.5,454C 578.042,461.575 580.708,469.075 583.5,476.5C 580.411,477.785 577.078,478.451 573.5,478.5C 571.726,469.951 568.559,461.951 564,454.5C 561.853,455.113 559.686,455.779 557.5,456.5C 561.291,463.547 564.291,470.88 566.5,478.5C 563.821,478.327 561.487,477.327 559.5,475.5C 556.5,469.5 553.5,463.5 550.5,457.5C 546.162,456.713 541.828,456.046 537.5,455.5C 541.146,451.188 545.146,447.188 549.5,443.5C 555.576,444.307 561.576,445.14 567.5,446C 571.868,441.967 575.868,437.634 579.5,433C 585.399,433.027 591.232,433.861 597,435.5C 601.465,431.365 605.632,426.865 609.5,422C 615.458,422.722 621.458,423.055 627.5,423C 628.931,422.535 630.097,421.701 631,420.5C 633.363,416.655 635.863,412.989 638.5,409.5 Z"/></g>
<g><path style="opacity:1" fill="#eb4137" d="M 2.5,404.5 C 5.20254,409.377 8.53588,413.877 12.5,418C 18.8368,418.066 25.1701,418.066 31.5,418C 34.8333,422 38.1667,426 41.5,430C 47.4554,430.851 53.2887,430.351 59,428.5C 64.1287,432.295 68.6287,436.795 72.5,442C 79.099,441.015 85.7656,440.682 92.5,441C 96.0954,445.104 100.095,448.604 104.5,451.5C 99.6191,452.412 94.6191,453.412 89.5,454.5C 86.1394,459.888 83.3061,465.554 81,471.5C 79.005,473.747 76.505,474.747 73.5,474.5C 75.6614,467.173 78.6614,460.173 82.5,453.5C 78.424,450.312 75.2573,450.979 73,455.5C 70.4843,461.859 67.9843,468.192 65.5,474.5C 62.2186,474.58 59.2186,473.913 56.5,472.5C 59.7632,464.71 62.4299,456.71 64.5,448.5C 62.139,448.326 59.8056,447.993 57.5,447.5C 55.1667,455.5 52.8333,463.5 50.5,471.5C 45.5207,470.431 40.854,468.765 36.5,466.5C 37.5862,466.38 38.2528,465.713 38.5,464.5C 39.7959,457.116 41.7959,449.949 44.5,443C 42.3496,441.589 40.0163,440.755 37.5,440.5C 36.1455,448.582 34.4788,456.582 32.5,464.5C 29.2957,463.617 26.6291,461.95 24.5,459.5C 26.038,451.81 27.7047,444.144 29.5,436.5C 27.9918,434.493 26.1584,432.826 24,431.5C 22.9258,439.459 21.0924,447.126 18.5,454.5C 17.278,452.714 16.6113,450.714 16.5,448.5C 18.4018,441.878 19.0684,435.211 18.5,428.5C 10.1535,422.464 4.82015,414.464 2.5,404.5 Z"/></g>
<g><path style="opacity:1" fill="#f5e3d6" d="M 150.5,419.5 C 152.655,419.372 154.655,419.872 156.5,421C 159.751,424.758 163.418,427.925 167.5,430.5C 171.282,429.295 174.948,427.795 178.5,426C 180.5,425.333 182.5,425.333 184.5,426C 187.385,430.386 191.052,433.886 195.5,436.5C 199.605,435.281 203.605,433.781 207.5,432C 210.167,431.333 212.833,431.333 215.5,432C 219.356,435.357 223.356,438.524 227.5,441.5C 232.408,439.211 237.408,437.211 242.5,435.5C 247.768,436.807 252.101,439.64 255.5,444C 256.5,444.167 257.5,444.333 258.5,444.5C 263.675,442.332 268.841,439.999 274,437.5C 279.838,440.083 285.171,443.416 290,447.5C 295.229,444.885 300.562,442.551 306,440.5C 311.273,442.637 316.273,445.303 321,448.5C 325.843,445.162 331.01,442.495 336.5,440.5C 342.469,442.235 347.969,444.901 353,448.5C 357.969,444.688 363.469,442.021 369.5,440.5C 375.123,441.478 380.123,443.811 384.5,447.5C 388.812,443.185 393.812,440.185 399.5,438.5C 405.148,439.995 410.648,441.995 416,444.5C 419.603,442.608 422.77,440.108 425.5,437C 427.199,436.042 429.033,435.542 431,435.5C 436.633,436.648 441.966,438.648 447,441.5C 450.822,438.347 454.655,435.18 458.5,432C 465.6,431.474 472.433,432.641 479,435.5C 482.934,433.399 486.434,430.732 489.5,427.5C 488.946,430.746 487.946,433.746 486.5,436.5C 484.646,438.596 482.313,439.929 479.5,440.5C 473.662,438.064 467.662,436.564 461.5,436C 457.972,441.058 453.305,444.225 447.5,445.5C 442.947,444.704 438.614,443.204 434.5,441C 432.5,440.333 430.5,440.333 428.5,441C 425.353,445.504 421.187,448.337 416,449.5C 410.299,447.983 404.966,445.649 400,442.5C 395.426,446.585 390.26,449.585 384.5,451.5C 379.403,449.786 374.403,447.786 369.5,445.5C 363.857,447.655 358.523,450.322 353.5,453.5C 347.682,451.09 342.015,448.423 336.5,445.5C 331.446,448.694 326.112,451.361 320.5,453.5C 315.659,450.579 310.659,447.912 305.5,445.5C 301.56,446.804 297.893,448.637 294.5,451C 291.5,451.667 288.5,451.667 285.5,451C 281.937,447.767 278.104,444.933 274,442.5C 268.549,445.393 262.883,447.726 257,449.5C 252.049,446.721 247.216,443.721 242.5,440.5C 236.93,442.785 231.264,444.785 225.5,446.5C 220.566,442.905 215.899,438.905 211.5,434.5C 204.953,438.298 197.953,440.131 190.5,440C 187.227,436.217 183.561,433.05 179.5,430.5C 175.675,431.164 172.008,432.331 168.5,434C 166.5,434.667 164.5,434.667 162.5,434C 159.602,429.6 155.935,426.1 151.5,423.5C 151.567,422.041 151.234,420.708 150.5,419.5 Z"/></g>
<g><path style="opacity:1" fill="#c33b29" d="M 24.5,459.5 C 21.8908,458.557 19.8908,456.89 18.5,454.5C 21.0924,447.126 22.9258,439.459 24,431.5C 26.1584,432.826 27.9918,434.493 29.5,436.5C 27.7047,444.144 26.038,451.81 24.5,459.5 Z"/></g>
<g><path style="opacity:0.991" fill="#ef4c3c" d="M 151.5,423.5 C 155.935,426.1 159.602,429.6 162.5,434C 164.5,434.667 166.5,434.667 168.5,434C 172.008,432.331 175.675,431.164 179.5,430.5C 183.561,433.05 187.227,436.217 190.5,440C 197.953,440.131 204.953,438.298 211.5,434.5C 215.899,438.905 220.566,442.905 225.5,446.5C 231.264,444.785 236.93,442.785 242.5,440.5C 247.216,443.721 252.049,446.721 257,449.5C 262.883,447.726 268.549,445.393 274,442.5C 278.104,444.933 281.937,447.767 285.5,451C 288.5,451.667 291.5,451.667 294.5,451C 297.893,448.637 301.56,446.804 305.5,445.5C 310.659,447.912 315.659,450.579 320.5,453.5C 326.112,451.361 331.446,448.694 336.5,445.5C 342.015,448.423 347.682,451.09 353.5,453.5C 358.523,450.322 363.857,447.655 369.5,445.5C 374.403,447.786 379.403,449.786 384.5,451.5C 390.26,449.585 395.426,446.585 400,442.5C 404.966,445.649 410.299,447.983 416,449.5C 421.187,448.337 425.353,445.504 428.5,441C 430.5,440.333 432.5,440.333 434.5,441C 438.614,443.204 442.947,444.704 447.5,445.5C 453.305,444.225 457.972,441.058 461.5,436C 467.662,436.564 473.662,438.064 479.5,440.5C 482.313,439.929 484.646,438.596 486.5,436.5C 485.535,441.098 483.535,445.098 480.5,448.5C 474.701,444.979 468.367,443.812 461.5,445C 457.655,448.18 453.822,451.347 450,454.5C 445.892,452.529 441.725,450.696 437.5,449C 434.833,448.333 432.167,448.333 429.5,449C 425.738,451.961 421.905,454.794 418,457.5C 412.549,454.607 406.883,452.274 401,450.5C 395.611,453.111 390.445,456.111 385.5,459.5C 380.681,456.093 375.347,453.759 369.5,452.5C 363.951,454.71 358.618,457.377 353.5,460.5C 348.054,457.693 342.554,455.027 337,452.5C 331.555,454.889 326.222,457.556 321,460.5C 315.891,457.696 310.724,455.029 305.5,452.5C 300.167,454.833 294.833,457.167 289.5,459.5C 285.787,457.96 282.453,455.793 279.5,453C 276.119,450.755 272.452,450.088 268.5,451C 264.732,453.3 260.898,455.467 257,457.5C 252.896,455.067 249.063,452.233 245.5,449C 243.966,448.077 242.299,447.577 240.5,447.5C 235.283,449.358 230.116,451.358 225,453.5C 221.167,450.333 217.333,447.167 213.5,444C 210.5,443.333 207.5,443.333 204.5,444C 200.533,445.6 196.533,447.1 192.5,448.5C 188.032,445.532 184.032,442.032 180.5,438C 178.833,437.333 177.167,437.333 175.5,438C 171.41,439.697 167.243,441.197 163,442.5C 160.651,439.984 158.151,437.651 155.5,435.5C 153.568,431.805 152.235,427.805 151.5,423.5 Z"/></g>
<g><path style="opacity:1" fill="#f5e2d5" d="M 155.5,435.5 C 158.151,437.651 160.651,439.984 163,442.5C 167.243,441.197 171.41,439.697 175.5,438C 177.167,437.333 178.833,437.333 180.5,438C 184.032,442.032 188.032,445.532 192.5,448.5C 196.533,447.1 200.533,445.6 204.5,444C 207.5,443.333 210.5,443.333 213.5,444C 217.333,447.167 221.167,450.333 225,453.5C 230.116,451.358 235.283,449.358 240.5,447.5C 242.299,447.577 243.966,448.077 245.5,449C 249.063,452.233 252.896,455.067 257,457.5C 260.898,455.467 264.732,453.3 268.5,451C 272.452,450.088 276.119,450.755 279.5,453C 282.453,455.793 285.787,457.96 289.5,459.5C 294.833,457.167 300.167,454.833 305.5,452.5C 310.724,455.029 315.891,457.696 321,460.5C 326.222,457.556 331.555,454.889 337,452.5C 342.554,455.027 348.054,457.693 353.5,460.5C 358.618,457.377 363.951,454.71 369.5,452.5C 375.347,453.759 380.681,456.093 385.5,459.5C 390.445,456.111 395.611,453.111 401,450.5C 406.883,452.274 412.549,454.607 418,457.5C 421.905,454.794 425.738,451.961 429.5,449C 432.167,448.333 434.833,448.333 437.5,449C 441.725,450.696 445.892,452.529 450,454.5C 453.822,451.347 457.655,448.18 461.5,445C 468.367,443.812 474.701,444.979 480.5,448.5C 480.068,449.71 479.401,450.71 478.5,451.5C 474.17,450.668 470.004,449.335 466,447.5C 462.799,451.036 459.299,454.203 455.5,457C 453.634,457.985 451.634,458.485 449.5,458.5C 444.094,457.218 438.928,455.218 434,452.5C 430.27,454.224 427.103,456.724 424.5,460C 422.487,461.257 420.321,462.091 418,462.5C 412.193,460.845 406.693,458.512 401.5,455.5C 396.683,459.16 391.517,462.16 386,464.5C 380.776,462.222 375.443,460.222 370,458.5C 364.404,460.718 358.904,463.051 353.5,465.5C 347.764,463.134 342.098,460.467 336.5,457.5C 331.532,461.215 326.032,463.881 320,465.5C 315.044,462.854 310.044,460.187 305,457.5C 299.797,460.513 294.297,462.846 288.5,464.5C 283.573,462.695 279.24,459.862 275.5,456C 274.5,455.833 273.5,455.667 272.5,455.5C 267.045,457.645 261.545,459.645 256,461.5C 252.028,460.256 248.528,458.089 245.5,455C 243.801,454.042 241.967,453.542 240,453.5C 233.899,455.567 227.733,457.067 221.5,458C 217.867,453.524 213.534,450.024 208.5,447.5C 202.761,449.468 196.928,451.135 191,452.5C 189.833,452.333 188.667,452.167 187.5,452C 184.5,449 181.5,446 178.5,443C 176.5,442.333 174.5,442.333 172.5,443C 168.979,444.674 165.313,445.84 161.5,446.5C 158.742,443.322 156.742,439.655 155.5,435.5 Z"/></g>
<g><path style="opacity:1" fill="#c23b29" d="M 621.5,458.5 C 620.167,460.5 618.5,462.167 616.5,463.5C 615.778,463.082 615.278,462.416 615,461.5C 613.833,454.667 612.667,447.833 611.5,441C 612.744,438.618 614.577,436.785 617,435.5C 617.613,443.477 619.113,451.144 621.5,458.5 Z"/></g>
<g><path style="opacity:1" fill="#c33b29" d="M 36.5,466.5 C 34.847,466.34 33.5137,465.674 32.5,464.5C 34.4788,456.582 36.1455,448.582 37.5,440.5C 40.0163,440.755 42.3496,441.589 44.5,443C 41.7959,449.949 39.7959,457.116 38.5,464.5C 38.2528,465.713 37.5862,466.38 36.5,466.5 Z"/></g>
<g><path style="opacity:0.996" fill="#ed4438" d="M 478.5,451.5 C 472.998,458.256 466.332,463.589 458.5,467.5C 456.096,476.389 455.263,485.389 456,494.5C 454.615,497.386 452.449,499.386 449.5,500.5C 449.111,490.498 448.611,480.498 448,470.5C 445.834,471.731 443.667,472.731 441.5,473.5C 435.099,474.651 428.765,475.984 422.5,477.5C 419.941,477.198 417.607,477.532 415.5,478.5C 410.073,478.218 404.74,478.551 399.5,479.5C 396.615,479.194 393.948,479.527 391.5,480.5C 385.137,480.407 378.804,480.74 372.5,481.5C 369.833,481.833 367.167,482.167 364.5,482.5C 356.972,482.626 349.639,483.293 342.5,484.5C 339.833,484.5 337.167,484.5 334.5,484.5C 327.6,483.801 320.6,483.134 313.5,482.5C 311.5,482.5 309.5,482.5 307.5,482.5C 300.18,481.501 292.847,480.501 285.5,479.5C 282.518,479.037 279.518,478.704 276.5,478.5C 268.833,477.833 261.167,477.167 253.5,476.5C 251.167,476.5 248.833,476.5 246.5,476.5C 239.903,475.323 233.237,474.656 226.5,474.5C 223.873,473.908 221.206,473.575 218.5,473.5C 212.161,472.226 205.827,470.56 199.5,468.5C 196.833,467.833 194.167,467.167 191.5,466.5C 192.407,477.469 192.74,488.469 192.5,499.5C 184.176,497.849 179.843,492.849 179.5,484.5C 181.246,476.456 180.579,468.623 177.5,461C 171.394,457.063 166.061,452.23 161.5,446.5C 165.313,445.84 168.979,444.674 172.5,443C 174.5,442.333 176.5,442.333 178.5,443C 181.5,446 184.5,449 187.5,452C 188.667,452.167 189.833,452.333 191,452.5C 196.928,451.135 202.761,449.468 208.5,447.5C 213.534,450.024 217.867,453.524 221.5,458C 227.733,457.067 233.899,455.567 240,453.5C 241.967,453.542 243.801,454.042 245.5,455C 248.528,458.089 252.028,460.256 256,461.5C 261.545,459.645 267.045,457.645 272.5,455.5C 273.5,455.667 274.5,455.833 275.5,456C 279.24,459.862 283.573,462.695 288.5,464.5C 294.297,462.846 299.797,460.513 305,457.5C 310.044,460.187 315.044,462.854 320,465.5C 326.032,463.881 331.532,461.215 336.5,457.5C 342.098,460.467 347.764,463.134 353.5,465.5C 358.904,463.051 364.404,460.718 370,458.5C 375.443,460.222 380.776,462.222 386,464.5C 391.517,462.16 396.683,459.16 401.5,455.5C 406.693,458.512 412.193,460.845 418,462.5C 420.321,462.091 422.487,461.257 424.5,460C 427.103,456.724 430.27,454.224 434,452.5C 438.928,455.218 444.094,457.218 449.5,458.5C 451.634,458.485 453.634,457.985 455.5,457C 459.299,454.203 462.799,451.036 466,447.5C 470.004,449.335 474.17,450.668 478.5,451.5 Z"/></g>
<g><path style="opacity:1" fill="#c33a29" d="M 608.5,468.5 C 606.491,470.065 604.157,471.065 601.5,471.5C 600.945,463.61 599.278,455.943 596.5,448.5C 596.608,447.558 596.941,446.725 597.5,446C 598.872,445.598 600.205,445.098 601.5,444.5C 603.81,452.437 606.143,460.437 608.5,468.5 Z"/></g>
<g><path style="opacity:1" fill="#c23b29" d="M 56.5,472.5 C 54.4352,472.483 52.4352,472.15 50.5,471.5C 52.8333,463.5 55.1667,455.5 57.5,447.5C 59.8056,447.993 62.139,448.326 64.5,448.5C 62.4299,456.71 59.7632,464.71 56.5,472.5 Z"/></g>
<g><path style="opacity:1" fill="#c23a29" d="M 73.5,474.5 C 70.8333,474.5 68.1667,474.5 65.5,474.5C 67.9843,468.192 70.4843,461.859 73,455.5C 75.2573,450.979 78.424,450.312 82.5,453.5C 78.6614,460.173 75.6614,467.173 73.5,474.5 Z"/></g>
<g><path style="opacity:1" fill="#c33a29" d="M 589.5,475.5 C 587.565,476.15 585.565,476.483 583.5,476.5C 580.708,469.075 578.042,461.575 575.5,454C 577.877,451.053 580.377,450.886 583,453.5C 585.68,460.703 587.846,468.037 589.5,475.5 Z"/></g>
<g><path style="opacity:1" fill="#c23a29" d="M 573.5,478.5 C 571.167,478.5 568.833,478.5 566.5,478.5C 564.291,470.88 561.291,463.547 557.5,456.5C 559.686,455.779 561.853,455.113 564,454.5C 568.559,461.951 571.726,469.951 573.5,478.5 Z"/></g>
<g><path style="opacity:1" fill="#c23b29" d="M 199.5,468.5 C 200.143,479.552 199.476,490.219 197.5,500.5C 195.708,500.634 194.042,500.301 192.5,499.5C 192.74,488.469 192.407,477.469 191.5,466.5C 194.167,467.167 196.833,467.833 199.5,468.5 Z"/></g>
<g><path style="opacity:0.985" fill="#e63833" d="M 199.5,468.5 C 205.827,470.56 212.161,472.226 218.5,473.5C 219.43,484.128 219.763,494.795 219.5,505.5C 211.882,504.579 204.549,502.913 197.5,500.5C 199.476,490.219 200.143,479.552 199.5,468.5 Z"/></g>
<g><path style="opacity:1" fill="#c23b29" d="M 449.5,500.5 C 447.491,502.065 445.157,503.065 442.5,503.5C 442.167,493.5 441.833,483.5 441.5,473.5C 443.667,472.731 445.834,471.731 448,470.5C 448.611,480.498 449.111,490.498 449.5,500.5 Z"/></g>
<g><path style="opacity:1" fill="#c33a29" d="M 218.5,473.5 C 221.206,473.575 223.873,473.908 226.5,474.5C 226.567,485.177 226.901,495.844 227.5,506.5C 224.794,506.425 222.127,506.092 219.5,505.5C 219.763,494.795 219.43,484.128 218.5,473.5 Z"/></g>
<g><path style="opacity:0.987" fill="#e63833" d="M 226.5,474.5 C 233.237,474.656 239.903,475.323 246.5,476.5C 246.19,487.581 246.523,498.581 247.5,509.5C 240.774,508.66 234.107,507.66 227.5,506.5C 226.901,495.844 226.567,485.177 226.5,474.5 Z"/></g>
<g><path style="opacity:0.986" fill="#e63833" d="M 441.5,473.5 C 441.833,483.5 442.167,493.5 442.5,503.5C 436.725,505.722 430.725,507.056 424.5,507.5C 423.585,497.524 422.918,487.524 422.5,477.5C 428.765,475.984 435.099,474.651 441.5,473.5 Z"/></g>
<g><path style="opacity:1" fill="#c13b29" d="M 246.5,476.5 C 248.833,476.5 251.167,476.5 253.5,476.5C 253.235,487.538 253.568,498.538 254.5,509.5C 252.167,509.5 249.833,509.5 247.5,509.5C 246.523,498.581 246.19,487.581 246.5,476.5 Z"/></g>
<g><path style="opacity:0.986" fill="#e63833" d="M 253.5,476.5 C 261.167,477.167 268.833,477.833 276.5,478.5C 277.351,489.477 277.684,500.477 277.5,511.5C 269.635,511.429 261.969,510.762 254.5,509.5C 253.568,498.538 253.235,487.538 253.5,476.5 Z"/></g>
<g><path style="opacity:1" fill="#c23b29" d="M 422.5,477.5 C 422.918,487.524 423.585,497.524 424.5,507.5C 421.946,508.388 419.279,508.721 416.5,508.5C 416.01,498.506 415.677,488.506 415.5,478.5C 417.607,477.532 419.941,477.198 422.5,477.5 Z"/></g>
<g><path style="opacity:0.984" fill="#e63833" d="M 415.5,478.5 C 415.677,488.506 416.01,498.506 416.5,508.5C 410.579,509.463 404.579,510.13 398.5,510.5C 398.716,500.162 399.049,489.829 399.5,479.5C 404.74,478.551 410.073,478.218 415.5,478.5 Z"/></g>
<g><path style="opacity:1" fill="#c33a29" d="M 276.5,478.5 C 279.518,478.704 282.518,479.037 285.5,479.5C 285.235,490.538 285.568,501.538 286.5,512.5C 283.518,512.037 280.518,511.704 277.5,511.5C 277.684,500.477 277.351,489.477 276.5,478.5 Z"/></g>
<g><path style="opacity:1" fill="#c23b29" d="M 399.5,479.5 C 399.049,489.829 398.716,500.162 398.5,510.5C 396.167,510.5 393.833,510.5 391.5,510.5C 392.802,500.504 392.802,490.504 391.5,480.5C 393.948,479.527 396.615,479.194 399.5,479.5 Z"/></g>
<g><path style="opacity:0.992" fill="#e63833" d="M 285.5,479.5 C 292.847,480.501 300.18,481.501 307.5,482.5C 307.699,492.527 307.366,502.527 306.5,512.5C 299.833,512.5 293.167,512.5 286.5,512.5C 285.568,501.538 285.235,490.538 285.5,479.5 Z"/></g>
<g><path style="opacity:0.987" fill="#e63833" d="M 391.5,480.5 C 392.802,490.504 392.802,500.504 391.5,510.5C 385.167,511.167 378.833,511.833 372.5,512.5C 371.574,502.185 371.574,491.851 372.5,481.5C 378.804,480.74 385.137,480.407 391.5,480.5 Z"/></g>
<g><path style="opacity:1" fill="#c23a29" d="M 307.5,482.5 C 309.5,482.5 311.5,482.5 313.5,482.5C 314.314,492.823 314.98,503.156 315.5,513.5C 312.833,513.5 310.167,513.5 307.5,513.5C 307.5,512.833 307.167,512.5 306.5,512.5C 307.366,502.527 307.699,492.527 307.5,482.5 Z"/></g>
<g><path style="opacity:0.985" fill="#e73834" d="M 364.5,482.5 C 364.41,492.518 364.743,502.518 365.5,512.5C 360.637,512.181 355.97,512.514 351.5,513.5C 348.5,513.5 345.5,513.5 342.5,513.5C 342.5,503.833 342.5,494.167 342.5,484.5C 349.639,483.293 356.972,482.626 364.5,482.5 Z"/></g>
<g><path style="opacity:1" fill="#c33b29" d="M 372.5,481.5 C 371.574,491.851 371.574,502.185 372.5,512.5C 370.167,512.5 367.833,512.5 365.5,512.5C 364.743,502.518 364.41,492.518 364.5,482.5C 367.167,482.167 369.833,481.833 372.5,481.5 Z"/></g>
<g><path style="opacity:0.98" fill="#e63833" d="M 313.5,482.5 C 320.6,483.134 327.6,483.801 334.5,484.5C 334.5,494.167 334.5,503.833 334.5,513.5C 328.167,513.5 321.833,513.5 315.5,513.5C 314.98,503.156 314.314,492.823 313.5,482.5 Z"/></g>
<g><path style="opacity:1" fill="#c33a29" d="M 334.5,484.5 C 337.167,484.5 339.833,484.5 342.5,484.5C 342.5,494.167 342.5,503.833 342.5,513.5C 339.833,513.5 337.167,513.5 334.5,513.5C 334.5,503.833 334.5,494.167 334.5,484.5 Z"/></g>
</svg>
