<?xml version="1.0" encoding="UTF-8"?>
<!DOCTYPE svg PUBLIC "-//W3C//DTD SVG 1.1//EN" "http://www.w3.org/Graphics/SVG/1.1/DTD/svg11.dtd">
<svg xmlns="http://www.w3.org/2000/svg" version="1.1" width="586px" height="517px" style="shape-rendering:geometricPrecision; text-rendering:geometricPrecision; image-rendering:optimizeQuality; fill-rule:evenodd; clip-rule:evenodd" xmlns:xlink="http://www.w3.org/1999/xlink">
<g><path style="opacity:0.937" fill="#339f8c" d="M 234.5,-0.5 C 236.5,-0.5 238.5,-0.5 240.5,-0.5C 229.338,16.002 216.338,31.002 201.5,44.5C 199.47,39.9539 199.136,35.2872 200.5,30.5C 214.358,22.9772 225.691,12.6439 234.5,-0.5 Z"/></g>
<g><path style="opacity:0.996" fill="#1b8a76" d="M 240.5,-0.5 C 240.833,-0.5 241.167,-0.5 241.5,-0.5C 241.833,0.166667 242.167,0.833333 242.5,1.5C 243.028,2.84736 243.195,4.1807 243,5.5C 230.343,21.32 217.176,36.6533 203.5,51.5C 202.061,49.412 201.394,47.0786 201.5,44.5C 216.338,31.002 229.338,16.002 240.5,-0.5 Z"/></g>
<g><path style="opacity:0.993" fill="#339f8c" d="M 242.5,1.5 C 255.58,12.9725 270.913,18.3058 288.5,17.5C 300.365,17.9357 311.699,15.769 322.5,11C 327.463,4.34092 334.129,1.34092 342.5,2C 346.592,6.81541 350.925,11.4821 355.5,16C 363.87,19.8442 371.536,24.6775 378.5,30.5C 379.793,37.513 379.793,44.513 378.5,51.5C 373.313,48.827 368.813,45.1603 365,40.5C 356.167,29 347.333,17.5 338.5,6C 335.619,3.7673 333.619,4.43397 332.5,8C 334.09,9.04584 335.59,10.2125 337,11.5C 342.391,18.5592 347.391,25.8926 352,33.5C 358.802,41.303 365.969,48.803 373.5,56C 374.448,56.4828 375.448,56.6495 376.5,56.5C 371.73,67.2753 364.397,75.942 354.5,82.5C 349.946,73.7311 345.113,65.0644 340,56.5C 336.09,46.0127 332.756,35.346 330,24.5C 328.333,21.1667 326.667,17.8333 325,14.5C 321.674,12.9905 320.007,13.9905 320,17.5C 321.586,19.6705 322.92,22.0038 324,24.5C 329.292,46.5983 338.125,66.9317 350.5,85.5C 342.206,91.1461 333.206,95.4794 323.5,98.5C 316.106,76.0331 311.606,53.0331 310,29.5C 308.932,26.129 307.765,22.7957 306.5,19.5C 304.833,18.1667 303.167,18.1667 301.5,19.5C 303.687,30.0341 305.187,40.7007 306,51.5C 308.89,67.953 312.39,84.2863 316.5,100.5C 306.676,102.981 296.676,103.981 286.5,103.5C 285.126,99.3156 284.46,94.9823 284.5,90.5C 285.137,83.8131 285.97,77.1464 287,70.5C 287.265,53.4433 288.098,36.4433 289.5,19.5C 287.833,19.5 286.167,19.5 284.5,19.5C 283.071,39.8636 281.238,60.1969 279,80.5C 278.317,87.8615 278.483,95.1948 279.5,102.5C 270.406,101.884 261.739,99.8843 253.5,96.5C 253.335,88.4393 253.835,80.106 255,71.5C 259.898,54.9146 265.564,38.5813 272,22.5C 272.494,20.8659 272.66,19.1992 272.5,17.5C 270.5,17.1667 268.5,16.8333 266.5,16.5C 265.142,24.2656 263.309,31.9323 261,39.5C 252.68,56.622 247.514,74.622 245.5,93.5C 237.603,90.0603 230.603,85.3937 224.5,79.5C 225.581,73.412 227.415,67.412 230,61.5C 236.495,49.1719 243.495,37.1719 251,25.5C 253.487,21.3559 255.154,17.0226 256,12.5C 254.676,11.1198 253.343,10.7865 252,11.5C 244.603,27.89 235.936,43.5566 226,58.5C 222.985,63.5251 220.818,68.8585 219.5,74.5C 212.611,67.9395 207.278,60.2728 203.5,51.5C 217.176,36.6533 230.343,21.32 243,5.5C 243.195,4.1807 243.028,2.84736 242.5,1.5 Z"/></g>
<g><path style="opacity:1" fill="#1b8976" d="M 378.5,51.5 C 378.598,53.5529 377.931,55.2196 376.5,56.5C 375.448,56.6495 374.448,56.4828 373.5,56C 365.969,48.803 358.802,41.303 352,33.5C 347.391,25.8926 342.391,18.5592 337,11.5C 335.59,10.2125 334.09,9.04584 332.5,8C 333.619,4.43397 335.619,3.7673 338.5,6C 347.333,17.5 356.167,29 365,40.5C 368.813,45.1603 373.313,48.827 378.5,51.5 Z"/></g>
<g><path style="opacity:1" fill="#1b8a76" d="M 224.5,79.5 C 222.5,78.1667 220.833,76.5 219.5,74.5C 220.818,68.8585 222.985,63.5251 226,58.5C 235.936,43.5566 244.603,27.89 252,11.5C 253.343,10.7865 254.676,11.1198 256,12.5C 255.154,17.0226 253.487,21.3559 251,25.5C 243.495,37.1719 236.495,49.1719 230,61.5C 227.415,67.412 225.581,73.412 224.5,79.5 Z"/></g>
<g><path style="opacity:1" fill="#1b8a76" d="M 354.5,82.5 C 353.564,83.9744 352.23,84.9744 350.5,85.5C 338.125,66.9317 329.292,46.5983 324,24.5C 322.92,22.0038 321.586,19.6705 320,17.5C 320.007,13.9905 321.674,12.9905 325,14.5C 326.667,17.8333 328.333,21.1667 330,24.5C 332.756,35.346 336.09,46.0127 340,56.5C 345.113,65.0644 349.946,73.7311 354.5,82.5 Z"/></g>
<g><path style="opacity:1" fill="#1b8a76" d="M 253.5,96.5 C 250.557,96.0198 247.89,95.0198 245.5,93.5C 247.514,74.622 252.68,56.622 261,39.5C 263.309,31.9323 265.142,24.2656 266.5,16.5C 268.5,16.8333 270.5,17.1667 272.5,17.5C 272.66,19.1992 272.494,20.8659 272,22.5C 265.564,38.5813 259.898,54.9146 255,71.5C 253.835,80.106 253.335,88.4393 253.5,96.5 Z"/></g>
<g><path style="opacity:1" fill="#1b8a76" d="M 323.5,98.5 C 321.228,99.3186 318.894,99.9853 316.5,100.5C 312.39,84.2863 308.89,67.953 306,51.5C 305.187,40.7007 303.687,30.0341 301.5,19.5C 303.167,18.1667 304.833,18.1667 306.5,19.5C 307.765,22.7957 308.932,26.129 310,29.5C 311.606,53.0331 316.106,76.0331 323.5,98.5 Z"/></g>
<g><path style="opacity:1" fill="#1b8a76" d="M 286.5,103.5 C 283.941,103.802 281.607,103.468 279.5,102.5C 278.483,95.1948 278.317,87.8615 279,80.5C 281.238,60.1969 283.071,39.8636 284.5,19.5C 286.167,19.5 287.833,19.5 289.5,19.5C 288.098,36.4433 287.265,53.4433 287,70.5C 285.97,77.1464 285.137,83.8131 284.5,90.5C 284.46,94.9823 285.126,99.3156 286.5,103.5 Z"/></g>
<g><path style="opacity:0.993" fill="#25a97e" d="M 200.5,30.5 C 199.136,35.2872 199.47,39.9539 201.5,44.5C 201.394,47.0786 202.061,49.412 203.5,51.5C 207.278,60.2728 212.611,67.9395 219.5,74.5C 220.833,76.5 222.5,78.1667 224.5,79.5C 230.603,85.3937 237.603,90.0603 245.5,93.5C 247.89,95.0198 250.557,96.0198 253.5,96.5C 261.739,99.8843 270.406,101.884 279.5,102.5C 281.607,103.468 283.941,103.802 286.5,103.5C 296.676,103.981 306.676,102.981 316.5,100.5C 318.894,99.9853 321.228,99.3186 323.5,98.5C 333.206,95.4794 342.206,91.1461 350.5,85.5C 352.23,84.9744 353.564,83.9744 354.5,82.5C 364.397,75.942 371.73,67.2753 376.5,56.5C 377.931,55.2196 378.598,53.5529 378.5,51.5C 379.793,44.513 379.793,37.513 378.5,30.5C 409.633,39.0812 439.3,50.9146 467.5,66C 472.301,69.799 476.801,73.9657 481,78.5C 498.726,104.282 513.059,131.948 524,161.5C 553.622,239.324 574.122,319.324 585.5,401.5C 585.5,405.167 585.5,408.833 585.5,412.5C 584.959,422.184 582.625,431.518 578.5,440.5C 574.98,445.182 570.647,449.016 565.5,452C 547.15,461.258 527.816,465.425 507.5,464.5C 502.213,463.939 498.38,461.272 496,456.5C 481.769,432.149 470.435,406.482 462,379.5C 456.534,362.636 451.534,345.636 447,328.5C 447.456,353.492 447.456,378.492 447,403.5C 446.499,416.84 444.166,429.84 440,442.5C 435.888,451.112 429.388,457.112 420.5,460.5C 418.167,461.167 415.833,461.833 413.5,462.5C 418.963,453.674 422.129,444.007 423,433.5C 423.719,412.918 421.719,392.585 417,372.5C 410.591,343.781 402.091,315.781 391.5,288.5C 391.664,285.813 391.497,283.146 391,280.5C 388.047,272.687 385.713,264.687 384,256.5C 382.629,252.564 380.129,251.231 376.5,252.5C 373.041,223.834 366.375,196.001 356.5,169C 368.37,167.081 373.204,160.248 371,148.5C 366.121,139.237 358.954,137.071 349.5,142C 346.955,144.376 344.622,146.876 342.5,149.5C 331.632,142.265 319.632,138.099 306.5,137C 286.651,133.847 268.651,138.014 252.5,149.5C 246.702,140.574 239.036,138.074 229.5,142C 219.333,155.339 222.333,164.339 238.5,169C 234.748,177.251 231.582,185.751 229,194.5C 222.783,217.262 216.283,239.928 209.5,262.5C 207.278,262.178 205.444,262.845 204,264.5C 196.695,275.859 194.195,288.193 196.5,301.5C 195.015,305.771 193.682,310.104 192.5,314.5C 187.912,322.676 183.578,331.009 179.5,339.5C 177.326,342.515 175.659,345.849 174.5,349.5C 172.895,352.378 171.561,355.378 170.5,358.5C 169.167,360.833 167.833,363.167 166.5,365.5C 166.5,364.167 166.5,362.833 166.5,361.5C 165.5,361.5 164.5,361.5 163.5,361.5C 162.976,365.93 161.976,370.264 160.5,374.5C 160.747,375.713 161.414,376.38 162.5,376.5C 162.233,378.965 161.566,381.299 160.5,383.5C 158.56,389.361 157.727,395.361 158,401.5C 158.671,402.252 159.504,402.586 160.5,402.5C 157.755,407.66 155.255,412.994 153,418.5C 152.179,421.554 152.345,424.554 153.5,427.5C 156.4,424.715 158.566,421.382 160,417.5C 161.575,413.055 163.075,408.722 164.5,404.5C 166.421,405.363 168.421,406.029 170.5,406.5C 167.354,413.716 165.02,421.216 163.5,429C 163.833,430.167 164.167,431.333 164.5,432.5C 167.267,429.953 169.267,426.953 170.5,423.5C 169.841,437.871 172.508,451.538 178.5,464.5C 173.159,463.277 168.159,461.277 163.5,458.5C 154.665,451.511 148.832,442.511 146,431.5C 144.683,426.9 143.683,422.234 143,417.5C 141.731,383.524 141.065,349.524 141,315.5C 132.473,351.747 121.14,387.08 107,421.5C 101.163,436.016 93.6626,449.516 84.5,462C 82.3496,463.411 80.0163,464.245 77.5,464.5C 54.9619,465.916 33.9619,460.75 14.5,449C 11.6007,446.271 8.93399,443.438 6.5,440.5C 2.51285,432.527 0.179519,424.194 -0.5,415.5C -0.5,409.5 -0.5,403.5 -0.5,397.5C 10.797,320.315 29.9636,244.981 57,171.5C 68.6427,138.881 83.976,108.215 103,79.5C 108.289,73.2043 114.456,68.0376 121.5,64C 124.167,63.6667 126.833,63.3333 129.5,63C 135.869,55.9672 143.536,50.6339 152.5,47C 168.21,40.5969 184.21,35.0969 200.5,30.5 Z"/></g>
<g><path style="opacity:1" fill="#61c0b2" d="M 394.5,41.5 C 395.239,41.369 395.906,41.5357 396.5,42C 398.674,45.0036 401.008,47.8369 403.5,50.5C 402.277,51.6139 400.944,51.7805 399.5,51C 395.81,48.8307 394.143,45.664 394.5,41.5 Z"/></g>
<g><path style="opacity:1" fill="#ece8db" d="M 179.5,45.5 C 186.997,44.8038 188.997,47.6372 185.5,54C 183.231,54.7581 181.064,54.5914 179,53.5C 178.278,50.7395 178.445,48.0728 179.5,45.5 Z"/></g>
<g><path style="opacity:1" fill="#61c0b3" d="M 171.5,46.5 C 173.085,47.0024 173.585,48.0024 173,49.5C 170.341,53.2361 166.841,55.5694 162.5,56.5C 162.491,54.6916 162.991,53.0249 164,51.5C 166.426,49.5476 168.926,47.881 171.5,46.5 Z"/></g>
<g><path style="opacity:1" fill="#61c0b3" d="M 153.5,56.5 C 155.914,57.7767 156.081,59.4434 154,61.5C 151.793,64.564 148.959,66.564 145.5,67.5C 145.343,66.1266 145.51,64.7932 146,63.5C 148.479,61.0343 150.979,58.701 153.5,56.5 Z"/></g>
<g><path style="opacity:1" fill="#d0ddcc" d="M 164.5,58.5 C 167.318,59.9697 170.318,60.9697 173.5,61.5C 172.474,64.538 172.308,67.538 173,70.5C 170.38,71.3106 168.047,72.6439 166,74.5C 164.328,73.4946 162.995,72.1613 162,70.5C 160.817,71.731 159.651,71.731 158.5,70.5C 159.577,67.5258 159.577,64.5258 158.5,61.5C 161.393,61.9689 163.393,60.9689 164.5,58.5 Z"/></g>
<g><path style="opacity:1" fill="#5dbeaf" d="M 184.5,58.5 C 185.183,62.144 183.849,65.3106 180.5,68C 177.169,67.8109 176.669,66.3109 179,63.5C 180.73,61.5981 182.563,59.9314 184.5,58.5 Z"/></g>
<g><path style="opacity:1" fill="#e8e6d9" d="M 434.5,59.5 C 441.628,59.7063 443.294,62.873 439.5,69C 433.498,69.9931 431.332,67.4931 433,61.5C 433.717,60.9558 434.217,60.2891 434.5,59.5 Z"/></g>
<g><path style="opacity:1" fill="#d5decd" d="M 406.5,51.5 C 407.931,51.8807 408.764,52.8807 409,54.5C 409.718,53.5494 410.551,53.3828 411.5,54C 409.673,54.8993 408.34,56.2326 407.5,58C 407.905,58.9454 408.572,59.6121 409.5,60C 408.5,60.8333 407.5,61.6667 406.5,62.5C 407.274,63.7112 408.107,63.7112 409,62.5C 409.333,63.8333 409.667,65.1667 410,66.5C 411.522,64.2591 412.855,61.9258 414,59.5C 412.849,65.0125 414.182,65.6792 418,61.5C 420.825,62.5842 420.992,63.7508 418.5,65C 418.833,65.3333 419.167,65.6667 419.5,66C 413.547,65.6393 413.213,66.9726 418.5,70C 416.063,69.7965 413.729,68.9632 411.5,67.5C 411.167,67.6667 410.833,67.8333 410.5,68C 413.154,70.072 412.82,71.7387 409.5,73C 411.811,72.8446 414.144,72.8446 416.5,73C 415.377,74.0437 414.044,74.7104 412.5,75C 414.376,76.0173 416.376,76.8506 418.5,77.5C 418.023,78.931 417.357,80.2643 416.5,81.5C 415.117,78.9244 414.283,79.2577 414,82.5C 412.357,75.7237 411.024,75.3904 410,81.5C 408.837,79.7148 408.17,77.7148 408,75.5C 406.887,76.7111 405.72,76.7111 404.5,75.5C 404.167,76 403.833,76.5 403.5,77C 404.289,78.6255 405.289,80.1255 406.5,81.5C 406.333,81.8333 406.167,82.1667 406,82.5C 402.997,79.8938 402.164,80.5604 403.5,84.5C 402.242,83.9836 401.242,84.6503 400.5,86.5C 399.646,85.4783 398.646,84.6449 397.5,84C 403.077,80.6106 402.744,79.2773 396.5,80C 398.333,78.8333 400.167,77.6667 402,76.5C 402.239,74.2752 401.405,73.9419 399.5,75.5C 398.833,74.5 398.167,73.5 397.5,72.5C 395.879,74.1526 394.712,76.1526 394,78.5C 393.405,77.1011 393.572,75.7678 394.5,74.5C 394,74.1667 393.5,73.8333 393,73.5C 391.452,76.6338 389.618,76.9672 387.5,74.5C 388.025,73.8076 388.692,73.3076 389.5,73C 388.328,72.5814 387.328,71.9147 386.5,71C 388.368,70.9962 390.202,71.4962 392,72.5C 392.5,72.1667 393,71.8333 393.5,71.5C 392.019,70.5197 390.685,69.353 389.5,68C 391.862,68.0885 394.028,68.9219 396,70.5C 396.5,70.3333 397,70.1667 397.5,70C 396.191,68.2493 396.525,66.7493 398.5,65.5C 396.234,64.6858 393.9,64.1858 391.5,64C 395.303,61.5236 394.637,60.1902 389.5,60C 391.301,59.6827 391.634,59.016 390.5,58C 391.449,57.3828 392.282,57.5494 393,58.5C 393.333,57.5 393.667,56.5 394,55.5C 395.643,62.2763 396.976,62.6096 398,56.5C 398.241,59.2889 398.908,61.9556 400,64.5C 400.483,63.552 400.649,62.552 400.5,61.5C 401.822,61.33 402.989,61.6634 404,62.5C 403.581,60.4971 402.747,58.4971 401.5,56.5C 401.667,56.1667 401.833,55.8333 402,55.5C 405.384,59.4829 406.218,58.8162 404.5,53.5C 404.846,52.3044 405.346,52.3044 406,53.5C 406.464,52.9056 406.631,52.2389 406.5,51.5 Z"/></g>
<g><path style="opacity:1" fill="#52b18a" d="M 401.5,63.5 C 405.31,64.7542 405.31,65.7542 401.5,66.5C 401.5,65.5 401.5,64.5 401.5,63.5 Z"/></g>
<g><path style="opacity:1" fill="#66b692" d="M 405.5,64.5 C 406.5,64.5 407.5,64.5 408.5,64.5C 408.5,65.5 408.5,66.5 408.5,67.5C 407.5,67.5 406.5,67.5 405.5,67.5C 405.5,66.5 405.5,65.5 405.5,64.5 Z"/></g>
<g><path style="opacity:1" fill="#61c0b2" d="M 378.5,67.5 C 379.496,67.4142 380.329,67.7476 381,68.5C 382.201,73.2702 383.701,77.9369 385.5,82.5C 385.167,83.1667 384.833,83.8333 384.5,84.5C 379.741,79.8949 377.741,74.2282 378.5,67.5 Z"/></g>
<g><path style="opacity:1" fill="#5fbfb0" d="M 431.5,69.5 C 435.611,72.3887 437.611,76.3887 437.5,81.5C 436.167,81.5 434.833,81.5 433.5,81.5C 432.909,78.0601 431.909,74.7268 430.5,71.5C 430.863,70.8165 431.196,70.1499 431.5,69.5 Z"/></g>
<g><path style="opacity:1" fill="#efe9dd" d="M 197.5,79.5 C 205.649,78.7863 207.982,81.953 204.5,89C 195.751,90.4259 193.418,87.2592 197.5,79.5 Z"/></g>
<g><path style="opacity:1" fill="#ece8db" d="M 368.5,78.5 C 373.534,78.8898 375.367,81.5564 374,86.5C 369.831,90.9158 366.998,90.2491 365.5,84.5C 365.628,82.0452 366.628,80.0452 368.5,78.5 Z"/></g>
<g><path style="opacity:1" fill="#ece8db" d="M 145.5,79.5 C 151.572,80.7117 152.905,83.8784 149.5,89C 143.498,89.9931 141.332,87.4931 143,81.5C 143.995,80.9341 144.828,80.2674 145.5,79.5 Z"/></g>
<g><path style="opacity:1" fill="#5fbfb0" d="M 424.5,81.5 C 426.017,81.5106 427.184,82.1772 428,83.5C 429.43,86.3527 430.263,89.3527 430.5,92.5C 429.167,92.5 427.833,92.5 426.5,92.5C 425.94,88.8068 425.273,85.1402 424.5,81.5 Z"/></g>
<g><path style="opacity:1" fill="#e5e5d7" d="M 421.5,90.5 C 425.264,91.385 426.264,93.5516 424.5,97C 419.148,97.1754 418.148,95.0087 421.5,90.5 Z"/></g>
<g><path style="opacity:1" fill="#61c0b2" d="M 103.5,93.5 C 104.5,93.5 105.5,93.5 106.5,93.5C 103.906,99.1263 101.239,104.793 98.5,110.5C 97.675,111.386 96.675,111.719 95.5,111.5C 95.8201,104.496 98.4867,98.4963 103.5,93.5 Z"/></g>
<g><path style="opacity:1" fill="#61c0b3" d="M 351.5,92.5 C 352.376,92.3691 353.043,92.7025 353.5,93.5C 354.903,96.8752 356.403,100.209 358,103.5C 357.84,109.694 356.173,109.694 353,103.5C 351.763,99.9399 351.263,96.2733 351.5,92.5 Z"/></g>
<g><path style="opacity:1" fill="#61c0b2" d="M 478.5,93.5 C 480.17,93.7512 481.67,94.4178 483,95.5C 484.752,98.672 486.752,101.672 489,104.5C 489.497,106.81 489.663,109.143 489.5,111.5C 488.325,111.719 487.325,111.386 486.5,110.5C 483.527,104.891 480.86,99.224 478.5,93.5 Z"/></g>
<g><path style="opacity:1" fill="#60c0b2" d="M 361.5,94.5 C 362.496,94.4142 363.329,94.7476 364,95.5C 365.199,100.265 366.699,104.931 368.5,109.5C 368.167,110.5 367.5,111.167 366.5,111.5C 362.22,106.656 360.554,100.989 361.5,94.5 Z"/></g>
<g><path style="opacity:1" fill="#cfdbc9" d="M 168.5,96.5 C 167.127,96.6567 165.793,96.49 164.5,96C 165.502,94.3282 166.668,93.1616 168,92.5C 168.49,93.7932 168.657,95.1266 168.5,96.5 Z"/></g>
<g><path style="opacity:1" fill="#cadac8" d="M 168.5,96.5 C 169.931,96.1193 170.764,95.1193 171,93.5C 172.163,95.2852 172.83,97.2852 173,99.5C 173.308,98.6919 173.808,98.0253 174.5,97.5C 175.451,98.3256 176.451,98.4922 177.5,98C 175.787,96.6218 174.453,94.9552 173.5,93C 175.113,92.9115 176.28,93.7448 177,95.5C 177.195,93.7928 177.195,92.1261 177,90.5C 177.333,90.8333 177.667,91.1667 178,91.5C 178.423,90.0439 179.256,89.5439 180.5,90C 179.366,91.016 179.699,91.6827 181.5,92C 178.707,94.7344 179.041,95.7344 182.5,95C 181.449,96.3848 180.116,97.3848 178.5,98C 180.061,98.3176 181.228,99.1509 182,100.5C 182.823,96.085 183.99,95.7517 185.5,99.5C 186.333,98.5 187.167,97.5 188,96.5C 188.837,98.3506 189.671,100.184 190.5,102C 188.557,101.695 186.557,101.695 184.5,102C 185.672,102.419 186.672,103.085 187.5,104C 187.167,104.167 186.833,104.333 186.5,104.5C 182.346,101.235 181.013,101.901 182.5,106.5C 187.22,106.225 187.554,107.059 183.5,109C 184.793,109.49 186.127,109.657 187.5,109.5C 187.762,110.978 187.429,112.311 186.5,113.5C 185.158,112.098 184.324,112.431 184,114.5C 183.11,108.854 182.11,108.521 181,113.5C 180.667,111.833 180.333,110.167 180,108.5C 179,110.167 178,111.833 177,113.5C 176.667,113.167 176.333,112.833 176,112.5C 176.079,117.117 174.246,118.284 170.5,116C 174.454,113.302 174.121,112.302 169.5,113C 171.167,111.833 172.833,110.667 174.5,109.5C 173.066,108.77 171.9,107.77 171,106.5C 169.748,108.001 168.748,109.668 168,111.5C 167.316,110.216 167.483,109.049 168.5,108C 167.004,107.493 165.837,107.993 165,109.5C 161.273,105.283 161.607,104.283 166,106.5C 166.507,105.004 166.007,103.837 164.5,103C 166.256,102.86 167.922,103.36 169.5,104.5C 170.262,103.372 170.929,102.205 171.5,101C 169.423,100.808 167.423,100.308 165.5,99.5C 166.993,98.8589 167.993,97.8589 168.5,96.5 Z"/></g>
<g><path style="opacity:1" fill="#ebe7db" d="M 390.5,101.5 C 396,100.831 398.167,103.165 397,108.5C 394.763,112.02 392.096,112.353 389,109.5C 388.109,106.502 388.609,103.836 390.5,101.5 Z"/></g>
<g><path style="opacity:1" fill="#e9e7da" d="M 223.5,103.5 C 228.328,103.385 229.661,105.552 227.5,110C 222.57,110.427 221.237,108.26 223.5,103.5 Z"/></g>
<g><path style="opacity:1" fill="#eae7da" d="M 314.5,104.5 C 320.488,104.664 321.821,107.164 318.5,112C 312.403,112.147 311.07,109.647 314.5,104.5 Z"/></g>
<g><path style="opacity:1" fill="#d5dfce" d="M 339.5,106.5 C 340.5,106.5 341.5,106.5 342.5,106.5C 343.386,110.037 345.719,111.704 349.5,111.5C 349.64,113.124 348.973,114.29 347.5,115C 349.429,117.425 350.429,120.258 350.5,123.5C 349.178,123.67 348.011,123.337 347,122.5C 345.89,124.037 344.39,124.703 342.5,124.5C 342.5,125.5 342.5,126.5 342.5,127.5C 339.642,126.493 337.142,124.827 335,122.5C 331.557,123.392 331.057,122.558 333.5,120C 331.564,117.813 330.898,115.479 331.5,113C 332.01,111.174 332.844,111.007 334,112.5C 336.208,110.82 338.041,108.82 339.5,106.5 Z"/></g>
<g><path style="opacity:1" fill="#60c0b2" d="M 135.5,108.5 C 136.649,108.791 137.316,109.624 137.5,111C 136.836,114.88 135.503,118.38 133.5,121.5C 132.353,119.235 132.186,116.902 133,114.5C 134.122,112.593 134.955,110.593 135.5,108.5 Z"/></g>
<g><path style="opacity:1" fill="#60c0b1" d="M 447.5,108.5 C 451.946,111.758 453.279,116.091 451.5,121.5C 448.585,117.75 447.252,113.417 447.5,108.5 Z"/></g>
<g><path style="opacity:1" fill="#aed1bc" d="M 415.5,109.5 C 417.017,109.511 418.184,110.177 419,111.5C 419.308,110.692 419.808,110.025 420.5,109.5C 421.72,110.711 422.887,110.711 424,109.5C 424.333,110.833 424.667,112.167 425,113.5C 426.011,112.663 427.178,112.33 428.5,112.5C 428.917,115.079 428.25,117.246 426.5,119C 427.5,119.333 428.5,119.667 429.5,120C 427.149,122.832 424.149,124.665 420.5,125.5C 417.031,125.198 414.364,123.698 412.5,121C 411.191,118.346 411.191,115.68 412.5,113C 413.253,111.513 414.086,111.346 415,112.5C 415.483,111.552 415.649,110.552 415.5,109.5 Z"/></g>
<g><path style="opacity:1" fill="#60c0b2" d="M 384.5,114.5 C 385.675,114.281 386.675,114.614 387.5,115.5C 388.933,118.333 389.6,121.333 389.5,124.5C 388.178,124.67 387.011,124.337 386,123.5C 385.304,120.522 384.804,117.522 384.5,114.5 Z"/></g>
<g><path style="opacity:1" fill="#5fbfb0" d="M 372.5,116.5 C 373.5,116.5 374.5,116.5 375.5,116.5C 376.184,120.571 377.184,124.571 378.5,128.5C 378.192,129.308 377.692,129.975 377,130.5C 373.406,126.55 371.906,121.884 372.5,116.5 Z"/></g>
<g><path style="opacity:1" fill="#61c0b2" d="M 158.5,117.5 C 159.5,117.5 160.5,117.5 161.5,117.5C 161.607,122.619 159.607,126.619 155.5,129.5C 154.833,129.167 154.167,128.833 153.5,128.5C 154.907,124.688 156.574,121.022 158.5,117.5 Z"/></g>
<g><path style="opacity:1" fill="#60c0b1" d="M 310.5,118.5 C 311.75,118.577 312.583,119.244 313,120.5C 314.684,124.716 315.851,129.049 316.5,133.5C 314.089,133.863 312.589,132.863 312,130.5C 310.163,126.545 309.663,122.545 310.5,118.5 Z"/></g>
<g><path style="opacity:1" fill="#5fbfb0" d="M 101.5,119.5 C 102.497,119.47 103.164,119.97 103.5,121C 101.784,125.989 99.7842,130.822 97.5,135.5C 96.1195,135 95.4528,134 95.5,132.5C 96.7071,127.755 98.7071,123.422 101.5,119.5 Z"/></g>
<g><path style="opacity:1" fill="#60c0b1" d="M 217.5,117.5 C 218.376,117.369 219.043,117.702 219.5,118.5C 218.211,122.044 216.544,125.377 214.5,128.5C 212.616,127.307 212.116,125.641 213,123.5C 214.332,121.34 215.832,119.34 217.5,117.5 Z"/></g>
<g><path style="opacity:1" fill="#61c0b2" d="M 481.5,119.5 C 487.214,123.296 489.214,128.63 487.5,135.5C 484.91,130.397 482.91,125.064 481.5,119.5 Z"/></g>
<g><path style="opacity:1" fill="#ebe7da" d="M 189.5,120.5 C 193.5,119.833 195.167,121.5 194.5,125.5C 189.58,126.585 187.913,124.918 189.5,120.5 Z"/></g>
<g><path style="opacity:1" fill="#61c0b2" d="M 273.5,119.5 C 275.017,119.511 276.184,120.177 277,121.5C 277.667,123.833 277.667,126.167 277,128.5C 274.524,130.063 273.024,129.396 272.5,126.5C 273.223,124.218 273.557,121.884 273.5,119.5 Z"/></g>
<g><path style="opacity:1" fill="#62c1b3" d="M 321.5,119.5 C 322.496,119.414 323.329,119.748 324,120.5C 325.152,123.44 326.152,126.44 327,129.5C 327.82,131.728 327.487,133.728 326,135.5C 322.311,130.623 320.811,125.29 321.5,119.5 Z"/></g>
<g><path style="opacity:1" fill="#d0ddcc" d="M 252.5,108.5 C 252.811,107.522 253.478,106.855 254.5,106.5C 255.167,108.167 255.833,109.833 256.5,111.5C 258.918,107.661 260.585,108.161 261.5,113C 260.167,113.333 258.833,113.667 257.5,114C 262.187,115.483 262.52,117.483 258.5,120C 259.938,120.219 261.271,120.719 262.5,121.5C 260.921,122.667 259.588,124 258.5,125.5C 257.71,124.391 257.21,123.058 257,121.5C 257.508,128.295 255.508,129.629 251,125.5C 250.493,126.996 250.993,128.163 252.5,129C 252.272,129.399 251.938,129.565 251.5,129.5C 249.856,129.286 248.356,129.62 247,130.5C 247.857,127.464 246.69,126.798 243.5,128.5C 241.678,125.846 239.678,123.346 237.5,121C 241.002,120.344 241.002,119.011 237.5,117C 238.167,116.333 238.833,115.667 239.5,115C 238.949,113.602 238.616,112.268 238.5,111C 239.584,108.175 240.751,108.008 242,110.5C 242.219,109.062 242.719,107.729 243.5,106.5C 245.078,107.64 246.744,108.14 248.5,108C 246.993,107.163 246.493,105.996 247,104.5C 248.667,105.833 250.333,105.833 252,104.5C 252.507,105.996 252.007,107.163 250.5,108C 251.094,108.464 251.761,108.631 252.5,108.5 Z"/></g>
<g><path style="opacity:1" fill="#2aa97f" d="M 250.5,119.5 C 252.308,119.491 253.975,119.991 255.5,121C 254.773,122.399 254.273,123.899 254,125.5C 252.989,124.663 251.822,124.33 250.5,124.5C 250.5,122.833 250.5,121.167 250.5,119.5 Z"/></g>
<g><path style="opacity:1" fill="#31ab80" d="M 245.5,119.5 C 246.5,119.5 247.5,119.5 248.5,119.5C 249.093,122.596 248.093,124.929 245.5,126.5C 244.286,124.141 244.286,121.808 245.5,119.5 Z"/></g>
<g><path style="opacity:1" fill="#3fad84" d="M 253.5,114.5 C 256.016,114.755 258.35,115.589 260.5,117C 259.034,117.635 257.7,118.469 256.5,119.5C 255.264,118.754 253.93,118.421 252.5,118.5C 252.433,117.041 252.766,115.708 253.5,114.5 Z"/></g>
<g><path style="opacity:1" fill="#40ad84" d="M 243.5,114.5 C 247.525,116.415 247.358,118.082 243,119.5C 241.566,119.07 240.399,118.236 239.5,117C 241.066,116.392 242.4,115.558 243.5,114.5 Z"/></g>
<g><path style="opacity:1" fill="#35ab81" d="M 244.5,108.5 C 248.176,109.232 249.176,111.232 247.5,114.5C 245.077,113.288 244.077,111.288 244.5,108.5 Z"/></g>
<g><path style="opacity:1" fill="#37ab82" d="M 252.5,108.5 C 253.649,108.791 254.316,109.624 254.5,111C 254.291,112.871 253.291,114.038 251.5,114.5C 250.229,112.194 250.562,110.194 252.5,108.5 Z"/></g>
<g><path style="opacity:1" fill="#e9e7d9" d="M 289.5,121.5 C 290.822,121.33 291.989,121.663 293,122.5C 293.495,124.473 293.662,126.473 293.5,128.5C 288.59,128.424 287.257,126.09 289.5,121.5 Z"/></g>
<g><path style="opacity:1" fill="#ebe7db" d="M 361.5,122.5 C 366.159,122.015 367.492,123.848 365.5,128C 364.216,128.684 363.049,128.517 362,127.5C 361.506,125.866 361.34,124.199 361.5,122.5 Z"/></g>
<g><path style="opacity:1" fill="#5dbdaa" d="M 258.5,125.5 C 257.732,128.401 256.732,131.234 255.5,134C 254.551,134.617 253.718,134.451 253,133.5C 252.59,132.099 252.09,130.766 251.5,129.5C 251.938,129.565 252.272,129.399 252.5,129C 250.993,128.163 250.493,126.996 251,125.5C 255.508,129.629 257.508,128.295 257,121.5C 257.21,123.058 257.71,124.391 258.5,125.5 Z"/></g>
<g><path style="opacity:1" fill="#60c0b2" d="M 332.5,129.5 C 335.168,130.457 336.668,132.457 337,135.5C 337.884,137.641 337.384,139.307 335.5,140.5C 334.029,139.619 333.196,138.286 333,136.5C 332.503,134.19 332.337,131.857 332.5,129.5 Z"/></g>
<g><path style="opacity:1" fill="#dfe2d3" d="M 391.5,129.5 C 396.747,129.64 397.747,131.806 394.5,136C 393.216,136.684 392.049,136.517 391,135.5C 390.51,133.455 390.677,131.455 391.5,129.5 Z"/></g>
<g><path style="opacity:1" fill="#eae7da" d="M 203.5,133.5 C 208.486,133.305 210.152,135.472 208.5,140C 202.741,141.139 201.074,138.972 203.5,133.5 Z"/></g>
<g><path style="opacity:1" fill="#60c0b1" d="M 187.5,134.5 C 188.5,134.5 189.5,134.5 190.5,134.5C 189.865,138.243 188.365,141.576 186,144.5C 185.056,143.737 184.556,142.737 184.5,141.5C 185.251,139.004 186.251,136.67 187.5,134.5 Z"/></g>
<g><path style="opacity:1" fill="#f4eade" d="M 376.5,252.5 C 373.745,261.089 368.079,266.922 359.5,270C 356.904,271.136 354.237,271.969 351.5,272.5C 355.343,285.536 359.343,298.536 363.5,311.5C 374.697,305.957 384.031,298.29 391.5,288.5C 402.091,315.781 410.591,343.781 417,372.5C 421.719,392.585 423.719,412.918 423,433.5C 422.129,444.007 418.963,453.674 413.5,462.5C 410.544,464.149 407.544,465.483 404.5,466.5C 402.214,466.595 400.214,467.262 398.5,468.5C 390.405,470.179 382.405,471.845 374.5,473.5C 373.833,473.5 373.167,473.5 372.5,473.5C 364.229,474.661 355.895,475.328 347.5,475.5C 345.167,475.5 342.833,475.5 340.5,475.5C 332.846,474.93 325.179,474.596 317.5,474.5C 315.167,474.5 312.833,474.5 310.5,474.5C 303.833,474.5 297.167,474.5 290.5,474.5C 288.167,474.5 285.833,474.5 283.5,474.5C 276.49,474.668 269.49,475.001 262.5,475.5C 259.5,475.5 256.5,475.5 253.5,475.5C 247.833,475.5 242.167,475.5 236.5,475.5C 234.393,474.532 232.059,474.198 229.5,474.5C 223.156,473.888 216.823,473.221 210.5,472.5C 207.794,472.425 205.127,472.092 202.5,471.5C 197.862,470.503 193.195,469.503 188.5,468.5C 186.299,467.434 183.965,466.767 181.5,466.5C 180.71,465.599 179.71,464.932 178.5,464.5C 172.508,451.538 169.841,437.871 170.5,423.5C 172.335,418.328 173.335,412.995 173.5,407.5C 176.943,408.059 179.943,409.393 182.5,411.5C 177.65,420.901 174.983,430.901 174.5,441.5C 175.822,441.67 176.989,441.337 178,440.5C 182.511,431.136 185.678,421.47 187.5,411.5C 191.12,412.793 194.12,414.793 196.5,417.5C 193.313,426.446 191.646,435.78 191.5,445.5C 192.675,445.719 193.675,445.386 194.5,444.5C 197.548,437.835 199.215,430.835 199.5,423.5C 200.309,421.708 200.809,419.708 201,417.5C 204.324,419.579 207.824,421.246 211.5,422.5C 208.588,430.884 207.254,439.551 207.5,448.5C 210.05,448.439 211.55,447.106 212,444.5C 213.942,437.972 214.775,431.305 214.5,424.5C 217.14,425.82 219.807,427.153 222.5,428.5C 223.168,430.969 223.835,433.302 224.5,435.5C 224.928,441.882 226.595,447.882 229.5,453.5C 230.801,445.978 230.135,438.645 227.5,431.5C 230.389,432.008 233.222,432.675 236,433.5C 237.503,440.685 240.17,447.352 244,453.5C 244.917,446.164 243.75,439.164 240.5,432.5C 242.485,428.626 242.818,424.626 241.5,420.5C 236.071,418.952 230.737,417.119 225.5,415C 206.914,405.402 188.58,395.402 170.5,385C 167.207,384.174 163.874,383.674 160.5,383.5C 161.566,381.299 162.233,378.965 162.5,376.5C 163.167,375.5 163.833,374.5 164.5,373.5C 172.308,375.048 179.641,377.881 186.5,382C 197.167,388.667 207.833,395.333 218.5,402C 226.176,405.615 234.176,408.115 242.5,409.5C 242.5,405.5 242.5,401.5 242.5,397.5C 234.418,396.862 226.751,394.696 219.5,391C 207.01,384.922 194.677,378.589 182.5,372C 177.362,369.882 172.029,368.715 166.5,368.5C 166.5,367.5 166.5,366.5 166.5,365.5C 167.833,363.167 169.167,360.833 170.5,358.5C 176.331,359.275 181.998,360.775 187.5,363C 199.833,369.333 212.167,375.667 224.5,382C 230.17,384.946 236.17,386.779 242.5,387.5C 242.82,384.102 242.487,380.768 241.5,377.5C 232.729,374.632 224.063,371.465 215.5,368C 201.812,361.821 188.145,355.655 174.5,349.5C 175.659,345.849 177.326,342.515 179.5,339.5C 197.782,350.471 217.116,359.637 237.5,367C 239.81,367.497 242.143,367.663 244.5,367.5C 247.176,353.787 250.176,340.12 253.5,326.5C 252.678,324.212 252.011,321.878 251.5,319.5C 252.866,306.969 255.199,294.636 258.5,282.5C 255.262,281.605 252.095,281.605 249,282.5C 244.29,294.124 241.123,306.124 239.5,318.5C 236.5,317.833 233.5,317.167 230.5,316.5C 230.767,302.991 233.767,290.158 239.5,278C 235.492,276.887 231.659,275.387 228,273.5C 221.622,284.803 217.122,296.803 214.5,309.5C 212.323,309.414 210.323,308.747 208.5,307.5C 207.727,293.77 211.394,281.27 219.5,270C 215.7,268.021 212.366,265.521 209.5,262.5C 216.283,239.928 222.783,217.262 229,194.5C 231.582,185.751 234.748,177.251 238.5,169C 222.333,164.339 219.333,155.339 229.5,142C 239.036,138.074 246.702,140.574 252.5,149.5C 268.651,138.014 286.651,133.847 306.5,137C 319.632,138.099 331.632,142.265 342.5,149.5C 344.622,146.876 346.955,144.376 349.5,142C 358.954,137.071 366.121,139.237 371,148.5C 373.204,160.248 368.37,167.081 356.5,169C 366.375,196.001 373.041,223.834 376.5,252.5 Z"/></g>
<g><path style="opacity:1" fill="#eee9dd" d="M 151.5,138.5 C 158.208,137.534 160.541,140.201 158.5,146.5C 151.288,148.284 148.955,145.617 151.5,138.5 Z"/></g>
<g><path style="opacity:1" fill="#61c0b2" d="M 74.5,143.5 C 75.5,143.5 76.5,143.5 77.5,143.5C 76.7428,148.939 75.0761,154.106 72.5,159C 71.552,159.483 70.552,159.649 69.5,159.5C 70.5882,153.989 72.2548,148.656 74.5,143.5 Z"/></g>
<g><path style="opacity:1" fill="#60c0b2" d="M 507.5,143.5 C 508.675,143.281 509.675,143.614 510.5,144.5C 512.771,149.314 514.438,154.314 515.5,159.5C 514.178,159.67 513.011,159.337 512,158.5C 509.383,153.817 507.883,148.817 507.5,143.5 Z"/></g>
<g><path style="opacity:1" fill="#e8ceb1" d="M 353.5,147.5 C 361.147,147.313 364.314,150.98 363,158.5C 360.588,161.792 357.421,162.959 353.5,162C 351.5,159.333 349.5,156.667 347.5,154C 349.027,151.31 351.027,149.143 353.5,147.5 Z"/></g>
<g><path style="opacity:1" fill="#5ebfaf" d="M 144.5,148.5 C 145.5,148.5 146.5,148.5 147.5,148.5C 147.329,153.196 146.829,157.863 146,162.5C 144.434,166.235 143.267,166.235 142.5,162.5C 143.385,157.855 144.052,153.189 144.5,148.5 Z"/></g>
<g><path style="opacity:1" fill="#e8cfb2" d="M 236.5,147.5 C 241.124,147.647 244.791,149.647 247.5,153.5C 245.292,157.277 242.625,160.61 239.5,163.5C 230.011,159.72 229.011,154.387 236.5,147.5 Z"/></g>
<g><path style="opacity:1" fill="#5ebfaf" d="M 437.5,147.5 C 438.496,147.414 439.329,147.748 440,148.5C 441.69,154.135 442.19,159.802 441.5,165.5C 439.482,163.303 438.315,160.636 438,157.5C 437.502,154.183 437.335,150.85 437.5,147.5 Z"/></g>
<g><path style="opacity:1" fill="#60c0b1" d="M 78.5,150.5 C 79.5,150.5 80.5,150.5 81.5,150.5C 81.2946,153.988 80.4613,157.321 79,160.5C 77.9887,161.337 76.8221,161.67 75.5,161.5C 76.2074,157.752 77.2074,154.086 78.5,150.5 Z"/></g>
<g><path style="opacity:1" fill="#dde2d2" d="M 179.5,178.5 C 176.151,179.684 173.985,182.017 173,185.5C 172.667,184.5 172.333,183.5 172,182.5C 171.107,183.711 170.274,183.711 169.5,182.5C 170.711,181.28 170.711,180.113 169.5,179C 174.883,178.641 179.549,176.641 183.5,173C 180.904,172.542 178.737,173.375 177,175.5C 176.383,174.551 176.549,173.718 177.5,173C 169.597,172.116 169.597,170.949 177.5,169.5C 179.098,170.485 180.765,170.651 182.5,170C 178.45,166.643 173.783,164.976 168.5,165C 170.335,164.072 170.668,162.906 169.5,161.5C 170.274,160.289 171.107,160.289 172,161.5C 172.333,160.5 172.667,159.5 173,158.5C 173.707,160.081 174.54,161.581 175.5,163C 178.701,165.267 182.034,166.934 185.5,168C 183.682,165.51 181.349,163.677 178.5,162.5C 179.167,161.833 179.833,161.167 180.5,160.5C 179.572,159.232 179.405,157.899 180,156.5C 181.252,158.001 182.252,159.668 183,161.5C 183.333,161.167 183.667,160.833 184,160.5C 184.249,163.177 185.249,165.51 187,167.5C 187.667,163.167 187.667,158.833 187,154.5C 183.638,151.268 183.638,150.602 187,152.5C 188,149.833 189,149.833 190,152.5C 190.718,151.549 191.551,151.383 192.5,152C 191.667,152.833 190.833,153.667 190,154.5C 189.333,158.833 189.333,163.167 190,167.5C 190.667,166.833 191.333,166.167 192,165.5C 192.186,163.1 192.686,160.766 193.5,158.5C 194.251,159.376 194.751,160.376 195,161.5C 196.574,160.016 197.907,158.349 199,156.5C 199.5,157 200,157.5 200.5,158C 199.313,159.019 198.313,160.186 197.5,161.5C 199.118,163.836 200.952,163.836 203,161.5C 203.29,159.956 203.956,158.623 205,157.5C 205.71,158.973 206.876,159.64 208.5,159.5C 208.64,161.124 207.973,162.29 206.5,163C 207.167,163.333 207.833,163.667 208.5,164C 202.947,164.609 197.947,166.609 193.5,170C 196.14,170.839 198.473,170.339 200.5,168.5C 202.635,169.881 204.968,170.881 207.5,171.5C 204.631,172.078 201.965,173.078 199.5,174.5C 197.809,172.744 195.809,172.244 193.5,173C 197.864,177.515 203.198,179.848 209.5,180C 209.056,181.533 208.723,183.033 208.5,184.5C 206.844,182.978 205.677,183.311 205,185.5C 204.417,183.998 203.584,182.665 202.5,181.5C 199.249,179.625 196.082,177.625 193,175.5C 193.358,178.494 195.192,180.327 198.5,181C 197.5,181.333 196.5,181.667 195.5,182C 196.376,183.586 197.376,185.086 198.5,186.5C 198.167,186.833 197.833,187.167 197.5,187.5C 195.937,186.055 194.604,184.389 193.5,182.5C 192.808,183.025 192.308,183.692 192,184.5C 191.882,181.629 191.216,178.962 190,176.5C 189.333,181.167 189.333,185.833 190,190.5C 193.346,192.422 193.346,193.089 190,192.5C 189,195.167 188,195.167 187,192.5C 186.282,193.451 185.449,193.617 184.5,193C 185.333,192.167 186.167,191.333 187,190.5C 187.667,185.5 187.667,180.5 187,175.5C 185.054,178.139 184.054,181.139 184,184.5C 183.667,183.5 183.333,182.5 183,181.5C 181.333,183.167 179.667,184.833 178,186.5C 178.027,184.583 178.861,182.916 180.5,181.5C 178.565,180.787 178.232,179.787 179.5,178.5 Z"/></g>
<g><path style="opacity:1" fill="#5fbfb1" d="M 503.5,150.5 C 504.5,150.5 505.5,150.5 506.5,150.5C 507.793,154.086 508.793,157.752 509.5,161.5C 508.178,161.67 507.011,161.337 506,160.5C 503.994,157.464 503.16,154.131 503.5,150.5 Z"/></g>
<g><path style="opacity:1" fill="#ebe7da" d="M 418.5,151.5 C 423.675,150.507 425.509,152.507 424,157.5C 421.001,160.412 418.835,159.912 417.5,156C 417.773,154.467 418.106,152.967 418.5,151.5 Z"/></g>
<g><path style="opacity:1" fill="#5ebfb0" d="M 100.5,153.5 C 101.586,153.62 102.253,154.287 102.5,155.5C 101.892,158.145 101.392,160.812 101,163.5C 100.632,164.91 99.7989,165.91 98.5,166.5C 96.9603,161.815 97.627,157.481 100.5,153.5 Z"/></g>
<g><path style="opacity:1" fill="#d3ddcc" d="M 396.5,146.5 C 397.645,147.793 397.311,148.959 395.5,150C 397.047,150.333 398.38,149.833 399.5,148.5C 400.308,150.423 400.808,152.423 401,154.5C 402,153.167 403,151.833 404,150.5C 404.837,152.351 405.671,154.184 406.5,156C 404.874,155.805 403.207,155.805 401.5,156C 403.555,156.687 405.221,157.854 406.5,159.5C 405.91,160.799 404.91,161.632 403.5,162C 404.938,162.219 406.271,162.719 407.5,163.5C 406.106,165.691 404.606,167.025 403,167.5C 402.667,166.5 402.333,165.5 402,164.5C 402.37,169.958 400.537,171.292 396.5,168.5C 395.494,168.938 395.494,169.604 396.5,170.5C 395.009,171.244 393.509,171.91 392,172.5C 390.951,170.893 389.451,170.227 387.5,170.5C 387.662,168.473 387.495,166.473 387,164.5C 386.667,165.833 386.333,167.167 386,168.5C 381.573,166.531 381.739,164.697 386.5,163C 381.938,161.301 381.605,159.301 385.5,157C 383.557,155.807 383.724,154.307 386,152.5C 386.333,152.833 386.667,153.167 387,153.5C 387.202,151.744 387.702,150.078 388.5,148.5C 389.914,149.624 391.414,150.624 393,151.5C 393.311,150.258 392.811,149.258 391.5,148.5C 393.291,147.83 394.958,147.163 396.5,146.5 Z"/></g>
<g><path style="opacity:1" fill="#48af87" d="M 398.5,150.5 C 400.586,154.659 399.252,156.659 394.5,156.5C 394.238,155.022 394.571,153.689 395.5,152.5C 396.739,152.058 397.739,151.391 398.5,150.5 Z"/></g>
<g><path style="opacity:1" fill="#2faa80" d="M 389.5,151.5 C 392.484,151.787 393.817,153.454 393.5,156.5C 390.09,156.616 388.756,154.95 389.5,151.5 Z"/></g>
<g><path style="opacity:1" fill="#61c0b2" d="M 482.5,153.5 C 485.168,154.457 486.668,156.457 487,159.5C 487.851,162.053 487.518,164.386 486,166.5C 483.872,162.487 482.705,158.153 482.5,153.5 Z"/></g>
<g><path style="opacity:1" fill="#61c0b2" d="M 108.5,154.5 C 110.618,160.934 109.285,166.601 104.5,171.5C 103.359,169.579 103.192,167.579 104,165.5C 105.801,161.925 107.301,158.258 108.5,154.5 Z"/></g>
<g><path style="opacity:1" fill="#5fbfb0" d="M 475.5,154.5 C 478.891,159.627 480.891,165.294 481.5,171.5C 478.95,171.439 477.45,170.106 477,167.5C 474.739,163.292 474.239,158.959 475.5,154.5 Z"/></g>
<g><path style="opacity:1" fill="#38ac83" d="M 388.5,156.5 C 390.273,157.314 390.773,158.648 390,160.5C 388.035,161.885 386.202,161.718 384.5,160C 386.093,159.051 387.426,157.885 388.5,156.5 Z"/></g>
<g><path style="opacity:1" fill="#38ac82" d="M 399.5,156.5 C 406.105,159.562 405.772,160.895 398.5,160.5C 398.167,160 397.833,159.5 397.5,159C 398.056,157.989 398.722,157.156 399.5,156.5 Z"/></g>
<g><path style="opacity:1" fill="#595544" d="M 275.5,160.5 C 277.5,160.5 279.5,160.5 281.5,160.5C 281.762,161.978 281.429,163.311 280.5,164.5C 277.916,165.393 275.249,165.726 272.5,165.5C 272.31,163.041 273.31,161.374 275.5,160.5 Z"/></g>
<g><path style="opacity:1" fill="#645f4e" d="M 317.5,160.5 C 320.425,160.46 323.091,161.293 325.5,163C 326.708,165.645 325.708,166.812 322.5,166.5C 317.716,166.681 316.05,164.681 317.5,160.5 Z"/></g>
<g><path style="opacity:1" fill="#2faa80" d="M 390.5,161.5 C 394.435,163.551 394.435,165.884 390.5,168.5C 389.286,166.141 389.286,163.808 390.5,161.5 Z"/></g>
<g><path style="opacity:1" fill="#36ab81" d="M 395.5,161.5 C 399.042,162.184 400.042,164.184 398.5,167.5C 397.264,166.754 395.93,166.421 394.5,166.5C 394.366,164.708 394.699,163.042 395.5,161.5 Z"/></g>
<g><path style="opacity:1" fill="#61c0b2" d="M 375.5,163.5 C 376.496,163.414 377.329,163.748 378,164.5C 378.532,167.264 379.366,169.93 380.5,172.5C 380.167,173.5 379.5,174.167 378.5,174.5C 374.84,171.522 373.84,167.855 375.5,163.5 Z"/></g>
<g><path style="opacity:1" fill="#5fbfb1" d="M 218.5,165.5 C 219.496,165.414 220.329,165.748 221,166.5C 221.942,173.459 220.942,180.125 218,186.5C 216.989,187.337 215.822,187.67 214.5,187.5C 215.703,180.149 217.037,172.816 218.5,165.5 Z"/></g>
<g><path style="opacity:1" fill="#5fc0b1" d="M 121.5,170.5 C 123.916,175.538 123.916,180.872 121.5,186.5C 120.675,187.386 119.675,187.719 118.5,187.5C 118.605,181.644 119.605,175.978 121.5,170.5 Z"/></g>
<g><path style="opacity:1" fill="#5fc0b1" d="M 461.5,170.5 C 462.75,170.577 463.583,171.244 464,172.5C 465.574,177.384 466.407,182.384 466.5,187.5C 463.654,187.191 462.154,185.525 462,182.5C 461.501,178.514 461.334,174.514 461.5,170.5 Z"/></g>
<g><path style="opacity:1" fill="#61c0b2" d="M 415.5,171.5 C 418.696,173.488 420.529,176.488 421,180.5C 421.667,182.833 421.667,185.167 421,187.5C 420,188.833 419,188.833 418,187.5C 417.229,182.145 416.395,176.812 415.5,171.5 Z"/></g>
<g><path style="opacity:1" fill="#60c0b2" d="M 226.5,173.5 C 227.5,173.5 228.5,173.5 229.5,173.5C 229.839,178.968 228.839,184.135 226.5,189C 225.552,189.483 224.552,189.649 223.5,189.5C 225.135,184.292 226.135,178.958 226.5,173.5 Z"/></g>
<g><path style="opacity:1" fill="#50b089" d="M 179.5,178.5 C 180.665,176.584 182.332,175.751 184.5,176C 183.347,177.883 181.681,178.716 179.5,178.5 Z"/></g>
<g><path style="opacity:1" fill="#5fbfb1" d="M 62.5,177.5 C 63.4972,177.47 64.1639,177.97 64.5,179C 63.8729,181.135 63.3729,183.302 63,185.5C 61.7596,188.917 60.5929,189.083 59.5,186C 60.0119,182.963 61.0119,180.129 62.5,177.5 Z"/></g>
<g><path style="opacity:1" fill="#5fbfb0" d="M 520.5,177.5 C 521.496,177.414 522.329,177.748 523,178.5C 523.471,180.246 524.138,181.913 525,183.5C 525.798,185.259 525.631,186.926 524.5,188.5C 521.805,185.422 520.472,181.756 520.5,177.5 Z"/></g>
<g><path style="opacity:1" fill="#605c4a" d="M 275.5,180.5 C 279.254,181.828 280.421,184.494 279,188.5C 275.508,191.59 273.342,190.923 272.5,186.5C 272.628,184.045 273.628,182.045 275.5,180.5 Z"/></g>
<g><path style="opacity:1" fill="#555240" d="M 318.5,182.5 C 324.301,181.545 325.968,184.045 323.5,190C 319,190.833 317.167,189 318,184.5C 318.914,185.654 319.747,185.487 320.5,184C 319.956,183.283 319.289,182.783 318.5,182.5 Z"/></g>
<g><path style="opacity:1" fill="#61c0b2" d="M 365.5,181.5 C 366.5,181.5 367.5,181.5 368.5,181.5C 368.993,184.812 369.993,187.979 371.5,191C 371.387,192.28 370.72,193.113 369.5,193.5C 366.075,190.28 364.742,186.28 365.5,181.5 Z"/></g>
<g><path style="opacity:1" fill="#e7e6d8" d="M 408.5,182.5 C 413.159,182.015 414.492,183.848 412.5,188C 407.728,188.81 406.395,186.977 408.5,182.5 Z"/></g>
<g><path style="opacity:1" fill="#60c0b1" d="M 160.5,183.5 C 161.5,183.5 162.5,183.5 163.5,183.5C 162.591,188.964 161.258,194.298 159.5,199.5C 158.914,199.291 158.414,198.957 158,198.5C 156.983,193.125 157.816,188.125 160.5,183.5 Z"/></g>
<g><path style="opacity:1" fill="#e7cdaf" d="M 290.5,184.5 C 305.035,182.342 314.869,188.009 320,201.5C 324.19,213.165 325.857,225.165 325,237.5C 323.536,245.63 318.703,250.464 310.5,252C 296.93,255.205 284.264,253.205 272.5,246C 270.898,244.065 269.731,241.899 269,239.5C 267.849,222.923 271.182,207.257 279,192.5C 282.15,188.689 285.983,186.023 290.5,184.5 Z"/></g>
<g><path style="opacity:1" fill="#60c0b1" d="M 80.5,186.5 C 81.5,186.5 82.5,186.5 83.5,186.5C 83.4877,191.703 82.1544,196.536 79.5,201C 78.552,201.483 77.552,201.649 76.5,201.5C 77.833,196.501 79.1664,191.501 80.5,186.5 Z"/></g>
<g><path style="opacity:1" fill="#60c0b2" d="M 501.5,186.5 C 503.017,186.511 504.184,187.177 505,188.5C 505.938,191.812 506.771,195.145 507.5,198.5C 506.377,202.165 505.044,201.999 503.5,198C 502.131,194.283 501.464,190.45 501.5,186.5 Z"/></g>
<g><path style="opacity:1" fill="#ebe7db" d="M 207.5,189.5 C 214.414,188.395 216.08,190.728 212.5,196.5C 210.833,197.833 209.167,197.833 207.5,196.5C 206.286,194.141 206.286,191.808 207.5,189.5 Z"/></g>
<g><path style="opacity:1" fill="#585341" d="M 290.5,192.5 C 296.952,191.978 303.119,192.978 309,195.5C 309.746,203.335 306.413,208.668 299,211.5C 298.502,214.817 298.335,218.15 298.5,221.5C 303.922,221.843 309.088,220.843 314,218.5C 314.5,218.667 315,218.833 315.5,219C 304.564,227.691 292.897,228.691 280.5,222C 278.441,220.815 278.274,219.648 280,218.5C 284.924,220.785 290.09,222.118 295.5,222.5C 295.665,218.818 295.499,215.152 295,211.5C 288.325,208.144 285.325,202.811 286,195.5C 287.409,194.219 288.909,193.219 290.5,192.5 Z"/></g>
<g><path style="opacity:1" fill="#e7ded3" d="M 290.5,194.5 C 293.518,194.335 296.518,194.502 299.5,195C 300.815,196.395 300.481,197.395 298.5,198C 295.5,198.667 292.5,198.667 289.5,198C 289.043,197.586 288.709,197.086 288.5,196.5C 289.243,195.818 289.909,195.151 290.5,194.5 Z"/></g>
<g><path style="opacity:1" fill="#5fbfb0" d="M 71.5,196.5 C 73.7224,196.559 74.7224,197.725 74.5,200C 73.7086,204.546 72.042,208.712 69.5,212.5C 69.1667,211.167 68.8333,209.833 68.5,208.5C 69.0988,204.376 70.0988,200.376 71.5,196.5 Z"/></g>
<g><path style="opacity:1" fill="#5cbeae" d="M 109.5,196.5 C 110.725,197.152 111.392,198.319 111.5,200C 111.102,206.017 109.435,211.517 106.5,216.5C 106.167,215.5 105.833,214.5 105.5,213.5C 106.839,207.821 108.172,202.154 109.5,196.5 Z"/></g>
<g><path style="opacity:1" fill="#5dbfae" d="M 473.5,196.5 C 476.625,201.779 478.625,207.612 479.5,214C 478.407,217.083 477.24,216.917 476,213.5C 474.423,207.938 473.59,202.272 473.5,196.5 Z"/></g>
<g><path style="opacity:1" fill="#60c0b1" d="M 511.5,196.5 C 512.376,196.369 513.043,196.702 513.5,197.5C 515.9,202.332 516.567,207.332 515.5,212.5C 511.897,207.698 510.563,202.364 511.5,196.5 Z"/></g>
<g><path style="opacity:1" fill="#f5987f" d="M 253.5,198.5 C 263.044,196.479 267.544,200.145 267,209.5C 261.894,215.618 256.56,215.951 251,210.5C 248.696,205.855 249.529,201.855 253.5,198.5 Z"/></g>
<g><path style="opacity:1" fill="#f5987f" d="M 334.5,198.5 C 342.545,198.048 346.378,201.714 346,209.5C 342.025,215.895 337.025,216.895 331,212.5C 328.267,206.722 329.434,202.056 334.5,198.5 Z"/></g>
<g><path style="opacity:1" fill="#61beac" d="M 425.5,213.5 C 425.631,212.624 425.298,211.957 424.5,211.5C 423.549,212.326 422.549,212.492 421.5,212C 422.823,211.184 423.489,210.017 423.5,208.5C 423.599,205.327 422.932,202.327 421.5,199.5C 421.733,198.068 422.4,197.568 423.5,198C 427.238,203.014 427.904,208.18 425.5,213.5 Z"/></g>
<g><path style="opacity:1" fill="#61c0b2" d="M 179.5,199.5 C 180.693,199.97 181.36,200.97 181.5,202.5C 180.905,205.952 179.905,209.286 178.5,212.5C 177.675,213.386 176.675,213.719 175.5,213.5C 176.227,208.654 177.56,203.987 179.5,199.5 Z"/></g>
<g><path style="opacity:1" fill="#61c0b3" d="M 374.5,202.5 C 375.496,202.414 376.329,202.748 377,203.5C 379.402,207.873 380.902,212.54 381.5,217.5C 380.345,222.805 378.845,222.805 377,217.5C 376.1,212.499 375.266,207.499 374.5,202.5 Z"/></g>
<g><path style="opacity:1" fill="#5dbfae" d="M 134.5,204.5 C 136.439,205.014 137.439,206.347 137.5,208.5C 136.732,212.947 135.065,216.947 132.5,220.5C 131.5,220.167 130.833,219.5 130.5,218.5C 132.448,213.992 133.781,209.325 134.5,204.5 Z"/></g>
<g><path style="opacity:1" fill="#5dbeae" d="M 448.5,204.5 C 449.497,204.47 450.164,204.97 450.5,206C 452.593,210.729 453.26,215.562 452.5,220.5C 448.491,215.811 447.158,210.478 448.5,204.5 Z"/></g>
<g><path style="opacity:1" fill="#62c1b3" d="M 81.5,206.5 C 82.7251,207.152 83.3917,208.319 83.5,210C 83.4153,213.771 82.0819,216.938 79.5,219.5C 79.1667,218.667 78.8333,217.833 78.5,217C 79.1172,213.361 80.1172,209.861 81.5,206.5 Z"/></g>
<g><path style="opacity:1" fill="#5fc0b1" d="M 500.5,206.5 C 502.017,206.511 503.184,207.177 504,208.5C 505.904,211.923 506.737,215.59 506.5,219.5C 504.876,219.64 503.71,218.973 503,217.5C 501.846,213.896 501.013,210.229 500.5,206.5 Z"/></g>
<g><path style="opacity:1" fill="#dde2d2" d="M 423.5,208.5 C 423.489,210.017 422.823,211.184 421.5,212C 422.549,212.492 423.549,212.326 424.5,211.5C 425.298,211.957 425.631,212.624 425.5,213.5C 424.761,213.369 424.094,213.536 423.5,214C 424.5,214.833 425.5,215.667 426.5,216.5C 426.167,216.833 425.833,217.167 425.5,217.5C 422.977,215.592 420.31,215.259 417.5,216.5C 419.028,217.861 420.695,219.028 422.5,220C 419.167,219.333 415.833,218.667 412.5,218C 415.258,220.402 414.925,222.402 411.5,224C 414.5,224.333 417.5,224.667 420.5,225C 418.285,225.17 416.285,225.837 414.5,227C 416.7,229.046 419.367,230.046 422.5,230C 419.156,230.57 418.823,231.736 421.5,233.5C 420.132,234.594 418.965,234.26 418,232.5C 417.131,237.508 416.464,237.175 416,231.5C 415,230.5 414,229.5 413,228.5C 412.667,230.833 412.333,233.167 412,235.5C 410.964,232.247 410.297,228.914 410,225.5C 409.125,229.607 407.291,230.273 404.5,227.5C 404.167,227.833 403.833,228.167 403.5,228.5C 404.537,231.703 406.203,234.537 408.5,237C 407.833,237.667 407.167,237.667 406.5,237C 405.845,235.513 404.845,234.347 403.5,233.5C 402.728,236.135 402.562,238.801 403,241.5C 402.15,240.576 401.15,240.576 400,241.5C 398.629,240.419 397.129,239.585 395.5,239C 402.526,234.111 402.192,232.444 394.5,234C 397.623,232.118 400.289,229.785 402.5,227C 401.101,226.405 399.768,226.572 398.5,227.5C 397.702,225.922 397.202,224.256 397,222.5C 394.269,224.946 392.269,227.946 391,231.5C 391.34,223.868 389.34,223.534 385,230.5C 384.56,228.924 383.727,227.59 382.5,226.5C 383.376,225.749 384.376,225.249 385.5,225C 384.167,224 382.833,223 381.5,222C 383.783,221.709 385.95,222.209 388,223.5C 389.059,223.37 389.892,222.87 390.5,222C 388.651,220.907 386.984,219.574 385.5,218C 388.537,218.427 391.37,219.594 394,221.5C 394.5,221.167 395,220.833 395.5,220.5C 393.955,217.803 394.621,215.803 397.5,214.5C 396.264,213.643 394.931,212.977 393.5,212.5C 391.484,213.706 389.484,213.706 387.5,212.5C 389.423,211.692 391.423,211.192 393.5,211C 391.223,209.105 388.556,207.938 385.5,207.5C 387.385,206.803 387.718,205.803 386.5,204.5C 387.868,203.406 389.035,203.74 390,205.5C 390.837,199.163 391.503,199.497 392,206.5C 392.689,207.357 393.522,208.023 394.5,208.5C 395.167,206.5 395.833,204.5 396.5,202.5C 397.324,205.785 397.824,209.118 398,212.5C 398.333,212.833 398.667,213.167 399,213.5C 399.868,209.21 401.868,208.544 405,211.5C 404.533,208.302 403.033,205.469 400.5,203C 402.417,203.027 404.084,203.861 405.5,205.5C 406.643,203.041 406.31,200.707 404.5,198.5C 404.667,198.167 404.833,197.833 405,197.5C 407.437,200.149 408.77,199.483 409,195.5C 409.692,196.025 410.192,196.692 410.5,197.5C 409.206,201.061 410.04,201.394 413,198.5C 413.163,200.731 411.997,202.065 409.5,202.5C 408.167,203.833 408.167,205.167 409.5,206.5C 411.078,205.36 412.744,204.86 414.5,205C 412.128,206.844 409.794,208.678 407.5,210.5C 408.689,211.429 410.022,211.762 411.5,211.5C 411.238,212.978 411.571,214.311 412.5,215.5C 414.267,212.963 415.767,210.297 417,207.5C 417.18,209.488 417.014,211.488 416.5,213.5C 417.552,213.649 418.552,213.483 419.5,213C 420.283,210.882 421.616,209.382 423.5,208.5 Z"/></g>
<g><path style="opacity:1" fill="#ebe8db" d="M 188.5,211.5 C 193.575,211.829 195.242,214.329 193.5,219C 188.014,220.825 185.514,218.992 186,213.5C 186.995,212.934 187.828,212.267 188.5,211.5 Z"/></g>
<g><path style="opacity:1" fill="#3ead84" d="M 401.5,211.5 C 404.131,212.425 404.798,214.091 403.5,216.5C 401.783,215.332 401.116,213.665 401.5,211.5 Z"/></g>
<g><path style="opacity:1" fill="#40ad84" d="M 406.5,213.5 C 407.833,213.5 409.167,213.5 410.5,213.5C 410.5,214.5 410.5,215.5 410.5,216.5C 409.167,216.5 407.833,216.5 406.5,216.5C 406.5,215.5 406.5,214.5 406.5,213.5 Z"/></g>
<g><path style="opacity:1" fill="#e6e5d8" d="M 164.5,214.5 C 168.485,214.629 169.818,216.463 168.5,220C 163.728,220.81 162.395,218.977 164.5,214.5 Z"/></g>
<g><path style="opacity:1" fill="#62c0b3" d="M 212.5,215.5 C 213.947,216.134 214.613,217.301 214.5,219C 213.784,221.792 213.451,224.626 213.5,227.5C 212.5,227.5 211.5,227.5 210.5,227.5C 210.191,223.295 210.857,219.295 212.5,215.5 Z"/></g>
<g><path style="opacity:1" fill="#4aaf87" d="M 397.5,216.5 C 402.116,217.041 402.449,218.374 398.5,220.5C 396.824,219.272 396.491,217.939 397.5,216.5 Z"/></g>
<g><path style="opacity:1" fill="#5fbfb0" d="M 51.5,216.5 C 52.5,216.5 53.5,216.5 54.5,216.5C 54.7092,222.837 53.0425,228.503 49.5,233.5C 49.1667,232.333 48.8333,231.167 48.5,230C 49.5656,225.504 50.5656,221.004 51.5,216.5 Z"/></g>
<g><path style="opacity:1" fill="#5fbfb0" d="M 531.5,216.5 C 532.458,216.953 533.292,217.619 534,218.5C 534.834,222.501 535.667,226.501 536.5,230.5C 536.167,231.5 535.833,232.5 535.5,233.5C 533.578,231.997 532.412,229.997 532,227.5C 530.92,223.766 530.754,220.1 531.5,216.5 Z"/></g>
<g><path style="opacity:1" fill="#4db088" d="M 408.5,218.5 C 413.116,219.041 413.449,220.374 409.5,222.5C 407.824,221.272 407.491,219.939 408.5,218.5 Z"/></g>
<g><path style="opacity:1" fill="#33ab81" d="M 399.5,221.5 C 400.5,221.5 401.5,221.5 402.5,221.5C 402.539,223.359 401.706,224.692 400,225.5C 399.51,224.207 399.343,222.873 399.5,221.5 Z"/></g>
<g><path style="opacity:1" fill="#35ab81" d="M 404.5,222.5 C 407.275,222.834 407.941,224.167 406.5,226.5C 404.889,225.68 404.222,224.346 404.5,222.5 Z"/></g>
<g><path style="opacity:1" fill="#60c0b1" d="M 157.5,227.5 C 158.5,227.5 159.5,227.5 160.5,227.5C 160.665,230.85 160.498,234.183 160,237.5C 157.106,238.615 155.939,237.448 156.5,234C 156.788,231.813 157.122,229.646 157.5,227.5 Z"/></g>
<g><path style="opacity:1" fill="#60c0b1" d="M 41.5,232.5 C 42.5,232.5 43.5,232.5 44.5,232.5C 44.2736,236.292 43.4403,239.959 42,243.5C 40.2112,246.179 39.0445,246.013 38.5,243C 39.7342,239.563 40.7342,236.063 41.5,232.5 Z"/></g>
<g><path style="opacity:1" fill="#61c0b2" d="M 432.5,231.5 C 433.496,231.414 434.329,231.748 435,232.5C 436.199,235.726 436.699,239.059 436.5,242.5C 435.178,242.67 434.011,242.337 433,241.5C 431.384,238.176 431.217,234.843 432.5,231.5 Z"/></g>
<g><path style="opacity:1" fill="#5fbfb0" d="M 540.5,232.5 C 542.124,232.36 543.29,233.027 544,234.5C 545.44,238.041 546.274,241.708 546.5,245.5C 544.876,245.64 543.71,244.973 543,243.5C 541.438,239.986 540.605,236.319 540.5,232.5 Z"/></g>
<g><path style="opacity:1" fill="#5ebfaf" d="M 128.5,234.5 C 129.376,234.369 130.043,234.702 130.5,235.5C 129.355,238.748 128.521,242.081 128,245.5C 127.586,245.957 127.086,246.291 126.5,246.5C 125.256,242.216 125.923,238.216 128.5,234.5 Z"/></g>
<g><path style="opacity:1" fill="#e3e4d6" d="M 172.5,233.5 C 176.35,233.701 177.35,235.534 175.5,239C 170.289,239.546 169.289,237.713 172.5,233.5 Z"/></g>
<g><path style="opacity:1" fill="#5fbfb0" d="M 454.5,234.5 C 456.411,234.574 457.578,235.574 458,237.5C 459.31,240.503 459.476,243.503 458.5,246.5C 457.914,246.291 457.414,245.957 457,245.5C 456.593,241.715 455.759,238.048 454.5,234.5 Z"/></g>
<g><path style="opacity:1" fill="#61c0b2" d="M 133.5,235.5 C 134.649,235.791 135.316,236.624 135.5,238C 134.723,242.275 133.556,246.442 132,250.5C 131.311,251.357 130.478,252.023 129.5,252.5C 128.369,250.926 128.202,249.259 129,247.5C 131.002,243.658 132.502,239.658 133.5,235.5 Z"/></g>
<g><path style="opacity:1" fill="#60c0b1" d="M 448.5,235.5 C 450.411,235.574 451.578,236.574 452,238.5C 454.372,242.905 455.872,247.572 456.5,252.5C 453.95,252.439 452.45,251.106 452,248.5C 450.725,244.178 449.558,239.844 448.5,235.5 Z"/></g>
<g><path style="opacity:1" fill="#cedbc9" d="M 180.5,241.5 C 180.516,239.371 179.849,237.538 178.5,236C 180.163,235.735 181.663,236.235 183,237.5C 183.5,237 184,236.5 184.5,236C 183.328,235.581 182.328,234.915 181.5,234C 183.256,233.86 184.922,234.36 186.5,235.5C 185.983,233.981 186.65,232.648 188.5,231.5C 186.577,230.692 184.577,230.192 182.5,230C 186.14,228.866 185.807,227.866 181.5,227C 182.126,226.25 182.626,225.416 183,224.5C 184.016,225.634 184.683,225.301 185,223.5C 186,228.833 187,228.833 188,223.5C 188.14,226.043 188.806,228.377 190,230.5C 190.605,228.519 191.605,228.185 193,229.5C 193.333,227.953 192.833,226.62 191.5,225.5C 192.355,224.707 193.189,225.04 194,226.5C 194.595,225.101 194.428,223.768 193.5,222.5C 194.718,222.891 195.552,222.224 196,220.5C 196.5,221.667 197.333,222.5 198.5,223C 195.999,224.418 196.332,225.418 199.5,226C 198.167,227 196.833,228 195.5,229C 196.849,229.772 197.682,230.939 198,232.5C 199,230.833 200,229.167 201,227.5C 200.266,230.959 201.266,231.293 204,228.5C 206.065,229.628 206.732,231.294 206,233.5C 201.304,232.086 200.804,232.586 204.5,235C 204.167,235.167 203.833,235.333 203.5,235.5C 201.922,234.36 200.256,233.86 198.5,234C 199.833,235 199.833,236 198.5,237C 204.175,237.464 204.508,238.131 199.5,239C 200.949,240.117 202.616,240.784 204.5,241C 203.833,241.333 203.167,241.667 202.5,242C 203.833,243.84 203.666,244.34 202,243.5C 201.667,244.167 201.333,244.833 201,245.5C 200.377,241.068 199.377,240.735 198,244.5C 197.51,243.207 197.343,241.873 197.5,240.5C 196.167,240.5 194.833,240.5 193.5,240.5C 192.55,243.068 192.55,245.568 193.5,248C 191.365,248.635 189.365,248.301 187.5,247C 189.612,246.094 190.445,244.594 190,242.5C 189.163,244.007 187.996,244.507 186.5,244C 187.984,242.426 189.651,241.093 191.5,240C 189.924,239.56 188.59,238.727 187.5,237.5C 186.321,241.808 184.987,242.141 183.5,238.5C 182.712,239.77 181.712,240.77 180.5,241.5 Z"/></g>
<g><path style="opacity:1" fill="#60c0b1" d="M 55.5,241.5 C 58.0397,246.294 57.873,251.294 55,256.5C 53.9887,257.337 52.8221,257.67 51.5,257.5C 52.8288,252.185 54.1621,246.852 55.5,241.5 Z"/></g>
<g><path style="opacity:1" fill="#60c0b1" d="M 526.5,241.5 C 527.5,241.5 528.5,241.5 529.5,241.5C 530.34,245.861 531.34,250.195 532.5,254.5C 531.733,258.235 530.566,258.235 529,254.5C 527.431,250.297 526.598,245.964 526.5,241.5 Z"/></g>
<g><path style="opacity:1" fill="#5fbfb0" d="M 85.5,242.5 C 86.3764,242.369 87.0431,242.702 87.5,243.5C 85.9382,246.974 85.1048,250.64 85,254.5C 84.3109,255.357 83.4776,256.023 82.5,256.5C 81.4008,251.445 82.4008,246.778 85.5,242.5 Z"/></g>
<g><path style="opacity:1" fill="#61c0b2" d="M 180.5,241.5 C 181.434,246.711 180.101,251.377 176.5,255.5C 174.554,253.956 174.054,251.956 175,249.5C 175.725,247.051 176.725,244.717 178,242.5C 178.671,241.748 179.504,241.414 180.5,241.5 Z"/></g>
<g><path style="opacity:1" fill="#61c0b2" d="M 417.5,242.5 C 418.833,242.5 420.167,242.5 421.5,242.5C 421.575,245.206 421.908,247.873 422.5,250.5C 418.006,249.841 416.339,247.175 417.5,242.5 Z"/></g>
<g><path style="opacity:1" fill="#60c0b1" d="M 497.5,243.5 C 497.897,242.475 498.563,242.308 499.5,243C 502.495,247.137 503.495,251.637 502.5,256.5C 501.522,256.023 500.689,255.357 500,254.5C 499.758,250.57 498.925,246.903 497.5,243.5 Z"/></g>
<g><path style="opacity:1" fill="#60bfb1" d="M 158.5,243.5 C 159.748,244.334 160.415,245.667 160.5,247.5C 159.939,251.863 159.273,256.196 158.5,260.5C 157.5,260.5 156.5,260.5 155.5,260.5C 155.349,254.594 156.349,248.928 158.5,243.5 Z"/></g>
<g><path style="opacity:1" fill="#60c0b1" d="M 394.5,250.5 C 395.5,250.5 396.5,250.5 397.5,250.5C 397.777,254.332 398.11,258.165 398.5,262C 398.596,264.375 398.096,266.541 397,268.5C 393.712,262.865 392.879,256.865 394.5,250.5 Z"/></g>
<g><path style="opacity:1" fill="#ea644f" d="M 391.5,288.5 C 384.031,298.29 374.697,305.957 363.5,311.5C 359.343,298.536 355.343,285.536 351.5,272.5C 354.237,271.969 356.904,271.136 359.5,270C 368.079,266.922 373.745,261.089 376.5,252.5C 380.129,251.231 382.629,252.564 384,256.5C 385.713,264.687 388.047,272.687 391,280.5C 391.497,283.146 391.664,285.813 391.5,288.5 Z"/></g>
<g><path style="opacity:1" fill="#ebe7da" d="M 421.5,252.5 C 424.966,253.109 425.966,254.942 424.5,258C 419.289,258.546 418.289,256.713 421.5,252.5 Z"/></g>
<g><path style="opacity:1" fill="#ebe7db" d="M 190.5,254.5 C 194.138,253.737 195.638,255.07 195,258.5C 190.415,260.413 188.915,259.079 190.5,254.5 Z"/></g>
<g><path style="opacity:1" fill="#60c0b2" d="M 180.5,255.5 C 181.5,255.5 182.5,255.5 183.5,255.5C 183.663,257.857 183.497,260.19 183,262.5C 181.602,267.479 180.102,267.645 178.5,263C 179.071,260.456 179.738,257.956 180.5,255.5 Z"/></g>
<g><path style="opacity:1" fill="#ebe7db" d="M 163.5,261.5 C 165.199,261.34 166.866,261.506 168.5,262C 169.995,265.841 168.661,267.174 164.5,266C 163.62,264.644 163.286,263.144 163.5,261.5 Z"/></g>
<g><path style="opacity:1" fill="#ea644f" d="M 209.5,262.5 C 212.366,265.521 215.7,268.021 219.5,270C 211.394,281.27 207.727,293.77 208.5,307.5C 210.323,308.747 212.323,309.414 214.5,309.5C 217.122,296.803 221.622,284.803 228,273.5C 231.659,275.387 235.492,276.887 239.5,278C 233.767,290.158 230.767,302.991 230.5,316.5C 233.5,317.167 236.5,317.833 239.5,318.5C 241.123,306.124 244.29,294.124 249,282.5C 252.095,281.605 255.262,281.605 258.5,282.5C 255.199,294.636 252.866,306.969 251.5,319.5C 252.011,321.878 252.678,324.212 253.5,326.5C 250.176,340.12 247.176,353.787 244.5,367.5C 242.143,367.663 239.81,367.497 237.5,367C 217.116,359.637 197.782,350.471 179.5,339.5C 183.578,331.009 187.912,322.676 192.5,314.5C 195.268,311.158 197.934,307.658 200.5,304C 199.016,303.338 197.683,302.504 196.5,301.5C 194.195,288.193 196.695,275.859 204,264.5C 205.444,262.845 207.278,262.178 209.5,262.5 Z"/></g>
<g><path style="opacity:1" fill="#eee9dc" d="M 410.5,273.5 C 406.381,265.962 408.381,263.296 416.5,265.5C 418.705,271.296 416.705,273.963 410.5,273.5 Z"/></g>
<g><path style="opacity:1" fill="#5fbfb0" d="M 125.5,266.5 C 126.693,266.97 127.36,267.97 127.5,269.5C 127.158,271.867 126.658,274.2 126,276.5C 123.875,277.851 122.708,277.185 122.5,274.5C 123.114,271.655 124.114,268.988 125.5,266.5 Z"/></g>
<g><path style="opacity:1" fill="#60c0b1" d="M 428.5,266.5 C 429.833,266.5 431.167,266.5 432.5,266.5C 433.331,273.149 433.998,279.815 434.5,286.5C 433.5,286.5 432.5,286.5 431.5,286.5C 429.851,279.938 428.851,273.271 428.5,266.5 Z"/></g>
<g><path style="opacity:1" fill="#5dbeae" d="M 456.5,266.5 C 458.911,266.137 460.411,267.137 461,269.5C 461.601,271.137 462.101,272.803 462.5,274.5C 462.292,277.185 461.125,277.851 459,276.5C 457.974,273.198 457.14,269.865 456.5,266.5 Z"/></g>
<g><path style="opacity:1" fill="#5ebfb0" d="M 544.5,267.5 C 547.208,270.744 547.875,274.411 546.5,278.5C 543.575,275.286 542.908,271.619 544.5,267.5 Z"/></g>
<g><path style="opacity:1" fill="#60c0b1" d="M 103.5,270.5 C 104.725,271.152 105.392,272.319 105.5,274C 105.019,278.757 103.686,283.257 101.5,287.5C 100.675,288.386 99.675,288.719 98.5,288.5C 100.568,282.626 102.235,276.626 103.5,270.5 Z"/></g>
<g><path style="opacity:1" fill="#60c0b1" d="M 479.5,270.5 C 482.57,276.016 484.904,282.016 486.5,288.5C 483.95,288.439 482.45,287.106 482,284.5C 480.025,280.037 479.192,275.371 479.5,270.5 Z"/></g>
<g><path style="opacity:1" fill="#e8e6d9" d="M 176.5,271.5 C 183.068,271.192 184.734,273.692 181.5,279C 179.559,279.743 177.726,279.576 176,278.5C 175.444,276.115 175.61,273.782 176.5,271.5 Z"/></g>
<g><path style="opacity:1" fill="#60c0b2" d="M 410.5,273.5 C 411.602,277.747 411.768,282.08 411,286.5C 409.286,287.925 407.953,287.592 407,285.5C 406.333,282.167 406.333,278.833 407,275.5C 407.71,274.027 408.876,273.36 410.5,273.5 Z"/></g>
<g><path style="opacity:1" fill="#5ebfaf" d="M 63.5,277.5 C 64.5,277.5 65.5,277.5 66.5,277.5C 66.3757,282.289 65.5423,286.955 64,291.5C 62.9887,292.337 61.8221,292.67 60.5,292.5C 61.2888,287.464 62.2888,282.464 63.5,277.5 Z"/></g>
<g><path style="opacity:1" fill="#eb6852" d="M 341.5,276.5 C 343.411,276.574 344.578,277.574 345,279.5C 348.009,291.403 350.509,303.403 352.5,315.5C 350.465,317.195 348.132,318.528 345.5,319.5C 342.164,305.819 338.831,292.152 335.5,278.5C 337.898,278.741 339.898,278.074 341.5,276.5 Z"/></g>
<g><path style="opacity:1" fill="#5fbfb0" d="M 518.5,277.5 C 519.5,277.5 520.5,277.5 521.5,277.5C 522.322,281.126 522.989,284.793 523.5,288.5C 523.374,293.452 522.207,293.785 520,289.5C 519.172,285.534 518.672,281.534 518.5,277.5 Z"/></g>
<g><path style="opacity:1" fill="#60c0b2" d="M 185.5,279.5 C 186.756,279.461 187.756,279.961 188.5,281C 187.207,285.037 186.374,289.204 186,293.5C 185,294.833 184,294.833 183,293.5C 182.042,288.487 182.875,283.821 185.5,279.5 Z"/></g>
<g><path style="opacity:1" fill="#eb6751" d="M 320.5,283.5 C 322.167,283.5 323.833,283.5 325.5,283.5C 328.905,294.716 331.905,306.05 334.5,317.5C 334.46,319.429 334.127,321.262 333.5,323C 330.544,323.989 327.544,324.822 324.5,325.5C 323.353,325.182 322.519,324.516 322,323.5C 319.928,310.401 317.428,297.401 314.5,284.5C 316.735,284.795 318.735,284.461 320.5,283.5 Z"/></g>
<g><path style="opacity:1" fill="#eb644e" d="M 267.5,285.5 C 280.455,287.652 293.455,287.985 306.5,286.5C 308.294,300.441 309.294,314.441 309.5,328.5C 311.792,328.244 313.959,328.577 316,329.5C 317.555,331.443 318.722,333.61 319.5,336C 319.355,336.772 319.022,337.439 318.5,338C 305.422,343.869 292.089,349.202 278.5,354C 273.674,356.246 269.008,358.746 264.5,361.5C 263.914,361.291 263.414,360.957 263,360.5C 259.095,348.807 256.928,336.807 256.5,324.5C 257.5,324.5 258.5,324.5 259.5,324.5C 262.007,311.472 264.673,298.472 267.5,285.5 Z"/></g>
<g><path style="opacity:1" fill="#60c0b1" d="M 452.5,291.5 C 453.931,291.881 454.764,292.881 455,294.5C 456.81,300.763 458.31,307.096 459.5,313.5C 456.286,312.472 454.452,310.138 454,306.5C 451.997,301.548 451.497,296.548 452.5,291.5 Z"/></g>
<g><path style="opacity:1" fill="#5fbfb0" d="M 130.5,291.5 C 131.496,291.414 132.329,291.748 133,292.5C 133.448,298.385 132.448,304.052 130,309.5C 126.447,315.011 125.113,314.344 126,307.5C 128.125,302.333 129.625,296.999 130.5,291.5 Z"/></g>
<g><path style="opacity:1" fill="#e2e4d5" d="M 408.5,292.5 C 413.328,292.385 414.661,294.552 412.5,299C 407.57,299.427 406.237,297.26 408.5,292.5 Z"/></g>
<g><path style="opacity:1" fill="#60c0b1" d="M 152.5,293.5 C 154.89,293.685 155.89,295.018 155.5,297.5C 155.249,301.116 154.249,304.449 152.5,307.5C 150.976,306.473 150.309,304.973 150.5,303C 151.068,299.8 151.735,296.633 152.5,293.5 Z"/></g>
<g><path style="opacity:1" fill="#60c0b1" d="M 37.5,301.5 C 38.5,301.5 39.5,301.5 40.5,301.5C 40.6946,305.915 40.1946,310.249 39,314.5C 37.951,316.107 36.451,316.773 34.5,316.5C 35.9694,311.618 36.9694,306.618 37.5,301.5 Z"/></g>
<g><path style="opacity:1" fill="#dbe1d1" d="M 422.5,305.5 C 426.331,300.266 429.498,300.932 432,307.5C 433.612,304.921 435.112,304.921 436.5,307.5C 435.624,308.251 434.624,308.751 433.5,309C 433.957,309.414 434.291,309.914 434.5,310.5C 428.041,311.97 428.374,312.637 435.5,312.5C 435.815,314.226 435.981,315.893 436,317.5C 434.887,318.711 433.72,318.711 432.5,317.5C 430.585,318.709 428.752,320.042 427,321.5C 424.18,319.175 421.013,317.509 417.5,316.5C 418.246,315.264 418.579,313.93 418.5,312.5C 420.199,312.66 421.866,312.494 423.5,312C 422.975,311.308 422.308,310.808 421.5,310.5C 420.264,311.246 418.93,311.579 417.5,311.5C 417.579,310.07 417.246,308.736 416.5,307.5C 418.411,306.523 420.411,305.857 422.5,305.5 Z"/></g>
<g><path style="opacity:1" fill="#60c0b1" d="M 544.5,301.5 C 545.5,301.5 546.5,301.5 547.5,301.5C 547.868,306.557 548.535,311.557 549.5,316.5C 548.178,316.67 547.011,316.337 546,315.5C 544.158,310.863 543.658,306.196 544.5,301.5 Z"/></g>
<g><path style="opacity:1" fill="#e5dbca" d="M 196.5,301.5 C 197.683,302.504 199.016,303.338 200.5,304C 197.934,307.658 195.268,311.158 192.5,314.5C 193.682,310.104 195.015,305.771 196.5,301.5 Z"/></g>
<g><path style="opacity:1" fill="#b6d2bb" d="M 173.5,309.5 C 171.897,308.323 170.564,308.489 169.5,310C 169.833,310.333 170.167,310.667 170.5,311C 168.866,311.494 167.199,311.66 165.5,311.5C 165.506,308.452 164.506,307.952 162.5,310C 164.022,311.916 165.022,314.083 165.5,316.5C 163.318,315.7 161.651,314.2 160.5,312C 160.716,310.034 161.382,307.867 162.5,305.5C 164.915,304.695 167.249,303.695 169.5,302.5C 170.971,303.381 171.804,304.714 172,306.5C 173.156,305.007 173.99,305.174 174.5,307C 174.257,307.902 173.923,308.735 173.5,309.5 Z"/></g>
<g><path style="opacity:1" fill="#60c0b1" d="M 185.5,303.5 C 186.117,303.611 186.617,303.944 187,304.5C 187.86,311.087 186.36,317.087 182.5,322.5C 181.408,315.859 182.408,309.526 185.5,303.5 Z"/></g>
<g><path style="opacity:1" fill="#4fb089" d="M 422.5,305.5 C 424.728,306.322 425.395,307.655 424.5,309.5C 422.889,308.68 422.222,307.346 422.5,305.5 Z"/></g>
<g><path style="opacity:1" fill="#5cbeae" d="M 465.5,313.5 C 466.496,313.414 467.329,313.748 468,314.5C 469.136,317.096 469.969,319.763 470.5,322.5C 468.61,322.703 467.11,322.037 466,320.5C 465.503,318.19 465.337,315.857 465.5,313.5 Z"/></g>
<g><path style="opacity:1" fill="#8ec3a5" d="M 173.5,309.5 C 174.598,310.601 174.765,311.934 174,313.5C 172.667,314.167 171.667,315.167 171,316.5C 169.33,317.177 167.496,317.177 165.5,316.5C 165.022,314.083 164.022,311.916 162.5,310C 164.506,307.952 165.506,308.452 165.5,311.5C 167.199,311.66 168.866,311.494 170.5,311C 170.167,310.667 169.833,310.333 169.5,310C 170.564,308.489 171.897,308.323 173.5,309.5 Z"/></g>
<g><path style="opacity:1" fill="#61c0b2" d="M 25.5,317.5 C 26.4959,317.414 27.3292,317.748 28,318.5C 28.9849,323.689 28.4849,328.689 26.5,333.5C 25.3112,334.429 23.9778,334.762 22.5,334.5C 22.1214,328.555 23.1214,322.888 25.5,317.5 Z"/></g>
<g><path style="opacity:1" fill="#60c0b2" d="M 557.5,317.5 C 558.458,317.953 559.292,318.619 560,319.5C 562.032,324.284 562.866,329.284 562.5,334.5C 559.14,335.21 557.307,333.876 557,330.5C 555.099,325.934 555.266,321.6 557.5,317.5 Z"/></g>
<g><path style="opacity:1" fill="#5fc0b1" d="M 103.5,318.5 C 104.586,318.62 105.253,319.287 105.5,320.5C 104.34,327.303 102.673,333.97 100.5,340.5C 99.675,341.386 98.675,341.719 97.5,341.5C 98.3325,333.479 100.332,325.812 103.5,318.5 Z"/></g>
<g><path style="opacity:1" fill="#60c0b1" d="M 479.5,318.5 C 481.411,318.574 482.578,319.574 483,321.5C 484.611,328.16 486.111,334.827 487.5,341.5C 485.876,341.64 484.71,340.973 484,339.5C 481.991,332.598 480.491,325.598 479.5,318.5 Z"/></g>
<g><path style="opacity:1" fill="#5fbfb0" d="M 132.5,322.5 C 133.695,322.866 134.361,323.699 134.5,325C 133.464,327.774 132.631,330.607 132,333.5C 131.632,334.91 130.799,335.91 129.5,336.5C 129.203,331.67 130.203,327.004 132.5,322.5 Z"/></g>
<g><path style="opacity:1" fill="#61c0b2" d="M 432.5,321.5 C 433.496,321.414 434.329,321.748 435,322.5C 435.667,326.167 435.667,329.833 435,333.5C 434,334.833 433,334.833 432,333.5C 431.238,329.413 431.404,325.413 432.5,321.5 Z"/></g>
<g><path style="opacity:1" fill="#5fbfb0" d="M 450.5,322.5 C 451.496,322.414 452.329,322.748 453,323.5C 454.268,327.136 455.434,330.803 456.5,334.5C 455.1,336.925 453.934,336.592 453,333.5C 451.438,329.986 450.605,326.319 450.5,322.5 Z"/></g>
<g><path style="opacity:1" fill="#5dbfae" d="M 87.5,325.5 C 88.4972,325.47 89.1639,325.97 89.5,327C 88.8392,329.464 88.3392,331.964 88,334.5C 85.6051,335.798 84.4384,334.965 84.5,332C 84.8402,329.489 85.8402,327.322 87.5,325.5 Z"/></g>
<g><path style="opacity:1" fill="#61c0b2" d="M 158.5,324.5 C 159.765,325.514 160.431,327.014 160.5,329C 160.363,331.898 159.863,334.731 159,337.5C 157.989,338.337 156.822,338.67 155.5,338.5C 155.672,333.652 156.672,328.985 158.5,324.5 Z"/></g>
<g><path style="opacity:1" fill="#5ebfaf" d="M 495.5,325.5 C 499.622,327.077 501.122,330.077 500,334.5C 499,335.833 498,335.833 497,334.5C 496.637,331.456 496.137,328.456 495.5,325.5 Z"/></g>
<g><path style="opacity:1" fill="#61c0b2" d="M 414.5,326.5 C 415.5,326.5 416.5,326.5 417.5,326.5C 418.66,332.14 419.66,337.807 420.5,343.5C 418.089,343.863 416.589,342.863 416,340.5C 414.691,335.934 414.191,331.267 414.5,326.5 Z"/></g>
<g><path style="opacity:1" fill="#62c1b3" d="M 166.5,328.5 C 167.5,328.5 168.5,328.5 169.5,328.5C 169.436,332.22 168.936,335.886 168,339.5C 165.355,340.708 164.188,339.708 164.5,336.5C 164.968,333.767 165.635,331.1 166.5,328.5 Z"/></g>
<g><path style="opacity:1" fill="#61c0b3" d="M 38.5,329.5 C 39.5,329.5 40.5,329.5 41.5,329.5C 42.1157,334.05 40.949,338.05 38,341.5C 36.4768,337.537 36.6434,333.537 38.5,329.5 Z"/></g>
<g><path style="opacity:1" fill="#5fbfb0" d="M 543.5,329.5 C 544.822,329.33 545.989,329.663 547,330.5C 547.658,332.8 548.158,335.133 548.5,337.5C 547.345,342.805 545.845,342.805 544,337.5C 543.503,334.854 543.336,332.187 543.5,329.5 Z"/></g>
<g><path style="opacity:1" fill="#e9e7da" d="M 427.5,335.5 C 433,334.831 435.167,337.165 434,342.5C 431.718,346.041 429.051,346.374 426,343.5C 425.109,340.502 425.609,337.836 427.5,335.5 Z"/></g>
<g><path style="opacity:1" fill="#ebe7db" d="M 160.5,342.5 C 166.264,342.86 167.931,345.693 165.5,351C 160.967,352.471 158.633,350.804 158.5,346C 158.862,344.566 159.528,343.399 160.5,342.5 Z"/></g>
<g><path style="opacity:1" fill="#eb6751" d="M 323.5,343.5 C 327.533,344.659 329.2,347.159 328.5,351C 314.493,359.338 299.826,366.338 284.5,372C 279.412,375.083 274.912,378.917 271,383.5C 269.629,379.927 268.129,376.427 266.5,373C 270.574,368.124 275.574,364.457 281.5,362C 296.425,357.647 310.425,351.481 323.5,343.5 Z"/></g>
<g><path style="opacity:1" fill="#60c0b1" d="M 148.5,344.5 C 150.68,346.031 151.68,348.198 151.5,351C 152.061,354.448 150.894,355.615 148,354.5C 147.253,351.076 147.42,347.743 148.5,344.5 Z"/></g>
<g><path style="opacity:1" fill="#eb6751" d="M 174.5,349.5 C 188.145,355.655 201.812,361.821 215.5,368C 224.063,371.465 232.729,374.632 241.5,377.5C 242.487,380.768 242.82,384.102 242.5,387.5C 236.17,386.779 230.17,384.946 224.5,382C 212.167,375.667 199.833,369.333 187.5,363C 181.998,360.775 176.331,359.275 170.5,358.5C 171.561,355.378 172.895,352.378 174.5,349.5 Z"/></g>
<g><path style="opacity:1" fill="#60c0b1" d="M 120.5,352.5 C 122.484,352.484 123.484,353.484 123.5,355.5C 123.159,358.187 121.826,360.187 119.5,361.5C 118.674,358.438 119.007,355.438 120.5,352.5 Z"/></g>
<g><path style="opacity:1" fill="#61c0b2" d="M 461.5,352.5 C 463.124,352.36 464.29,353.027 465,354.5C 466.345,356.83 466.512,359.163 465.5,361.5C 462.279,359.387 460.945,356.387 461.5,352.5 Z"/></g>
<g><path style="opacity:1" fill="#eb6751" d="M 339.5,358.5 C 341.229,359.236 342.229,360.57 342.5,362.5C 330.687,369.242 318.687,375.742 306.5,382C 297.133,387.695 288.633,394.528 281,402.5C 279.476,400.102 277.976,397.769 276.5,395.5C 275.167,394.167 275.167,392.833 276.5,391.5C 287.287,380.431 300.287,372.931 315.5,369C 323.161,365.84 330.161,361.674 336.5,356.5C 337.518,357.193 338.518,357.859 339.5,358.5 Z"/></g>
<g><path style="opacity:1" fill="#61c0b2" d="M 425.5,356.5 C 426.496,356.414 427.329,356.748 428,357.5C 428.667,360.5 428.667,363.5 428,366.5C 427,367.833 426,367.833 425,366.5C 424.253,363.076 424.42,359.743 425.5,356.5 Z"/></g>
<g><path style="opacity:1" fill="#cab69c" d="M 342.5,362.5 C 342.229,360.57 341.229,359.236 339.5,358.5C 364.683,354.952 388.349,359.285 410.5,371.5C 410.167,371.833 409.833,372.167 409.5,372.5C 387.984,362.183 365.651,358.85 342.5,362.5 Z"/></g>
<g><path style="opacity:1" fill="#63bfb1" d="M 166.5,365.5 C 166.5,366.5 166.5,367.5 166.5,368.5C 165.069,369.78 164.402,371.447 164.5,373.5C 163.833,374.5 163.167,375.5 162.5,376.5C 161.414,376.38 160.747,375.713 160.5,374.5C 161.976,370.264 162.976,365.93 163.5,361.5C 164.5,361.5 165.5,361.5 166.5,361.5C 166.5,362.833 166.5,364.167 166.5,365.5 Z"/></g>
<g><path style="opacity:1" fill="#60c0b1" d="M 433.5,360.5 C 434.75,360.577 435.583,361.244 436,362.5C 437.457,366.741 437.791,371.074 437,375.5C 433.904,378.341 432.404,377.507 432.5,373C 433.237,368.863 433.571,364.697 433.5,360.5 Z"/></g>
<g><path style="opacity:1" fill="#5ebfaf" d="M 109.5,365.5 C 112.243,365.077 113.576,366.244 113.5,369C 112.881,373.381 111.214,377.215 108.5,380.5C 108.167,379.5 107.833,378.5 107.5,377.5C 108.799,373.604 109.466,369.604 109.5,365.5 Z"/></g>
<g><path style="opacity:1" fill="#5ebfb0" d="M 471.5,365.5 C 472.5,365.5 473.5,365.5 474.5,365.5C 475.492,369.482 476.492,373.482 477.5,377.5C 477.444,378.737 476.944,379.737 476,380.5C 472.599,376.125 471.099,371.125 471.5,365.5 Z"/></g>
<g><path style="opacity:1" fill="#62c1b4" d="M 148.5,367.5 C 149.496,367.414 150.329,367.748 151,368.5C 151.499,372.152 151.665,375.818 151.5,379.5C 150.178,379.67 149.011,379.337 148,378.5C 147.421,374.797 147.588,371.131 148.5,367.5 Z"/></g>
<g><path style="opacity:1" fill="#e4604a" d="M 351.5,384.5 C 349.007,384.131 348.34,384.797 349.5,386.5C 346.86,386.954 344.527,388.121 342.5,390C 349.168,393.495 353.835,398.662 356.5,405.5C 353.484,405.159 350.818,403.993 348.5,402C 345.5,399 342.5,396 339.5,393C 336.393,393.54 333.393,394.707 330.5,396.5C 329.292,395.766 327.959,395.433 326.5,395.5C 326.5,396.5 326.5,397.5 326.5,398.5C 323.98,400.263 321.647,402.263 319.5,404.5C 318.735,403.34 317.735,402.34 316.5,401.5C 315.306,403.516 315.306,405.516 316.5,407.5C 315.448,407.351 314.448,407.517 313.5,408C 311.905,410.102 309.905,411.602 307.5,412.5C 304.833,411.167 304.167,411.833 305.5,414.5C 303.632,415.263 301.965,416.263 300.5,417.5C 299.518,416.859 298.518,416.193 297.5,415.5C 296.702,415.957 296.369,416.624 296.5,417.5C 292.656,416.331 289.656,413.998 287.5,410.5C 294.461,402.705 302.461,396.205 311.5,391C 325.434,384.456 338.267,376.29 350,366.5C 352.846,368.257 355.512,370.257 358,372.5C 358.651,374.235 358.485,375.902 357.5,377.5C 365.586,378.347 373.253,380.514 380.5,384C 371.738,386.516 363.405,385.349 355.5,380.5C 353.812,381.521 352.479,382.855 351.5,384.5 Z"/></g>
<g><path style="opacity:1" fill="#eb6650" d="M 166.5,368.5 C 172.029,368.715 177.362,369.882 182.5,372C 194.677,378.589 207.01,384.922 219.5,391C 226.751,394.696 234.418,396.862 242.5,397.5C 242.5,401.5 242.5,405.5 242.5,409.5C 234.176,408.115 226.176,405.615 218.5,402C 207.833,395.333 197.167,388.667 186.5,382C 179.641,377.881 172.308,375.048 164.5,373.5C 164.402,371.447 165.069,369.78 166.5,368.5 Z"/></g>
<g><path style="opacity:1" fill="#60c0b2" d="M 21.5,373.5 C 22.8333,373.5 24.1667,373.5 25.5,373.5C 23.9372,377.661 23.2705,381.995 23.5,386.5C 21.8762,386.64 20.7096,385.973 20,384.5C 19.2415,380.643 19.7415,376.977 21.5,373.5 Z"/></g>
<g><path style="opacity:1" fill="#60c0b2" d="M 559.5,373.5 C 562.292,373.452 564.125,374.785 565,377.5C 565.667,379.833 565.667,382.167 565,384.5C 564.29,385.973 563.124,386.64 561.5,386.5C 561.729,381.995 561.063,377.661 559.5,373.5 Z"/></g>
<g><path style="opacity:1" fill="#e9e7da" d="M 426.5,377.5 C 432.148,377.311 433.482,379.478 430.5,384C 425.81,384.141 424.477,381.975 426.5,377.5 Z"/></g>
<g><path style="opacity:1" fill="#5dbfaf" d="M 521.5,382.5 C 522.675,382.281 523.675,382.614 524.5,383.5C 525.785,386.021 526.452,388.687 526.5,391.5C 525.178,391.67 524.011,391.337 523,390.5C 522.433,387.832 521.933,385.166 521.5,382.5 Z"/></g>
<g><path style="opacity:1" fill="#e7634d" d="M 160.5,383.5 C 163.874,383.674 167.207,384.174 170.5,385C 188.58,395.402 206.914,405.402 225.5,415C 230.737,417.119 236.071,418.952 241.5,420.5C 242.818,424.626 242.485,428.626 240.5,432.5C 243.75,439.164 244.917,446.164 244,453.5C 240.17,447.352 237.503,440.685 236,433.5C 233.222,432.675 230.389,432.008 227.5,431.5C 226.768,430.192 225.934,428.858 225,427.5C 224.503,430.146 224.336,432.813 224.5,435.5C 223.835,433.302 223.168,430.969 222.5,428.5C 219.807,427.153 217.14,425.82 214.5,424.5C 214.54,420.8 213.54,420.133 211.5,422.5C 207.824,421.246 204.324,419.579 201,417.5C 200.809,419.708 200.309,421.708 199.5,423.5C 199.274,420.751 199.607,418.084 200.5,415.5C 200.167,414.5 199.5,413.833 198.5,413.5C 197.828,414.949 197.161,416.282 196.5,417.5C 194.12,414.793 191.12,412.793 187.5,411.5C 187.585,410.005 186.919,409.005 185.5,408.5C 184.265,409.34 183.265,410.34 182.5,411.5C 179.943,409.393 176.943,408.059 173.5,407.5C 173.306,403.995 172.306,403.662 170.5,406.5C 168.421,406.029 166.421,405.363 164.5,404.5C 164.163,401.664 162.829,400.998 160.5,402.5C 159.504,402.586 158.671,402.252 158,401.5C 157.727,395.361 158.56,389.361 160.5,383.5 Z"/></g>
<g><path style="opacity:1" fill="#c3432e" d="M 351.5,384.5 C 359.589,386.708 366.589,390.708 372.5,396.5C 370.235,397.647 367.902,397.814 365.5,397C 359.588,394.222 354.255,390.722 349.5,386.5C 348.34,384.797 349.007,384.131 351.5,384.5 Z"/></g>
<g><path style="opacity:1" fill="#ccb69d" d="M 276.5,391.5 C 275.167,392.833 275.167,394.167 276.5,395.5C 270.282,400.63 265.949,406.63 263.5,413.5C 262.486,414.674 261.153,415.34 259.5,415.5C 263.677,406.342 269.344,398.342 276.5,391.5 Z"/></g>
<g><path style="opacity:1" fill="#60c0b1" d="M 11.5,394.5 C 13.1238,394.36 14.2904,395.027 15,396.5C 15.6667,400.167 15.6667,403.833 15,407.5C 13.6054,408.815 12.6054,408.481 12,406.5C 11.5012,402.514 11.3345,398.514 11.5,394.5 Z"/></g>
<g><path style="opacity:1" fill="#62c1b3" d="M 149.5,393.5 C 150.5,393.5 151.5,393.5 152.5,393.5C 152.828,398.875 152.495,404.208 151.5,409.5C 150.029,408.619 149.196,407.286 149,405.5C 148.306,401.446 148.473,397.446 149.5,393.5 Z"/></g>
<g><path style="opacity:1" fill="#62c1b3" d="M 570.5,394.5 C 571.5,394.5 572.5,394.5 573.5,394.5C 573.666,398.514 573.499,402.514 573,406.5C 572.333,407.167 571.667,407.833 571,408.5C 569.177,403.933 569.01,399.266 570.5,394.5 Z"/></g>
<g><path style="opacity:1" fill="#c4452f" d="M 330.5,396.5 C 335.438,400.936 340.271,405.603 345,410.5C 346.128,412.345 346.628,414.345 346.5,416.5C 343.774,416.736 341.441,415.903 339.5,414C 334.926,408.935 330.593,403.769 326.5,398.5C 326.5,397.5 326.5,396.5 326.5,395.5C 327.959,395.433 329.292,395.766 330.5,396.5 Z"/></g>
<g><path style="opacity:1" fill="#5fc0b1" d="M 97.5,395.5 C 99.7224,395.559 100.722,396.725 100.5,399C 100.146,402.737 98.6463,405.903 96,408.5C 95.1504,403.979 95.6504,399.645 97.5,395.5 Z"/></g>
<g><path style="opacity:1" fill="#61c0b2" d="M 109.5,396.5 C 111.644,400.367 110.81,404.033 107,407.5C 106.13,406.892 105.63,406.059 105.5,405C 106.711,402.08 108.044,399.247 109.5,396.5 Z"/></g>
<g><path style="opacity:1" fill="#5ebfb0" d="M 473.5,396.5 C 474.496,396.414 475.329,396.748 476,397.5C 477.914,400.298 478.914,403.298 479,406.5C 476.91,407.791 475.576,407.124 475,404.5C 473.921,401.937 473.421,399.271 473.5,396.5 Z"/></g>
<g><path style="opacity:1" fill="#61c0b2" d="M 485.5,395.5 C 487.614,396.36 488.78,398.027 489,400.5C 489.818,403.227 489.652,405.894 488.5,408.5C 485.428,404.551 484.428,400.217 485.5,395.5 Z"/></g>
<g><path style="opacity:1" fill="#60c0b1" d="M 81.5,398.5 C 82.7479,399.334 83.4146,400.667 83.5,402.5C 82.9111,406.601 81.9111,410.601 80.5,414.5C 79.675,415.386 78.675,415.719 77.5,415.5C 78.0122,409.632 79.3456,403.965 81.5,398.5 Z"/></g>
<g><path style="opacity:1" fill="#60c0b2" d="M 501.5,398.5 C 506.06,403.323 507.394,408.99 505.5,415.5C 502.406,410.13 501.072,404.463 501.5,398.5 Z"/></g>
<g><path style="opacity:1" fill="#bd452c" d="M 164.5,404.5 C 163.075,408.722 161.575,413.055 160,417.5C 158.566,421.382 156.4,424.715 153.5,427.5C 152.345,424.554 152.179,421.554 153,418.5C 155.255,412.994 157.755,407.66 160.5,402.5C 162.829,400.998 164.163,401.664 164.5,404.5 Z"/></g>
<g><path style="opacity:1" fill="#c54831" d="M 319.5,404.5 C 323.469,411.943 326.469,419.776 328.5,428C 328.167,428.833 327.833,429.667 327.5,430.5C 322.491,423.481 318.824,415.814 316.5,407.5C 315.306,405.516 315.306,403.516 316.5,401.5C 317.735,402.34 318.735,403.34 319.5,404.5 Z"/></g>
<g><path style="opacity:1" fill="#be442c" d="M 173.5,407.5 C 173.335,412.995 172.335,418.328 170.5,423.5C 169.267,426.953 167.267,429.953 164.5,432.5C 164.167,431.333 163.833,430.167 163.5,429C 165.02,421.216 167.354,413.716 170.5,406.5C 172.306,403.662 173.306,403.995 173.5,407.5 Z"/></g>
<g><path style="opacity:1" fill="#c44731" d="M 187.5,411.5 C 185.678,421.47 182.511,431.136 178,440.5C 176.989,441.337 175.822,441.67 174.5,441.5C 174.983,430.901 177.65,420.901 182.5,411.5C 183.265,410.34 184.265,409.34 185.5,408.5C 186.919,409.005 187.585,410.005 187.5,411.5 Z"/></g>
<g><path style="opacity:1" fill="#595543" d="M 259.5,415.5 C 261.153,415.34 262.486,414.674 263.5,413.5C 271.435,409.896 272.768,411.063 267.5,417C 264.148,419.533 260.481,421.366 256.5,422.5C 255.5,422.167 254.5,421.833 253.5,421.5C 255.215,419.118 257.215,417.118 259.5,415.5 Z"/></g>
<g><path style="opacity:1" fill="#c44630" d="M 307.5,412.5 C 313.748,419.323 318.748,426.99 322.5,435.5C 322.167,436.167 321.833,436.833 321.5,437.5C 314.615,430.943 309.282,423.276 305.5,414.5C 304.167,411.833 304.833,411.167 307.5,412.5 Z"/></g>
<g><path style="opacity:1" fill="#c44631" d="M 199.5,423.5 C 199.215,430.835 197.548,437.835 194.5,444.5C 193.675,445.386 192.675,445.719 191.5,445.5C 191.646,435.78 193.313,426.446 196.5,417.5C 197.161,416.282 197.828,414.949 198.5,413.5C 199.5,413.833 200.167,414.5 200.5,415.5C 199.607,418.084 199.274,420.751 199.5,423.5 Z"/></g>
<g><path style="opacity:1" fill="#c44731" d="M 300.5,417.5 C 305.901,425.025 309.568,433.358 311.5,442.5C 311.631,443.376 311.298,444.043 310.5,444.5C 309.818,443.757 309.151,443.091 308.5,442.5C 303.172,434.842 299.172,426.509 296.5,417.5C 296.369,416.624 296.702,415.957 297.5,415.5C 298.518,416.193 299.518,416.859 300.5,417.5 Z"/></g>
<g><path style="opacity:1" fill="#61c0b2" d="M 69.5,416.5 C 70.5,416.5 71.5,416.5 72.5,416.5C 72.756,423.306 70.756,429.306 66.5,434.5C 65.0542,433.829 64.3875,432.662 64.5,431C 66.471,426.253 68.1377,421.42 69.5,416.5 Z"/></g>
<g><path style="opacity:1" fill="#61c0b2" d="M 512.5,416.5 C 513.675,416.281 514.675,416.614 515.5,417.5C 516.707,421.287 518.207,424.954 520,428.5C 520.946,430.956 520.446,432.956 518.5,434.5C 516.954,433.788 515.954,432.622 515.5,431C 513.352,426.394 512.352,421.56 512.5,416.5 Z"/></g>
<g><path style="opacity:1" fill="#5fbfb0" d="M 84.5,417.5 C 87.0156,420.754 87.0156,424.254 84.5,428C 83.552,428.483 82.552,428.649 81.5,428.5C 81.4893,424.536 82.4893,420.869 84.5,417.5 Z"/></g>
<g><path style="opacity:1" fill="#60c0b2" d="M 434.5,403.5 C 435.5,403.5 436.5,403.5 437.5,403.5C 437.666,410.175 437.5,416.842 437,423.5C 435.605,424.815 434.605,424.481 434,422.5C 433.226,426.147 432.559,429.814 432,433.5C 430.667,436.167 429.333,436.167 428,433.5C 427.113,427.386 428.279,421.72 431.5,416.5C 432.192,417.025 432.692,417.692 433,418.5C 433.336,413.468 433.836,408.468 434.5,403.5 Z"/></g>
<g><path style="opacity:1" fill="#5fbfb0" d="M 498.5,417.5 C 500.411,417.574 501.578,418.574 502,420.5C 503.079,423.063 503.579,425.729 503.5,428.5C 501.089,428.863 499.589,427.863 499,425.5C 498.503,422.854 498.336,420.187 498.5,417.5 Z"/></g>
<g><path style="opacity:1" fill="#5dbeae" d="M 96.5,420.5 C 97.5,420.5 98.5,420.5 99.5,420.5C 99.5402,423.425 98.7068,426.091 97,428.5C 95.9887,429.337 94.8221,429.67 93.5,429.5C 94.2134,426.406 95.2134,423.406 96.5,420.5 Z"/></g>
<g><path style="opacity:1" fill="#5fbfb0" d="M 485.5,420.5 C 489.209,422.223 491.209,425.223 491.5,429.5C 490.178,429.67 489.011,429.337 488,428.5C 486.293,426.091 485.46,423.425 485.5,420.5 Z"/></g>
<g><path style="opacity:1" fill="#c54932" d="M 214.5,424.5 C 214.775,431.305 213.942,437.972 212,444.5C 211.55,447.106 210.05,448.439 207.5,448.5C 207.254,439.551 208.588,430.884 211.5,422.5C 213.54,420.133 214.54,420.8 214.5,424.5 Z"/></g>
<g><path style="opacity:1" fill="#585443" d="M 269.5,422.5 C 276.963,422.493 277.296,424.326 270.5,428C 266.065,430.551 261.399,432.551 256.5,434C 255.056,434.781 253.723,434.614 252.5,433.5C 253.748,431.541 255.415,430.041 257.5,429C 261.722,427.059 265.722,424.892 269.5,422.5 Z"/></g>
<g><path style="opacity:1" fill="#c4452f" d="M 227.5,431.5 C 230.135,438.645 230.801,445.978 229.5,453.5C 226.595,447.882 224.928,441.882 224.5,435.5C 224.336,432.813 224.503,430.146 225,427.5C 225.934,428.858 226.768,430.192 227.5,431.5 Z"/></g>
<g><path style="opacity:1" fill="#61c0b2" d="M 156.5,428.5 C 157.75,428.577 158.583,429.244 159,430.5C 159.922,434.691 159.588,438.691 158,442.5C 157.333,441.833 156.667,441.167 156,440.5C 155.238,436.413 155.404,432.413 156.5,428.5 Z"/></g>
<g><path style="opacity:1" fill="#5a5644" d="M 273.5,439.5 C 271.632,440.263 269.965,441.263 268.5,442.5C 265.498,443.643 262.498,443.643 259.5,442.5C 265.572,437.298 272.572,433.965 280.5,432.5C 279.441,435.908 277.108,438.241 273.5,439.5 Z"/></g>
<g><path style="opacity:1" fill="#60c0b2" d="M 58.5,434.5 C 59.7479,435.334 60.4146,436.667 60.5,438.5C 60.844,441.472 59.844,443.806 57.5,445.5C 56.2801,445.113 55.6135,444.28 55.5,443C 56.7345,440.217 57.7345,437.384 58.5,434.5 Z"/></g>
<g><path style="opacity:1" fill="#61c0b2" d="M 524.5,434.5 C 525.376,434.369 526.043,434.702 526.5,435.5C 527.402,438.04 528.402,440.54 529.5,443C 527.873,446.299 526.373,446.132 525,442.5C 524.503,439.854 524.336,437.187 524.5,434.5 Z"/></g>
<g><path style="opacity:1" fill="#5fbfb0" d="M 165.5,435.5 C 166.768,441.947 169.102,448.281 172.5,454.5C 172.167,455.5 171.5,456.167 170.5,456.5C 163.954,450.651 162.288,443.651 165.5,435.5 Z"/></g>
<g><path style="opacity:1" fill="#cab69c" d="M 273.5,439.5 C 273.414,440.496 273.748,441.329 274.5,442C 275.833,442.333 277.167,442.667 278.5,443C 288.675,443.825 298.675,443.658 308.5,442.5C 309.151,443.091 309.818,443.757 310.5,444.5C 311.298,444.043 311.631,443.376 311.5,442.5C 340.403,441.171 368.403,445.338 395.5,455C 358.642,447.366 321.309,444.366 283.5,446C 278.359,445.298 273.359,444.131 268.5,442.5C 269.965,441.263 271.632,440.263 273.5,439.5 Z"/></g>
<g><path style="opacity:1" fill="#5fbfb0" d="M 76.5,446.5 C 78.8692,451.22 77.5359,455.22 72.5,458.5C 71.2801,458.113 70.6135,457.28 70.5,456C 72.6294,452.906 74.6294,449.739 76.5,446.5 Z"/></g>
<g><path style="opacity:1" fill="#60c0b1" d="M 425.5,446.5 C 427.484,446.484 428.484,447.484 428.5,449.5C 427.926,452.321 426.592,454.654 424.5,456.5C 423.28,456.113 422.613,455.28 422.5,454C 423.651,451.535 424.651,449.035 425.5,446.5 Z"/></g>
<g><path style="opacity:1" fill="#60c0b2" d="M 506.5,446.5 C 508.017,446.511 509.184,447.177 510,448.5C 510.748,450.332 511.748,451.999 513,453.5C 513.844,459.121 512.511,459.787 509,455.5C 507.092,452.794 506.259,449.794 506.5,446.5 Z"/></g>
<g><path style="opacity:0.986" fill="#2b9784" d="M 6.5,440.5 C 8.93399,443.438 11.6007,446.271 14.5,449C 33.9619,460.75 54.9619,465.916 77.5,464.5C 74.627,471.918 71.4603,479.251 68,486.5C 63.0984,490.18 57.5984,491.347 51.5,490C 36.7757,488.314 23.109,483.648 10.5,476C 6.37353,473.421 3.70686,469.754 2.5,465C 4.43892,456.927 5.77225,448.76 6.5,440.5 Z"/></g>
<g><path style="opacity:0.959" fill="#339f8c" d="M 163.5,458.5 C 168.159,461.277 173.159,463.277 178.5,464.5C 179.71,464.932 180.71,465.599 181.5,466.5C 180.903,466.735 180.57,467.235 180.5,468C 182.224,481.096 182.891,494.262 182.5,507.5C 183.791,507.263 184.791,507.596 185.5,508.5C 178.161,508.233 172.328,505.233 168,499.5C 167.564,497.153 167.064,494.819 166.5,492.5C 167.575,486.866 167.742,481.199 167,475.5C 165.037,469.984 163.87,464.317 163.5,458.5 Z"/></g>
<g><path style="opacity:0.962" fill="#349f8c" d="M 420.5,460.5 C 418.725,474.433 417.558,488.433 417,502.5C 414.751,505.91 411.584,507.91 407.5,508.5C 407.364,498.468 406.697,488.468 405.5,478.5C 405.668,475.481 406.002,472.481 406.5,469.5C 406.36,467.97 405.693,466.97 404.5,466.5C 407.544,465.483 410.544,464.149 413.5,462.5C 415.833,461.833 418.167,461.167 420.5,460.5 Z"/></g>
<g><path style="opacity:0.989" fill="#2b9884" d="M 578.5,440.5 C 579.8,450.152 580.633,459.819 581,469.5C 569.466,480.681 555.633,487.181 539.5,489C 533.128,490.712 526.794,490.712 520.5,489C 519.069,488.535 517.903,487.701 517,486.5C 513.522,479.221 510.356,471.887 507.5,464.5C 527.816,465.425 547.15,461.258 565.5,452C 570.647,449.016 574.98,445.182 578.5,440.5 Z"/></g>
<g><path style="opacity:1" fill="#1b8975" d="M 181.5,466.5 C 183.965,466.767 186.299,467.434 188.5,468.5C 188.878,482.191 189.544,495.858 190.5,509.5C 188.708,509.634 187.042,509.301 185.5,508.5C 184.791,507.596 183.791,507.263 182.5,507.5C 182.891,494.262 182.224,481.096 180.5,468C 180.57,467.235 180.903,466.735 181.5,466.5 Z"/></g>
<g><path style="opacity:1" fill="#1d8a76" d="M 404.5,466.5 C 405.693,466.97 406.36,467.97 406.5,469.5C 406.002,472.481 405.668,475.481 405.5,478.5C 406.697,488.468 407.364,498.468 407.5,508.5C 404.323,509.743 400.99,510.743 397.5,511.5C 398.322,507.874 398.989,504.207 399.5,500.5C 398.596,489.855 398.263,479.188 398.5,468.5C 400.214,467.262 402.214,466.595 404.5,466.5 Z"/></g>
<g><path style="opacity:0.991" fill="#349f8c" d="M 188.5,468.5 C 193.195,469.503 197.862,470.503 202.5,471.5C 203.09,485.174 203.757,498.841 204.5,512.5C 199.833,511.5 195.167,510.5 190.5,509.5C 189.544,495.858 188.878,482.191 188.5,468.5 Z"/></g>
<g><path style="opacity:0.99" fill="#35a08d" d="M 398.5,468.5 C 398.263,479.188 398.596,489.855 399.5,500.5C 398.989,504.207 398.322,507.874 397.5,511.5C 391.148,512.021 384.815,512.687 378.5,513.5C 378.833,500.167 379.167,486.833 379.5,473.5C 377.833,473.5 376.167,473.5 374.5,473.5C 382.405,471.845 390.405,470.179 398.5,468.5 Z"/></g>
<g><path style="opacity:1" fill="#1c8a76" d="M 202.5,471.5 C 205.127,472.092 207.794,472.425 210.5,472.5C 210.411,486.209 211.078,499.876 212.5,513.5C 209.904,512.735 207.237,512.401 204.5,512.5C 203.757,498.841 203.09,485.174 202.5,471.5 Z"/></g>
<g><path style="opacity:0.99" fill="#34a08d" d="M 210.5,472.5 C 216.823,473.221 223.156,473.888 229.5,474.5C 229.198,488.168 228.865,501.834 228.5,515.5C 223.209,514.616 217.876,513.949 212.5,513.5C 211.078,499.876 210.411,486.209 210.5,472.5 Z"/></g>
<g><path style="opacity:1" fill="#1b8a76" d="M 372.5,473.5 C 373.167,473.5 373.833,473.5 374.5,473.5C 376.167,473.5 377.833,473.5 379.5,473.5C 379.167,486.833 378.833,500.167 378.5,513.5C 375.833,513.5 373.167,513.5 370.5,513.5C 370.983,507.984 371.65,502.484 372.5,497C 371.211,489.113 371.211,481.28 372.5,473.5 Z"/></g>
<g><path style="opacity:1" fill="#1c8a76" d="M 229.5,474.5 C 232.059,474.198 234.393,474.532 236.5,475.5C 236.309,488.853 236.642,502.187 237.5,515.5C 234.5,515.5 231.5,515.5 228.5,515.5C 228.865,501.834 229.198,488.168 229.5,474.5 Z"/></g>
<g><path style="opacity:0.994" fill="#339f8c" d="M 283.5,474.5 C 283.651,488.516 283.318,502.516 282.5,516.5C 276.167,516.5 269.833,516.5 263.5,516.5C 262.81,502.844 262.477,489.178 262.5,475.5C 269.49,475.001 276.49,474.668 283.5,474.5 Z"/></g>
<g><path style="opacity:1" fill="#1b8a76" d="M 283.5,474.5 C 285.833,474.5 288.167,474.5 290.5,474.5C 290.62,488.506 290.954,502.506 291.5,516.5C 288.5,516.5 285.5,516.5 282.5,516.5C 283.318,502.516 283.651,488.516 283.5,474.5 Z"/></g>
<g><path style="opacity:0.991" fill="#339f8c" d="M 290.5,474.5 C 297.167,474.5 303.833,474.5 310.5,474.5C 311.053,488.529 311.053,502.529 310.5,516.5C 304.167,516.5 297.833,516.5 291.5,516.5C 290.954,502.506 290.62,488.506 290.5,474.5 Z"/></g>
<g><path style="opacity:1" fill="#1a8975" d="M 310.5,474.5 C 312.833,474.5 315.167,474.5 317.5,474.5C 318.429,488.471 318.762,502.471 318.5,516.5C 315.833,516.5 313.167,516.5 310.5,516.5C 311.053,502.529 311.053,488.529 310.5,474.5 Z"/></g>
<g><path style="opacity:0.99" fill="#349f8c" d="M 372.5,473.5 C 371.211,481.28 371.211,489.113 372.5,497C 371.65,502.484 370.983,507.984 370.5,513.5C 354.413,514.691 338.413,515.691 322.5,516.5C 321.167,516.5 319.833,516.5 318.5,516.5C 318.762,502.471 318.429,488.471 317.5,474.5C 325.179,474.596 332.846,474.93 340.5,475.5C 340.332,479.01 339.999,482.51 339.5,486C 340.679,495.468 341.346,504.968 341.5,514.5C 343.5,514.5 345.5,514.5 347.5,514.5C 347.5,501.5 347.5,488.5 347.5,475.5C 355.895,475.328 364.229,474.661 372.5,473.5 Z"/></g>
<g><path style="opacity:0.99" fill="#339f8c" d="M 236.5,475.5 C 242.167,475.5 247.833,475.5 253.5,475.5C 254.276,484.988 254.943,494.488 255.5,504C 255.435,508.216 255.102,512.383 254.5,516.5C 248.833,516.5 243.167,516.5 237.5,516.5C 237.5,516.167 237.5,515.833 237.5,515.5C 236.642,502.187 236.309,488.853 236.5,475.5 Z"/></g>
<g><path style="opacity:1" fill="#1b8975" d="M 253.5,475.5 C 256.5,475.5 259.5,475.5 262.5,475.5C 262.477,489.178 262.81,502.844 263.5,516.5C 260.5,516.5 257.5,516.5 254.5,516.5C 255.102,512.383 255.435,508.216 255.5,504C 254.943,494.488 254.276,484.988 253.5,475.5 Z"/></g>
<g><path style="opacity:1" fill="#1a8975" d="M 340.5,475.5 C 342.833,475.5 345.167,475.5 347.5,475.5C 347.5,488.5 347.5,501.5 347.5,514.5C 345.5,514.5 343.5,514.5 341.5,514.5C 341.346,504.968 340.679,495.468 339.5,486C 339.999,482.51 340.332,479.01 340.5,475.5 Z"/></g>
</svg>
