<?xml version="1.0" encoding="UTF-8"?>
<!DOCTYPE svg PUBLIC "-//W3C//DTD SVG 1.1//EN" "http://www.w3.org/Graphics/SVG/1.1/DTD/svg11.dtd">
<svg xmlns="http://www.w3.org/2000/svg" version="1.1" width="578px" height="516px" style="shape-rendering:geometricPrecision; text-rendering:geometricPrecision; image-rendering:optimizeQuality; fill-rule:evenodd; clip-rule:evenodd" xmlns:xlink="http://www.w3.org/1999/xlink">
<g><path style="opacity:0.956" fill="#f3eade" d="M 176.5,-0.5 C 178.833,-0.5 181.167,-0.5 183.5,-0.5C 188.149,7.14839 194.149,13.4817 201.5,18.5C 199.983,18.5106 198.816,19.1772 198,20.5C 194.333,26.1667 190.667,31.8333 187,37.5C 186.5,37 186,36.5 185.5,36C 189.446,29.7206 193.779,23.7206 198.5,18C 196.273,16.1645 194.44,16.6645 193,19.5C 189.915,24.672 186.581,29.672 183,34.5C 177.666,31.086 172.833,27.086 168.5,22.5C 173.093,17.4098 178.426,13.2431 184.5,10C 181.761,8.32723 179.095,8.66056 176.5,11C 172.818,14.4032 169.318,17.9032 166,21.5C 164.635,20.4071 164.301,19.0738 165,17.5C 170.072,13.5775 175.239,9.91081 180.5,6.5C 178.048,5.68578 175.715,6.18578 173.5,8C 169.472,10.3494 165.806,13.1827 162.5,16.5C 160.4,14.6363 159.067,12.3029 158.5,9.5C 158.369,8.62356 158.702,7.95689 159.5,7.5C 166.146,6.67436 171.813,4.00769 176.5,-0.5 Z"/></g>
<g><path style="opacity:0.977" fill="#f3eadf" d="M 408.5,7.5 C 408.5,8.5 408.5,9.5 408.5,10.5C 403.098,7.86238 397.431,5.69571 391.5,4C 389.833,3.33333 388.167,3.33333 386.5,4C 392.623,6.81469 398.623,9.81469 404.5,13C 405.993,14.1562 405.826,14.9896 404,15.5C 400.265,13.7157 396.765,11.549 393.5,9C 390.378,7.09575 387.045,6.42909 383.5,7C 390.1,10.6048 396.434,14.6048 402.5,19C 397.581,24.5912 392.081,29.4245 386,33.5C 381.884,26.9437 377.051,20.9437 371.5,15.5C 371.167,15.8333 370.833,16.1667 370.5,16.5C 373.86,20.6931 377.027,25.0264 380,29.5C 381.59,31.6498 382.257,33.9832 382,36.5C 378.491,29.3229 373.825,22.9896 368,17.5C 367.5,18 367,18.5 366.5,19C 371.417,24.7513 375.75,30.918 379.5,37.5C 371.976,42.2631 363.976,45.9297 355.5,48.5C 354.849,41.0456 352.682,34.0456 349,27.5C 348.329,26.7476 347.496,26.4142 346.5,26.5C 350.741,24.3793 355.075,22.2126 359.5,20C 369.233,13.2716 379.233,6.93826 389.5,1C 393.484,-0.115389 396.818,0.884611 399.5,4C 401.833,4.33333 404.167,4.66667 406.5,5C 407.756,5.41691 408.423,6.25025 408.5,7.5 Z"/></g>
<g><path style="opacity:0.995" fill="#e5ccae" d="M 408.5,7.5 C 431.161,14.1614 451.495,24.9947 469.5,40C 481.457,54.0626 491.29,69.5626 499,86.5C 525.132,147.234 543.798,210.234 555,275.5C 560.61,306.827 566.11,338.161 571.5,369.5C 570.127,369.343 568.793,369.51 567.5,370C 566.958,372.255 565.791,374.088 564,375.5C 563.626,377.898 563.626,380.231 564,382.5C 562.301,381.594 560.467,381.261 558.5,381.5C 558.5,383.167 558.5,384.833 558.5,386.5C 559.873,386.343 561.207,386.51 562.5,387C 561.273,388.587 561.606,389.921 563.5,391C 563.043,391.414 562.709,391.914 562.5,392.5C 564.171,394.51 564.838,396.843 564.5,399.5C 567.86,400.21 569.693,398.876 570,395.5C 571.287,398.145 573.453,399.145 576.5,398.5C 576.198,401.059 576.532,403.393 577.5,405.5C 577.5,407.5 577.5,409.5 577.5,411.5C 574.187,419.969 573.853,428.636 576.5,437.5C 575.566,440.102 573.899,442.102 571.5,443.5C 568.75,440.339 566.75,436.673 565.5,432.5C 561.917,435.21 558.083,437.543 554,439.5C 554.783,443.392 555.283,447.392 555.5,451.5C 554.07,452.537 552.403,453.204 550.5,453.5C 549.731,449.923 548.731,446.423 547.5,443C 543.161,442.968 538.827,443.468 534.5,444.5C 536.732,448.196 537.732,452.196 537.5,456.5C 535.5,456.5 533.5,456.5 531.5,456.5C 531.261,452.303 530.261,448.303 528.5,444.5C 526.223,443.579 523.89,442.913 521.5,442.5C 511.896,438.563 504.896,431.896 500.5,422.5C 501.496,422.586 502.329,422.252 503,421.5C 503.973,419.608 504.64,417.608 505,415.5C 507.222,418.303 509.055,418.137 510.5,415C 509.907,413.118 508.573,412.118 506.5,412C 507.731,410.817 507.731,409.651 506.5,408.5C 504.189,409.214 502.022,410.214 500,411.5C 498.272,409.806 498.772,408.639 501.5,408C 503.81,407.503 506.143,407.337 508.5,407.5C 508.5,406.5 508.5,405.5 508.5,404.5C 507.448,404.649 506.448,404.483 505.5,404C 508.266,403.309 508.933,401.809 507.5,399.5C 505.204,399.347 502.871,399.013 500.5,398.5C 499.167,401.5 497.833,404.5 496.5,407.5C 494.202,405.515 494.368,403.515 497,401.5C 497.798,399.741 497.631,398.074 496.5,396.5C 495.201,397.09 494.368,398.09 494,399.5C 493.734,396.016 492.234,395.016 489.5,396.5C 485.868,387.439 482.701,378.106 480,368.5C 468.021,325.249 456.354,281.916 445,238.5C 442.868,300.826 443.368,363.159 446.5,425.5C 446.499,429.681 446.166,433.681 445.5,437.5C 445.043,432.442 445.043,427.442 445.5,422.5C 445.182,421.353 444.516,420.519 443.5,420C 444.38,418.644 444.714,417.144 444.5,415.5C 440.759,414.599 438.759,415.932 438.5,419.5C 437.5,419.5 436.5,419.5 435.5,419.5C 435.5,420.5 435.5,421.5 435.5,422.5C 434.5,422.5 433.5,422.5 432.5,422.5C 432.33,423.822 432.663,424.989 433.5,426C 432.17,425.923 430.836,425.423 429.5,424.5C 425.536,426.162 425.536,427.995 429.5,430C 428.269,431.183 428.269,432.349 429.5,433.5C 431.432,432.634 433.432,431.967 435.5,431.5C 437,431.453 438,432.119 438.5,433.5C 435.833,434.167 433.167,434.833 430.5,435.5C 430.709,436.086 431.043,436.586 431.5,437C 428.507,440.836 429.507,443.003 434.5,443.5C 434.281,442.325 434.614,441.325 435.5,440.5C 436.846,442.013 438.346,443.347 440,444.5C 441.261,444.241 442.261,443.574 443,442.5C 443.353,443.672 443.187,444.838 442.5,446C 442.639,447.301 443.305,448.134 444.5,448.5C 443.914,463.35 437.414,474.683 425,482.5C 426.962,492.251 423.462,498.918 414.5,502.5C 415.194,497.195 415.528,491.862 415.5,486.5C 410.757,487.519 406.091,488.853 401.5,490.5C 400.505,496.128 400.171,501.794 400.5,507.5C 399.432,508.434 398.099,508.768 396.5,508.5C 395.307,508.03 394.64,507.03 394.5,505.5C 395.297,501.202 395.63,496.868 395.5,492.5C 389.376,493.373 383.376,494.707 377.5,496.5C 375.66,501.684 374.66,507.018 374.5,512.5C 372.283,513.369 369.95,513.702 367.5,513.5C 368.977,507.922 369.977,502.256 370.5,496.5C 363.209,497.392 355.876,497.726 348.5,497.5C 348.687,503.309 348.02,508.975 346.5,514.5C 345.833,514.5 345.5,514.833 345.5,515.5C 343.833,515.5 342.167,515.5 340.5,515.5C 341.956,509.609 342.623,503.609 342.5,497.5C 335.833,497.5 329.167,497.5 322.5,497.5C 321.718,503.187 320.718,508.854 319.5,514.5C 318.702,512.922 318.202,511.256 318,509.5C 317.798,511.256 317.298,512.922 316.5,514.5C 316.066,508.556 316.066,502.556 316.5,496.5C 309.792,495.947 303.126,495.947 296.5,496.5C 297.798,502.896 297.465,509.23 295.5,515.5C 293.833,515.5 292.167,515.5 290.5,515.5C 290.954,508.841 291.287,502.174 291.5,495.5C 284.167,495.5 276.833,495.5 269.5,495.5C 269.5,501.833 269.5,508.167 269.5,514.5C 267.833,514.5 266.167,514.5 264.5,514.5C 264.5,508.167 264.5,501.833 264.5,495.5C 257.833,495.5 251.167,495.5 244.5,495.5C 245.26,501.804 245.593,508.137 245.5,514.5C 243.5,514.5 241.5,514.5 239.5,514.5C 239.299,508.491 238.966,502.491 238.5,496.5C 231.5,496.5 224.5,496.5 217.5,496.5C 218.06,502.018 218.06,507.351 217.5,512.5C 215.833,512.5 214.167,512.5 212.5,512.5C 211.833,506.833 211.167,501.167 210.5,495.5C 204.509,495.034 198.509,494.701 192.5,494.5C 192.472,499.862 192.806,505.195 193.5,510.5C 191.833,510.5 190.167,510.5 188.5,510.5C 187.046,504.631 186.379,498.631 186.5,492.5C 180.09,491.689 173.923,490.023 168,487.5C 167.531,494.017 168.364,500.35 170.5,506.5C 167.843,506.065 165.509,505.065 163.5,503.5C 162.109,497.253 161.442,490.919 161.5,484.5C 159.784,484.371 158.117,484.038 156.5,483.5C 142.823,475.107 135.156,462.773 133.5,446.5C 136.766,446.567 138.266,444.901 138,441.5C 141.086,443.22 143.419,442.553 145,439.5C 145.612,442.032 147.112,442.865 149.5,442C 150.682,438.068 151.349,434.235 151.5,430.5C 150.91,429.201 149.91,428.368 148.5,428C 150.134,427.506 151.801,427.34 153.5,427.5C 153.714,425.856 153.38,424.356 152.5,423C 150.311,422.791 148.311,423.125 146.5,424C 147.759,421.328 147.092,419.161 144.5,417.5C 143.38,418.833 142.047,419.333 140.5,419C 143.587,415.118 142.587,413.284 137.5,413.5C 137.66,415.199 137.494,416.866 137,418.5C 135.89,416.963 134.39,416.297 132.5,416.5C 133.555,365.505 133.721,314.505 133,263.5C 132.968,255.335 132.302,247.335 131,239.5C 122.628,274.989 113.628,310.322 104,345.5C 99.4464,362.388 94.2797,379.055 88.5,395.5C 84.5577,392.319 82.391,393.319 82,398.5C 80.5792,395.378 78.9125,395.044 77,397.5C 74.4428,396.354 73.1095,397.354 73,400.5C 72.1095,395.961 70.2761,395.461 67.5,399C 67.7591,400.261 68.4258,401.261 69.5,402C 68.09,402.368 67.09,403.201 66.5,404.5C 69.1071,405.318 71.7737,405.818 74.5,406C 75.3567,406.689 76.0233,407.522 76.5,408.5C 73.6088,408.128 70.6088,408.128 67.5,408.5C 67.7093,409.086 68.0426,409.586 68.5,410C 65.3713,410.117 64.2046,411.617 65,414.5C 66.6667,415.833 68.3333,415.833 70,414.5C 70.3176,416.061 71.1509,417.228 72.5,418C 71.6548,419.558 72.3215,420.558 74.5,421C 72.9442,423.501 73.6108,425.001 76.5,425.5C 72.4643,435.702 65.2976,442.702 55,446.5C 53.5708,449.762 52.0708,452.929 50.5,456C 47.5184,456.498 44.5184,456.665 41.5,456.5C 42.1191,452.742 43.1191,449.075 44.5,445.5C 40.8044,443.857 36.9711,442.524 33,441.5C 31.3393,445.657 30.1726,449.99 29.5,454.5C 27.3024,454.125 25.3024,453.458 23.5,452.5C 23.8706,448.351 24.8706,444.351 26.5,440.5C 22.5768,438.177 18.5768,435.844 14.5,433.5C 12.3229,437.333 10.3229,441.333 8.5,445.5C 3.41104,443.663 1.91104,440.329 4,435.5C 4.66667,432.167 4.66667,428.833 4,425.5C 2.20496,422.901 0.704964,420.234 -0.5,417.5C -0.5,412.167 -0.5,406.833 -0.5,401.5C 0.493082,396.927 1.49308,392.261 2.5,387.5C 3.29073,389.309 3.29073,391.309 2.5,393.5C 3.82207,393.67 4.98873,393.337 6,392.5C 6.11677,395.629 7.61677,396.795 10.5,396C 11.5063,393.153 12.5063,390.319 13.5,387.5C 9.46072,388.34 6.46072,387.007 4.5,383.5C 5,383.167 5.5,382.833 6,382.5C 8.3816,384.774 11.2149,386.107 14.5,386.5C 14.5,385.5 14.5,384.5 14.5,383.5C 16.9477,383.915 18.2811,382.915 18.5,380.5C 17.3718,377.736 15.5385,377.069 13,378.5C 13.0858,376.359 12.9191,374.026 12.5,371.5C 11.448,371.649 10.448,371.483 9.5,371C 10.9656,367.942 9.96559,366.109 6.5,365.5C 14.8134,313.954 24.3134,262.62 35,211.5C 46.3229,159.529 63.9895,109.862 88,62.5C 96.4514,47.7152 107.951,35.8818 122.5,27C 133.852,19.8237 145.852,13.9904 158.5,9.5C 159.067,12.3029 160.4,14.6363 162.5,16.5C 165.806,13.1827 169.472,10.3494 173.5,8C 175.715,6.18578 178.048,5.68578 180.5,6.5C 175.239,9.91081 170.072,13.5775 165,17.5C 164.301,19.0738 164.635,20.4071 166,21.5C 169.318,17.9032 172.818,14.4032 176.5,11C 179.095,8.66056 181.761,8.32723 184.5,10C 178.426,13.2431 173.093,17.4098 168.5,22.5C 172.833,27.086 177.666,31.086 183,34.5C 186.581,29.672 189.915,24.672 193,19.5C 194.44,16.6645 196.273,16.1645 198.5,18C 193.779,23.7206 189.446,29.7206 185.5,36C 186,36.5 186.5,37 187,37.5C 190.667,31.8333 194.333,26.1667 198,20.5C 198.816,19.1772 199.983,18.5106 201.5,18.5C 202.167,18.8333 202.833,19.1667 203.5,19.5C 198.435,25.2837 194.102,31.617 190.5,38.5C 197.221,44.0263 204.888,47.693 213.5,49.5C 214.722,41.6118 216.722,33.9451 219.5,26.5C 222.269,27.9182 224.936,28.9182 227.5,29.5C 224.022,37.1345 221.689,45.1345 220.5,53.5C 228.449,55.3806 236.449,57.0473 244.5,58.5C 245.943,50.1745 247.277,41.8411 248.5,33.5C 250.5,33.8333 252.5,34.1667 254.5,34.5C 254.052,43.1858 253.385,51.8525 252.5,60.5C 261.793,61.6806 271.127,62.3473 280.5,62.5C 280.5,53.8333 280.5,45.1667 280.5,36.5C 282.167,36.5 283.833,36.5 285.5,36.5C 287.248,45.027 287.915,53.6937 287.5,62.5C 297.989,62.9424 308.322,61.9424 318.5,59.5C 317.848,50.9217 316.182,42.5884 313.5,34.5C 315.861,34.3259 318.194,33.9926 320.5,33.5C 323.082,40.5767 324.582,47.91 325,55.5C 326.418,57.3632 328.251,57.8632 330.5,57C 337.007,55.2913 343.34,53.1247 349.5,50.5C 348.042,42.5264 345.709,34.8597 342.5,27.5C 343.833,27.1667 345.167,26.8333 346.5,26.5C 347.496,26.4142 348.329,26.7476 349,27.5C 352.682,34.0456 354.849,41.0456 355.5,48.5C 363.976,45.9297 371.976,42.2631 379.5,37.5C 375.75,30.918 371.417,24.7513 366.5,19C 367,18.5 367.5,18 368,17.5C 373.825,22.9896 378.491,29.3229 382,36.5C 382.257,33.9832 381.59,31.6498 380,29.5C 377.027,25.0264 373.86,20.6931 370.5,16.5C 370.833,16.1667 371.167,15.8333 371.5,15.5C 377.051,20.9437 381.884,26.9437 386,33.5C 392.081,29.4245 397.581,24.5912 402.5,19C 396.434,14.6048 390.1,10.6048 383.5,7C 387.045,6.42909 390.378,7.09575 393.5,9C 396.765,11.549 400.265,13.7157 404,15.5C 405.826,14.9896 405.993,14.1562 404.5,13C 398.623,9.81469 392.623,6.81469 386.5,4C 388.167,3.33333 389.833,3.33333 391.5,4C 397.431,5.69571 403.098,7.86238 408.5,10.5C 408.5,9.5 408.5,8.5 408.5,7.5 Z"/></g>
<g><path style="opacity:0.983" fill="#f4ebe0" d="M 203.5,19.5 C 208.341,22.9195 213.674,25.2528 219.5,26.5C 216.722,33.9451 214.722,41.6118 213.5,49.5C 204.888,47.693 197.221,44.0263 190.5,38.5C 194.102,31.617 198.435,25.2837 203.5,19.5 Z"/></g>
<g><path style="opacity:0.981" fill="#f4ebe0" d="M 342.5,27.5 C 345.709,34.8597 348.042,42.5264 349.5,50.5C 343.34,53.1247 337.007,55.2913 330.5,57C 328.251,57.8632 326.418,57.3632 325,55.5C 324.582,47.91 323.082,40.5767 320.5,33.5C 328.024,32.1194 335.358,30.1194 342.5,27.5 Z"/></g>
<g><path style="opacity:0.981" fill="#f4ebdf" d="M 227.5,29.5 C 234.326,31.5982 241.326,32.9315 248.5,33.5C 247.277,41.8411 245.943,50.1745 244.5,58.5C 236.449,57.0473 228.449,55.3806 220.5,53.5C 221.689,45.1345 224.022,37.1345 227.5,29.5 Z"/></g>
<g><path style="opacity:0.988" fill="#f4ebe0" d="M 254.5,34.5 C 263.114,35.544 271.781,36.2107 280.5,36.5C 280.5,45.1667 280.5,53.8333 280.5,62.5C 271.127,62.3473 261.793,61.6806 252.5,60.5C 253.385,51.8525 254.052,43.1858 254.5,34.5 Z"/></g>
<g><path style="opacity:0.987" fill="#f4ebe0" d="M 313.5,34.5 C 316.182,42.5884 317.848,50.9217 318.5,59.5C 308.322,61.9424 297.989,62.9424 287.5,62.5C 287.915,53.6937 287.248,45.027 285.5,36.5C 294.885,36.3844 304.218,35.7178 313.5,34.5 Z"/></g>
<g><path style="opacity:1" fill="#b38265" d="M 296.5,141.5 C 293.272,140.586 289.939,140.253 286.5,140.5C 282.952,125.37 281.785,110.037 283,94.5C 284.044,95.6226 284.71,96.9559 285,98.5C 285.89,109.968 287.557,121.301 290,132.5C 292.175,119.093 294.675,105.759 297.5,92.5C 297.833,95.5 298.167,98.5 298.5,101.5C 297.86,111.561 297.027,121.561 296,131.5C 301.861,121.112 307.194,110.446 312,99.5C 312.167,100.833 312.333,102.167 312.5,103.5C 311.588,108.662 310.088,113.662 308,118.5C 304.14,126.22 300.307,133.886 296.5,141.5 Z"/></g>
<g><path style="opacity:1" fill="#e7563d" d="M 286.5,140.5 C 289.939,140.253 293.272,140.586 296.5,141.5C 296.953,142.458 297.619,143.292 298.5,144C 301.833,144.667 305.167,144.667 308.5,144C 322.309,139.397 335.976,134.397 349.5,129C 361,126.505 369.5,130.338 375,140.5C 376.245,148.429 373.745,154.929 367.5,160C 341.289,174.146 317.622,170.813 296.5,150C 295.833,149.333 295.167,149.333 294.5,150C 306.262,173.509 325.262,182.509 351.5,177C 354.03,177.379 356.363,178.213 358.5,179.5C 361.814,180.295 363.314,182.295 363,185.5C 359.25,182.861 355.083,181.528 350.5,181.5C 339.999,180.615 329.332,179.948 318.5,179.5C 317.791,178.596 316.791,178.263 315.5,178.5C 311.524,175.531 307.524,172.531 303.5,169.5C 298.504,163.658 294.504,157.158 291.5,150C 290.551,149.383 289.718,149.549 289,150.5C 288.074,152.692 286.907,154.692 285.5,156.5C 285.167,157.167 284.833,157.833 284.5,158.5C 279.995,162.912 274.995,166.578 269.5,169.5C 255.175,173.944 240.508,176.777 225.5,178C 212.151,181.242 206.818,189.408 209.5,202.5C 210.692,207.217 212.692,211.55 215.5,215.5C 223.543,227.788 222.543,228.454 212.5,217.5C 208.964,212.423 205.964,207.09 203.5,201.5C 201.645,191.045 205.312,183.211 214.5,178C 224.05,173.852 234.05,171.852 244.5,172C 256.187,171.329 266.521,167.329 275.5,160C 279.826,156.674 283.826,153.007 287.5,149C 285.833,148.333 284.167,148.333 282.5,149C 263.213,158.886 243.213,160.886 222.5,155C 211.085,150.671 206.585,142.505 209,130.5C 212.22,123.308 217.72,119.142 225.5,118C 235.935,117.031 245.602,119.365 254.5,125C 262.709,132.864 272.209,138.697 283,142.5C 284.459,142.192 285.626,141.525 286.5,140.5 Z"/></g>
<g><path style="opacity:1" fill="#e5caac" d="M 225.5,121.5 C 231.678,121.107 237.678,121.94 243.5,124C 251.443,128.944 259.109,134.277 266.5,140C 271.81,142.881 277.477,144.548 283.5,145C 264.413,152.907 244.747,155.24 224.5,152C 214.425,146.698 211.592,138.865 216,128.5C 218.79,125.535 221.957,123.202 225.5,121.5 Z"/></g>
<g><path style="opacity:1" fill="#e6caac" d="M 348.5,132.5 C 356.046,131.406 362.546,133.406 368,138.5C 371.294,147.418 368.794,154.251 360.5,159C 347.861,165.579 334.861,166.246 321.5,161C 313.68,157.837 306.347,153.837 299.5,149C 308.117,148.627 316.451,146.961 324.5,144C 332.48,139.841 340.48,136.008 348.5,132.5 Z"/></g>
<g><path style="opacity:1" fill="#b28164" d="M 303.5,169.5 C 304.075,171.411 305.075,173.078 306.5,174.5C 305.475,174.897 305.308,175.563 306,176.5C 307.707,178.037 309.207,179.704 310.5,181.5C 309.391,181.557 308.391,181.89 307.5,182.5C 300.606,174.421 295.106,165.421 291,155.5C 289.922,164.788 288.089,173.788 285.5,182.5C 285.657,181.127 285.49,179.793 285,178.5C 284.667,178.833 284.333,179.167 284,179.5C 283.501,184.155 283.334,188.821 283.5,193.5C 282.29,193.068 281.29,192.401 280.5,191.5C 282.122,180.603 284.122,169.77 286.5,159C 286.472,157.93 286.139,157.097 285.5,156.5C 286.907,154.692 288.074,152.692 289,150.5C 289.718,149.549 290.551,149.383 291.5,150C 294.504,157.158 298.504,163.658 303.5,169.5 Z"/></g>
<g><path style="opacity:1" fill="#e6ccaf" d="M 285.5,156.5 C 286.139,157.097 286.472,157.93 286.5,159C 284.122,169.77 282.122,180.603 280.5,191.5C 269.759,191.97 266.259,197.304 270,207.5C 271.638,209.734 273.805,211.067 276.5,211.5C 274.732,218.303 271.898,224.636 268,230.5C 267.809,228.292 267.309,226.292 266.5,224.5C 264.474,218.699 263.474,212.699 263.5,206.5C 265.077,201.954 264.744,197.621 262.5,193.5C 263.299,190.57 263.632,187.57 263.5,184.5C 271.282,176.393 278.282,167.726 284.5,158.5C 284.833,157.833 285.167,157.167 285.5,156.5 Z"/></g>
<g><path style="opacity:1" fill="#e6ccaf" d="M 307.5,182.5 C 302.029,187.897 302.362,193.063 308.5,198C 313.357,199.407 317.357,198.24 320.5,194.5C 321.795,195.488 323.128,196.488 324.5,197.5C 328.889,202.278 331.722,207.945 333,214.5C 332.891,228.532 333.058,242.532 333.5,256.5C 319.833,257.496 306.499,255.996 293.5,252C 290.734,250.629 288.401,248.796 286.5,246.5C 296.025,246.477 299.858,241.811 298,232.5C 292.909,225.457 287.076,224.791 280.5,230.5C 280.823,223.978 280.49,217.645 279.5,211.5C 282.175,210.897 284.508,209.564 286.5,207.5C 290.894,217.395 297.894,224.895 307.5,230C 311.536,230.85 315.369,230.35 319,228.5C 319.755,225.697 319.422,223.03 318,220.5C 309.438,214.207 301.438,207.207 294,199.5C 290.101,194.369 287.268,188.702 285.5,182.5C 288.089,173.788 289.922,164.788 291,155.5C 295.106,165.421 300.606,174.421 307.5,182.5 Z"/></g>
<g><path style="opacity:1" fill="#b38366" d="M 284.5,158.5 C 278.282,167.726 271.282,176.393 263.5,184.5C 261.167,186.167 259.167,188.167 257.5,190.5C 256.5,190.5 255.5,190.5 254.5,190.5C 255.614,189.115 256.614,187.615 257.5,186C 257.272,185.601 256.938,185.435 256.5,185.5C 261.329,180.503 265.996,175.336 270.5,170C 270.272,169.601 269.938,169.435 269.5,169.5C 274.995,166.578 279.995,162.912 284.5,158.5 Z"/></g>
<g><path style="opacity:1" fill="#e5caac" d="M 269.5,169.5 C 269.938,169.435 270.272,169.601 270.5,170C 265.996,175.336 261.329,180.503 256.5,185.5C 241.561,193.807 225.894,199.474 209.5,202.5C 206.818,189.408 212.151,181.242 225.5,178C 240.508,176.777 255.175,173.944 269.5,169.5 Z"/></g>
<g><path style="opacity:1" fill="#d9c3a6" d="M 303.5,169.5 C 307.524,172.531 311.524,175.531 315.5,178.5C 312.088,177.958 309.088,176.625 306.5,174.5C 305.075,173.078 304.075,171.411 303.5,169.5 Z"/></g>
<g><path style="opacity:1" fill="#59b5a8" d="M 306.5,174.5 C 309.088,176.625 312.088,177.958 315.5,178.5C 316.791,178.263 317.791,178.596 318.5,179.5C 319.952,180.302 321.618,180.802 323.5,181C 332.494,181.5 341.494,181.666 350.5,181.5C 355.083,181.528 359.25,182.861 363,185.5C 363.314,182.295 361.814,180.295 358.5,179.5C 358.611,178.883 358.944,178.383 359.5,178C 364.167,177.333 368.833,177.333 373.5,178C 375.988,180.627 376.155,183.46 374,186.5C 370.477,188.901 366.644,190.734 362.5,192C 348.571,194.609 334.905,193.776 321.5,189.5C 317.857,186.865 314.19,184.199 310.5,181.5C 309.207,179.704 307.707,178.037 306,176.5C 305.308,175.563 305.475,174.897 306.5,174.5 Z"/></g>
<g><path style="opacity:1" fill="#dfb293" d="M 318.5,179.5 C 329.332,179.948 339.999,180.615 350.5,181.5C 341.494,181.666 332.494,181.5 323.5,181C 321.618,180.802 319.952,180.302 318.5,179.5 Z"/></g>
<g><path style="opacity:1" fill="#57b5a8" d="M 285.5,182.5 C 287.268,188.702 290.101,194.369 294,199.5C 301.438,207.207 309.438,214.207 318,220.5C 319.422,223.03 319.755,225.697 319,228.5C 315.369,230.35 311.536,230.85 307.5,230C 297.894,224.895 290.894,217.395 286.5,207.5C 285.185,202.905 284.185,198.239 283.5,193.5C 283.334,188.821 283.501,184.155 284,179.5C 284.333,179.167 284.667,178.833 285,178.5C 285.49,179.793 285.657,181.127 285.5,182.5 Z"/></g>
<g><path style="opacity:1" fill="#f3eadf" d="M 310.5,181.5 C 314.19,184.199 317.857,186.865 321.5,189.5C 320.596,190.209 320.263,191.209 320.5,192.5C 320.5,193.167 320.5,193.833 320.5,194.5C 317.357,198.24 313.357,199.407 308.5,198C 302.362,193.063 302.029,187.897 307.5,182.5C 308.391,181.89 309.391,181.557 310.5,181.5 Z"/></g>
<g><path style="opacity:1" fill="#3c8e7a" d="M 263.5,184.5 C 263.632,187.57 263.299,190.57 262.5,193.5C 261.078,192.075 259.411,191.075 257.5,190.5C 259.167,188.167 261.167,186.167 263.5,184.5 Z"/></g>
<g><path style="opacity:1" fill="#3da08d" d="M 256.5,185.5 C 256.938,185.435 257.272,185.601 257.5,186C 256.614,187.615 255.614,189.115 254.5,190.5C 251.167,194.5 247.5,198.167 243.5,201.5C 242.167,202.5 240.833,203.5 239.5,204.5C 232.256,209.788 224.256,213.455 215.5,215.5C 212.692,211.55 210.692,207.217 209.5,202.5C 225.894,199.474 241.561,193.807 256.5,185.5 Z"/></g>
<g><path style="opacity:1" fill="#f1eade" d="M 254.5,190.5 C 255.5,190.5 256.5,190.5 257.5,190.5C 259.411,191.075 261.078,192.075 262.5,193.5C 264.744,197.621 265.077,201.954 263.5,206.5C 259.517,211.315 254.517,212.649 248.5,210.5C 247.167,208.833 245.833,207.167 244.5,205.5C 244.167,204.167 243.833,202.833 243.5,201.5C 247.5,198.167 251.167,194.5 254.5,190.5 Z"/></g>
<g><path style="opacity:1" fill="#b18568" d="M 332.5,198.5 C 331.89,199.391 331.557,200.391 331.5,201.5C 329.704,200.207 328.037,198.707 326.5,197C 325.563,196.308 324.897,196.475 324.5,197.5C 323.128,196.488 321.795,195.488 320.5,194.5C 320.5,193.833 320.5,193.167 320.5,192.5C 321.222,192.082 321.722,191.416 322,190.5C 325.376,193.383 328.876,196.049 332.5,198.5 Z"/></g>
<g><path style="opacity:1" fill="#f3eadf" d="M 280.5,191.5 C 281.29,192.401 282.29,193.068 283.5,193.5C 284.185,198.239 285.185,202.905 286.5,207.5C 284.508,209.564 282.175,210.897 279.5,211.5C 279.167,211.5 278.833,211.5 278.5,211.5C 277.833,211.5 277.167,211.5 276.5,211.5C 273.805,211.067 271.638,209.734 270,207.5C 266.259,197.304 269.759,191.97 280.5,191.5 Z"/></g>
<g><path style="opacity:1" fill="#f2eadf" d="M 347.5,197.5 C 347.663,202.066 348.996,202.899 351.5,200C 359.21,198.518 362.877,201.685 362.5,209.5C 361.06,211.949 359.06,213.615 356.5,214.5C 355.5,214.5 354.5,214.5 353.5,214.5C 350.712,213.345 348.545,211.345 347,208.5C 345.005,210.747 342.505,211.747 339.5,211.5C 336.844,208.206 334.178,204.873 331.5,201.5C 331.557,200.391 331.89,199.391 332.5,198.5C 337.099,193.562 342.099,193.229 347.5,197.5 Z"/></g>
<g><path style="opacity:1" fill="#278a76" d="M 347.5,197.5 C 362.873,197.13 377.873,199.297 392.5,204C 397.151,205.64 400.484,208.64 402.5,213C 400.276,217.446 396.61,219.279 391.5,218.5C 381.273,217.313 371.606,214.313 362.5,209.5C 362.877,201.685 359.21,198.518 351.5,200C 348.996,202.899 347.663,202.066 347.5,197.5 Z"/></g>
<g><path style="opacity:1" fill="#69c2b5" d="M 324.5,197.5 C 324.897,196.475 325.563,196.308 326.5,197C 328.037,198.707 329.704,200.207 331.5,201.5C 334.178,204.873 336.844,208.206 339.5,211.5C 347.242,227.582 348.908,244.249 344.5,261.5C 339.026,263.862 335.359,262.195 333.5,256.5C 333.058,242.532 332.891,228.532 333,214.5C 331.722,207.945 328.889,202.278 324.5,197.5 Z"/></g>
<g><path style="opacity:1" fill="#42a08c" d="M 203.5,201.5 C 205.964,207.09 208.964,212.423 212.5,217.5C 207.258,218.985 201.925,219.485 196.5,219C 190.822,217.143 188.655,213.309 190,207.5C 193.477,203.178 197.977,201.178 203.5,201.5 Z"/></g>
<g><path style="opacity:1" fill="#b38366" d="M 243.5,201.5 C 243.833,202.833 244.167,204.167 244.5,205.5C 237.002,214.514 230.002,223.847 223.5,233.5C 222.313,235.072 221.313,236.739 220.5,238.5C 219.89,237.609 219.557,236.609 219.5,235.5C 225.914,225.005 232.581,214.671 239.5,204.5C 240.833,203.5 242.167,202.5 243.5,201.5 Z"/></g>
<g><path style="opacity:1" fill="#228a76" d="M 263.5,206.5 C 263.474,212.699 264.474,218.699 266.5,224.5C 266.665,228.182 266.499,231.848 266,235.5C 264.975,237.687 263.475,239.354 261.5,240.5C 255.678,240.864 251.845,238.197 250,232.5C 247.715,225.115 247.215,217.782 248.5,210.5C 254.517,212.649 259.517,211.315 263.5,206.5 Z"/></g>
<g><path style="opacity:1" fill="#68c1b5" d="M 276.5,211.5 C 277.167,211.5 277.833,211.5 278.5,211.5C 278.233,217.838 277.9,224.171 277.5,230.5C 275.49,241.222 272.824,251.888 269.5,262.5C 267.478,267.031 264.478,270.864 260.5,274C 252.399,274.55 249.232,270.717 251,262.5C 253.712,254.745 257.212,247.412 261.5,240.5C 263.475,239.354 264.975,237.687 266,235.5C 266.499,231.848 266.665,228.182 266.5,224.5C 267.309,226.292 267.809,228.292 268,230.5C 271.898,224.636 274.732,218.303 276.5,211.5 Z"/></g>
<g><path style="opacity:1" fill="#b38669" d="M 278.5,211.5 C 278.833,211.5 279.167,211.5 279.5,211.5C 280.49,217.645 280.823,223.978 280.5,230.5C 277.918,235.298 278.251,239.965 281.5,244.5C 281.5,245.5 281.5,246.5 281.5,247.5C 279.373,246.602 278.206,244.936 278,242.5C 277.501,238.514 277.334,234.514 277.5,230.5C 277.9,224.171 278.233,217.838 278.5,211.5 Z"/></g>
<g><path style="opacity:1" fill="#b28467" d="M 353.5,214.5 C 354.5,214.5 355.5,214.5 356.5,214.5C 357.552,214.351 358.552,214.517 359.5,215C 361.816,216.707 363.149,218.54 363.5,220.5C 364.694,221.272 365.694,222.272 366.5,223.5C 366.44,224.043 366.107,224.376 365.5,224.5C 363.814,223.143 362.148,221.81 360.5,220.5C 360.167,219.5 359.5,218.833 358.5,218.5C 356.809,217.136 355.142,215.803 353.5,214.5 Z"/></g>
<g><path style="opacity:1" fill="#3ba08d" d="M 358.5,218.5 C 359.5,218.833 360.167,219.5 360.5,220.5C 361.793,224.308 361.793,228.142 360.5,232C 360.79,235.39 362.123,238.223 364.5,240.5C 367.268,251.042 371.435,261.042 377,270.5C 379.898,281.621 376.564,284.287 367,278.5C 359.789,268.363 356.289,257.03 356.5,244.5C 357.451,235.854 358.118,227.187 358.5,218.5 Z"/></g>
<g><path style="opacity:1" fill="#57b5a9" d="M 378.5,234.5 C 374.541,230.843 370.541,227.176 366.5,223.5C 365.694,222.272 364.694,221.272 363.5,220.5C 380.017,222.862 393.517,230.862 404,244.5C 408.529,250.086 410.195,256.419 409,263.5C 404.431,266.561 400.431,265.894 397,261.5C 392.786,251.044 386.62,242.044 378.5,234.5 Z"/></g>
<g><path style="opacity:1" fill="#efe7da" d="M 360.5,220.5 C 362.148,221.81 363.814,223.143 365.5,224.5C 366.107,224.376 366.44,224.043 366.5,223.5C 370.541,227.176 374.541,230.843 378.5,234.5C 375.697,240.553 371.03,242.553 364.5,240.5C 362.123,238.223 360.79,235.39 360.5,232C 361.793,228.142 361.793,224.308 360.5,220.5 Z"/></g>
<g><path style="opacity:1" fill="#f4eadf" d="M 286.5,246.5 C 284.833,245.833 283.167,245.167 281.5,244.5C 278.251,239.965 277.918,235.298 280.5,230.5C 287.076,224.791 292.909,225.457 298,232.5C 299.858,241.811 296.025,246.477 286.5,246.5 Z"/></g>
<g><path style="opacity:1" fill="#82c9bf" d="M 223.5,233.5 C 225.604,247.291 230.437,260.291 238,272.5C 240.625,278.432 240.959,284.432 239,290.5C 237.612,291.554 236.112,291.72 234.5,291C 228.281,285.64 223.947,279.14 221.5,271.5C 219.422,260.532 219.088,249.532 220.5,238.5C 221.313,236.739 222.313,235.072 223.5,233.5 Z"/></g>
<g><path style="opacity:1" fill="#82c8bf" d="M 376.5,241.5 C 391.999,255.501 398.166,272.834 395,293.5C 391.865,299.7 388.199,300.034 384,294.5C 382.601,291.637 381.601,288.637 381,285.5C 380.717,273.144 380.05,260.811 379,248.5C 377.589,246.35 376.755,244.016 376.5,241.5 Z"/></g>
<g><path style="opacity:1" fill="#248a76" d="M 281.5,244.5 C 283.167,245.167 284.833,245.833 286.5,246.5C 288.401,248.796 290.734,250.629 293.5,252C 306.499,255.996 319.833,257.496 333.5,256.5C 335.359,262.195 339.026,263.862 344.5,261.5C 347.055,264.482 347.055,267.649 344.5,271C 322.061,277.723 302.728,272.556 286.5,255.5C 286.348,251.859 284.682,249.193 281.5,247.5C 281.5,246.5 281.5,245.5 281.5,244.5 Z"/></g>
<g><path style="opacity:1" fill="#f0e7da" d="M 277.5,230.5 C 277.334,234.514 277.501,238.514 278,242.5C 278.206,244.936 279.373,246.602 281.5,247.5C 284.682,249.193 286.348,251.859 286.5,255.5C 286.5,256.833 286.5,258.167 286.5,259.5C 285.662,259.842 285.328,260.508 285.5,261.5C 284.5,262.5 283.5,263.5 282.5,264.5C 279.946,265.388 277.279,265.721 274.5,265.5C 272.326,265.25 270.659,264.25 269.5,262.5C 272.824,251.888 275.49,241.222 277.5,230.5 Z"/></g>
<g><path style="opacity:1" fill="#238a76" d="M 205.5,250.5 C 207.696,250.565 209.696,251.232 211.5,252.5C 209.628,254.91 208.295,257.577 207.5,260.5C 202.046,267.456 196.046,273.956 189.5,280C 179.236,284.404 176.069,281.237 180,270.5C 187.753,262.728 196.253,256.061 205.5,250.5 Z"/></g>
<g><path style="opacity:1" fill="#f2eadf" d="M 219.5,235.5 C 219.557,236.609 219.89,237.609 220.5,238.5C 219.088,249.532 219.422,260.532 221.5,271.5C 212.697,273.026 208.031,269.359 207.5,260.5C 208.295,257.577 209.628,254.91 211.5,252.5C 209.696,251.232 207.696,250.565 205.5,250.5C 199.803,238.725 203.469,233.225 216.5,234C 217.244,235.039 218.244,235.539 219.5,235.5 Z"/></g>
<g><path style="opacity:1" fill="#b48669" d="M 286.5,259.5 C 289.78,264.781 293.447,269.781 297.5,274.5C 298.488,275.795 299.488,277.128 300.5,278.5C 300.158,279.338 299.492,279.672 298.5,279.5C 295.814,275.492 292.647,271.825 289,268.5C 287.295,266.423 286.128,264.09 285.5,261.5C 285.328,260.508 285.662,259.842 286.5,259.5 Z"/></g>
<g><path style="opacity:1" fill="#3ea18e" d="M 282.5,264.5 C 283.164,267.146 283.498,269.979 283.5,273C 282.812,288.826 282.312,304.66 282,320.5C 281.989,325.643 279.656,328.976 275,330.5C 271.778,329.617 269.445,327.617 268,324.5C 264.181,314.068 263.515,303.401 266,292.5C 268.899,283.493 271.732,274.493 274.5,265.5C 277.279,265.721 279.946,265.388 282.5,264.5 Z"/></g>
<g><path style="opacity:1" fill="#56b5a9" d="M 203.5,278.5 C 201.388,283.931 199.721,289.597 198.5,295.5C 196.469,305.958 193.969,316.291 191,326.5C 189.46,330.419 187.293,333.919 184.5,337C 179.004,338.89 175.504,337.057 174,331.5C 173.088,324.351 173.755,317.351 176,310.5C 183.424,293.311 193.59,277.978 206.5,264.5C 206.833,264.833 207.167,265.167 207.5,265.5C 205.355,269.6 204.022,273.933 203.5,278.5 Z"/></g>
<g><path style="opacity:1" fill="#58a28d" d="M 206.5,272.5 C 208.3,273.895 208.634,275.561 207.5,277.5C 206.548,275.955 206.215,274.288 206.5,272.5 Z"/></g>
<g><path style="opacity:1" fill="#39a08d" d="M 297.5,274.5 C 297.56,273.957 297.893,273.624 298.5,273.5C 305.905,276.769 313.571,279.269 321.5,281C 334.84,283 348.173,285 361.5,287C 367.992,288.58 373.992,291.246 379.5,295C 386.945,301.775 385.945,306.775 376.5,310C 366.552,311.303 356.886,310.303 347.5,307C 338.447,303.081 329.78,298.581 321.5,293.5C 319.469,291.478 317.135,289.811 314.5,288.5C 312.913,280.919 308.247,277.586 300.5,278.5C 299.488,277.128 298.488,275.795 297.5,274.5 Z"/></g>
<g><path style="opacity:1" fill="#f2eadf" d="M 203.5,278.5 C 214.723,278.251 218.723,283.585 215.5,294.5C 213.61,296.578 211.276,297.911 208.5,298.5C 204.567,299.143 201.234,298.143 198.5,295.5C 199.721,289.597 201.388,283.931 203.5,278.5 Z"/></g>
<g><path style="opacity:1" fill="#f2eadf" d="M 300.5,278.5 C 308.247,277.586 312.913,280.919 314.5,288.5C 314.5,289.833 314.5,291.167 314.5,292.5C 310.538,299.38 304.871,301.213 297.5,298C 293.251,293.454 292.418,288.287 295,282.5C 296.145,281.364 297.312,280.364 298.5,279.5C 299.492,279.672 300.158,279.338 300.5,278.5 Z"/></g>
<g><path style="opacity:1" fill="#68c2b5" d="M 314.5,288.5 C 317.135,289.811 319.469,291.478 321.5,293.5C 335.294,304.588 345.294,318.421 351.5,335C 350.177,341.516 346.511,343.183 340.5,340C 338.641,338.442 337.141,336.609 336,334.5C 331.18,319.191 324.013,305.191 314.5,292.5C 314.5,291.167 314.5,289.833 314.5,288.5 Z"/></g>
<g><path style="opacity:1" fill="#3aa08d" d="M 215.5,294.5 C 219.705,305.885 220.539,317.552 218,329.5C 217.244,334.718 214.411,338.052 209.5,339.5C 207.575,339.41 206.408,338.41 206,336.5C 205.936,323.778 206.77,311.111 208.5,298.5C 211.276,297.911 213.61,296.578 215.5,294.5 Z"/></g>
<g><path style="opacity:1" fill="#f2e5d7" d="M 571.5,369.5 C 573.687,378.949 575.353,388.616 576.5,398.5C 573.453,399.145 571.287,398.145 570,395.5C 569.693,398.876 567.86,400.21 564.5,399.5C 564.838,396.843 564.171,394.51 562.5,392.5C 562.709,391.914 563.043,391.414 563.5,391C 561.606,389.921 561.273,388.587 562.5,387C 561.207,386.51 559.873,386.343 558.5,386.5C 558.5,384.833 558.5,383.167 558.5,381.5C 560.467,381.261 562.301,381.594 564,382.5C 563.626,380.231 563.626,377.898 564,375.5C 565.791,374.088 566.958,372.255 567.5,370C 568.793,369.51 570.127,369.343 571.5,369.5 Z"/></g>
<g><path style="opacity:1" fill="#f2e7d9" d="M 6.5,365.5 C 9.96559,366.109 10.9656,367.942 9.5,371C 10.448,371.483 11.448,371.649 12.5,371.5C 12.9191,374.026 13.0858,376.359 13,378.5C 15.5385,377.069 17.3718,377.736 18.5,380.5C 18.2811,382.915 16.9477,383.915 14.5,383.5C 14.5,384.5 14.5,385.5 14.5,386.5C 11.2149,386.107 8.3816,384.774 6,382.5C 5.5,382.833 5,383.167 4.5,383.5C 6.46072,387.007 9.46072,388.34 13.5,387.5C 12.5063,390.319 11.5063,393.153 10.5,396C 7.61677,396.795 6.11677,395.629 6,392.5C 4.98873,393.337 3.82207,393.67 2.5,393.5C 3.29073,391.309 3.29073,389.309 2.5,387.5C 3.44913,380.088 4.78247,372.755 6.5,365.5 Z"/></g>
<g><path style="opacity:1" fill="#f2e6d8" d="M 43.5,381.5 C 46.8333,381.5 48.5,383.167 48.5,386.5C 49.5,386.5 50.5,386.5 51.5,386.5C 51.9191,389.026 52.0858,391.359 52,393.5C 53.6995,392.594 55.5328,392.261 57.5,392.5C 57.5,394.167 57.5,395.833 57.5,397.5C 55.4247,397.302 53.4247,397.135 51.5,397C 53.4386,397.908 54.4386,399.408 54.5,401.5C 51.1628,400.254 47.8295,399.421 44.5,399C 47.0704,402.118 50.4037,403.285 54.5,402.5C 54.6399,404.124 53.9733,405.29 52.5,406C 54.5,410.333 53.1667,412 48.5,411C 47.8742,410.25 47.3742,409.416 47,408.5C 44.8649,411.456 42.5316,411.789 40,409.5C 39.3873,413.318 37.3873,414.318 34,412.5C 33.3162,411.216 33.4829,410.049 34.5,409C 32.3215,408.558 31.6548,407.558 32.5,406C 31.1509,405.228 30.3176,404.061 30,402.5C 28.9207,404.394 27.5874,404.727 26,403.5C 25.5065,401.866 25.3398,400.199 25.5,398.5C 26.552,398.649 27.552,398.483 28.5,398C 27.1667,397 27.1667,396 28.5,395C 25.7514,392.81 26.0847,391.143 29.5,390C 26.7558,386.538 27.7558,385.038 32.5,385.5C 33.1667,389.5 33.8333,389.5 34.5,385.5C 36.1998,385.374 37.6998,384.707 39,383.5C 40.6532,383.82 41.6532,384.82 42,386.5C 42.3519,384.753 42.8519,383.086 43.5,381.5 Z"/></g>
<g><path style="opacity:1" fill="#f2e6d8" d="M 528.5,384.5 C 530.167,384.5 531.833,384.5 533.5,384.5C 533.34,386.199 533.506,387.866 534,389.5C 534.347,387.82 535.347,386.82 537,386.5C 538.904,387.35 540.904,388.35 543,389.5C 545.011,386.908 546.844,387.075 548.5,390C 548.18,391.653 547.18,392.653 545.5,393C 546.448,393.483 547.448,393.649 548.5,393.5C 548.059,396.231 547.726,398.731 547.5,401C 551.181,402.892 551.348,405.058 548,407.5C 547.311,406.643 546.478,405.977 545.5,405.5C 544.232,407.304 543.565,409.304 543.5,411.5C 540.724,411.089 540.057,411.922 541.5,414C 538.865,417.366 536.698,416.866 535,412.5C 532.088,414.005 529.755,413.338 528,410.5C 527.517,411.448 527.351,412.448 527.5,413.5C 525.833,413.5 524.167,413.5 522.5,413.5C 522.422,410.748 522.255,408.082 522,405.5C 524.069,404.736 526.236,404.236 528.5,404C 530.559,402.815 530.726,401.648 529,400.5C 526.78,402.193 524.28,403.193 521.5,403.5C 521.36,401.876 522.027,400.71 523.5,400C 521.866,399.506 520.199,399.34 518.5,399.5C 518.5,397.833 518.5,396.167 518.5,394.5C 520.722,394.178 522.556,394.845 524,396.5C 524.684,395.216 524.517,394.049 523.5,393C 525.173,390.166 526.84,387.333 528.5,384.5 Z"/></g>
<g><path style="opacity:1" fill="#f2e6d8" d="M 88.5,395.5 C 85.051,405.73 81.051,415.73 76.5,425.5C 73.6108,425.001 72.9442,423.501 74.5,421C 72.3215,420.558 71.6548,419.558 72.5,418C 71.1509,417.228 70.3176,416.061 70,414.5C 68.3333,415.833 66.6667,415.833 65,414.5C 64.2046,411.617 65.3713,410.117 68.5,410C 68.0426,409.586 67.7093,409.086 67.5,408.5C 70.6088,408.128 73.6088,408.128 76.5,408.5C 76.0233,407.522 75.3567,406.689 74.5,406C 71.7737,405.818 69.1071,405.318 66.5,404.5C 67.09,403.201 68.09,402.368 69.5,402C 68.4258,401.261 67.7591,400.261 67.5,399C 70.2761,395.461 72.1095,395.961 73,400.5C 73.1095,397.354 74.4428,396.354 77,397.5C 78.9125,395.044 80.5792,395.378 82,398.5C 82.391,393.319 84.5577,392.319 88.5,395.5 Z"/></g>
<g><path style="opacity:1" fill="#f3e8db" d="M 500.5,422.5 C 495.764,414.352 492.097,405.686 489.5,396.5C 492.234,395.016 493.734,396.016 494,399.5C 494.368,398.09 495.201,397.09 496.5,396.5C 497.631,398.074 497.798,399.741 497,401.5C 494.368,403.515 494.202,405.515 496.5,407.5C 497.833,404.5 499.167,401.5 500.5,398.5C 502.871,399.013 505.204,399.347 507.5,399.5C 508.933,401.809 508.266,403.309 505.5,404C 506.448,404.483 507.448,404.649 508.5,404.5C 508.5,405.5 508.5,406.5 508.5,407.5C 506.143,407.337 503.81,407.503 501.5,408C 498.772,408.639 498.272,409.806 500,411.5C 502.022,410.214 504.189,409.214 506.5,408.5C 507.731,409.651 507.731,410.817 506.5,412C 508.573,412.118 509.907,413.118 510.5,415C 509.055,418.137 507.222,418.303 505,415.5C 504.64,417.608 503.973,419.608 503,421.5C 502.329,422.252 501.496,422.586 500.5,422.5 Z"/></g>
<g><path style="opacity:1" fill="#f2e6d7" d="M 133.5,446.5 C 132.668,436.524 132.334,426.524 132.5,416.5C 134.39,416.297 135.89,416.963 137,418.5C 137.494,416.866 137.66,415.199 137.5,413.5C 142.587,413.284 143.587,415.118 140.5,419C 142.047,419.333 143.38,418.833 144.5,417.5C 147.092,419.161 147.759,421.328 146.5,424C 148.311,423.125 150.311,422.791 152.5,423C 153.38,424.356 153.714,425.856 153.5,427.5C 151.801,427.34 150.134,427.506 148.5,428C 149.91,428.368 150.91,429.201 151.5,430.5C 151.349,434.235 150.682,438.068 149.5,442C 147.112,442.865 145.612,442.032 145,439.5C 143.419,442.553 141.086,443.22 138,441.5C 138.266,444.901 136.766,446.567 133.5,446.5 Z"/></g>
<g><path style="opacity:1" fill="#f3e7d9" d="M 445.5,437.5 C 445.815,441.371 445.482,445.038 444.5,448.5C 443.305,448.134 442.639,447.301 442.5,446C 443.187,444.838 443.353,443.672 443,442.5C 442.261,443.574 441.261,444.241 440,444.5C 438.346,443.347 436.846,442.013 435.5,440.5C 434.614,441.325 434.281,442.325 434.5,443.5C 429.507,443.003 428.507,440.836 431.5,437C 431.043,436.586 430.709,436.086 430.5,435.5C 433.167,434.833 435.833,434.167 438.5,433.5C 438,432.119 437,431.453 435.5,431.5C 433.432,431.967 431.432,432.634 429.5,433.5C 428.269,432.349 428.269,431.183 429.5,430C 425.536,427.995 425.536,426.162 429.5,424.5C 430.836,425.423 432.17,425.923 433.5,426C 432.663,424.989 432.33,423.822 432.5,422.5C 433.5,422.5 434.5,422.5 435.5,422.5C 435.5,421.5 435.5,420.5 435.5,419.5C 436.5,419.5 437.5,419.5 438.5,419.5C 438.759,415.932 440.759,414.599 444.5,415.5C 444.714,417.144 444.38,418.644 443.5,420C 444.516,420.519 445.182,421.353 445.5,422.5C 445.043,427.442 445.043,432.442 445.5,437.5 Z"/></g>
<g><path style="opacity:1" fill="#f3e7da" d="M 177.5,421.5 C 181.375,420.874 183.209,422.541 183,426.5C 183.561,425.978 184.228,425.645 185,425.5C 186.689,426.858 188.022,428.525 189,430.5C 193.27,428.572 194.77,429.739 193.5,434C 192.167,434.333 190.833,434.667 189.5,435C 190.91,435.368 191.91,436.201 192.5,437.5C 189.443,438.133 186.443,438.466 183.5,438.5C 183.709,439.086 184.043,439.586 184.5,440C 187.553,440.179 190.553,440.679 193.5,441.5C 193.4,443.993 193.067,446.493 192.5,449C 190.112,449.865 188.612,449.032 188,446.5C 186.741,450.223 184.408,451.223 181,449.5C 180.964,451.941 180.131,453.941 178.5,455.5C 176.227,454.625 175.227,452.958 175.5,450.5C 172.832,449.901 170.998,448.234 170,445.5C 168.556,447.155 166.722,447.822 164.5,447.5C 164.5,445.833 164.5,444.167 164.5,442.5C 165.873,442.657 167.207,442.49 168.5,442C 167.027,441.29 166.36,440.124 166.5,438.5C 168.342,438.723 170.175,439.057 172,439.5C 172.833,439.167 173.667,438.833 174.5,438.5C 174.167,438.167 173.833,437.833 173.5,437.5C 170.549,436.643 167.549,436.643 164.5,437.5C 164.36,435.876 165.027,434.71 166.5,434C 163.968,433.388 163.135,431.888 164,429.5C 166.454,427.987 168.121,428.654 169,431.5C 169.49,430.207 169.657,428.873 169.5,427.5C 171.638,427.297 173.305,426.297 174.5,424.5C 175.333,425.5 176.167,426.5 177,427.5C 177.495,425.527 177.662,423.527 177.5,421.5 Z"/></g>
<g><path style="opacity:1" fill="#f2e7d9" d="M 397.5,422.5 C 400.547,421.855 402.713,422.855 404,425.5C 404.718,424.549 405.551,424.383 406.5,425C 407.667,426.5 408.833,428 410,429.5C 411.699,428.594 413.533,428.261 415.5,428.5C 415.5,430.167 415.5,431.833 415.5,433.5C 411.162,433.622 410.828,433.955 414.5,434.5C 414.5,435.5 414.5,436.5 414.5,437.5C 411.518,437.173 408.685,437.173 406,437.5C 405.868,439.323 406.868,440.323 409,440.5C 411.158,439.549 413.325,439.049 415.5,439C 414.912,441.195 415.579,443.195 417.5,445C 415.74,449.452 413.574,449.619 411,445.5C 410.666,449.655 408.666,450.989 405,449.5C 405.423,451.387 405.256,453.387 404.5,455.5C 401.05,456.244 399.384,454.91 399.5,451.5C 397.007,451.024 395.007,449.69 393.5,447.5C 391.206,451.527 389.206,451.361 387.5,447C 388.093,445.118 389.427,444.118 391.5,444C 390.552,443.517 389.552,443.351 388.5,443.5C 386.744,439.728 385.744,435.728 385.5,431.5C 387.144,431.286 388.644,431.62 390,432.5C 390.483,431.552 390.649,430.552 390.5,429.5C 393.246,429.928 394.913,431.594 395.5,434.5C 398.753,437.338 399.753,436.671 398.5,432.5C 396.5,431.167 394.833,429.5 393.5,427.5C 395.259,426.246 396.759,426.579 398,428.5C 397.865,426.575 397.698,424.575 397.5,422.5 Z"/></g>
<g><path style="opacity:1" fill="#f2e7d9" d="M 221.5,427.5 C 223.5,427.5 225.5,427.5 227.5,427.5C 227.5,428.5 227.5,429.5 227.5,430.5C 228.833,430.5 230.167,430.5 231.5,430.5C 231.687,432.564 232.187,434.564 233,436.5C 237.058,433.411 238.725,434.411 238,439.5C 237.5,440 237,440.5 236.5,441C 238.32,444.403 238.987,447.903 238.5,451.5C 237.006,455.075 234.839,455.409 232,452.5C 230.535,454.915 228.368,455.915 225.5,455.5C 225.709,457.714 224.876,459.381 223,460.5C 220.039,457.539 217.039,454.539 214,451.5C 211.486,454.177 209.653,453.677 208.5,450C 208.82,448.347 209.82,447.347 211.5,447C 210.549,446.282 210.383,445.449 211,444.5C 213.699,444.336 216.532,444.17 219.5,444C 218.541,442.536 217.208,441.703 215.5,441.5C 213.125,442.583 210.792,442.583 208.5,441.5C 209.09,440.201 210.09,439.368 211.5,439C 210.552,438.517 209.552,438.351 208.5,438.5C 208.697,432.935 210.531,432.268 214,436.5C 214.219,435.062 214.719,433.729 215.5,432.5C 217.131,434.059 217.964,436.059 218,438.5C 221.11,441.507 222.11,440.84 221,436.5C 219.833,434.833 218.667,433.167 217.5,431.5C 218.517,428.972 219.684,428.972 221,431.5C 221.49,430.207 221.657,428.873 221.5,427.5 Z"/></g>
<g><path style="opacity:1" fill="#f3e7da" d="M 355.5,427.5 C 357.167,427.5 358.833,427.5 360.5,427.5C 360.302,429.575 360.135,431.575 360,433.5C 363.971,429.381 366.304,430.381 367,436.5C 368.444,434.845 370.278,434.178 372.5,434.5C 372.5,436.167 372.5,437.833 372.5,439.5C 368.162,439.622 367.828,439.955 371.5,440.5C 371.5,441.5 371.5,442.5 371.5,443.5C 369.266,443.62 367.099,443.287 365,442.5C 361.903,444.315 362.403,445.315 366.5,445.5C 368.512,445.16 370.512,444.827 372.5,444.5C 372.67,445.822 372.337,446.989 371.5,448C 373.155,449.444 373.822,451.278 373.5,453.5C 371.234,453.859 369.401,453.192 368,451.5C 367.691,452.766 367.191,453.933 366.5,455C 363.195,456.035 360.528,457.869 358.5,460.5C 356.085,460.281 355.085,458.948 355.5,456.5C 352.594,456.097 350.761,454.431 350,451.5C 349.388,454.032 347.888,454.865 345.5,454C 344.62,452.644 344.286,451.144 344.5,449.5C 348.838,449.378 349.172,449.045 345.5,448.5C 345.5,447.5 345.5,446.5 345.5,445.5C 348.518,445.665 351.518,445.498 354.5,445C 354.167,444.667 353.833,444.333 353.5,444C 350.132,443.457 346.799,443.624 343.5,444.5C 343.36,442.876 344.027,441.71 345.5,441C 344.552,440.517 343.552,440.351 342.5,440.5C 342.284,435.413 344.118,434.413 348,437.5C 348.514,434.972 349.68,432.805 351.5,431C 352.996,430.493 354.163,430.993 355,432.5C 355.494,430.866 355.66,429.199 355.5,427.5 Z"/></g>
<g><path style="opacity:1" fill="#f2e6d8" d="M 266.5,430.5 C 269.86,429.79 271.693,431.124 272,434.5C 272.718,433.549 273.551,433.383 274.5,434C 275.863,435.945 276.697,438.112 277,440.5C 278.099,437.961 279.766,437.295 282,438.5C 281.89,441.861 281.39,444.861 280.5,447.5C 278.5,446.833 276.5,446.167 274.5,445.5C 271.924,447.509 272.424,448.842 276,449.5C 278.199,448.355 280.365,448.355 282.5,449.5C 281.404,451.513 281.737,453.346 283.5,455C 283.266,456.732 282.266,457.566 280.5,457.5C 278.575,457.41 277.408,456.41 277,454.5C 276.552,458.803 274.385,460.136 270.5,458.5C 270.251,459.582 270.085,460.915 270,462.5C 268.644,463.38 267.144,463.714 265.5,463.5C 265.5,462.167 265.5,460.833 265.5,459.5C 262.985,458.836 260.819,457.503 259,455.5C 257.604,457.527 255.938,457.86 254,456.5C 254.242,453.418 254.742,450.585 255.5,448C 253.246,446.946 252.913,445.446 254.5,443.5C 252.995,442.158 252.328,440.492 252.5,438.5C 254.722,438.178 256.556,438.845 258,440.5C 258.49,439.207 258.657,437.873 258.5,436.5C 259.5,436.5 260.5,436.5 261.5,436.5C 261.281,435.325 261.614,434.325 262.5,433.5C 263.814,434.313 264.981,435.313 266,436.5C 265.386,434.46 265.552,432.46 266.5,430.5 Z"/></g>
<g><path style="opacity:1" fill="#f2e6d8" d="M 310.5,430.5 C 313.86,429.79 315.693,431.124 316,434.5C 316.718,433.549 317.551,433.383 318.5,434C 319.863,435.945 320.697,438.112 321,440.5C 323.428,436.433 325.262,436.6 326.5,441C 326.245,442.326 325.578,443.326 324.5,444C 325.337,445.011 325.67,446.178 325.5,447.5C 322.951,447.613 320.618,446.946 318.5,445.5C 315.924,447.509 316.424,448.842 320,449.5C 322.199,448.355 324.365,448.355 326.5,449.5C 326.167,450.167 325.833,450.833 325.5,451.5C 328.698,455.759 327.698,457.592 322.5,457C 321.874,456.25 321.374,455.416 321,454.5C 320.624,458.442 318.458,460.109 314.5,459.5C 314.5,460.833 314.5,462.167 314.5,463.5C 312.801,463.66 311.134,463.494 309.5,463C 308.167,462 308.167,461 309.5,460C 306.184,459.545 304.018,457.712 303,454.5C 301.234,458.378 299.401,458.378 297.5,454.5C 297.781,452.222 299.115,451.055 301.5,451C 300.376,450.751 299.376,450.251 298.5,449.5C 297.884,447.556 297.884,445.39 298.5,443C 295.844,440.771 296.177,438.938 299.5,437.5C 300.799,438.09 301.632,439.09 302,440.5C 302.49,439.207 302.657,437.873 302.5,436.5C 303.5,436.5 304.5,436.5 305.5,436.5C 305.281,435.325 305.614,434.325 306.5,433.5C 307.814,434.313 308.981,435.313 310,436.5C 309.386,434.46 309.552,432.46 310.5,430.5 Z"/></g>
<g><path style="opacity:0.954" fill="#f4ebdf" d="M 23.5,452.5 C 17.8084,451.486 12.8084,449.152 8.5,445.5C 10.3229,441.333 12.3229,437.333 14.5,433.5C 18.5768,435.844 22.5768,438.177 26.5,440.5C 24.8706,444.351 23.8706,448.351 23.5,452.5 Z"/></g>
<g><path style="opacity:0.951" fill="#f4eadf" d="M 571.5,443.5 C 567.032,447.734 561.699,450.401 555.5,451.5C 555.283,447.392 554.783,443.392 554,439.5C 558.083,437.543 561.917,435.21 565.5,432.5C 566.75,436.673 568.75,440.339 571.5,443.5 Z"/></g>
<g><path style="opacity:0.966" fill="#f4ebdf" d="M 41.5,456.5 C 37.426,456.218 33.426,455.552 29.5,454.5C 30.1726,449.99 31.3393,445.657 33,441.5C 36.9711,442.524 40.8044,443.857 44.5,445.5C 43.1191,449.075 42.1191,452.742 41.5,456.5 Z"/></g>
<g><path style="opacity:0.808" fill="#f3eadf" d="M 521.5,442.5 C 523.89,442.913 526.223,443.579 528.5,444.5C 530.261,448.303 531.261,452.303 531.5,456.5C 529.91,456.372 528.577,455.705 527.5,454.5C 526.546,449.925 524.546,445.925 521.5,442.5 Z"/></g>
<g><path style="opacity:0.967" fill="#f3eade" d="M 550.5,453.5 C 546.196,454.628 541.862,455.628 537.5,456.5C 537.732,452.196 536.732,448.196 534.5,444.5C 538.827,443.468 543.161,442.968 547.5,443C 548.731,446.423 549.731,449.923 550.5,453.5 Z"/></g>
<g><path style="opacity:0.922" fill="#f4ebe0" d="M 156.5,483.5 C 158.117,484.038 159.784,484.371 161.5,484.5C 161.442,490.919 162.109,497.253 163.5,503.5C 161.537,502.04 159.704,500.373 158,498.5C 156.675,493.599 156.175,488.599 156.5,483.5 Z"/></g>
<g><path style="opacity:0.966" fill="#f3eade" d="M 414.5,502.5 C 410.336,505.334 405.669,507.001 400.5,507.5C 400.171,501.794 400.505,496.128 401.5,490.5C 406.091,488.853 410.757,487.519 415.5,486.5C 415.528,491.862 415.194,497.195 414.5,502.5 Z"/></g>
<g><path style="opacity:0.974" fill="#f4ebe0" d="M 188.5,510.5 C 182.294,509.583 176.294,508.249 170.5,506.5C 168.364,500.35 167.531,494.017 168,487.5C 173.923,490.023 180.09,491.689 186.5,492.5C 186.379,498.631 187.046,504.631 188.5,510.5 Z"/></g>
<g><path style="opacity:0.973" fill="#f4ebdf" d="M 396.5,508.5 C 389.444,510.678 382.11,512.011 374.5,512.5C 374.66,507.018 375.66,501.684 377.5,496.5C 383.376,494.707 389.376,493.373 395.5,492.5C 395.63,496.868 395.297,501.202 394.5,505.5C 394.64,507.03 395.307,508.03 396.5,508.5 Z"/></g>
<g><path style="opacity:0.97" fill="#f4ebe0" d="M 212.5,512.5 C 206.072,512.291 199.739,511.624 193.5,510.5C 192.806,505.195 192.472,499.862 192.5,494.5C 198.509,494.701 204.509,495.034 210.5,495.5C 211.167,501.167 211.833,506.833 212.5,512.5 Z"/></g>
<g><path style="opacity:0.979" fill="#f4ebe0" d="M 264.5,514.5 C 258.167,514.5 251.833,514.5 245.5,514.5C 245.593,508.137 245.26,501.804 244.5,495.5C 251.167,495.5 257.833,495.5 264.5,495.5C 264.5,501.833 264.5,508.167 264.5,514.5 Z"/></g>
<g><path style="opacity:0.984" fill="#f4ebe0" d="M 290.5,515.5 C 287.5,515.5 284.5,515.5 281.5,515.5C 277.702,514.517 273.702,514.183 269.5,514.5C 269.5,508.167 269.5,501.833 269.5,495.5C 276.833,495.5 284.167,495.5 291.5,495.5C 291.287,502.174 290.954,508.841 290.5,515.5 Z"/></g>
<g><path style="opacity:0.979" fill="#f4ebdf" d="M 239.5,514.5 C 232.021,513.936 224.687,513.269 217.5,512.5C 218.06,507.351 218.06,502.018 217.5,496.5C 224.5,496.5 231.5,496.5 238.5,496.5C 238.966,502.491 239.299,508.491 239.5,514.5 Z"/></g>
<g><path style="opacity:0.973" fill="#f3eadf" d="M 340.5,515.5 C 325.5,515.5 310.5,515.5 295.5,515.5C 297.465,509.23 297.798,502.896 296.5,496.5C 303.126,495.947 309.792,495.947 316.5,496.5C 316.066,502.556 316.066,508.556 316.5,514.5C 317.298,512.922 317.798,511.256 318,509.5C 318.202,511.256 318.702,512.922 319.5,514.5C 320.718,508.854 321.718,503.187 322.5,497.5C 329.167,497.5 335.833,497.5 342.5,497.5C 342.623,503.609 341.956,509.609 340.5,515.5 Z"/></g>
<g><path style="opacity:0.983" fill="#f4ebdf" d="M 367.5,513.5 C 360.529,514.29 353.529,514.623 346.5,514.5C 348.02,508.975 348.687,503.309 348.5,497.5C 355.876,497.726 363.209,497.392 370.5,496.5C 369.977,502.256 368.977,507.922 367.5,513.5 Z"/></g>
</svg>
